<?xml version="1.0" standalone="no"?>
<!DOCTYPE svg PUBLIC "-//W3C//DTD SVG 1.1//EN" "http://www.w3.org/Graphics/SVG/1.1/DTD/svg11.dtd" >
<svg xmlns="http://www.w3.org/2000/svg">
<metadata>Generated by IcoMoon</metadata>
<defs>
<font id="icomoon" horiz-adv-x="1024">
<font-face units-per-em="1024" ascent="960" descent="-64" />
<missing-glyph horiz-adv-x="1024" />
<glyph unicode="&#x20;" d="" />
<glyph unicode="&#x6b;" glyph-name="direct-normal4" d="M640-10.667h-256c-231.68 0-330.667 98.987-330.667 330.667v256c0 231.68 98.987 330.667 330.667 330.667h256c231.68 0 330.667-98.987 330.667-330.667v-256c0-231.68-98.987-330.667-330.667-330.667zM384 842.667c-196.693 0-266.667-69.973-266.667-266.667v-256c0-196.693 69.973-266.667 266.667-266.667h256c196.693 0 266.667 69.973 266.667 266.667v256c0 196.693-69.973 266.667-266.667 266.667h-256zM587.102 202.667h-150.613c-46.932 0-84.052 23.040-104.959 64.853l-37.973 76.373c-8.96 18.347-27.307 29.44-47.787 29.44h-160.853c-17.493 0-32 14.507-32 32s14.933 32 32.427 32h160.427c44.8 0 84.907-24.747 104.96-64.853l37.973-76.373c9.813-19.627 25.6-29.44 47.785-29.44h150.613c20.48 0 38.827 11.093 47.787 29.44l37.973 76.373c20.053 40.107 60.16 64.853 104.96 64.853h159.573c17.493 0 32-14.507 32-32s-14.507-32-32-32h-159.573c-20.48 0-38.827-11.093-47.787-29.44l-37.973-76.373c-20.053-40.107-60.16-64.853-104.96-64.853z" />
<glyph unicode="&#x7b;" glyph-name="document-download4" d="M384 202.667c-4.267 0-8.107 0.853-12.373 2.56-11.947 4.693-19.627 16.64-19.627 29.44v256c0 17.493 14.507 32 32 32s32-14.507 32-32v-178.773l30.72 30.72c12.373 12.373 32.853 12.373 45.227 0s12.373-32.853 0-45.227l-85.333-85.333c-5.973-5.973-14.507-9.387-22.613-9.387zM383.977 202.671c-8.107 0-16.213 2.987-22.613 9.387l-85.333 85.333c-12.373 12.373-12.373 32.853 0 45.227s32.853 12.373 45.227 0l85.333-85.333c12.373-12.373 12.373-32.853 0-45.227-6.4-6.4-14.507-9.387-22.613-9.387zM640-10.667h-256c-231.68 0-330.667 98.987-330.667 330.667v256c0 231.68 98.987 330.667 330.667 330.667h213.333c17.493 0 32-14.507 32-32s-14.507-32-32-32h-213.333c-196.693 0-266.667-69.973-266.667-266.667v-256c0-196.693 69.973-266.667 266.667-266.667h256c196.693 0 266.667 69.973 266.667 266.667v213.333c0 17.493 14.507 32 32 32s32-14.507 32-32v-213.333c0-231.68-98.987-330.667-330.667-330.667zM938.667 501.333h-170.667c-145.92 0-202.667 56.747-202.667 202.667v170.667c0 12.8 7.68 24.747 19.627 29.44 11.947 5.12 25.6 2.133 34.987-6.827l341.333-341.333c8.96-8.96 11.947-23.040 6.827-34.987s-16.64-19.627-29.44-19.627zM629.333 797.44v-93.44c0-110.080 28.587-138.667 138.667-138.667h93.44l-232.107 232.107z" />
<glyph unicode="&#x7c;" glyph-name="document-favorite4" d="M640-10.667h-256c-231.68 0-330.667 98.987-330.667 330.667v256c0 231.68 98.987 330.667 330.667 330.667h213.333c17.493 0 32-14.507 32-32s-14.507-32-32-32h-213.333c-196.693 0-266.667-69.973-266.667-266.667v-256c0-196.693 69.973-266.667 266.667-266.667h256c196.693 0 266.667 69.973 266.667 266.667v213.333c0 17.493 14.507 32 32 32s32-14.507 32-32v-213.333c0-231.68-98.987-330.667-330.667-330.667zM938.667 501.333h-170.667c-145.92 0-202.667 56.747-202.667 202.667v170.667c0 12.8 7.68 24.747 19.627 29.44 11.947 5.12 25.6 2.133 34.987-6.827l341.333-341.333c8.96-8.96 11.947-23.040 6.827-34.987s-16.64-19.627-29.44-19.627zM629.333 797.44v-93.44c0-110.080 28.587-138.667 138.667-138.667h93.44l-232.107 232.107zM401.894 151.462c-37.12 0-123.307 45.227-149.76 128-18.347 57.173 2.987 131.84 69.12 153.173 27.733 8.96 57.173 5.12 80.64-9.387 23.040 14.507 52.908 18.347 81.068 9.387 66.133-21.333 87.467-96 69.12-153.173-26.88-84.48-117.333-128-150.188-128zM312.72 298.662c17.92-55.893 78.507-82.347 89.6-83.2 11.947 1.28 71.681 30.72 88.321 83.2 8.96 28.16 0 64-27.733 72.96-11.52 3.84-27.307 1.707-34.56-9.387-5.974-8.96-15.361-14.080-26.028-14.507-11.52 0-20.48 4.693-26.453 13.227-8.96 12.373-24.32 14.080-35.413 10.24-27.307-8.533-36.693-44.373-27.733-72.533z" />
<glyph unicode="&#x11e;" glyph-name="instagram4" d="M640-10.667h-256c-231.68 0-330.667 98.987-330.667 330.667v256c0 231.68 98.987 330.667 330.667 330.667h256c231.68 0 330.667-98.987 330.667-330.667v-256c0-231.68-98.987-330.667-330.667-330.667zM384 842.667c-196.693 0-266.667-69.973-266.667-266.667v-256c0-196.693 69.973-266.667 266.667-266.667h256c196.693 0 266.667 69.973 266.667 266.667v256c0 196.693-69.973 266.667-266.667 266.667h-256zM512 266.667c-99.84 0-181.333 81.493-181.333 181.333s81.493 181.333 181.333 181.333c99.84 0 181.333-81.493 181.333-181.333s-81.493-181.333-181.333-181.333zM512 565.333c-64.853 0-117.333-52.48-117.333-117.333s52.48-117.333 117.333-117.333c64.853 0 117.333 52.48 117.333 117.333s-52.48 117.333-117.333 117.333zM725.333 640.004c-5.547 0-11.093 1.28-16.213 3.413s-9.813 5.12-14.080 8.96c-3.84 4.267-7.253 8.96-9.387 14.080s-2.987 10.667-2.987 16.213c0 5.547 0.853 11.093 2.987 16.213 2.56 5.547 5.547 9.813 9.387 14.080 2.133 1.707 4.267 3.84 6.4 5.12 2.56 1.707 5.12 2.987 7.68 3.84 2.56 1.28 5.12 2.133 8.107 2.56 13.653 2.987 28.16-1.707 38.4-11.52 3.84-4.267 6.827-8.533 8.96-14.080 2.133-5.12 3.413-10.667 3.413-16.213s-1.28-11.093-3.413-16.213c-2.133-5.12-5.12-9.813-8.96-14.080-4.267-3.84-8.96-6.827-14.080-8.96s-10.667-3.413-16.213-3.413z" />
<glyph unicode="&#x137;" glyph-name="link-214" d="M704.009 181.333h-64.427c-17.493 0-32 14.507-32 32s14.507 32 32 32h64.427c111.787 0 202.667 90.88 202.667 202.667s-90.88 202.667-202.667 202.667h-64c-17.493 0-32 14.507-32 32s14.080 32 32 32h64c147.2 0 266.667-119.467 266.667-266.667s-119.467-266.667-266.667-266.667zM384 181.333h-64c-147.2 0-266.667 119.467-266.667 266.667s119.467 266.667 266.667 266.667h64c17.493 0 32-14.507 32-32s-14.507-32-32-32h-64c-111.787 0-202.667-90.88-202.667-202.667s90.88-202.667 202.667-202.667h64c17.493 0 32-14.507 32-32s-14.507-32-32-32zM682.667 416h-341.333c-17.493 0-32 14.507-32 32s14.507 32 32 32h341.333c17.493 0 32-14.507 32-32s-14.507-32-32-32z" />
<glyph unicode="&#x1a8;" glyph-name="next4" d="M269.216 102.831c-24.32 0-48.213 6.4-70.4 19.2-44.373 25.6-70.4 70.827-70.4 122.027v408.32c0 50.773 26.453 96.426 70.4 122.026 44.373 25.6 96.853 25.6 140.8 0l353.709-203.947c43.947-25.6 70.396-71.253 70.396-122.027s-26.449-96.427-70.396-122.027l-353.709-203.947c-22.187-13.227-46.080-19.627-70.4-19.627zM269.216 729.178c-13.227 0-26.453-3.413-38.4-10.24-23.893-14.080-38.4-38.827-38.4-66.56v-408.32c0-27.733 14.506-52.48 38.4-66.56 23.893-13.653 52.906-14.080 76.8 0l353.709 203.947c23.893 14.080 38.396 38.827 38.396 66.56s-14.502 52.48-38.396 66.56l-353.709 203.947c-11.947 6.827-25.173 10.667-38.4 10.667zM863.582 152.307c-17.493 0-32 14.507-32 32v527.36c0 17.493 14.507 32 32 32s32-14.507 32-32v-527.36c0-17.493-14.080-32-32-32z" />
<glyph unicode="&#x1cf;" glyph-name="play4" d="M335.787 52.053c-33.707 0-65.707 8.107-93.867 24.32-66.56 38.4-103.253 116.48-103.253 219.307v304.214c0 103.253 36.693 180.907 103.253 219.307s152.32 31.147 241.92-20.48l263.253-151.893c89.173-51.627 138.667-122.454 138.667-199.254s-49.067-147.627-138.667-199.253l-263.253-151.893c-51.627-29.44-101.973-44.373-148.053-44.373zM335.787 779.947c-23.040 0-43.52-5.12-61.867-15.787-46.080-26.453-71.253-84.907-71.253-164.267v-303.787c0-79.36 25.173-137.387 71.253-164.267s109.227-19.2 177.92 20.48l263.253 151.893c68.693 39.68 106.667 90.453 106.667 143.787s-37.973 104.107-106.667 143.787l-263.253 151.893c-41.813 23.893-81.067 36.267-116.053 36.267z" />
<glyph unicode="&#x216;" glyph-name="rulerpen4" d="M788.083-10.667h-170.667c-103.253 0-160 56.747-160 160v597.333c0 103.253 56.747 160 160 160h170.667c103.253 0 160-56.747 160-160v-597.333c0-103.253-57.173-160-160-160zM617.417 842.667c-67.413 0-96-28.587-96-96v-597.333c0-67.413 28.587-96 96-96h170.667c67.413 0 96 28.587 96 96v597.333c0 67.413-28.587 96-96 96h-170.667zM702.75 672h-213.333c-17.493 0-32 14.507-32 32s14.507 32 32 32h213.333c17.493 0 32-14.507 32-32s-14.507-32-32-32zM660.083 160h-170.667c-17.493 0-32 14.507-32 32s14.507 32 32 32h170.667c17.493 0 32-14.507 32-32s-14.507-32-32-32zM702.758 330.658c-0.427 0-0.427 0 0 0l-213.76 2.133c-17.493 0-32 14.507-31.573 32.427 0 17.493 14.507 31.573 32 31.573 0 0 0 0 0.427 0l213.333-2.133c17.493 0 32-14.507 31.573-32.427-0.427-17.493-14.507-31.573-32-31.573zM617.417 501.333h-128c-17.493 0-32 14.507-32 32s14.507 32 32 32h128c17.493 0 32-14.507 32-32s-14.507-32-32-32zM234.21-9.387c-38.827 0-75.52 23.893-100.693 65.707l-34.987 58.027c-12.8 21.333-22.613 56.32-22.613 81.067v553.387c0 87.040 70.827 157.867 157.867 157.867s157.867-70.827 157.867-157.867v-552.96c0-24.747-9.813-59.733-22.613-81.067l-34.987-58.027c-24.32-42.24-61.013-66.133-99.84-66.133zM234.21 842.667c-51.627 0-93.867-42.24-93.867-93.867v-552.96c0-13.227 6.4-36.693 13.227-48.213l34.987-58.027c13.227-22.187 29.867-34.56 45.653-34.56s32.427 12.8 45.653 34.56l34.987 58.027c6.827 11.52 13.227 34.987 13.227 48.213v552.96c0 51.627-42.24 93.867-93.867 93.867zM360.077 629.333h-252.16c-17.493 0-32 14.507-32 32s14.507 32 32 32h252.16c17.493 0 32-14.507 32-32s-14.507-32-32-32z" />
<glyph unicode="&#x229;" glyph-name="search-normal-14" d="M490.667 32c-241.067 0-437.333 196.267-437.333 437.333s196.267 437.333 437.333 437.333c241.067 0 437.333-196.267 437.333-437.333s-196.267-437.333-437.333-437.333zM490.667 842.667c-206.080 0-373.333-167.68-373.333-373.333s167.253-373.333 373.333-373.333c206.080 0 373.333 167.68 373.333 373.333s-167.253 373.333-373.333 373.333zM938.684-10.662c-8.107 0-16.213 2.987-22.613 9.387l-85.333 85.333c-12.373 12.373-12.373 32.853 0 45.227s32.853 12.373 45.227 0l85.333-85.333c12.373-12.373 12.373-32.853 0-45.227-6.4-6.4-14.507-9.387-22.613-9.387z" />
<glyph unicode="&#x262;" glyph-name="sms4" d="M725.333 53.333h-426.667c-155.733 0-245.333 89.6-245.333 245.333v298.667c0 155.733 89.6 245.333 245.333 245.333h426.667c155.733 0 245.333-89.6 245.333-245.333v-298.667c0-155.733-89.6-245.333-245.333-245.333zM298.667 778.667c-122.027 0-181.333-59.307-181.333-181.333v-298.667c0-122.027 59.307-181.333 181.333-181.333h426.667c122.027 0 181.333 59.307 181.333 181.333v298.667c0 122.027-59.307 181.333-181.333 181.333h-426.667zM511.949 410.88c-35.84 0-72.107 11.093-99.84 33.707l-133.547 106.668c-13.653 11.093-16.213 31.147-5.12 44.8s31.147 16.213 44.8 5.12l133.546-106.668c32.427-26.027 87.467-26.027 119.893 0l133.547 106.668c13.653 11.093 34.133 8.96 44.8-5.12 11.093-13.653 8.96-34.133-5.12-44.8l-133.547-106.668c-27.307-22.613-63.573-33.707-99.413-33.707z" />
<glyph unicode="&#x2c0;" glyph-name="video-play4" d="M640-10.667h-256c-231.68 0-330.667 98.987-330.667 330.667v256c0 231.68 98.987 330.667 330.667 330.667h256c231.68 0 330.667-98.987 330.667-330.667v-256c0-231.68-98.987-330.667-330.667-330.667zM384 842.667c-196.693 0-266.667-69.973-266.667-266.667v-256c0-196.693 69.973-266.667 266.667-266.667h256c196.693 0 266.667 69.973 266.667 266.667v256c0 196.693-69.973 266.667-266.667 266.667h-256zM916.459 624.646h-808.959c-17.493 0-32 14.507-32 32s14.080 32 32 32h808.959c17.493 0 32-14.507 32-32s-14.080-32-32-32zM363.5 630.619c-17.493 0-32 14.507-32 32v207.36c0 17.493 14.507 32 32 32s32-14.507 32-32v-207.36c0-17.493-14.507-32-32-32zM660.501 649.819c-17.493 0-32 14.507-32 32v188.16c0 17.493 14.507 32 32 32s32-14.507 32-32v-188.16c0-17.92-14.080-32-32-32zM473.173 186.889c-15.36 0-29.867 3.84-43.093 11.093-29.013 17.067-46.080 51.2-46.080 94.293v102.4c0 43.093 17.067 77.653 46.507 94.72s67.84 14.507 104.96-7.253l88.747-51.2c37.12-21.333 58.88-53.333 58.88-87.467s-21.76-66.133-59.307-87.467l-88.747-51.2c-20.48-11.947-41.813-17.92-61.867-17.92zM473.6 436.489c-4.267 0-8.107-0.853-11.093-2.56-8.96-5.12-14.507-19.627-14.507-39.253v-102.4c0-19.2 5.547-33.707 14.507-39.253 8.96-5.12 24.32-2.56 40.96 7.253l88.747 51.2c16.64 9.813 26.88 21.76 26.88 32s-9.813 22.187-26.88 32l-88.747 51.2c-11.093 6.4-21.76 9.813-29.867 9.813z" />
<glyph unicode="&#x644;" glyph-name="video-square5" d="M690.773 874.667h-357.547c-155.307 0-247.893-92.587-247.893-247.893v-357.12c0-155.733 92.587-248.32 247.893-248.32h357.12c155.307 0 247.893 92.587 247.893 247.893v357.547c0.427 155.307-92.16 247.893-247.467 247.893zM625.493 374.187l-109.227-63.147c-70.4-40.533-128-7.253-128 73.813v126.293c0 81.493 57.6 114.347 128 73.813l109.227-63.147c70.4-40.533 70.4-107.093 0-147.627z" />
<glyph unicode="&#x201e;" glyph-name="document-text-14" d="M640-10.667h-256c-231.68 0-330.667 98.987-330.667 330.667v256c0 231.68 98.987 330.667 330.667 330.667h213.333c17.493 0 32-14.507 32-32s-14.507-32-32-32h-213.333c-196.693 0-266.667-69.973-266.667-266.667v-256c0-196.693 69.973-266.667 266.667-266.667h256c196.693 0 266.667 69.973 266.667 266.667v213.333c0 17.493 14.507 32 32 32s32-14.507 32-32v-213.333c0-231.68-98.987-330.667-330.667-330.667zM938.667 501.333h-170.667c-145.92 0-202.667 56.747-202.667 202.667v170.667c0 12.8 7.68 24.747 19.627 29.44 11.947 5.12 25.6 2.133 34.987-6.827l341.333-341.333c8.96-8.96 11.947-23.040 6.827-34.987s-16.64-19.627-29.44-19.627zM629.333 797.44v-93.44c0-110.080 28.587-138.667 138.667-138.667h93.44l-232.107 232.107zM554.667 373.333h-256c-17.493 0-32 14.507-32 32s14.507 32 32 32h256c17.493 0 32-14.507 32-32s-14.507-32-32-32zM469.333 202.667h-170.667c-17.493 0-32 14.507-32 32s14.507 32 32 32h170.667c17.493 0 32-14.507 32-32s-14.507-32-32-32z" />
<glyph unicode="&#xe900;" glyph-name="whatsapp" d="M85.297-10.594c-8.533 0-16.641 3.413-22.615 9.387-8.107 8.107-11.518 20.053-8.531 31.147l53.76 200.96c-35.84 66.56-54.615 141.653-54.615 217.6 0 253.014 205.653 458.668 458.668 458.668 253.013 0 458.667-205.653 458.667-458.668s-205.653-458.667-458.667-458.667c-77.227 0-152.747 19.2-220.16 55.893l-197.974-55.040c-2.987-0.853-5.547-1.28-8.534-1.28zM296.071 111.859c5.547 0 11.094-1.707 16.214-4.267 60.16-35.413 129.281-54.187 199.681-54.187 217.6 0 394.667 177.067 394.667 394.667s-177.067 394.667-394.667 394.667c-217.602 0-394.668-177.067-394.668-394.667 0-69.547 18.346-137.387 52.906-197.12 4.267-7.253 5.548-16.213 3.414-24.32l-42.667-159.573 157.013 43.52c2.56 0.853 5.547 1.28 8.107 1.28zM628.915 202.227c-26.453 0-53.76 5.973-82.347 18.347-26.88 11.52-53.76 26.88-79.787 46.080-25.6 18.773-50.77 40.107-73.81 63.147-23.040 23.467-44.375 48.213-63.149 73.813-19.2 26.88-34.56 53.333-45.653 79.36-11.947 28.16-17.92 55.894-17.92 82.347 0 18.773 3.412 36.693 9.812 53.333 6.827 17.493 17.92 33.28 32.427 46.934 27.307 26.88 66.562 36.692 97.708 21.759 10.667-4.693 19.627-12.373 26.455-22.613l49.489-69.545c5.12-6.827 8.964-14.080 11.951-21.333 3.413-8.533 5.547-17.068 5.547-25.175 0-11.093-2.991-22.187-8.964-32-3.84-6.4-9.387-14.080-16.64-21.333l-5.547-5.973c2.56-3.413 5.547-7.68 10.24-12.8 8.96-10.24 18.773-21.333 29.44-32 10.667-10.24 21.333-20.48 32-29.44 5.12-4.267 9.391-7.68 12.804-9.813l5.969 5.973c7.68 7.68 15.364 13.653 23.044 17.493 14.080 8.96 35.836 11.093 55.036 2.987 6.827-2.56 13.653-6.4 20.907-11.52l71.258-50.347c9.813-6.827 17.489-16.213 22.609-26.88 4.267-10.667 5.978-20.053 5.978-29.867 0-12.8-2.991-25.173-8.538-37.12-5.547-11.093-11.947-20.907-19.627-29.867-13.653-14.933-29.436-26.027-46.502-33.28s-35.418-10.667-54.191-10.667zM375.049 629.748c-2.56 0-11.091 0-21.758-10.667-8.107-7.68-13.655-15.787-17.495-24.747s-5.547-19.2-5.547-29.44c0-17.92 4.266-37.12 12.8-57.6 8.96-21.333 22.188-43.947 38.401-66.56 16.64-22.613 35.413-45.227 56.322-66.133 20.907-20.48 43.089-39.68 66.129-56.747 22.187-16.213 44.804-29.013 67.418-38.827 32.427-14.080 62.289-17.493 86.609-7.253 8.533 3.413 16.213 9.387 23.893 17.067 3.84 4.267 6.831 8.533 9.391 14.080 1.28 2.987 2.129 6.4 2.129 9.387 0 0.853 0 2.133-1.28 4.693l-71.253 49.493c-2.987 2.133-5.973 3.84-8.533 4.693-1.707-0.853-4.262-2.133-8.956-6.827l-16.213-16.213c-12.373-12.373-32-15.787-47.787-10.24l-7.68 3.413c-9.813 5.12-20.911 12.8-33.284 23.467-11.947 10.24-23.462 20.907-35.836 32.853-11.947 12.373-22.613 23.893-32.853 35.84-11.095 13.227-18.775 23.893-23.895 32.853l-4.692 11.093c-1.28 4.267-1.708 8.96-1.708 13.227 0 11.947 4.268 22.613 12.375 31.147l16.215 16.64c4.693 4.693 6.4 7.253 7.253 8.96-1.28 2.987-2.987 5.547-5.12 8.534l-49.923 70.4-5.12 3.414z" />
<glyph unicode="&#xe901;" glyph-name="crown" d="M725.333 21.333h-426.667c-17.493 0-32 14.507-32 32s14.507 32 32 32h426.667c17.493 0 32-14.507 32-32s-14.507-32-32-32zM868.275 724.52l-170.667-122.027c-22.613-16.213-55.040-6.4-64.853 19.627l-80.64 215.040c-13.653 37.12-66.133 37.12-79.787 0l-81.066-214.613c-9.813-26.453-41.813-36.267-64.427-19.627l-170.667 122.027c-34.133 23.893-79.36-9.813-65.28-49.493l177.493-497.068c5.973-17.067 22.187-28.16 40.107-28.16h406.612c17.92 0 34.133 11.52 40.107 28.16l177.493 497.068c14.507 39.68-30.72 73.387-64.427 49.067zM618.675 330.705h-213.332c-17.493 0-32 14.507-32 32s14.507 32 32 32h213.332c17.493 0 32-14.507 32-32s-14.507-32-32-32z" />
<glyph unicode="&#xe902;" glyph-name="text" d="M893.867 783.787c-12.373 17.92-28.16 33.707-46.080 46.080-40.533 29.44-93.44 44.8-157.013 44.8h-357.547c-8.533 0-17.067-0.427-25.173-1.28-139.947-8.96-222.72-99.84-222.72-246.613v-357.547c0-63.573 15.36-116.48 44.8-157.013 12.373-17.92 28.16-33.707 46.080-46.080 34.987-25.6 79.36-40.533 131.84-43.947 8.107-0.427 16.64-0.853 25.173-0.853h357.547c155.307 0 247.893 92.587 247.893 247.893v357.547c0 63.573-15.36 116.48-44.8 157.013zM800 580.267c0-17.493-14.507-32-32-32s-32 14.507-32 32v50.347c0 13.653-11.093 24.747-24.747 24.747h-167.253v-414.72h75.947c17.493 0 32-14.507 32-32s-14.507-32-32-32h-215.893c-17.493 0-32 14.507-32 32s14.507 32 32 32h75.947v414.72h-167.253c-13.653 0-24.747-11.093-24.747-24.747v-50.347c0-17.493-14.507-32-32-32s-32 14.507-32 32v50.347c0 49.067 39.68 88.747 88.747 88.747h398.080c49.067 0 88.747-39.68 88.747-88.747v-50.347h0.427z" />
<glyph unicode="&#xe903;" glyph-name="font" d="M947.2 832c-14.629 21.943-32.914 40.229-51.2 51.2-47.543 32.914-106.057 51.2-179.2 51.2h-409.6c-10.971 0-18.286 0-29.257 0-160.914-10.971-256-113.371-256-281.6v-409.6c0-73.143 18.286-131.657 51.2-179.2 14.629-21.943 32.914-40.229 51.2-51.2 40.229-29.257 91.429-47.543 149.943-51.2 10.971 0 18.286 0 29.257 0h409.6c179.2 0 281.6 106.057 281.6 281.6v409.6c3.657 73.143-10.971 131.657-47.543 179.2zM841.143 597.943c0-18.286-18.286-36.571-36.571-36.571s-36.571 18.286-36.571 36.571v58.514c0 14.629-10.971 29.257-29.257 29.257h-190.171v-475.429h87.771c18.286 0 36.571-18.286 36.571-36.571s-18.286-36.571-36.571-36.571h-245.029c-18.286 0-36.571 18.286-36.571 36.571s18.286 36.571 36.571 36.571h84.114v475.429h-190.171c-18.286 0-29.257-14.629-29.257-29.257v-58.514c0-18.286-18.286-36.571-36.571-36.571s-36.571 18.286-36.571 36.571v58.514c0 54.857 43.886 102.4 102.4 102.4h453.486c54.857 0 102.4-43.886 102.4-102.4v-58.514z" />
<glyph unicode="&#xe904;" glyph-name="gallery" d="M108.8 150.4v0c-12.8 25.6-19.2 54.4-22.4 83.2 3.2-32 12.8-60.8 22.4-83.2zM384 518.4c57.6 0 102.4 44.8 102.4 102.4s-44.8 102.4-102.4 102.4c-57.6 0-102.4-44.8-102.4-102.4s44.8-102.4 102.4-102.4zM691.2 873.6h-358.4c-156.8 0-246.4-92.8-246.4-246.4v-358.4c0-48 9.6-86.4 22.4-121.6 35.2-80 115.2-128 224-128h358.4c156.8 0 246.4 92.8 246.4 246.4v358.4c0 156.8-92.8 249.6-246.4 249.6zM870.4 425.6c-32 28.8-86.4 28.8-121.6 0l-176-153.6c-32-28.8-86.4-28.8-121.6 0l-16 12.8c-28.8 25.6-80 28.8-112 6.4l-160-105.6c-9.6 22.4-16 51.2-16 83.2v358.4c0 121.6 64 182.4 182.4 182.4h358.4c121.6 0 182.4-64 182.4-182.4v-201.6z" />
<glyph unicode="&#xe905;" glyph-name="header-2" d="M87.771 491.886c68.267-214.552 336.457-385.219 409.6-429.105 73.143 43.886 346.21 214.552 409.6 429.105 43.886 136.533 4.876 307.2-156.038 360.838-78.019 24.381-165.79 9.752-229.181-39.010-14.629-9.752-29.257-9.752-43.886 0-68.267 48.762-151.162 63.39-234.057 34.133-156.038-48.762-199.924-219.429-156.038-355.962zM497.371-15.238c-4.876 0-9.752 0-19.505 4.876-14.629 9.752-375.467 204.8-463.238 477.867 0 0 0 0 0 0-53.638 170.667 4.876 385.219 204.8 453.486 97.524 29.257 199.924 14.629 277.943-34.133 78.019 48.762 185.295 63.39 277.943 34.133 199.924-63.39 258.438-277.943 204.8-453.486-82.895-268.19-448.61-472.99-463.238-477.867-4.876-4.876-9.752-4.876-19.505-4.876zM789.943 565.029c-19.505 0-34.133 14.629-34.133 34.133-4.876 39.010-29.257 73.143-68.267 87.771-19.505 4.876-29.257 29.257-24.381 43.886 4.876 19.505 24.381 29.257 43.886 24.381 68.267-19.505 112.152-78.019 117.029-151.162 0-19.505-14.629-39.010-34.133-39.010 0 0 0 0 0 0z" />
<glyph unicode="&#xe906;" glyph-name="additem" d="M573.013 728.32v-57.173c-111.787-8.96-175.36-80.64-175.36-198.827v-194.987h-165.973c-97.707 0-146.347 48.64-146.347 146.347v304.64c0 97.707 48.64 146.347 146.347 146.347h194.987c97.707 0 146.347-48.64 146.347-146.347zM792.333 618.667h-194.987c-97.707 0-146.347-48.64-146.347-146.347v-304.64c0-97.707 48.64-146.347 146.347-146.347h194.987c97.707 0 146.347 48.64 146.347 146.347v304.64c0 97.707-48.64 146.347-146.347 146.347zM773.559 288h-37.547v-37.547c0-17.493-14.507-32-32-32s-32 14.507-32 32v37.547h-37.547c-17.493 0-32 14.507-32 32s14.507 32 32 32h37.547v37.547c0 17.493 14.507 32 32 32s32-14.507 32-32v-37.547h37.547c17.493 0 32-14.507 32-32s-14.507-32-32-32z" />
<glyph unicode="&#xe907;" glyph-name="activity" d="M640-10.667h-256c-231.68 0-330.667 98.987-330.667 330.667v256c0 231.68 98.987 330.667 330.667 330.667h256c231.68 0 330.667-98.987 330.667-330.667v-256c0-231.68-98.987-330.667-330.667-330.667zM384 842.667c-196.693 0-266.667-69.973-266.667-266.667v-256c0-196.693 69.973-266.667 266.667-266.667h256c196.693 0 266.667 69.973 266.667 266.667v256c0 196.693-69.973 266.667-266.667 266.667h-256zM312.751 309.76c-6.827 0-13.653 2.133-19.627 6.827-14.080 10.667-16.64 30.72-5.973 44.8l101.547 131.84c12.373 15.787 29.867 26.027 49.92 28.587 19.627 2.56 39.68-2.987 55.467-15.36l78.080-61.44c2.987-2.56 5.973-2.56 8.107-2.133 1.707 0 4.693 0.853 7.253 4.267l98.56 127.146c10.667 14.080 31.147 16.64 44.8 5.547 14.080-10.667 16.64-30.72 5.547-44.8l-98.56-127.146c-12.373-15.787-29.867-26.027-49.92-28.16-20.053-2.56-39.68 2.987-55.467 15.36l-78.080 61.44c-2.987 2.56-6.4 2.56-8.107 2.133-1.707 0-4.693-0.853-7.253-4.267l-101.546-131.84c-5.547-8.533-14.933-12.8-24.747-12.8z" />
<glyph unicode="&#xe908;" glyph-name="path-square" d="M724.854 960h-429.543c-184.090 0-295.311-111.221-295.311-295.311v-429.543c0-187.925 111.221-299.146 295.311-299.146h429.543c187.925 0 295.311 111.221 295.311 295.311v433.378c3.835 184.090-107.386 295.311-295.311 295.311zM747.865 488.27l-84.375-53.693 7.67-122.727c7.67-69.034-15.341-92.045-80.539-99.715l-260.794-30.682c-15.341-3.835-19.176 15.341-7.67 23.011l80.539 80.539c15.341 15.341 15.341 38.352 0 53.693s-38.352 15.341-53.693 0l-76.704-80.539c-11.506-11.506-26.846-3.835-23.011 7.67v0l30.682 260.794c3.835 65.199 26.846 88.21 95.88 84.375l122.727-7.67 53.693 84.375c23.011 38.352 72.869 38.352 107.386 3.835l95.88-95.88c30.682-34.517 30.682-84.375-7.67-107.386z" />
<glyph unicode="&#xe90a;" glyph-name="vector" horiz-adv-x="1013" d="M716.8 952.415h-424.77c-182.044 0-292.030-109.985-292.030-292.030v-424.77c0-185.837 109.985-295.822 292.030-295.822h424.77c185.837 0 292.030 109.985 292.030 292.030v428.563c3.793 182.044-106.193 292.030-292.030 292.030zM739.556 485.926l-83.437-53.096 7.585-121.363c7.585-68.267-15.17-91.022-79.644-98.607l-257.896-30.341c-15.17-3.793-18.963 15.17-7.585 22.756l79.644 79.644c15.17 15.17 15.17 37.926 0 53.096s-37.926 15.17-53.096 0l-75.852-79.644c-11.378-11.378-26.548-3.793-22.756 7.585l30.341 257.896c3.793 68.267 26.548 87.23 94.815 83.437l121.363-7.585 53.096 83.437c22.756 37.926 72.059 37.926 106.193 3.793l94.815-94.815c30.341-30.341 30.341-83.437-7.585-106.193z" />
<glyph unicode="&#xe90b;" glyph-name="video-play" d="M651.985 960h-279.97v-222.442h279.97v222.442zM728.689 960v-222.442h287.64c-26.846 141.903-130.397 222.442-287.64 222.442zM0 660.854v-425.708c0-187.925 111.221-295.311 295.311-295.311h429.543c187.925 0 295.311 111.221 295.311 295.311v425.708h-1020.165zM636.644 235.146l-107.386-61.363c-23.011-11.506-46.022-19.176-65.199-19.176-15.341 0-30.682 3.835-42.187 11.506-30.682 15.341-46.022 49.858-46.022 95.88v122.727c0 46.022 15.341 80.539 46.022 95.88 30.682 19.176 69.034 15.341 107.386-7.67l107.386-61.363c38.352-23.011 61.363-53.693 61.363-88.21s-23.011-65.199-61.363-88.21zM295.311 960c-157.243 0-260.794-80.539-287.64-222.442h287.64v222.442z" />
<glyph unicode="&#xe90f;" d="M712.533 512l196.267 17.067c42.667 0 81.067-34.133 81.067-81.067 0-42.667-34.133-81.067-81.067-81.067l-196.267 17.067c-34.133 0-64 29.867-64 64s29.867 64 64 64z" />
<glyph unicode="&#xe910;" d="M51.2 507.733c4.267 4.267 12.8 17.067 25.6 25.6 64 68.267 226.133 179.2 311.467 213.333 12.8 4.267 46.933 17.067 64 17.067s34.133-4.267 46.933-12.8c17.067-12.8 34.133-29.867 42.667-46.933 4.267-12.8 12.8-55.467 12.8-55.467 8.533-46.933 12.8-119.467 12.8-204.8 0-76.8-4.267-149.333-12.8-196.267 0 0-8.533-51.2-17.067-72.533-17.067-34.133-51.2-51.2-85.333-51.2h-4.267c-17.067 4.267-64 25.6-64 25.6-81.067 34.133-243.2 140.8-307.2 213.333 0 0-17.067 17.067-25.6 29.867-12.8 12.8-21.333 34.133-21.333 55.467s8.533 42.667 21.333 59.733z" />
<glyph unicode="&#xe911;" glyph-name="arrow-left" d="M241.371 499.2c-14.629-14.629-21.943-29.257-21.943-51.2s7.314-36.571 21.943-51.2l438.857-438.857c29.257-29.257 73.143-29.257 102.4 0s29.257 73.143 0 102.4l-387.657 387.657 387.657 387.657c29.257 29.257 29.257 73.143 0 102.4s-73.143 29.257-102.4 0l-438.857-438.857z" />
<glyph unicode="&#xe915;" glyph-name="calling" d="M943.158 512.674c-16.168 0-32.337 10.779-32.337 32.337-16.168 150.905-134.737 269.474-285.642 285.642-16.168 0-32.337 16.168-32.337 37.726 0 16.168 16.168 32.337 37.726 32.337 183.242-21.558 323.368-161.684 344.926-344.926 0-21.558-10.779-37.726-32.337-43.116 0 0 0 0 0 0zM781.474 512.674c-16.168 0-32.337 10.779-32.337 26.947-10.779 64.674-64.674 118.568-129.347 129.347-16.168 5.389-32.337 21.558-26.947 37.726s21.558 32.337 37.726 26.947c91.621-16.168 167.074-86.232 183.242-177.853 5.389-16.168-10.779-37.726-26.947-37.726 0-5.389-5.389-5.389-5.389-5.389zM140.126 760.589c0 0 0-5.389 0 0-16.168-16.168-37.726-37.726-37.726-86.232 0-64.674 43.116-183.242 247.916-388.042s323.368-247.916 388.042-247.916v0c48.505 0 70.063 21.558 80.842 32.337 5.389 5.389 5.389 5.389 5.389 5.389 43.116 43.116 70.063 80.842 70.063 102.4s-26.947 48.505-64.674 86.232c-10.779 10.779-26.947 21.558-37.726 37.726-37.726 37.726-53.895 26.947-91.621 16.168-53.895-16.168-129.347-43.116-242.526 70.063-118.568 118.568-97.011 188.632-75.453 242.526 16.168 37.726 21.558 53.895-16.168 91.621-16.168 16.168-26.947 32.337-37.726 43.116-37.726 37.726-64.674 64.674-86.232 64.674v0c-21.558 0-53.895-21.558-102.4-70.063 0 0 0 0 0 0zM732.968-20.884c-113.179 0-258.695 91.621-431.158 264.084-177.853 177.853-264.084 323.368-264.084 436.547 0 75.453 37.726 113.179 53.895 123.958 0 0 5.389 5.389 5.389 5.389 64.674 64.674 107.789 91.621 150.905 91.621 48.505 0 86.232-37.726 129.347-86.232 10.779-16.168 21.558-26.947 37.726-43.116 64.674-64.674 48.505-118.568 32.337-161.684s-32.337-86.232 53.895-172.463c86.232-86.232 123.958-70.063 172.463-53.895 43.116 16.168 97.011 32.337 161.684-32.337 10.779-10.779 26.947-26.947 37.726-37.726 48.505-43.116 86.232-80.842 86.232-129.347 0-43.116-26.947-86.232-91.621-150.905l-26.947 21.558 21.558-21.558c-16.168-16.168-53.895-53.895-129.347-53.895v0z" />
<glyph unicode="&#xe916;" glyph-name="cart-2" horiz-adv-x="992" d="M76.8 953.6c-25.6 12.8-57.6 3.2-70.4-19.2s-3.2-54.4 22.4-64l51.2-25.6c16-9.6 28.8-22.4 28.8-38.4 0-12.8 3.2-25.6 3.2-38.4v0c28.8-307.2 51.2-537.6 432-537.6 396.8 0 422.4 259.2 444.8 486.4 0 25.6-22.4 48-51.2 48h-675.2c-25.6 0-44.8 19.2-48 41.6 0 3.2 0 3.2 0 6.4-6.4 51.2-38.4 96-86.4 118.4l-51.2 22.4zM400-64c54.4 0 99.2 44.8 99.2 96 0 54.4-44.8 96-99.2 96s-99.2-44.8-99.2-96c0-51.2 44.8-96 99.2-96zM793.6 32c0-54.4-44.8-96-99.2-96s-99.2 44.8-99.2 96c0 54.4 44.8 96 99.2 96 54.4 3.2 99.2-41.6 99.2-96z" />
<glyph unicode="&#xe91a;" glyph-name="color-swatch" d="M937.6 256v-128c0-57.6-48-105.6-105.6-105.6h-304c-38.4 0-57.6 44.8-28.8 73.6l249.6 256c9.6 9.6 19.2 12.8 28.8 12.8h54.4c57.6-3.2 105.6-51.2 105.6-108.8zM784 476.8l-220.8-220.8c-25.6-25.6-73.6-9.6-73.6 28.8 0 137.6 0 361.6 0 361.6 0 12.8 3.2 22.4 12.8 28.8l38.4 38.4c41.6 41.6 108.8 41.6 150.4 0l89.6-89.6c44.8-35.2 44.8-102.4 3.2-147.2zM320 873.6h-128c-64 0-105.6-41.6-105.6-105.6v-576c0-12.8 0-22.4 3.2-35.2 0-6.4 3.2-9.6 3.2-16 3.2-6.4 3.2-12.8 6.4-19.2 0 0 0 0 0 0s0 0 0 0c6.4-12.8 12.8-22.4 22.4-35.2 3.2-6.4 9.6-9.6 12.8-16s9.6-9.6 16-12.8v0c9.6-9.6 22.4-16 35.2-22.4 0 0 0 0 0 0 6.4-3.2 12.8-3.2 19.2-6.4s9.6-3.2 16-3.2c9.6-3.2 22.4-3.2 35.2-3.2 16 0 35.2 3.2 51.2 9.6 3.2 3.2 9.6 3.2 12.8 6.4 16 6.4 28.8 16 41.6 25.6 3.2 3.2 9.6 6.4 12.8 9.6l3.2 3.2c28.8 32 48 73.6 48 118.4v572.8c0 64-41.6 105.6-105.6 105.6zM256 128c-35.2 0-64 28.8-64 64s28.8 64 64 64c35.2 0 64-28.8 64-64s-28.8-64-64-64z" />
<glyph unicode="&#xe91d;" glyph-name="archive-minus" d="M618.667 473.604h-213.333c-17.493 0-32 14.507-32 32s14.507 32 32 32h213.333c17.493 0 32-14.507 32-32s-14.507-32-32-32zM210.328-10.667c-17.92 0-34.56 4.267-49.493 12.8-32.853 19.2-51.627 58.027-51.627 106.24v601.6c0 108.373 88.32 196.693 196.693 196.693h411.735c108.373 0 196.693-88.32 196.693-196.693v-601.173c0-48.213-18.773-87.040-51.627-106.24s-75.947-17.067-118.187 6.4l-208.213 115.627c-12.373 6.827-36.693 6.827-49.067 0l-208.215-115.627c-23.040-12.8-46.507-19.627-68.693-19.627zM306.328 842.667c-72.96 0-132.693-59.733-132.693-132.693v-601.173c0-25.173 7.253-43.947 20.053-51.2 12.8-7.68 32.853-5.12 54.613 7.253l208.215 115.627c31.573 17.493 79.36 17.493 110.933 0l208.213-115.627c21.76-12.373 41.813-14.933 54.613-7.253s20.053 26.453 20.053 51.2v601.173c0 72.96-59.733 132.693-132.693 132.693h-411.308z" />
<glyph unicode="&#xe925;" glyph-name="dribbble" horiz-adv-x="1029" d="M700.13 21.73c0-9.526-4.763-14.288-9.526-19.051-52.391-23.814-114.307-33.34-176.223-33.34-104.781 0-200.037 33.34-281.005 90.493-4.763 4.763-9.526 14.288-4.763 23.814 23.814 47.628 128.595 195.274 352.447 281.005 9.526 4.763 19.051 0 19.051-9.526 66.679-152.409 90.493-281.005 100.019-333.395zM985.898 359.888c-23.814-119.070-85.73-219.088-180.986-290.53-9.526-9.526-23.814 0-28.577 9.526-9.526 52.391-33.34 161.935-80.967 295.293-4.763 9.526 4.763 19.051 14.288 23.814 119.070 14.288 223.851-9.526 261.953-19.051 9.526-4.763 14.288-14.288 14.288-19.051zM976.372 455.144c-47.628 9.526-171.46 28.577-300.056 14.288-9.526 0-14.288 4.763-19.051 9.526 0 4.763-4.763 9.526-4.763 14.288-9.526 19.051-14.288 38.102-23.814 52.391-4.763 9.526 0 19.051 9.526 23.814 133.358 57.153 209.563 133.358 238.14 166.698 4.763 9.526 19.051 9.526 28.577 0 57.153-71.442 90.493-161.935 95.256-257.191-4.763-14.288-14.288-23.814-23.814-23.814zM823.963 793.302c-23.814-28.577-95.256-100.019-228.614-152.409-9.526-4.763-14.288 0-19.051 9.526-61.916 109.544-123.833 204.8-157.172 247.665-9.526 9.526 0 23.814 9.526 23.814 28.577 4.763 57.153 4.763 85.73 4.763 114.307 0 219.088-42.865 304.819-109.544 9.526-9.526 9.526-19.051 4.763-23.814zM471.516 598.028c-180.986-47.628-338.158-52.391-400.074-52.391-9.526 0-19.051 9.526-14.288 19.051 33.34 133.358 123.833 242.902 247.665 304.819 9.526 4.763 14.288 0 19.051-4.763 23.814-33.34 90.493-133.358 157.172-242.902 4.763-9.526 0-19.051-9.526-23.814zM562.009 469.433c4.763-9.526 0-19.051-9.526-23.814-209.563-66.679-338.158-238.14-376.26-295.293-4.763-9.526-19.051-9.526-28.577 0-66.679 80.967-104.781 176.223-104.781 290.53v9.526c0 9.526 9.526 19.051 19.051 14.288 61.916-4.763 257.191 4.763 457.228 66.679 9.526 4.763 14.288 0 19.051-9.526 9.526-19.051 14.288-38.102 23.814-52.391z" />
<glyph unicode="&#xe928;" glyph-name="facebook" horiz-adv-x="1029" d="M1014.010 240.702c0-179.824-109.893-289.717-289.717-289.717h-59.941c-29.971 0-49.951 24.976-49.951 49.951v289.717c0 14.985 9.99 24.976 24.976 24.976h89.912c4.995 0 14.985 4.995 14.985 9.99l14.985 94.907c0 9.99-4.995 19.98-14.985 19.98h-104.898c-14.985 0-24.976 9.99-24.976 24.976v119.883c0 9.99 4.995 14.985 14.985 14.985h119.883c9.99 0 14.985 4.995 14.985 14.985v119.883c0 9.99-4.995 14.985-14.985 14.985h-134.868c-84.917 0-149.854-69.932-144.859-149.854l-4.995-139.863c0-14.985-9.99-24.976-24.976-24.976h-59.941c-9.99 0-14.985-4.995-14.985-14.985v-94.907c0-9.99 4.995-14.985 14.985-14.985h59.941c14.985 0 24.976-9.99 24.976-24.976l4.995-284.722c0-29.971-19.98-49.951-49.951-49.951h-114.888c-179.824 0-289.717 109.893-289.717 289.717v419.59c0 179.824 109.893 289.717 289.717 289.717h419.59c179.824 0 289.717-109.893 289.717-289.717v-419.59z" />
<glyph unicode="&#xe930;" glyph-name="headphone" d="M50.111 121.191c-19.609 0-37.038 17.43-37.038 37.038v283.234c-2.179 135.081 47.932 263.626 141.617 359.489s220.051 148.153 355.132 148.153c276.698 0 501.106-224.409 501.106-501.106v-285.413c0-19.609-17.43-37.038-37.038-37.038s-37.038 17.43-37.038 37.038v285.413c0 235.302-191.728 427.030-427.030 427.030-115.472 0-222.23-43.574-300.664-126.366-80.613-80.613-122.009-189.549-119.83-305.021v-285.413c0-21.787-17.43-37.038-39.217-37.038zM211.336 430.57h-6.536c-104.579 0-189.549-84.97-189.549-189.549v-93.685c0-104.579 84.97-189.549 189.549-189.549h6.536c104.579 0 189.549 84.97 189.549 189.549v93.685c0 102.4-84.97 189.549-189.549 189.549zM821.379 430.57h-6.536c-104.579 0-189.549-84.97-189.549-189.549v-93.685c0-104.579 84.97-189.549 189.549-189.549h6.536c104.579 0 189.549 84.97 189.549 189.549v93.685c2.179 102.4-84.97 189.549-189.549 189.549z" />
<glyph unicode="&#xe931;" glyph-name="heart-bold" d="M711.68 934.4c30.72 0 66.56-5.12 97.28-15.36 189.44-61.44 256-271.36 199.68-450.56-30.72-92.16-87.040-179.2-153.6-245.76-97.28-97.28-209.92-179.2-322.56-256l-20.48-5.12-15.36 10.24c-117.76 71.68-225.28 158.72-327.68 256-66.56 66.56-122.88 153.6-153.6 245.76-51.2 179.2 15.36 384 204.8 445.44 15.36 5.12 30.72 10.24 46.080 10.24h5.12c15.36 0 30.72 5.12 40.96 5.12h5.12c30.72 0 61.44-5.12 92.16-15.36h5.12c0 0 5.12 0 5.12-5.12 15.36-5.12 25.6-5.12 35.84-15.36l20.48-10.24c5.12 0 10.24-5.12 15.36-10.24 5.12 0 5.12-5.12 5.12-5.12s0 0 0 0c5.12 0 10.24 0 15.36-5.12 56.32 40.96 128 66.56 199.68 66.56zM844.8 565.76c20.48 0 40.96 15.36 40.96 40.96v5.12c0 71.68-40.96 138.24-107.52 163.84-20.48 5.12-46.080-5.12-51.2-25.6s5.12-46.080 25.6-51.2c30.72-10.24 56.32-46.080 56.32-81.92v0c0-10.24 5.12-25.6 10.24-30.72 5.12-15.36 15.36-20.48 25.6-20.48z" />
<glyph unicode="&#xe933;" glyph-name="info-circle" horiz-adv-x="1030" d="M0 451.066c0-282.060 226.874-515.066 508.934-508.934 282.060 0 508.934 226.874 508.934 508.934s-226.874 508.934-508.934 508.934c-282.060 0-508.934-226.874-508.934-508.934zM466.012 641.15c0 24.527 18.395 42.922 42.922 42.922s42.922-18.395 42.922-42.922v-226.874c0-24.527-18.395-42.922-42.922-42.922s-42.922 18.395-42.922 42.922v226.874zM508.934 211.928c-24.527 0-42.922 18.395-42.922 42.922s18.395 42.922 42.922 42.922c24.527 0 42.922-18.395 42.922-42.922s-18.395-42.922-42.922-42.922z" />
<glyph unicode="&#xe934;" glyph-name="Info-square" d="M307.2 851.911c-119.467 0-199.111-79.644-199.111-210.489v-386.844c0-125.156 79.644-210.489 199.111-210.489h409.6c119.467 0 199.111 79.644 199.111 210.489v386.844c0 125.156-79.644 210.489-199.111 210.489h-409.6zM716.8-24.178h-409.6c-159.289 0-267.378 113.778-267.378 278.756v386.844c0 164.978 108.089 278.756 267.378 278.756h409.6c159.289 0 267.378-113.778 267.378-278.756v-386.844c0-170.667-108.089-278.756-267.378-278.756zM512 220.444c-17.067 0-34.133 17.067-34.133 34.133v193.422c0 17.067 17.067 34.133 34.133 34.133s34.133-17.067 34.133-34.133v-187.733c0-22.756-17.067-39.822-34.133-39.822zM512 578.844c-28.444 0-45.511 22.756-45.511 45.511 0 28.444 17.067 51.2 45.511 51.2v0c28.444 0 45.511-22.756 45.511-45.511 0-28.444-17.067-51.2-45.511-51.2z" />
<glyph unicode="&#xe935;" glyph-name="instagram-bold" horiz-adv-x="1014" d="M713.846 940.308h-413.538c-177.231 0-285.538-108.308-285.538-285.538v-413.538c0-177.231 108.308-285.538 285.538-285.538h413.538c177.231 0 285.538 108.308 285.538 285.538v413.538c0 177.231-108.308 285.538-285.538 285.538zM507.077 256c-103.385 0-192 83.692-192 192s83.692 192 192 192 192-83.692 192-192-88.615-192-192-192zM797.538 699.077c0-4.923-4.923-9.846-9.846-14.769s-9.846-9.846-14.769-9.846c-4.923 0-9.846-4.923-19.692-4.923-14.769 0-24.615 4.923-34.462 14.769-4.923 4.923-9.846 9.846-9.846 14.769s-4.923 9.846-4.923 19.692 0 14.769 4.923 19.692c0 4.923 4.923 9.846 9.846 14.769 9.846 9.846 29.538 14.769 44.308 14.769 4.923 0 4.923 0 9.846-4.923 4.923 0 4.923-4.923 9.846-4.923s4.923-4.923 4.923-4.923c4.923-4.923 9.846-9.846 9.846-14.769s4.923-9.846 4.923-19.692 0-14.769-4.923-19.692z" />
<glyph unicode="&#xe936;" glyph-name="instagram" d="M512 867.84c138.24 0 153.6 0 204.8-5.12 51.2 0 76.8-10.24 97.28-15.36 25.6-10.24 40.96-20.48 56.32-35.84 20.48-20.48 30.72-35.84 35.84-56.32 10.24-25.6 20.48-51.2 20.48-102.4 0-56.32 5.12-71.68 5.12-204.8 0-138.24 0-153.6-5.12-204.8 0-51.2-10.24-76.8-15.36-97.28-10.24-25.6-20.48-40.96-35.84-56.32-20.48-20.48-35.84-30.72-56.32-35.84s-46.080-15.36-97.28-15.36c-56.32 0-71.68-5.12-204.8-5.12-138.24 0-153.6 0-204.8 5.12-51.2 0-76.8 10.24-97.28 15.36-30.72 5.12-46.080 15.36-61.44 35.84-20.48 20.48-30.72 35.84-35.84 56.32-10.24 20.48-20.48 46.080-20.48 97.28 0 56.32-5.12 71.68-5.12 204.8 0 138.24 0 153.6 5.12 204.8 0 51.2 10.24 76.8 15.36 97.28 10.24 25.6 20.48 40.96 40.96 61.44s35.84 30.72 56.32 35.84c20.48 5.12 46.080 15.36 97.28 15.36 51.2 5.12 66.56 5.12 204.8 5.12zM512 960c-138.24 0-158.72 0-209.92-5.12-56.32 0-92.16-10.24-122.88-25.6-35.84-10.24-66.56-25.6-92.16-56.32-30.72-25.6-46.080-56.32-61.44-87.040-10.24-35.84-20.48-71.68-20.48-128-5.12-51.2-5.12-71.68-5.12-209.92s0-158.72 5.12-209.92c0-56.32 10.24-92.16 25.6-122.88 15.36-35.84 30.72-61.44 61.44-92.16s56.32-46.080 92.16-61.44c30.72-10.24 71.68-20.48 122.88-25.6 46.080 0 66.56 0 204.8 0s158.72 0 209.92 5.12c56.32 0 92.16 10.24 122.88 25.6 35.84 15.36 61.44 30.72 92.16 61.44s46.080 56.32 61.44 92.16c10.24 30.72 20.48 71.68 25.6 122.88 0 56.32 5.12 71.68 5.12 209.92s0 158.72-5.12 209.92c0 56.32-10.24 92.16-25.6 122.88-10.24 35.84-30.72 61.44-56.32 92.16-30.72 30.72-56.32 46.080-92.16 61.44-30.72 10.24-71.68 20.48-122.88 25.6-56.32-5.12-76.8-5.12-215.040-5.12zM512 709.12c-143.36 0-261.12-117.76-261.12-261.12s117.76-261.12 261.12-261.12c143.36 0 261.12 117.76 261.12 261.12s-117.76 261.12-261.12 261.12zM512 279.040c-92.16 0-168.96 76.8-168.96 168.96s76.8 168.96 168.96 168.96c92.16 0 168.96-76.8 168.96-168.96s-76.8-168.96-168.96-168.96zM844.8 719.36c0-35.84-25.6-61.44-61.44-61.44s-61.44 25.6-61.44 61.44c0 35.84 25.6 61.44 61.44 61.44s61.44-25.6 61.44-61.44z" />
<glyph unicode="&#xe938;" glyph-name="linkedin" d="M80.842 906.105c-16.168-5.389-32.337-10.779-48.505-26.947-21.558-21.558-32.337-48.505-32.337-80.842 0-48.505 26.947-86.232 70.063-107.789 16.168-10.779 21.558-10.779 43.116-10.779 32.337 0 48.505 5.389 70.063 16.168 16.168 10.779 32.337 26.947 37.726 48.505 16.168 37.726 16.168 70.063 0 107.789-5.389 16.168-32.337 37.726-48.505 48.505-21.558 10.779-64.674 16.168-91.621 5.389zM706.021 604.295c-75.453-10.779-129.347-43.116-161.684-91.621l-5.389-10.779v86.232h-194.021v-652.126h204.8v194.021c0 188.632 0 194.021 5.389 210.189 16.168 53.895 43.116 80.842 91.621 86.232 64.674 5.389 102.4-21.558 118.568-80.842 5.389-16.168 5.389-37.726 5.389-210.189v-194.021h204.8v220.968c0 194.021 0 226.358-5.389 242.526-10.779 70.063-37.726 123.958-75.453 150.905-26.947 21.558-53.895 32.337-97.011 43.116-21.558 5.389-75.453 5.389-91.621 5.389zM16.168 264.758v-328.758h204.8v652.126h-204.8v-323.368z" />
<glyph unicode="&#xe939;" glyph-name="location" d="M493.929 592.565c-48.188 0-90.353-42.165-90.353-90.353 6.024-42.165 42.165-84.329 90.353-84.329s90.353 42.165 90.353 90.353c0 48.188-42.165 84.329-90.353 84.329zM493.929 345.6c-90.353 0-162.635 72.282-162.635 162.635s72.282 162.635 162.635 162.635c90.353 0 162.635-72.282 162.635-162.635s-72.282-162.635-162.635-162.635zM493.929 845.553c-186.729 0-337.318-150.588-337.318-343.341 0-240.941 283.106-475.859 337.318-487.906 54.212 12.047 337.318 246.965 337.318 487.906 0 186.729-150.588 343.341-337.318 343.341v0zM493.929-57.976c-90.353 0-415.624 277.082-415.624 560.188 0 228.894 186.729 415.624 415.624 415.624s415.624-186.729 415.624-415.624c0-283.106-325.271-560.188-415.624-560.188v0z" />
<glyph unicode="&#xe940;" glyph-name="play" d="M888.686 360.229c-3.657-3.657-21.943-25.6-36.571-40.229-95.086-102.4-340.114-270.629-471.771-321.829-18.286-7.314-69.486-25.6-95.086-25.6s-51.2 7.314-73.143 18.286c-29.257 14.629-51.2 40.229-65.829 73.143-7.314 21.943-21.943 84.114-21.943 84.114-10.971 69.486-18.286 179.2-18.286 303.543 0 117.029 7.314 226.743 18.286 296.229 0 0 14.629 80.457 29.257 106.057 25.6 47.543 76.8 80.457 128 80.457h3.657c32.914 0 106.057-32.914 106.057-32.914 120.686-51.2 362.057-212.114 460.8-318.171 0 0 25.6-25.6 40.229-43.886 18.286-25.6 29.257-54.857 29.257-84.114-3.657-40.229-14.629-69.486-32.914-95.086z" />
<glyph unicode="&#xe942;" glyph-name="puse" d="M704 908.8h160c70.4 0 121.6-57.6 121.6-121.6v-684.8c0-70.4-57.6-121.6-121.6-121.6h-160c-70.4 0-121.6 57.6-121.6 121.6v684.8c-6.4 70.4 51.2 121.6 121.6 121.6zM160 908.8h160c70.4 0 121.6-57.6 121.6-121.6v-684.8c0-70.4-57.6-121.6-121.6-121.6h-160c-70.4 0-121.6 57.6-121.6 121.6v684.8c0 70.4 57.6 121.6 121.6 121.6z" />
<glyph unicode="&#xe947;" glyph-name="send-2" d="M736.847 938.328l-487.619-162.54c-330.497-108.36-330.497-287.153 0-400.931l146.286-48.762 48.762-146.286c108.36-330.497 287.153-330.497 400.931 0l162.54 487.619c65.016 222.138-54.18 346.751-270.899 270.899zM753.101 645.757l-205.884-205.884c-5.418-5.418-16.254-10.836-27.090-10.836s-21.672 5.418-32.508 10.836c-10.836 16.254-10.836 43.344 0 59.598l205.884 205.884c16.254 16.254 43.344 16.254 59.598 0s16.254-43.344 0-59.598z" />
<glyph unicode="&#xe94b;" glyph-name="star" d="M512 960c-21.333 0-38.4-12.8-46.933-21.333s-17.067-21.333-25.6-29.867-29.867-51.2-42.667-85.333c-25.6-59.733-51.2-132.267-64-170.667 0 0 0 0 0 0-38.4 0-115.2-4.267-179.2-12.8-34.133-8.533-68.267-12.8-93.867-21.333-8.533-8.533-25.6-12.8-34.133-21.333-12.8-8.533-25.6-25.6-25.6-51.2 0-17.067 4.267-29.867 12.8-42.667 4.267-12.8 12.8-21.333 21.333-34.133 17.067-21.333 38.4-42.667 64-64 46.933-42.667 98.133-85.333 132.267-106.667 0 0 0 0 0 0-12.8-38.4-34.133-110.933-46.933-174.933-8.533-25.6-12.8-59.733-12.8-89.6 0-12.8 0-29.867 4.267-42.667s8.533-29.867 21.333-42.667c17.067-12.8 34.133-12.8 46.933-12.8s29.867 4.267 38.4 8.533 51.2 25.6 81.067 42.667 110.933 81.067 145.067 106.667c0 0 0 0 0 0 34.133-25.6 89.6-72.533 145.067-106.667 25.6-17.067 55.467-34.133 81.067-42.667 12.8-4.267 25.6-8.533 42.667-8.533 12.8 0 34.133 0 46.933 12.8 17.067 12.8 21.333 29.867 25.6 42.667s4.267 29.867 4.267 42.667-4.267 59.733-12.8 93.867-34.133 136.533-46.933 174.933c0 0 0 0 0 0 29.867 21.333 85.333 64 132.267 106.667 21.333 21.333 46.933 42.667 64 64 8.533 8.533 17.067 21.333 21.333 34.133 4.267 8.533 12.8 25.6 12.8 42.667 0 21.333-12.8 38.4-25.6 46.933s-25.6 17.067-38.4 21.333c-25.6 8.533-55.467 17.067-89.6 21.333-64 8.533-140.8 12.8-179.2 12.8 0 0 0 0 0 0-12.8 38.4-38.4 110.933-64 170.667-12.8 29.867-29.867 59.733-42.667 85.333-8.533 12.8-17.067 21.333-25.6 29.867s-25.6 21.333-46.933 21.333z" />
<glyph unicode="&#xe94e;" glyph-name="ticket" d="M67.2 499.2c9.6-3.2 19.2-3.2 41.6-3.2 28.8 0 51.2-28.8 51.2-60.8s-22.4-60.8-51.2-60.8c-19.2 0-32 0-38.4-3.2-32-6.4-60.8-35.2-67.2-70.4 0-9.6 0-19.2 0-35.2 3.2-57.6 9.6-99.2 22.4-137.6 25.6-73.6 67.2-118.4 124.8-150.4 51.2-28.8 128-41.6 265.6-41.6h192c137.6 0 214.4 12.8 268.8 41.6 57.6 32 99.2 80 124.8 150.4 12.8 35.2 19.2 76.8 22.4 137.6 0 19.2 0 28.8 0 35.2-6.4 35.2-32 60.8-67.2 70.4-9.6 3.2-19.2 3.2-38.4 3.2-28.8 0-51.2 28.8-51.2 60.8s22.4 60.8 51.2 60.8c19.2 0 32 0 41.6 3.2 32 6.4 60.8 35.2 67.2 67.2 3.2 9.6 0 19.2 0 38.4-3.2 70.4-6.4 118.4-22.4 160-25.6 73.6-67.2 118.4-124.8 150.4s-134.4 44.8-272 44.8h-192c-137.6 0-214.4-12.8-268.8-41.6-57.6-32-99.2-80-124.8-150.4-12.8-41.6-19.2-89.6-22.4-160 0-19.2 0-28.8 0-38.4 6.4-35.2 35.2-60.8 67.2-70.4zM681.6 489.6c0 22.4-19.2 41.6-41.6 41.6s-41.6-19.2-41.6-41.6v-86.4c0-22.4 19.2-41.6 41.6-41.6s41.6 19.2 41.6 41.6v86.4zM640 790.4c22.4 0 41.6-19.2 41.6-41.6v-86.4c0-22.4-19.2-41.6-41.6-41.6s-41.6 19.2-41.6 41.6v83.2c0 25.6 19.2 44.8 41.6 44.8zM681.6 233.6c0 22.4-19.2 41.6-41.6 41.6s-41.6-19.2-41.6-41.6v-86.4c0-22.4 19.2-41.6 41.6-41.6s41.6 19.2 41.6 41.6v86.4z" />
<glyph unicode="&#xe951;" glyph-name="twitter" d="M638.976 849.408c-32.768-8.192-65.536-20.48-90.112-40.96-16.384-12.288-40.96-36.864-53.248-53.248-24.576-32.768-36.864-77.824-36.864-114.688v-16.384h-8.192c-114.688 16.384-221.184 73.728-299.008 151.552-12.288 12.288-24.576 24.576-28.672 28.672-8.192 12.288-16.384 16.384-28.672 12.288-16.384 0-28.672-12.288-40.96-45.056-8.192-32.768-12.288-49.152-12.288-86.016 0-32.768 4.096-53.248 16.384-81.92 4.096-8.192 4.096-16.384 4.096-16.384s-4.096-4.096-4.096-4.096c-4.096 0-16.384-12.288-16.384-20.48-4.096-8.192 0-40.96 4.096-61.44 8.192-36.864 32.768-77.824 61.44-106.496l8.192-8.192-4.096-8.192c-8.192-12.288-4.096-32.768 12.288-61.44 12.288-20.48 24.576-32.768 40.96-53.248 16.384-16.384 28.672-24.576 49.152-36.864l16.384-8.192-12.288-4.096c-16.384-8.192-53.248-16.384-73.728-24.576-16.384-4.096-28.672-4.096-73.728-4.096-53.248 0-53.248 0-57.344-4.096s-12.288-16.384-12.288-28.672c0-12.288 8.192-20.48 16.384-28.672 69.632-45.056 159.744-73.728 249.856-86.016 28.672-4.096 98.304-4.096 126.976 0 188.416 20.48 348.16 126.976 438.272 290.816 45.056 77.824 69.632 180.224 69.632 262.144v24.576l16.384 16.384c36.864 40.96 61.44 86.016 69.632 126.976 4.096 20.48 0 28.672-4.096 36.864-12.288 16.384-24.576 16.384-53.248 4.096-24.576-12.288-40.96-16.384-61.44-16.384s-28.672 4.096-40.96 12.288c-28.672 24.576-65.536 45.056-106.496 49.152-16.384 8.192-61.44 8.192-81.92 4.096zM720.896 783.872c28.672-8.192 49.152-16.384 69.632-40.96 12.288-12.288 24.576-16.384 49.152-20.48 12.288-4.096 61.44 0 65.536 0s4.096 0 0-8.192c-8.192-16.384-28.672-40.96-45.056-53.248-12.288-8.192-16.384-16.384-16.384-20.48s-4.096-24.576-4.096-49.152c0-45.056-4.096-69.632-12.288-110.592-20.48-90.112-69.632-172.032-135.168-237.568-81.92-81.92-184.32-131.072-303.104-143.36-28.672-4.096-90.112-4.096-118.784 0-32.768 4.096-73.728 12.288-98.304 20.48-8.192 8.192-8.192 8.192 16.384 16.384 49.152 12.288 98.304 36.864 139.264 65.536 12.288 8.192 16.384 12.288 16.384 20.48 4.096 16.384 0 32.768-12.288 40.96-4.096 0-12.288 4.096-24.576 4.096-28.672 4.096-53.248 12.288-73.728 24.576-12.288 8.192-45.056 36.864-45.056 40.96 0 0 8.192 4.096 16.384 4.096 32.768 4.096 49.152 16.384 49.152 36.864 0 16.384-8.192 28.672-28.672 32.768-36.864 8.192-69.632 32.768-90.112 61.44-8.192 12.288-24.576 40.96-20.48 40.96 0 0 4.096 0 12.288 0 4.096 0 16.384-4.096 28.672-4.096 16.384 0 16.384 0 24.576 4.096 4.096 4.096 8.192 8.192 8.192 20.48s-4.096 20.48-20.48 36.864c-36.864 28.672-57.344 61.44-61.44 102.4-4.096 16.384 0 36.864 0 49.152v8.192l16.384-16.384c40.96-36.864 98.304-77.824 151.552-98.304 69.632-32.768 143.36-49.152 204.8-53.248 24.576 0 28.672 0 32.768 4.096 12.288 8.192 16.384 16.384 12.288 28.672-4.096 61.44-4.096 73.728 12.288 106.496s40.96 57.344 73.728 73.728c40.96 16.384 73.728 20.48 110.592 12.288z" />
<glyph unicode="&#xe954;" glyph-name="whatsapp-bold" d="M1009.371 491.886c-14.629 282.819-273.067 497.371-570.514 448.61-204.8-29.257-365.714-195.048-399.848-399.848-14.629-117.029 9.752-229.181 58.514-321.829l-43.886-160.914c-9.752-39.010 24.381-68.267 58.514-58.514l160.914 43.886c73.143-43.886 156.038-68.267 248.686-68.267 273.067 0 502.248 243.81 487.619 516.876zM760.686 282.21c-4.876-9.752-9.752-19.505-14.629-24.381-9.752-14.629-24.381-24.381-39.010-29.257s-29.257-9.752-48.762-9.752c-24.381 0-53.638 4.876-78.019 19.505-29.257 9.752-53.638 29.257-82.895 48.762-34.133 19.505-58.514 39.010-82.895 63.39s-48.762 53.638-68.267 78.019c-19.505 29.257-34.133 53.638-48.762 82.895-14.629 34.133-19.505 58.514-19.505 82.895 0 14.629 4.876 34.133 9.752 48.762s14.629 29.257 29.257 39.010c14.629 14.629 34.133 24.381 48.762 24.381 4.876 0 14.629 0 19.505-4.876s14.629-9.752 14.629-14.629l58.514-78.019c4.876-4.876 9.752-9.752 9.752-19.505 4.876-4.876 4.876-9.752 4.876-14.629s0-9.752-4.876-19.505c-4.876 0-9.752-9.752-14.629-14.629l-19.505-19.505c0 0 0-4.876 0-9.752 0 0 0-4.876 0-4.876s0-4.876 0-4.876c4.876-9.752 14.629-19.505 24.381-29.257 9.752-14.629 24.381-24.381 34.133-39.010 14.629-14.629 24.381-24.381 39.010-34.133s24.381-19.505 29.257-24.381c0 0 4.876 0 4.876 0s4.876 0 4.876 0 4.876 0 9.752 4.876l19.505 19.505c4.876 4.876 14.629 9.752 19.505 14.629s9.752 4.876 19.505 4.876c4.876 0 9.752 0 14.629-4.876s9.752-4.876 14.629-9.752l82.895-58.514c4.876-4.876 9.752-9.752 14.629-14.629 0-4.876 4.876-9.752 4.876-19.505-4.876-14.629-4.876-24.381-9.752-29.257z" />
<glyph unicode="&#xe9e0;" glyph-name="color-swatch1" d="M255.99-10.658c-12.8 0-26.454 1.28-40.107 3.84-7.253 1.707-13.653 3.413-20.053 5.12-7.253 2.133-14.080 4.693-20.48 7.253-1.707 0.427-2.985 1.28-4.265 1.707-14.933 7.68-27.734 15.36-39.254 23.893-0.853 0.427-1.28 1.28-2.133 1.707-6.4 5.12-12.374 10.24-17.92 16.213-5.973 6.4-10.24 11.52-14.934 16.64-9.813 12.8-17.92 25.6-25.173 40.533-0.853 1.28-1.279 2.987-1.706 4.693-2.56 5.973-4.694 11.947-6.401 18.347-2.56 8.96-4.267 14.933-5.547 21.333-2.987 14.933-4.265 28.16-4.265 40.96v576.001c0 81.493 57.173 138.667 138.667 138.667h128c81.493 0 138.668-57.173 138.668-138.667v-575.575c0-52.907-20.48-103.253-57.602-141.227-6.827-6.827-11.947-11.52-16.641-15.36-13.653-11.947-31.146-22.613-49.919-30.293-4.267-1.707-9.387-3.84-14.933-5.973-20.907-6.4-42.667-9.813-64-9.813zM202.229 64.009c4.267-1.707 8.534-2.987 12.8-4.267 4.693-1.28 9.386-2.56 14.080-3.84 23.467-4.267 48.641-2.987 68.694 3.84 2.987 1.28 7.252 2.56 11.092 4.267 13.653 5.547 24.746 12.373 34.56 20.48 4.267 3.413 7.254 6.4 10.241 8.96 26.88 27.733 40.96 61.867 40.96 98.133v576.001c0 46.080-28.587 74.667-74.667 74.667h-128c-46.080 0-74.667-28.587-74.667-74.667v-575.575c0-8.96 0.853-18.347 2.987-28.16 0.853-3.84 2.133-8.533 3.413-13.653 1.707-4.693 2.988-8.533 4.694-12.8 0.853-1.28 1.279-2.56 1.705-3.413s0.853-2.133 1.28-2.987c5.12-9.387 10.241-17.493 15.788-24.747 2.987-3.413 6.827-7.68 10.667-11.947 4.693-5.12 8.533-8.107 12.8-11.52 0.427-0.427 1.28-0.853 1.707-1.28 6.827-5.12 14.506-9.813 23.466-14.507 0.853-0.427 1.707-0.427 2.56-0.853s2.133-1.28 3.84-2.133zM832-10.658h-576c-17.493 0-32 14.507-32 32s14.507 32 32 32c14.933 0 29.44 2.133 41.814 6.4 2.987 1.28 7.252 2.56 11.092 4.267 13.653 5.547 24.747 12.373 34.56 20.48 4.267 3.413 7.254 6.4 10.241 8.96l291.84 291.413c5.973 5.973 14.080 9.387 22.613 9.387h163.84c81.493 0 138.667-57.173 138.667-138.667v-128c0-81.067-57.173-138.24-138.667-138.24zM403.626 53.342h428.374c46.080 0 74.667 28.587 74.667 74.667v128c0 46.080-28.587 74.667-74.667 74.667h-150.613l-277.76-277.333zM205.235-2.987c-2.987 0-5.973 0.427-8.96 1.28-31.573 9.387-60.586 26.88-83.626 50.347-23.040 22.613-40.534 51.627-49.921 83.2-5.12 17.067 4.267 34.56 21.333 39.68s34.56-4.267 40.107-20.907c13.653-43.52 47.786-77.653 91.306-91.307 16.64-5.12 26.028-23.040 20.908-40.107-4.693-13.227-17.494-22.187-31.147-22.187zM378.025 40.964c-8.107 0-16.213 2.987-22.613 9.387-12.373 12.373-12.799 32.427-0.426 45.227 25.6 26.027 39.68 60.587 39.68 96.853v412.159c0 8.533 3.413 16.64 9.387 22.613l115.627 115.627c55.893 55.893 140.373 55.893 196.267 0l90.453-90.454c57.6-57.6 57.6-138.665 0-196.265l-405.76-405.333c-6.4-6.827-14.508-9.813-22.615-9.813zM458.667 590.937v-392.106l302.507 302.080c32.427 32.426 32.427 72.959 0 105.812l-90.453 90.453c-32 32-73.813 32-105.813 0l-106.24-106.24zM256 117.333c-40.96 0-74.667 33.707-74.667 74.667s33.707 74.667 74.667 74.667c40.96 0 74.667-33.707 74.667-74.667s-33.707-74.667-74.667-74.667zM256 202.667c-5.973 0-10.667-4.693-10.667-10.667 0-11.947 21.333-11.947 21.333 0 0 5.973-4.693 10.667-10.667 10.667z" />
<glyph unicode="&#xea2f;" glyph-name="edit" d="M640-10.667h-256c-231.68 0-330.667 98.987-330.667 330.667v256c0 231.68 98.987 330.667 330.667 330.667h85.333c17.493 0 32-14.507 32-32s-14.507-32-32-32h-85.333c-196.693 0-266.667-69.973-266.667-266.667v-256c0-196.693 69.973-266.667 266.667-266.667h256c196.693 0 266.667 69.973 266.667 266.667v85.333c0 17.493 14.507 32 32 32s32-14.507 32-32v-85.333c0-231.68-98.987-330.667-330.667-330.667zM362.639 205.222c-26.027 0-49.92 9.387-67.413 26.453-20.907 20.907-29.867 51.2-25.173 83.2l18.347 128.427c3.413 24.747 19.627 56.747 37.12 74.24l336.211 336.215c84.907 84.907 171.093 84.907 256 0 46.507-46.507 67.413-93.867 63.147-141.227-3.84-38.4-24.32-75.947-63.147-114.347l-336.213-336.215c-17.493-17.493-49.493-33.707-74.24-37.12l-128.425-18.347c-5.547-1.28-11.093-1.28-16.213-1.28zM706.957 808.531l-336.211-336.215c-8.107-8.107-17.493-26.88-19.2-37.973l-18.347-128.427c-1.707-12.373 0.853-22.613 7.253-29.013s16.64-8.96 29.013-7.253l128.425 18.347c11.093 1.707 30.293 11.093 37.973 19.2l336.213 336.215c27.733 27.733 42.24 52.48 44.373 75.52 2.56 27.733-11.947 57.173-44.373 90.027-68.267 68.267-115.2 49.067-165.12-0.427zM846.916 540.596c-2.987 0-5.973 0.427-8.533 1.28-112.213 31.573-201.387 120.747-232.96 232.96-4.693 17.067 5.12 34.56 22.187 39.68 17.067 4.693 34.56-5.12 39.253-22.187 25.6-90.88 97.707-162.987 188.587-188.587 17.067-4.693 26.88-22.613 22.187-39.68-3.84-14.507-16.64-23.467-30.72-23.467z" />
<glyph unicode="&#xea74;" glyph-name="gallery1" d="M640-10.667h-256c-231.68 0-330.667 98.987-330.667 330.667v256c0 231.68 98.987 330.667 330.667 330.667h256c231.68 0 330.667-98.987 330.667-330.667v-256c0-231.68-98.987-330.667-330.667-330.667zM384 842.667c-196.693 0-266.667-69.973-266.667-266.667v-256c0-196.693 69.973-266.667 266.667-266.667h256c196.693 0 266.667 69.973 266.667 266.667v256c0 196.693-69.973 266.667-266.667 266.667h-256zM384 501.333c-64.853 0-117.333 52.48-117.333 117.333s52.48 117.333 117.333 117.333c64.853 0 117.333-52.48 117.333-117.333s-52.48-117.333-117.333-117.333zM384 672c-29.44 0-53.333-23.893-53.333-53.333s23.893-53.333 53.333-53.333c29.44 0 53.333 23.893 53.333 53.333s-23.893 53.333-53.333 53.333zM113.952 119.462c-10.24 0-20.48 5.12-26.453 14.080-9.813 14.507-5.973 34.56 8.96 44.373l210.347 141.227c46.080 31.147 109.653 27.307 151.465-8.107l14.080-12.373c21.333-18.347 57.6-18.347 78.507 0l177.493 152.32c45.227 38.827 116.48 38.827 162.133 0l69.547-59.733c13.227-11.52 14.933-31.573 3.413-45.227-11.52-13.227-31.573-14.933-45.227-3.413l-69.547 59.733c-21.333 18.347-57.6 18.347-78.933 0l-177.493-152.32c-45.227-38.827-116.48-38.827-162.133 0l-14.078 12.373c-19.627 16.64-52.053 18.347-73.813 3.413l-210.347-141.227c-5.547-3.413-11.947-5.12-17.92-5.12z" />
<glyph unicode="&#xea8c;" glyph-name="grammerly" d="M512.043-9.378c-113.918 0-228.265 40.956-314.879 123.302-90.88 86.187-142.080 202.244-143.786 326.831-1.707 125.012 46.080 242.345 134.4 330.665 178.773 178.773 469.759 178.773 648.532 0 88.32-88.32 136.107-205.653 134.4-330.665s-52.907-241.071-143.787-326.831c-86.613-82.347-200.96-123.302-314.88-123.302zM512.043 841.391c-101.118 0-202.239-38.398-279.039-115.198-75.947-75.947-116.906-177.068-115.626-284.589s45.226-207.36 123.733-281.173c149.333-141.653 392.532-141.227 541.865 0 78.080 73.813 122.027 174.080 123.733 281.173s-39.68 208.643-115.627 284.589c-76.8 76.8-177.92 115.198-279.040 115.198zM512.030 178.351c-67.413 0-134.399 24.32-185.599 72.533-12.8 12.373-13.227 32.427-1.28 45.227 12.373 12.8 32.427 13.227 45.227 1.28 78.079-73.813 205.225-73.813 283.305 0 12.8 11.947 33.28 11.52 45.227-1.28s11.52-33.28-1.28-45.227c-51.2-48.213-118.187-72.533-185.6-72.533z" />
<glyph unicode="&#xeaa2;" glyph-name="heart" d="M512 36.262c-13.227 0-26.027 1.707-36.693 5.547-162.987 55.893-421.973 254.293-421.973 547.413 0 149.333 120.747 270.507 269.227 270.507 72.107 0 139.52-28.16 189.44-78.507 49.92 50.347 117.333 78.507 189.44 78.507 148.48 0 269.227-121.6 269.227-270.507 0-293.547-258.987-491.52-421.973-547.413-10.667-3.84-23.467-5.547-36.693-5.547zM322.56 795.729c-113.067 0-205.227-92.587-205.227-206.507 0-291.413 280.32-453.547 378.88-487.253 7.68-2.56 24.32-2.56 32 0 98.133 33.707 378.88 195.413 378.88 487.253 0 113.92-92.16 206.507-205.227 206.507-64.853 0-125.013-30.293-163.84-82.773-11.947-16.213-39.253-16.213-51.2 0-39.68 52.907-99.413 82.773-164.267 82.773z" />
<glyph unicode="&#xeab0;" glyph-name="home" d="M512 160c-17.493 0-32 14.507-32 32v128c0 17.493 14.507 32 32 32s32-14.507 32-32v-128c0-17.493-14.507-32-32-32zM750.972-2.564h-477.865c-77.653 0-148.48 59.733-161.28 136.107l-56.747 340.053c-9.387 52.907 16.64 120.748 58.88 154.455l295.68 236.8c57.172 46.080 147.198 45.653 204.798-0.427l295.68-236.373c41.813-33.707 67.413-101.548 58.88-154.455l-56.747-339.627c-12.8-75.52-85.333-136.533-161.28-136.533zM511.612 834.984c-22.613 0-45.227-6.827-61.867-20.053l-295.678-237.227c-23.893-19.2-40.96-63.575-35.84-93.868l56.747-339.627c7.68-44.8 52.48-82.773 98.133-82.773h477.865c45.653 0 90.453 37.973 98.133 83.2l56.747 339.627c4.693 29.867-12.373 75.095-35.84 93.868l-295.68 236.373c-17.067 13.653-40.107 20.48-62.72 20.48z" />
<glyph unicode="&#xeac1;" glyph-name="instagram1" d="M640-10.667h-256c-231.68 0-330.667 98.987-330.667 330.667v256c0 231.68 98.987 330.667 330.667 330.667h256c231.68 0 330.667-98.987 330.667-330.667v-256c0-231.68-98.987-330.667-330.667-330.667zM384 842.667c-196.693 0-266.667-69.973-266.667-266.667v-256c0-196.693 69.973-266.667 266.667-266.667h256c196.693 0 266.667 69.973 266.667 266.667v256c0 196.693-69.973 266.667-266.667 266.667h-256zM512 266.667c-99.84 0-181.333 81.493-181.333 181.333s81.493 181.333 181.333 181.333c99.84 0 181.333-81.493 181.333-181.333s-81.493-181.333-181.333-181.333zM512 565.333c-64.853 0-117.333-52.48-117.333-117.333s52.48-117.333 117.333-117.333c64.853 0 117.333 52.48 117.333 117.333s-52.48 117.333-117.333 117.333zM725.333 640.004c-5.547 0-11.093 1.28-16.213 3.413s-9.813 5.12-14.080 8.96c-3.84 4.267-7.253 8.96-9.387 14.080s-2.987 10.667-2.987 16.213c0 5.547 0.853 11.093 2.987 16.213 2.56 5.547 5.547 9.813 9.387 14.080 2.133 1.707 4.267 3.84 6.4 5.12 2.56 1.707 5.12 2.987 7.68 3.84 2.56 1.28 5.12 2.133 8.107 2.56 13.653 2.987 28.16-1.707 38.4-11.52 3.84-4.267 6.827-8.533 8.96-14.080 2.133-5.12 3.413-10.667 3.413-16.213s-1.28-11.093-3.413-16.213c-2.133-5.12-5.12-9.813-8.96-14.080-4.267-3.84-8.96-6.827-14.080-8.96s-10.667-3.413-16.213-3.413z" />
<glyph unicode="&#xeafe;" glyph-name="medal-star" d="M512 245.333c-17.067 0-34.133 1.28-50.347 4.267-90.453 13.227-172.8 65.28-224.853 142.507-36.267 54.613-55.467 118.187-55.467 183.893 0 182.187 148.48 330.667 330.667 330.667s330.667-148.48 330.667-330.667c0-65.707-19.2-129.28-55.467-183.893-52.48-77.653-134.827-129.28-226.133-142.933-14.933-2.56-32-3.84-49.067-3.84zM512 842.667c-147.2 0-266.667-119.467-266.667-266.667 0-53.333 15.36-104.533 44.373-148.053 42.24-62.293 108.373-104.107 181.76-114.773 27.307-4.693 54.187-4.693 79.36 0 74.667 10.667 140.8 52.907 183.040 115.2 29.013 43.52 44.373 94.72 44.373 148.054 0.427 146.773-119.040 266.24-266.24 266.24zM276.025-3.84c-5.973 0-11.52 0.853-17.493 2.133-27.733 6.4-49.067 27.733-55.467 55.467l-14.933 62.72c-0.853 3.84-3.84 6.827-8.107 8.107l-70.4 16.64c-26.453 6.4-47.36 26.027-54.613 52.053s0 54.187 19.2 73.387l166.4 166.4c6.827 6.827 16.213 10.24 25.6 9.387s17.92-5.973 23.467-14.080c42.24-62.293 108.373-104.533 182.185-115.2 27.307-4.693 54.187-4.693 79.36 0 74.667 10.667 140.8 52.907 183.040 115.2 5.12 8.107 14.080 13.227 23.467 14.080s18.773-2.56 25.6-9.387l166.4-166.4c19.2-19.2 26.453-47.36 19.2-73.387s-28.587-46.080-54.613-52.053l-70.4-16.64c-3.84-0.853-6.827-3.84-8.107-8.107l-14.933-62.72c-6.4-27.733-27.733-49.067-55.467-55.467-27.733-6.827-56.32 2.987-74.24 24.747l-179.2 206.080-179.199-206.507c-14.507-17.067-34.987-26.453-56.747-26.453zM259.811 361.387l-140.373-140.373c-3.84-3.84-3.413-8.107-2.56-10.667 0.427-2.133 2.56-6.4 7.68-7.253l70.4-16.64c27.733-6.4 49.067-27.733 55.467-55.467l14.933-62.72c1.28-5.547 5.547-7.253 8.107-8.107 2.56-0.427 6.827-0.853 10.667 3.413l163.412 188.16c-72.532 14.080-139.092 52.907-187.732 109.653zM576.397 252.16l163.413-187.733c3.84-4.693 8.533-4.693 11.093-3.84 2.56 0.427 6.4 2.56 8.107 8.107l14.933 62.72c6.4 27.733 27.733 49.067 55.467 55.467l70.4 16.64c5.12 1.28 7.253 5.12 7.68 7.253 0.853 2.133 1.28 6.827-2.56 10.667l-140.373 140.373c-49.067-56.747-115.2-95.573-188.16-109.653zM592.687 410.027c-11.093 0-24.32 2.987-40.107 12.373l-40.533 24.32-40.533-23.893c-37.12-22.187-61.439-9.387-70.399-2.987s-28.16 25.6-18.347 67.84l10.24 43.947-34.133 31.574c-18.773 18.773-25.6 41.386-19.2 61.866s25.173 34.988 51.627 39.254l45.652 7.68 21.76 47.787c12.373 24.32 31.573 37.974 53.333 37.974s41.387-14.081 53.333-38.401l25.173-50.347 42.24-5.12c26.027-4.267 44.8-18.773 51.627-39.253 6.4-20.48-0.427-43.094-19.2-61.867l-35.413-35.413 11.093-39.68c9.813-42.24-9.387-61.44-18.347-67.84-4.693-3.84-14.933-9.813-29.867-9.813zM410.074 602.026l29.439-29.439c13.653-13.653 20.48-36.694 16.213-55.467l-8.107-34.133 34.133 20.053c18.347 10.667 43.093 10.667 61.013 0l34.133-20.053-7.68 34.133c-4.267 19.2 2.133 41.814 15.787 55.467l29.44 29.439-37.12 6.401c-17.92 2.987-35.84 16.212-43.947 32.426l-21.333 41.814-21.333-42.667c-7.68-15.787-25.6-29.44-43.52-32.427l-37.119-5.547z" />
<glyph unicode="&#xeb0e;" glyph-name="messages" d="M426.24-11.947c-25.6 0-49.92 12.8-66.56 35.413l-51.199 68.267c0-0.427-2.134 0.853-2.987 0.853h-15.786c-145.92 0-236.374 39.68-236.374 236.373v170.667c0 179.626 109.654 226.56 201.814 234.666 10.24 1.28 22.187 1.707 34.56 1.707h273.066c154.453 0 236.373-81.92 236.373-236.373v-170.667c0-12.373-0.427-24.32-2.133-35.84-7.68-90.88-54.613-200.533-234.24-200.533h-17.067l-52.907-69.12c-16.64-22.613-40.96-35.413-66.56-35.413zM289.707 672c-9.813 0-19.2-0.427-28.16-1.28-98.987-8.533-144.213-62.72-144.213-171.093v-170.667c0-146.347 45.227-172.373 172.374-172.373h17.066c19.2 0 40.96-10.667 52.906-26.027l51.2-68.693c9.387-12.8 21.333-12.8 30.72 0l51.2 68.267c12.373 16.64 32 26.453 52.907 26.453h17.067c108.373 0 162.56 45.653 170.667 142.933 1.28 10.24 1.707 19.627 1.707 29.44v170.667c0 119.040-53.333 172.373-172.373 172.373h-273.066zM426.25 354.564c-23.893 0-42.667 19.2-42.667 42.667s19.2 42.667 42.667 42.667c23.465 0 42.665-19.2 42.665-42.667s-18.773-42.667-42.665-42.667zM562.752 354.564c-23.893 0-42.667 19.2-42.667 42.667s19.2 42.667 42.667 42.667c23.467 0 42.667-19.2 42.667-42.667s-19.2-42.667-42.667-42.667zM290.167 354.564c-23.893 0-42.667 19.2-42.667 42.667s19.2 42.667 42.667 42.667c23.467 0 42.667-19.2 42.667-42.667s-19.2-42.667-42.667-42.667zM765.423 264.96c-8.533 0-17.067 3.413-23.040 9.813-6.827 6.827-9.809 16.64-8.529 26.027 1.28 8.96 1.702 18.347 1.702 28.16v170.667c0 119.040-53.329 172.373-172.369 172.373h-273.070c-9.813 0-19.199-0.427-28.159-1.28-9.387-1.28-19.201 2.134-26.028 8.534-6.827 6.827-10.667 16.212-9.814 25.599 7.68 92.16 55.040 201.814 234.665 201.814h273.071c154.453 0 236.369-81.92 236.369-236.374v-170.666c0-179.627-109.649-226.56-201.809-234.667-1.28 0-2.138 0-2.991 0zM295.239 736h267.517c154.453 0 236.378-81.92 236.378-236.373v-165.12c72.533 17.92 106.667 71.253 106.667 165.12v170.666c0 119.040-53.338 172.374-172.378 172.374h-273.062c-93.869 0-146.775-34.133-165.122-106.667z" />
<glyph unicode="&#xeb18;" glyph-name="microphone" d="M512 117.333c-158.72 0-288 129.28-288 288v213.333c0 158.72 129.28 288 288 288s288-129.28 288-288v-213.333c0-158.72-129.28-288-288-288zM512 842.667c-123.307 0-224-100.267-224-224v-213.333c0-123.733 100.693-224 224-224s224 100.267 224 224v213.333c0 123.733-100.693 224-224 224zM512-10.667c-229.547 0-416 186.453-416 416v85.333c0 17.493 14.507 32 32 32s32-14.507 32-32v-85.333c0-194.133 157.867-352 352-352s352 157.867 352 352v85.333c0 17.493 14.507 32 32 32s32-14.507 32-32v-85.333c0-229.547-186.453-416-416-416zM623.356 608.858c-3.413 0-7.253 0.427-11.093 1.707-68.693 24.747-144.213 24.747-212.908 0-16.213-5.973-34.56 2.56-40.533 19.2s2.56 34.987 19.2 40.96c82.774 29.867 173.654 29.867 256.428 0 16.64-5.973 25.173-24.32 19.2-40.96-4.693-13.227-17.067-20.907-30.293-20.907zM584.529 480.853c-2.56 0-5.547 0.427-8.533 1.28-45.653 12.373-93.867 12.373-139.52 0-17.492-4.693-34.559 5.547-39.252 22.613s5.547 34.561 22.613 39.254c56.746 15.36 116.479 15.36 173.226 0 17.067-4.693 27.307-22.188 22.613-39.254-4.267-14.933-17.067-23.893-31.147-23.893z" />
<glyph unicode="&#xeb19;" glyph-name="microphone-2" d="M512 266.667c-111.787 0-202.667 90.88-202.667 202.667v234.667c0 111.787 90.88 202.667 202.667 202.667s202.667-90.88 202.667-202.667v-234.667c0-111.787-90.88-202.667-202.667-202.667zM512 842.667c-76.373 0-138.667-62.293-138.667-138.667v-234.667c0-76.373 62.293-138.667 138.667-138.667s138.667 62.293 138.667 138.667v234.667c0 76.373-62.293 138.667-138.667 138.667zM511.983 117.338c-197.546 0-358.4 160.853-358.4 358.4v72.533c0 17.493 14.507 32 32 32s32-14.507 32-32v-72.533c0-162.133 132.267-294.4 294.4-294.4s294.4 132.267 294.4 294.4v72.533c0 17.493 14.507 32 32 32s32-14.507 32-32v-72.533c0-197.547-160.853-358.4-358.4-358.4zM571.302 653.661c-3.413 0-7.253 0.427-11.093 1.707-31.147 11.52-65.28 11.52-96.427 0-16.64-5.973-34.987 2.56-40.961 19.2s2.56 34.987 19.201 40.96c45.227 16.213 95.147 16.213 140.373 0 16.64-5.973 25.173-24.32 19.2-40.96-5.12-12.8-17.493-20.907-30.293-20.907zM546.138 563.208c-2.987 0-5.547 0.427-8.533 1.28-17.067 4.693-34.56 4.693-51.627 0s-34.56 5.547-39.253 22.613c-4.693 16.64 5.547 34.133 22.613 38.827 27.733 7.68 57.6 7.68 85.333 0 17.067-4.693 27.307-22.187 22.613-39.253-3.84-14.080-17.067-23.467-31.147-23.467zM512-10.667c-17.493 0-32 14.507-32 32v128c0 17.493 14.507 32 32 32s32-14.507 32-32v-128c0-17.493-14.507-32-32-32z" />
<glyph unicode="&#xeb54;" glyph-name="note-text" d="M341.333 714.667c-17.493 0-32 14.507-32 32v128c0 17.493 14.507 32 32 32s32-14.507 32-32v-128c0-17.493-14.507-32-32-32zM682.667 714.667c-17.493 0-32 14.507-32 32v128c0 17.493 14.507 32 32 32s32-14.507 32-32v-128c0-17.493-14.507-32-32-32zM682.667-10.667h-341.333c-155.733 0-245.333 89.6-245.333 245.333v362.667c0 155.733 89.6 245.333 245.333 245.333h341.333c155.733 0 245.333-89.6 245.333-245.333v-362.667c0-155.733-89.6-245.333-245.333-245.333zM341.333 778.667c-122.027 0-181.333-59.307-181.333-181.333v-362.667c0-122.027 59.307-181.333 181.333-181.333h341.333c122.027 0 181.333 59.307 181.333 181.333v362.667c0 122.027-59.307 181.333-181.333 181.333h-341.333zM682.667 458.667h-341.333c-17.493 0-32 14.507-32 32s14.507 32 32 32h341.333c17.493 0 32-14.507 32-32s-14.507-32-32-32zM512 245.333h-170.667c-17.493 0-32 14.507-32 32s14.507 32 32 32h170.667c17.493 0 32-14.507 32-32s-14.507-32-32-32z" />
<glyph unicode="&#xeb55;" glyph-name="notification" d="M512.849 84.058c-99.415 0-198.828 15.787-293.121 47.36-35.84 12.373-63.147 37.547-75.093 70.4-12.373 32.853-8.107 69.12 11.52 101.547l49.067 81.493c10.24 17.067 19.627 51.2 19.627 71.253v123.306c0 158.72 129.28 288 288.001 288s288-129.28 288-288v-123.306c0-19.627 9.387-54.187 19.627-71.68l48.64-81.067c18.347-30.72 21.76-67.84 9.387-101.547s-39.253-59.307-72.96-70.4c-93.867-31.573-193.28-47.36-292.693-47.36zM512.849 803.417c-123.308 0-224.001-100.267-224.001-224v-123.306c0-31.147-12.8-77.227-28.587-104.107l-49.067-81.493c-9.387-15.787-11.947-32.427-6.4-46.507 5.12-14.507 17.92-25.6 35.413-31.573 178.347-59.733 367.361-59.733 545.708 0 15.36 5.12 27.307 16.64 32.853 32s4.267 32-4.267 46.080l-49.067 81.493c-16.213 27.733-28.587 73.387-28.587 104.533v122.879c0 123.733-100.267 224-224 224zM592.196 791.886c-2.987 0-5.973 0.427-8.96 1.28-12.373 3.413-24.32 5.973-35.84 7.68-36.267 4.693-71.253 2.133-104.107-7.68-11.947-3.84-24.745 0-32.852 8.96s-10.667 21.76-5.973 33.28c17.493 44.8 60.159 74.24 108.799 74.24s91.307-29.013 108.8-74.24c4.267-11.52 2.133-24.32-5.973-33.28-6.4-6.827-15.36-10.24-23.893-10.24zM512.832-13.231c-42.24 0-83.2 17.067-113.065 46.933-29.867 29.867-46.933 70.827-46.933 113.067h64c0-25.173 10.239-49.92 28.159-67.84s42.667-28.16 67.84-28.16c52.907 0 96 43.093 96 96h64c0-88.32-71.68-160-160-160z" />
<glyph unicode="&#xeb56;" glyph-name="notification-1" d="M810.667 586.667c-88.32 0-160 71.68-160 160s71.68 160 160 160c88.32 0 160-71.68 160-160s-71.68-160-160-160zM810.667 842.667c-52.907 0-96-43.093-96-96s43.093-96 96-96c52.907 0 96 43.093 96 96s-43.093 96-96 96zM640-10.667h-256c-231.68 0-330.667 98.987-330.667 330.667v256c0 231.68 98.987 330.667 330.667 330.667h213.333c17.493 0 32-14.507 32-32s-14.507-32-32-32h-213.333c-196.693 0-266.667-69.973-266.667-266.667v-256c0-196.693 69.973-266.667 266.667-266.667h256c196.693 0 266.667 69.973 266.667 266.667v213.333c0 17.493 14.507 32 32 32s32-14.507 32-32v-213.333c0-231.68-98.987-330.667-330.667-330.667z" />
<glyph unicode="&#xeb59;" glyph-name="notification-favorite" d="M810.667 586.667c-88.32 0-160 71.68-160 160s71.68 160 160 160c88.32 0 160-71.68 160-160s-71.68-160-160-160zM810.667 842.667c-52.907 0-96-43.093-96-96s43.093-96 96-96c52.907 0 96 43.093 96 96s-43.093 96-96 96zM640-10.667h-256c-231.68 0-330.667 98.987-330.667 330.667v256c0 231.68 98.987 330.667 330.667 330.667h213.333c17.493 0 32-14.507 32-32s-14.507-32-32-32h-213.333c-196.693 0-266.667-69.973-266.667-266.667v-256c0-196.693 69.973-266.667 266.667-266.667h256c196.693 0 266.667 69.973 266.667 266.667v213.333c0 17.493 14.507 32 32 32s32-14.507 32-32v-213.333c0-231.68-98.987-330.667-330.667-330.667zM418.577 177.911c-39.253 0-130.56 47.787-158.72 135.68-19.2 60.16 2.987 139.093 72.533 161.707 29.867 9.813 61.013 5.12 85.76-10.667 24.32 15.787 56.32 20.48 86.186 10.667 69.547-22.613 92.16-101.547 72.533-161.707-27.733-89.6-123.307-135.68-158.293-135.68zM320.871 332.791c19.627-61.867 86.187-90.027 98.133-91.307 13.653 1.28 78.933 32.853 96.853 90.88 9.813 31.147 0 71.253-31.147 81.493-13.227 4.267-31.147 1.707-39.68-10.667-5.973-8.96-15.36-14.080-26.026-14.507-10.24 0-20.48 4.693-26.453 13.227-10.24 14.080-28.16 16.213-40.533 11.947-30.72-9.813-40.96-49.92-31.147-81.067z" />
<glyph unicode="&#xeb5a;" glyph-name="notification-status" d="M810.667 586.667c-88.32 0-160 71.68-160 160s71.68 160 160 160c88.32 0 160-71.68 160-160s-71.68-160-160-160zM810.667 842.667c-52.907 0-96-43.093-96-96s43.093-96 96-96c52.907 0 96 43.093 96 96s-43.093 96-96 96zM512 373.333h-213.333c-17.493 0-32 14.507-32 32s14.507 32 32 32h213.333c17.493 0 32-14.507 32-32s-14.507-32-32-32zM682.667 202.667h-384c-17.493 0-32 14.507-32 32s14.507 32 32 32h384c17.493 0 32-14.507 32-32s-14.507-32-32-32zM640-10.667h-256c-231.68 0-330.667 98.987-330.667 330.667v256c0 231.68 98.987 330.667 330.667 330.667h213.333c17.493 0 32-14.507 32-32s-14.507-32-32-32h-213.333c-196.693 0-266.667-69.973-266.667-266.667v-256c0-196.693 69.973-266.667 266.667-266.667h256c196.693 0 266.667 69.973 266.667 266.667v213.333c0 17.493 14.507 32 32 32s32-14.507 32-32v-213.333c0-231.68-98.987-330.667-330.667-330.667z" />
<glyph unicode="&#xeb5e;" glyph-name="paperclip" d="M468.083-10.667c-158.72 0-288 129.28-288 288v256c0 182.187 148.48 330.667 330.667 330.667s330.667-148.48 330.667-330.667v-234.667c0-99.84-81.493-181.333-181.333-181.333s-181.333 81.493-181.333 181.333v149.333c0 17.493 14.507 32 32 32s32-14.507 32-32v-149.333c0-64.853 52.48-117.333 117.333-117.333s117.333 52.48 117.333 117.333v234.667c0 147.2-119.467 266.667-266.667 266.667s-266.667-119.467-266.667-266.667v-256c0-123.307 100.267-224 224-224 17.493 0 32-14.507 32-32s-14.080-32-32-32z" />
<glyph unicode="&#xeb5f;" glyph-name="paperclip-2" d="M526.042 49.498c-46.507 0-93.013 17.493-128.428 52.907-70.827 70.827-70.827 185.6 0 256.427l105.815 105.387c12.373 12.373 32.853 12.373 45.227 0s12.373-32.853 0-45.227l-105.813-105.387c-45.655-45.653-45.655-120.32 0-165.973 45.653-45.653 120.32-45.653 165.973 0l165.973 165.973c50.347 50.347 78.080 117.333 78.080 188.587s-27.733 138.242-78.080 188.588c-104.107 104.107-273.067 104.107-377.175 0l-180.907-180.908c-42.24-42.24-65.707-98.56-65.707-158.293s23.467-116.053 65.707-158.293c12.373-12.373 12.373-32.853 0-45.227s-32.853-12.373-45.227 0c-54.187 54.613-84.48 126.72-84.48 203.52s29.867 149.333 84.48 203.522l180.907 180.907c128.855 128.853 338.775 128.853 467.628 0 62.293-62.293 96.853-145.493 96.853-233.815 0-88.32-34.56-171.52-96.853-233.813l-165.973-165.973c-35.413-35.413-81.493-52.907-128-52.907z" />
<glyph unicode="&#xeb61;" glyph-name="path" d="M724.446 396.796c-8.107 0-16.64 3.413-22.613 9.387l-230.4 230.828c-10.667 10.667-12.373 26.88-4.267 39.68l72.107 113.92c20.053 31.573 50.347 51.2 85.76 55.040 39.68 3.84 80.64-11.52 112.64-43.52l129.28-129.28c30.72-30.72 46.080-72.107 41.387-113.067-3.84-35.842-23.040-66.988-52.907-85.762l-113.92-72.107c-5.12-3.413-11.093-5.12-17.067-5.12zM534.579 663.891l194.56-194.562 92.587 58.453c13.227 8.535 21.76 22.188 23.467 38.828 2.56 21.333-6.4 43.947-23.040 60.587l-129.28 129.28c-18.347 18.347-40.533 28.16-60.587 25.173-16.213-1.707-29.44-10.667-38.827-25.6l-58.88-92.16zM251.323 49.493c-37.973 0-72.107 13.653-97.707 38.827-29.867 29.867-43.093 71.253-37.547 117.333l41.813 355.412c12.8 107.52 60.16 146.773 170.667 140.373l167.254-9.813c17.493-1.28 31.147-16.213 29.867-33.707s-16.213-31.147-33.707-29.867l-167.254 9.387c-75.947 4.693-94.72-10.24-103.253-84.053l-41.813-354.985c-2.987-26.027 3.84-49.067 19.2-64.427 15.787-15.36 38.827-22.613 64.853-19.2l354.988 41.813c74.667 8.96 91.307 28.587 84.053 101.973l-10.24 168.533c-0.853 17.493 12.373 32.853 29.867 33.707 17.493 1.28 32.853-12.373 33.707-29.867l9.813-167.253c10.24-106.24-31.573-157.44-140.373-170.667l-354.988-41.813c-5.973-1.28-12.8-1.707-19.2-1.707zM196.727 99.422c-8.107 0-16.213 2.987-22.613 9.387-12.373 12.373-12.373 32.853 0 45.227l129.707 129.707c12.373 12.373 32.853 12.373 45.227 0s12.373-32.853 0-45.227l-129.707-129.707c-6.4-6.4-14.507-9.387-22.613-9.387z" />
<glyph unicode="&#xeb62;" glyph-name="path-2" d="M603.699-10.671h-182.612c-43.52 0-83.627 18.347-109.227 50.773-22.613 28.16-30.72 64-23.040 98.133l29.44 131.413c3.413 14.507 16.213 24.747 31.147 24.747h325.972c14.933 0 27.733-10.24 31.147-24.747l29.867-131.413c8.107-36.693 0.427-72.107-21.76-99.84-24.747-31.147-65.28-49.067-110.933-49.067zM375.008 230.396l-23.893-106.667c-3.413-15.36 0.427-30.72 10.667-43.947 13.227-16.64 35.413-26.453 59.307-26.453h183.038c26.027 0 48.213 8.96 60.587 24.747 10.24 12.373 13.227 28.587 9.387 45.653l-23.893 106.667h-275.198zM349.422 230.4c-7.68 0-15.36 2.56-21.333 8.107l-125.44 111.36c-82.347 67.84-89.173 133.547-21.333 219.733l221.44 280.747c28.588 36.267 67.841 56.32 109.655 56.32 42.24 0 81.067-20.053 109.653-56.32l221.44-280.747c66.987-84.907 61.013-146.773-21.333-219.733l-125.44-111.36c-13.227-11.52-33.707-10.667-45.227 2.56s-10.667 33.28 2.56 45.227l125.44 111.36c56.32 49.92 58.88 74.667 13.653 132.267l-221.013 280.747c-32.427 41.387-86.613 41.387-119.040 0l-221.441-280.747c-46.507-58.88-44.373-84.907 12.373-131.413l126.293-112.213c13.227-11.52 14.507-32 2.56-45.227-5.973-6.827-14.507-10.667-23.467-10.667zM512.418 630.617c-17.493 0-32 14.507-32 32v183.467c0 17.493 14.507 32 32 32s32-14.507 32-32v-183.467c0-17.493-14.507-32-32-32z" />
<glyph unicode="&#xeb64;" glyph-name="pause" d="M368.64 32h-154.88c-79.36 0-117.76 36.693-117.76 112.64v606.72c0 75.947 38.4 112.64 117.76 112.64h154.88c79.36 0 117.76-36.693 117.76-112.64v-606.72c0-75.947-38.4-112.64-117.76-112.64zM213.76 800c-46.080 0-53.76-11.52-53.76-48.64v-606.72c0-37.12 7.253-48.64 53.76-48.64h154.88c46.080 0 53.76 11.52 53.76 48.64v606.72c0 37.12-7.253 48.64-53.76 48.64h-154.88zM810.223 32h-154.88c-79.36 0-117.76 36.693-117.76 112.64v606.72c0 75.947 38.4 112.64 117.76 112.64h154.88c79.36 0 117.76-36.693 117.76-112.64v-606.72c0-75.947-38.4-112.64-117.76-112.64zM655.343 800c-46.080 0-53.76-11.52-53.76-48.64v-606.72c0-37.12 7.253-48.64 53.76-48.64h154.88c46.080 0 53.76 11.52 53.76 48.64v606.72c0 37.12-7.253 48.64-53.76 48.64h-154.88z" />
<glyph unicode="&#xeb6c;" glyph-name="percentage-circle" d="M365.643 276.476c-8.107 0-16.213 2.987-22.613 9.387-12.373 12.373-12.373 32.853 0 45.227l279.468 279.464c12.373 12.373 32.853 12.373 45.227 0s12.373-32.853 0-45.226l-279.468-279.465c-6.4-6.4-14.507-9.387-22.613-9.387zM383.147 485.978c-46.507 0-84.48 37.973-84.48 84.48s37.974 84.48 84.48 84.48c46.506 0 84.48-37.974 84.48-84.48s-37.973-84.48-84.48-84.48zM383.147 590.511c-11.093 0-20.48-8.96-20.48-20.48s8.96-20.479 20.48-20.479c11.52 0 20.479 8.959 20.479 20.479s-9.386 20.48-20.479 20.48zM662.144 241.498c-46.507 0-84.476 37.973-84.476 84.48s37.969 84.48 84.476 84.48c46.507 0 84.484-37.973 84.484-84.48s-37.978-84.48-84.484-84.48zM662.144 346.031c-11.093 0-20.476-8.96-20.476-20.48s8.956-20.48 20.476-20.48c11.52 0 20.484 8.96 20.484 20.48s-8.964 20.48-20.484 20.48zM512-10.667c-253.013 0-458.667 205.653-458.667 458.667s205.653 458.667 458.667 458.667c253.013 0 458.667-205.653 458.667-458.667s-205.653-458.667-458.667-458.667zM512 842.667c-217.6 0-394.667-177.067-394.667-394.667s177.067-394.667 394.667-394.667c217.6 0 394.667 177.067 394.667 394.667s-177.067 394.667-394.667 394.667z" />
<glyph unicode="&#xeb6d;" glyph-name="percentage-square" d="M640-10.667h-256c-231.68 0-330.667 98.987-330.667 330.667v256c0 231.68 98.987 330.667 330.667 330.667h256c231.68 0 330.667-98.987 330.667-330.667v-256c0-231.68-98.987-330.667-330.667-330.667zM384 842.667c-196.693 0-266.667-69.973-266.667-266.667v-256c0-196.693 69.973-266.667 266.667-266.667h256c196.693 0 266.667 69.973 266.667 266.667v256c0 196.693-69.973 266.667-266.667 266.667h-256zM365.643 276.476c-8.107 0-16.213 2.987-22.613 9.387-12.373 12.373-12.373 32.853 0 45.227l279.468 279.464c12.373 12.373 32.853 12.373 45.227 0s12.373-32.853 0-45.226l-279.468-279.465c-6.4-6.4-14.507-9.387-22.613-9.387zM383.147 485.978c-46.507 0-84.48 37.973-84.48 84.48s37.974 84.48 84.48 84.48c46.506 0 84.48-37.974 84.48-84.48s-37.973-84.48-84.48-84.48zM383.147 590.511c-11.093 0-20.48-8.96-20.48-20.48s8.96-20.479 20.48-20.479c11.52 0 20.479 8.959 20.479 20.479s-9.386 20.48-20.479 20.48zM662.144 241.498c-46.507 0-84.476 37.973-84.476 84.48s37.969 84.48 84.476 84.48c46.507 0 84.484-37.973 84.484-84.48s-37.978-84.48-84.484-84.48zM662.144 346.031c-11.093 0-20.476-8.96-20.476-20.48s8.956-20.48 20.476-20.48c11.52 0 20.484 8.96 20.484 20.48s-8.964 20.48-20.484 20.48z" />
<glyph unicode="&#xeb72;" glyph-name="play1" d="M335.787 52.053c-33.707 0-65.707 8.107-93.867 24.32-66.56 38.4-103.253 116.48-103.253 219.307v304.214c0 103.253 36.693 180.907 103.253 219.307s152.32 31.147 241.92-20.48l263.253-151.893c89.173-51.627 138.667-122.454 138.667-199.254s-49.067-147.627-138.667-199.253l-263.253-151.893c-51.627-29.44-101.973-44.373-148.053-44.373zM335.787 779.947c-23.040 0-43.52-5.12-61.867-15.787-46.080-26.453-71.253-84.907-71.253-164.267v-303.787c0-79.36 25.173-137.387 71.253-164.267s109.227-19.2 177.92 20.48l263.253 151.893c68.693 39.68 106.667 90.453 106.667 143.787s-37.973 104.107-106.667 143.787l-263.253 151.893c-41.813 23.893-81.067 36.267-116.053 36.267z" />
<glyph unicode="&#xeb7b;" glyph-name="profile-2user" d="M390.85 464.213c-1.28 0-2.133 0-3.413 0-2.133 0.427-5.12 0.427-7.68 0-123.733 3.84-217.173 101.12-217.173 221.013 0 122.027 99.413 221.44 221.44 221.44 122.025 0 221.438-99.413 221.438-221.44-0.427-119.893-94.293-217.173-213.331-221.013-0.427 0-0.853 0-1.28 0zM384.023 842.667c-86.613 0-157.44-70.827-157.44-157.44 0-85.333 66.56-154.027 151.467-157.013 2.56 0.427 8.107 0.427 13.653 0 83.625 3.84 149.331 72.533 149.758 157.013 0 86.613-70.827 157.44-157.438 157.44zM705.724 458.667c-1.28 0-2.56 0-3.84 0.427-17.493-1.707-35.413 10.667-37.12 28.16s8.96 33.28 26.453 35.413c5.12 0.427 10.667 0.427 15.36 0.427 62.293 3.413 110.933 54.613 110.933 117.333 0 64.853-52.48 117.333-117.333 117.333-17.493-0.427-32 14.080-32 31.573s14.507 32 32 32c99.84 0 181.333-81.493 181.333-181.333 0-98.133-76.8-177.493-174.507-181.333-0.427 0-0.853 0-1.28 0zM391.237-2.133c-83.627 0-167.68 21.333-231.253 64-59.307 39.253-91.733 93.013-91.733 151.467s32.427 112.64 91.733 152.32c128 84.907 335.36 84.907 462.506 0 58.88-39.253 91.733-93.013 91.733-151.467s-32.427-112.64-91.733-152.32c-64-42.667-147.627-64-231.253-64zM195.397 311.893c-40.96-27.307-63.147-62.293-63.147-98.987 0-36.267 22.613-71.253 63.147-98.133 106.24-71.253 285.44-71.253 391.68 0 40.96 27.307 63.147 62.293 63.147 98.987 0 36.267-22.613 71.253-63.147 98.133-106.24 70.827-285.44 70.827-391.68 0zM782.515 74.667c-14.933 0-28.16 10.24-31.147 25.6-3.413 17.493 7.68 34.133 24.747 37.973 26.88 5.547 51.627 16.213 70.827 31.147 24.32 18.347 37.547 41.387 37.547 65.707s-13.227 47.36-37.12 65.28c-18.773 14.507-42.24 24.747-69.973 31.147-17.067 3.84-28.16 20.907-24.32 38.4 3.84 17.067 20.907 28.16 38.4 24.32 36.693-8.107 68.693-22.613 94.72-42.667 39.68-29.867 62.293-72.107 62.293-116.48s-23.040-86.613-62.72-116.907c-26.453-20.48-59.733-35.413-96.427-42.667-2.56-0.853-4.693-0.853-6.827-0.853z" />
<glyph unicode="&#xeb8e;" glyph-name="ram-2" d="M661.333-10.667h-298.667c-158.293 0-245.333 87.040-245.333 245.333v426.667c0 158.293 87.040 245.333 245.333 245.333h298.667c155.733 0 245.333-89.6 245.333-245.333v-42.667c0-40.96-33.707-74.667-74.667-74.667-5.973 0-10.667-4.693-10.667-10.667v-92.587c0-14.080 5.547-27.733 15.787-37.547l35.413-35.413c22.187-22.187 34.56-51.627 34.56-82.773v-50.347c-0.427-155.733-90.027-245.333-245.76-245.333zM362.667 842.667c-122.027 0-181.333-59.307-181.333-181.333v-426.667c0-122.027 59.307-181.333 181.333-181.333h298.667c120.32 0 181.333 61.013 181.333 181.333v49.92c0 14.080-5.547 27.733-15.787 37.547l-35.413 35.413c-22.187 22.187-34.56 51.627-34.56 82.773v93.013c0 40.96 33.707 74.667 74.667 74.667 5.973 0 10.667 4.693 10.667 10.667v42.667c0 120.32-61.013 181.333-181.333 181.333h-298.24zM683.115-9.387c-17.493 0-32 14.080-32 31.573l-1.28 127.573c0 29.44-24.32 52.907-53.333 52.907h-170.668c-14.080 0-27.733-5.547-37.973-15.787-9.813-9.813-15.36-23.467-15.36-37.547l0.427-126.72c0-17.493-14.080-32-32-32-17.493 0-32 14.080-32 32l-0.427 126.72c0 31.573 11.947 61.013 34.133 83.2s51.627 34.56 83.2 34.56h171.095c64.427 0 116.907-52.48 117.333-116.48l1.28-127.147c0-18.347-14.507-32.853-32.427-32.853 0.427 0 0 0 0 0zM381.426 716.798h-0.426c-17.92 0.427-32 14.933-31.574 32.853l2.133 123.307c0.427 17.493 14.507 31.573 32 31.573h0.427c17.493-0.427 31.573-14.933 31.573-32.427l-2.133-123.733c-0.427-17.493-14.507-31.573-32-31.573zM509.457 716.797h-0.427c-17.493 0.427-31.573 14.933-31.573 32.427l2.133 123.307c0.427 17.493 14.507 31.573 32 31.573h0.427c17.493-0.427 31.573-14.933 31.573-32.427l-2.133-123.307c-0.427-17.493-14.507-31.573-32-31.573zM637.457 718.079h-0.427c-17.493 0.427-31.573 14.933-31.573 32.427l2.133 123.307c0.427 17.493 14.507 31.573 32 31.573h0.427c17.493-0.427 31.573-14.933 31.573-32.427l-2.133-123.307c-0.427-17.493-14.507-31.573-32-31.573z" />
<glyph unicode="&#xeb92;" glyph-name="receipt-1" d="M828.587 458.667h-145.92c-17.493 0-32 14.507-32 32v298.24c0 31.573 12.373 61.013 34.56 83.2s51.627 34.56 83.2 34.56h0.427c53.333-0.427 103.68-21.333 142.080-59.307 38.4-38.827 59.307-90.027 59.307-143.36v-103.253c0.427-84.907-56.747-142.080-141.653-142.080zM714.667 522.667h113.92c49.493 0 78.080 28.587 78.080 78.080v103.253c0 36.693-14.507 71.68-40.533 98.133-26.027 25.6-60.587 40.107-97.28 40.533 0 0 0 0-0.427 0-14.080 0-27.733-5.547-37.973-15.787s-15.787-23.467-15.787-37.973v-266.24zM383.99-35.413c-20.053 0-38.826 7.68-52.906 22.187l-70.828 71.253c-3.84 3.84-9.811 4.267-14.078 0.853l-72.961-54.613c-22.613-17.067-52.48-20.053-78.080-7.253s-41.385 38.4-41.385 66.987v640c0 128.853 73.813 202.667 202.667 202.667h512.001c17.493 0 32-14.507 32-32s-14.507-32-32-32c-29.44 0-53.333-23.893-53.333-53.333v-725.333c0-28.587-15.791-54.187-41.391-66.987-25.173-12.8-55.462-9.813-78.076 7.253l-72.96 54.613c-4.267 3.413-10.244 2.56-13.658-0.853l-71.676-71.68c-14.508-14.080-33.282-21.76-53.335-21.76zM252.148 125.013c19.627 0 38.827-7.253 53.333-22.187l70.828-71.253c2.56-2.56 5.973-2.987 7.68-2.987s5.12 0.427 7.68 2.987l71.678 71.68c26.453 26.453 68.271 29.013 97.711 6.4l72.529-54.187c4.693-3.413 8.96-2.133 11.093-0.853s5.978 3.84 5.978 9.387v725.333c0 19.2 4.689 37.547 12.796 53.333h-407.464c-94.72 0-138.667-43.947-138.667-138.667v-640c0-5.973 3.84-8.533 5.974-9.813 2.56-1.28 6.827-2.133 11.094 1.28l72.958 54.613c13.227 9.813 29.013 14.933 44.8 14.933z" />
<glyph unicode="&#xeb93;" glyph-name="receipt-2" d="M490.675-10.658c-33.707 0-65.705 17.493-87.891 47.36l-43.521 57.173c-8.96 11.947-20.906 18.773-33.706 19.627-12.373 0.853-25.599-5.12-36.266-15.787-36.693-39.253-72.535-58.027-106.242-57.173-23.040 0.853-43.093 11.093-58.453 29.867-1.707 2.133-3.413 5.12-4.693 8.107-16.64 35.84-24.32 84.48-24.32 157.44v423.255c0 72.96 7.68 121.173 24.32 157.44 1.28 2.56 2.56 5.12 4.693 7.253 14.933 19.2 34.988 29.44 58.028 30.72 34.133 1.28 70.4-18.347 106.24-56.747 10.667-11.52 23.466-17.067 36.266-16.213s24.746 7.68 33.706 19.627l43.521 57.6c22.187 29.867 54.185 47.36 87.892 47.36s65.707-17.493 87.893-47.36l43.093-57.173c8.96-12.373 21.333-19.2 34.56-20.053 12.373-0.853 25.6 5.12 36.267 16.213 34.987 37.547 69.547 56.747 102.827 56.747 23.893 0 46.084-10.667 61.444-30.72 1.707-2.133 3.409-4.693 4.689-7.68 16.64-35.84 24.32-84.48 24.32-157.44v-423.255c0-72.96-7.68-121.173-24.32-157.44-1.707-3.84-3.836-7.253-6.822-10.24-13.227-17.067-34.991-27.733-59.311-27.733-33.28 0-67.84 19.2-102.827 56.747-10.24 11.093-24.32 17.067-36.267 16.213-13.227-0.853-25.173-7.68-34.56-20.053l-43.093-57.173c-21.76-29.013-53.76-46.507-87.467-46.507zM323.424 177.929c1.707 0 3.84 0 5.547 0 31.573-1.707 61.012-18.347 81.065-45.227l43.519-57.6c20.907-28.16 52.48-28.16 73.387-0.427l43.093 57.173c20.48 27.307 50.351 43.52 81.924 45.227s63.142-11.52 86.182-36.267c31.573-33.707 50.773-36.267 55.893-36.267 3.413 0 6.404 0.853 9.391 3.413 11.947 26.88 17.062 67.413 17.062 128v423.255c0 59.733-5.542 100.267-17.062 127.147-3.413 3.84-6.831 4.267-9.391 4.267-5.12 0-24.32-2.56-55.893-36.267-23.040-24.747-54.609-37.973-86.182-36.267-32 1.707-61.871 18.347-82.351 45.227l-43.089 57.173c-20.907 28.16-52.484 28.16-73.391 0l-43.519-58.027c-20.053-26.88-49.492-43.093-81.065-44.8s-63.148 11.52-86.188 35.84c-26.027 28.16-46.079 37.547-57.172 37.12-2.56 0-5.548-0.853-8.961-4.267-11.52-26.88-17.068-67.413-17.068-127.147v-423.255c0-60.16 5.548-100.693 17.068-127.573 3.84-3.413 6.401-3.84 8.961-4.267 10.667-0.427 30.718 8.96 56.745 36.693 22.613 24.32 52.055 37.12 81.495 37.12zM682.667 490.667h-341.333c-17.493 0-32 14.507-32 32s14.507 32 32 32h341.333c17.493 0 32-14.507 32-32s-14.507-32-32-32zM597.333 341.333h-256c-17.493 0-32 14.507-32 32s14.507 32 32 32h256c17.493 0 32-14.507 32-32s-14.507-32-32-32z" />
<glyph unicode="&#xeb94;" glyph-name="receipt-2-1" d="M512-10.667c-33.28 0-65.707 17.067-87.893 46.933l-43.093 57.6c-8.96 11.947-20.907 18.773-33.707 19.627-12.8 0.427-25.6-5.12-35.84-15.787l-24.32 21.76 23.467-21.76c-61.44-65.707-108.8-60.587-131.413-51.627-23.040 8.96-61.867 38.4-61.867 133.12v480.427c0 189.44 54.613 247.040 233.387 247.040h322.56c178.773 0 233.387-57.6 233.387-247.040v-480.427c0-94.293-38.827-123.733-61.867-133.12-22.613-8.96-69.547-14.080-131.413 51.627-10.24 11.093-23.040 17.067-36.267 15.787-12.8-0.853-25.173-7.68-34.133-19.627l-43.093-57.6c-22.187-29.867-54.613-46.933-87.893-46.933zM344.747 177.92c1.707 0 3.84 0 5.547 0 31.573-1.707 61.44-18.347 81.493-45.227l43.093-57.6c20.907-27.733 52.907-27.733 73.813 0l43.093 57.6c20.48 26.88 49.92 43.52 81.92 45.227 31.573 1.707 63.147-11.52 86.187-36.267 32.427-34.56 53.333-38.827 61.013-35.84 10.24 4.267 21.333 29.013 21.333 73.387v480.427c0 154.027-26.88 183.040-169.387 183.040h-322.133c-142.507 0-169.387-29.013-169.387-183.040v-480.427c0-44.8 11.093-69.547 21.333-73.387 7.253-2.987 28.587 1.28 61.013 35.84 23.040 23.467 51.627 36.267 81.067 36.267zM692.501 458.667h-234.667c-17.493 0-32.001 14.507-32.001 32s14.508 32 32.001 32h234.667c17.493 0 32-14.507 32-32s-14.507-32-32-32zM692.501 629.333h-234.667c-17.493 0-32.001 14.507-32.001 32s14.508 32 32.001 32h234.667c17.493 0 32-14.507 32-32s-14.507-32-32-32zM331.917 618.667c-23.467 0-42.667 19.2-42.667 42.667s19.2 42.667 42.667 42.667c23.467 0 42.667-19.2 42.667-42.667s-19.2-42.667-42.667-42.667zM331.917 448c-23.467 0-42.667 19.2-42.667 42.667s19.2 42.667 42.667 42.667c23.467 0 42.667-19.2 42.667-42.667s-19.2-42.667-42.667-42.667z" />
<glyph unicode="&#xeb96;" glyph-name="receipt-discount" d="M828.587 458.667h-145.92c-17.493 0-32 14.507-32 32v298.24c0 31.573 12.373 61.013 34.56 83.2s51.627 34.56 83.2 34.56h0.427c53.333-0.427 103.68-21.333 142.080-59.307 38.4-38.827 59.307-90.027 59.307-143.36v-103.253c0.427-84.907-56.747-142.080-141.653-142.080zM714.667 522.667h113.92c49.493 0 78.080 28.587 78.080 78.080v103.253c0 36.693-14.507 71.68-40.533 98.133-26.027 25.6-61.013 40.107-97.28 40.533 0 0 0 0-0.427 0-14.080 0-27.733-5.547-37.973-15.787s-15.787-23.467-15.787-37.973v-266.24zM383.99-35.413c-20.053 0-38.827 7.68-52.907 22.187l-70.827 71.253c-3.84 3.84-9.813 4.267-14.080 0.853l-72.96-54.613c-22.613-17.067-52.48-20.053-78.080-7.253s-41.387 38.4-41.387 66.987v640c0 128.853 73.813 202.667 202.667 202.667h512.001c17.493 0 32-14.507 32-32s-14.507-32-32-32c-29.44 0-53.333-23.893-53.333-53.333v-725.333c0-28.587-15.787-54.187-41.387-66.987s-55.467-10.24-78.080 6.827l-72.96 54.613c-4.267 3.413-10.24 2.56-13.653-0.853l-71.68-71.68c-14.508-13.653-33.281-21.333-53.335-21.333zM252.15 125.013c19.627 0 38.827-7.253 53.333-22.187l70.827-71.253c2.56-2.56 5.973-2.987 7.68-2.987s5.12 0.427 7.68 2.987l71.681 71.68c26.453 26.453 68.267 29.013 97.707 6.4l72.533-54.187c4.693-3.413 8.96-2.133 11.093-0.853s5.973 3.84 5.973 9.387v725.333c0 19.2 4.693 37.547 12.8 53.333h-407.468c-94.72 0-138.667-43.947-138.667-138.667v-640c0-5.973 3.84-8.533 5.973-9.813 2.56-1.28 6.827-2.133 11.093 1.28l72.96 54.613c13.227 9.813 29.013 14.933 44.8 14.933zM487.667 359.249c-23.893 0-42.667 19.2-42.667 42.667s19.2 42.667 42.667 42.667c23.467 0 42.667-19.2 42.667-42.667s-19.2-42.667-42.667-42.667zM280.333 532.041c-23.893 0-42.667 19.201-42.667 42.668s19.2 42.667 42.667 42.667c23.467 0 42.667-19.2 42.667-42.667s-19.2-42.668-42.667-42.668zM267.56 342.187c-8.107 0-16.213 2.987-22.613 9.387-12.373 12.373-12.373 32.853 0 45.227l232.958 232.962c12.373 12.373 32.853 12.373 45.227 0s12.373-32.853 0-45.227l-232.958-232.962c-5.973-5.973-14.507-9.387-22.613-9.387z" />
<glyph unicode="&#xeb97;" glyph-name="receipt-disscount" d="M512-10.667c-33.707 0-65.707 17.067-87.893 47.36l-43.093 57.6c-8.96 11.947-20.907 18.773-33.707 19.627s-25.6-5.12-35.84-15.787l-24.32 21.333 23.467-21.76c-61.867-65.707-108.8-60.587-131.413-51.627-23.040 8.96-61.867 38.4-61.867 133.12v480.427c0 189.44 54.613 247.040 233.387 247.040h322.133c178.773 0 233.387-57.6 233.387-247.040v-480.427c0-94.293-38.827-123.733-61.867-133.12-22.613-8.96-69.547-14.080-131.413 51.627-10.24 11.093-23.467 16.64-36.267 15.787s-25.173-7.68-34.133-19.627l-43.093-57.6c-21.76-29.867-53.76-46.933-87.467-46.933zM344.747 177.92c1.707 0 3.84 0 5.547 0 31.573-1.707 61.44-18.347 81.493-45.227l43.52-57.6c20.907-27.733 52.907-27.733 73.813 0l43.093 57.6c20.053 26.88 49.92 43.52 81.92 45.227s63.147-11.52 86.187-36.267c32.427-34.56 53.333-38.827 61.013-35.84 10.24 4.267 21.333 29.013 21.333 73.387v480.427c0 154.027-26.88 183.040-169.387 183.040h-322.56c-142.507 0-169.387-29.013-169.387-183.040v-480.427c0-44.8 11.093-69.547 21.333-73.387 7.68-2.987 28.587 1.28 61.013 35.84 22.187 23.467 51.2 36.267 81.067 36.267zM640 362.667c-23.893 0-42.667 19.2-42.667 42.667s19.2 42.667 42.667 42.667c23.467 0 42.667-19.2 42.667-42.667s-18.773-42.667-42.667-42.667zM384 576c-23.893 0-42.667 19.2-42.667 42.667s19.2 42.667 42.667 42.667c23.467 0 42.667-19.2 42.667-42.667s-18.773-42.667-42.667-42.667zM368.227 339.209c-8.107 0-16.213 2.987-22.613 9.387-12.373 12.373-12.373 32.853 0 45.227l287.146 287.148c12.373 12.373 32.853 12.373 45.227 0s12.373-32.853 0-45.227l-287.146-287.148c-5.973-6.4-14.080-9.387-22.613-9.387z" />
<glyph unicode="&#xeb98;" glyph-name="receipt-edit" d="M449.69 23.893c-9.813 0-19.204 4.267-25.603 12.8l-43.094 57.6c-8.96 11.947-20.905 18.773-33.705 19.627-13.227 0.853-25.601-5.12-35.841-15.787-61.867-66.133-108.8-60.587-131.413-52.053-23.040 8.96-61.867 38.4-61.867 133.12v480.426c0 189.44 54.613 247.040 233.387 247.040h322.136c178.773 0 233.387-57.6 233.387-247.040v-181.76c0-17.493-14.507-32-32-32s-32 14.507-32 32v181.76c0 154.027-26.88 183.040-169.387 183.040h-322.136c-142.507 0-169.387-29.014-169.387-183.040v-480.426c0-44.8 11.093-69.547 21.333-73.387 7.68-2.987 28.588 1.28 61.014 35.84 23.467 24.747 54.186 37.973 86.186 36.267 31.573-1.707 61.44-18.347 81.492-45.227l43.52-57.6c10.667-14.080 7.68-34.133-6.4-44.8-6.4-4.693-13.222-6.4-19.622-6.4zM682.667 629.333h-341.333c-17.493 0-32 14.507-32 32s14.507 32 32 32h341.333c17.493 0 32-14.507 32-32s-14.507-32-32-32zM640 458.667h-256c-17.493 0-32 14.507-32 32s14.507 32 32 32h256c17.493 0 32-14.507 32-32s-14.507-32-32-32zM632.303 30.716c-16.213 0-31.573 5.973-42.667 17.067-13.227 13.227-19.2 32.427-16.213 52.48l8.107 57.6c2.133 14.933 11.093 32.853 21.76 43.52l151.040 151.040c20.48 20.48 40.533 31.147 62.293 33.28 26.453 2.56 52.907-8.533 77.653-33.28s35.84-50.773 33.28-77.653c-2.133-21.333-13.227-41.813-33.28-62.293l-151.040-151.040c-10.667-10.667-28.587-19.627-43.52-21.76l-57.604-8.107c-3.413-0.427-6.396-0.853-9.809-0.853zM823.876 322.129c-0.427 0-0.853 0-1.28 0-5.973-0.427-14.080-5.973-23.040-14.933l-151.040-151.040c-1.28-1.28-3.413-5.547-3.413-7.253l-7.68-53.333 53.333 7.68c1.707 0.427 5.969 2.56 7.249 3.84l151.044 151.040c8.96 9.387 14.507 17.067 14.933 23.040 0.853 8.533-7.68 18.773-14.933 26.027-6.827 6.827-16.64 14.933-25.173 14.933zM849.946 181.338c-2.987 0-5.973 0.427-8.533 1.28-56.32 15.787-101.12 60.587-116.907 116.907-4.693 17.067 5.12 34.56 22.187 39.68 17.067 4.693 34.56-5.12 39.253-22.187 9.813-34.987 37.547-62.72 72.533-72.533 17.067-4.693 26.88-22.613 22.187-39.68-3.84-14.080-16.64-23.467-30.72-23.467z" />
<glyph unicode="&#xeb99;" glyph-name="receipt-item" d="M828.587 458.667h-145.92c-17.493 0-32 14.507-32 32v298.24c0 31.573 12.373 61.013 34.56 83.2s51.627 34.56 83.2 34.56h0.427c53.333-0.427 103.68-21.333 142.080-59.307 38.4-38.827 59.307-90.027 59.307-143.36v-103.253c0.427-84.907-56.747-142.080-141.653-142.080zM714.667 522.667h113.92c49.493 0 78.080 28.587 78.080 78.080v103.253c0 36.693-14.507 71.68-40.533 98.133-26.027 25.6-61.013 40.107-97.28 40.533 0 0 0 0-0.427 0-14.080 0-27.733-5.547-37.973-15.787s-15.787-23.467-15.787-37.973v-266.24zM384-35.413c-20.053 0-38.827 7.68-52.907 22.187l-70.827 71.253c-3.84 3.84-9.813 4.267-14.080 0.853l-73.387-54.613c-22.613-17.067-52.48-20.053-78.080-7.253s-41.387 38.4-41.387 66.987v640c0 128.853 73.813 202.667 202.667 202.667h512c17.493 0 32-14.507 32-32s-14.507-32-32-32c-29.44 0-53.333-23.893-53.333-53.333v-725.333c0-28.587-15.787-54.187-41.387-66.987s-55.467-10.24-78.080 6.827l-72.96 54.613c-4.267 3.413-10.24 2.56-13.653-0.853l-71.68-71.68c-14.080-13.653-32.853-21.333-52.907-21.333zM252.16 125.013c19.627 0 38.827-7.253 53.333-22.187l70.827-71.253c2.56-2.56 5.973-2.987 7.68-2.987s5.12 0.427 7.68 2.987l71.68 71.68c26.453 26.453 68.267 29.013 97.707 6.4l72.533-54.187c4.693-3.413 8.96-2.133 11.093-0.853s5.973 3.84 5.973 9.387v725.333c0 19.2 4.693 37.547 12.8 53.333h-407.467c-94.72 0-138.667-43.947-138.667-138.667v-640c0-5.973 3.84-8.533 5.973-9.813 2.56-1.28 6.827-2.133 11.093 1.28l72.96 54.613c13.227 9.813 29.013 14.933 44.8 14.933zM512 372.915h-128c-17.493 0-32 14.507-32 32s14.507 32 32 32h128c17.493 0 32-14.507 32-32s-14.507-32-32-32zM512 543.583h-128c-17.493 0-32 14.507-32 32s14.507 32 32 32h128c17.493 0 32-14.507 32-32s-14.507-32-32-32zM254.75 532.915c-23.467 0-42.667 19.201-42.667 42.668s19.2 42.667 42.667 42.667c23.467 0 42.667-19.2 42.667-42.667s-19.2-42.668-42.667-42.668zM254.75 362.249c-23.467 0-42.667 19.2-42.667 42.667s19.2 42.667 42.667 42.667c23.467 0 42.667-19.2 42.667-42.667s-19.2-42.667-42.667-42.667z" />
<glyph unicode="&#xeb9a;" glyph-name="receipt-minus" d="M828.587 458.667h-145.92c-17.493 0-32 14.507-32 32v298.24c0 31.573 12.373 61.013 34.56 83.2s51.627 34.56 83.2 34.56h0.427c53.333-0.427 103.68-21.333 142.080-59.307 38.4-38.827 59.307-90.027 59.307-143.36v-103.253c0.427-84.907-56.747-142.080-141.653-142.080zM714.667 522.667h113.92c49.493 0 78.080 28.587 78.080 78.080v103.253c0 36.693-14.507 71.68-40.533 98.133-26.027 25.6-61.013 40.107-97.28 40.533 0 0 0 0-0.427 0-14.080 0-27.733-5.547-37.973-15.787s-15.787-23.467-15.787-37.973v-266.24zM383.99-35.413c-20.053 0-38.826 7.68-52.906 22.187l-70.827 71.253c-3.84 3.84-9.813 4.267-14.080 0.853l-72.96-54.613c-22.613-17.067-52.48-20.053-78.080-7.253s-41.387 38.4-41.387 66.987v640c0 128.853 73.813 202.667 202.667 202.667h512.001c17.493 0 32-14.507 32-32s-14.507-32-32-32c-29.44 0-53.333-23.893-53.333-53.333v-725.333c0-28.587-15.787-54.187-41.387-66.987s-55.467-10.24-78.080 6.827l-72.96 54.613c-4.267 3.413-10.24 2.56-13.653-0.853l-71.68-71.68c-14.508-13.653-33.282-21.333-53.335-21.333zM252.15 125.013c19.627 0 38.827-7.253 53.333-22.187l70.826-71.253c2.56-2.56 5.973-2.987 7.68-2.987-0.427 0.853 5.12 0.427 7.68 2.987l71.682 71.68c26.453 26.453 68.267 29.013 97.707 6.4l72.533-54.187c4.693-3.413 8.96-2.133 11.093-0.853s5.973 3.84 5.973 9.387v725.333c0 19.2 4.693 37.547 12.8 53.333h-407.468c-94.72 0-138.667-43.947-138.667-138.667v-640c0-5.973 3.84-8.533 5.973-9.813 2.56-1.28 6.827-2.133 11.094 1.28l72.96 54.613c13.227 9.813 29.014 14.933 44.8 14.933zM501.333 501.333h-234.667c-17.493 0-32 14.507-32 32s14.507 32 32 32h234.667c17.493 0 32-14.507 32-32s-14.507-32-32-32z" />
<glyph unicode="&#xeb9f;" glyph-name="receive-square" d="M640-10.667h-256c-231.68 0-330.667 98.987-330.667 330.667v256c0 231.68 98.987 330.667 330.667 330.667h256c231.68 0 330.667-98.987 330.667-330.667v-256c0-231.68-98.987-330.667-330.667-330.667zM384 842.667c-196.693 0-266.667-69.973-266.667-266.667v-256c0-196.693 69.973-266.667 266.667-266.667h256c196.693 0 266.667 69.973 266.667 266.667v256c0 196.693-69.973 266.667-266.667 266.667h-256zM511.979 308.907c-8.107 0-16.213 2.991-22.613 9.391l-128.002 128c-12.373 12.373-12.373 32.849 0 45.222s32.853 12.373 45.227 0l105.389-105.387 105.387 105.387c12.373 12.373 32.853 12.373 45.227 0s12.373-32.849 0-45.222l-128-128c-6.4-6.4-14.507-9.391-22.613-9.391zM512 308.915c-17.493 0-32 14.507-32 32v341.335c0 17.493 14.507 32 32 32s32-14.507 32-32v-341.335c0-17.92-14.507-32-32-32zM512.017 182.178c-90.025 0-180.479 14.507-266.239 43.093-16.64 5.547-25.6 23.893-20.053 40.533s23.467 26.027 40.533 20.053c158.72-52.907 333.225-52.907 491.945 0 16.64 5.547 34.987-3.413 40.533-20.053s-3.413-34.987-20.053-40.533c-86.187-29.013-176.64-43.093-266.667-43.093z" />
<glyph unicode="&#xebcc;" glyph-name="search-normal-1" d="M490.667 32c-241.067 0-437.333 196.267-437.333 437.333s196.267 437.333 437.333 437.333c241.067 0 437.333-196.267 437.333-437.333s-196.267-437.333-437.333-437.333zM490.667 842.667c-206.080 0-373.333-167.68-373.333-373.333s167.253-373.333 373.333-373.333c206.080 0 373.333 167.68 373.333 373.333s-167.253 373.333-373.333 373.333zM938.684-10.662c-8.107 0-16.213 2.987-22.613 9.387l-85.333 85.333c-12.373 12.373-12.373 32.853 0 45.227s32.853 12.373 45.227 0l85.333-85.333c12.373-12.373 12.373-32.853 0-45.227-6.4-6.4-14.507-9.387-22.613-9.387z" />
<glyph unicode="&#xebd9;" glyph-name="send-1" d="M230.825 32.004c-47.787 0-78.080 16.213-97.28 35.413-37.547 37.547-64 117.333 20.48 286.72l37.12 73.813c4.693 9.813 4.693 30.293 0 40.107l-37.12 73.813c-84.907 169.387-58.027 249.6-20.48 286.72 37.12 37.547 117.333 64.427 286.293-20.48l365.225-182.613c90.88-45.227 140.8-108.373 140.8-177.493s-49.92-132.267-140.373-177.493l-365.225-182.613c-82.773-41.387-144.213-55.893-189.44-55.893zM230.825 800.004c-23.040 0-40.96-5.547-52.053-16.64-31.147-30.72-18.773-110.507 32.427-212.48l37.12-74.24c13.653-27.733 13.653-69.547 0-97.28l-37.12-73.813c-51.2-102.4-63.573-181.76-32.427-212.48 30.72-31.147 110.507-18.773 212.907 32.427l365.225 182.613c66.987 33.28 104.96 77.227 104.96 120.32s-38.4 87.040-105.387 120.32l-365.225 182.187c-64.853 32.427-120.747 49.067-160.427 49.067zM462.485 416h-230.402c-17.493 0-32 14.507-32 32s14.507 32 32 32h230.402c17.493 0 32-14.507 32-32s-14.507-32-32-32z" />
</font>
</defs>
</svg>
