<?xml version="1.0" encoding="utf-8"?>
<!-- Generator: Adobe Illustrator 26.3.1, SVG Export Plug-In . SVG Version: 6.00 Build 0)  -->
<svg version="1.1" id="Layer_1" xmlns="http://www.w3.org/2000/svg" xmlns:xlink="http://www.w3.org/1999/xlink" x="0px" y="0px"
	 viewBox="0 0 32 32" style="enable-background:new 0 0 32 32;" xml:space="preserve">
<path d="M17.9,7.2V9c-3.5,0.3-5.5,2.5-5.5,6.2v6.1H7.2c-3.1,0-4.6-1.5-4.6-4.6V7.2c0-3.1,1.5-4.6,4.6-4.6h6.1
	C16.4,2.7,17.9,4.2,17.9,7.2z"/>
<path d="M24.8,10.7h-6.1c-3.1,0-4.6,1.5-4.6,4.6v9.5c0,3.1,1.5,4.6,4.6,4.6h6.1c3.1,0,4.6-1.5,4.6-4.6v-9.5
	C29.3,12.2,27.8,10.7,24.8,10.7z M24.2,21H23v1.2c0,0.5-0.5,1-1,1c-0.5,0-1-0.5-1-1V21h-1.2c-0.5,0-1-0.5-1-1c0-0.5,0.5-1,1-1H21
	v-1.2c0-0.5,0.5-1,1-1c0.5,0,1,0.5,1,1V19h1.2c0.5,0,1,0.5,1,1C25.2,20.5,24.7,21,24.2,21z"/>
</svg>
