<?xml version="1.0" encoding="utf-8"?>
<!-- Generator: Adobe Illustrator 26.3.1, SVG Export Plug-In . SVG Version: 6.00 Build 0)  -->
<svg version="1.1" id="Layer_1" xmlns="http://www.w3.org/2000/svg" xmlns:xlink="http://www.w3.org/1999/xlink" x="0px" y="0px"
	 viewBox="0 0 24 16" style="enable-background:new 0 0 24 16;" xml:space="preserve">
<style type="text/css">
	.st0{opacity:0.4;enable-background:new    ;}
</style>
<path class="st0" d="M16.7,6.5l4.6-0.4c1,0,1.9,0.8,1.9,1.9c0,1-0.8,1.9-1.9,1.9l-4.6-0.4c-0.8,0-1.5-0.7-1.5-1.5
	C15.2,7.2,15.9,6.5,16.7,6.5z"/>
<path d="M1.2,6.6c0.1-0.1,0.3-0.4,0.6-0.6c1.5-1.6,5.3-4.2,7.3-5c0.3-0.1,1.1-0.4,1.5-0.4c0.4,0,0.8,0.1,1.1,0.3
	c0.4,0.3,0.8,0.7,1,1.1c0.1,0.3,0.3,1.3,0.3,1.3c0.2,1.1,0.3,2.8,0.3,4.8c0,1.8-0.1,3.5-0.3,4.6c0,0-0.2,1.2-0.4,1.7
	c-0.4,0.8-1.2,1.2-2,1.2h-0.1C10.1,15.5,9,15,9,15c-1.9-0.8-5.7-3.3-7.2-5c0,0-0.4-0.4-0.6-0.7C0.9,9,0.7,8.5,0.7,8
	C0.7,7.5,0.9,7,1.2,6.6z"/>
</svg>
