<?xml version="1.0" encoding="utf-8"?>
<!-- Generator: Adobe Illustrator 26.3.1, SVG Export Plug-In . SVG Version: 6.00 Build 0)  -->
<svg version="1.1" id="Layer_1" xmlns="http://www.w3.org/2000/svg" xmlns:xlink="http://www.w3.org/1999/xlink" x="0px" y="0px"
	 viewBox="0 0 21.4 22.3" style="enable-background:new 0 0 21.4 22.3;" xml:space="preserve">
<style type="text/css">
	.st0{clip-path:url(#SVGID_00000124844505234494628970000014276513513049077643_);}
	.st1{fill:none;stroke:#000000;stroke-width:1.5;stroke-linecap:round;stroke-linejoin:round;}
</style>
<g>
	<defs>
		<rect id="SVGID_1_" x="-1.3" y="-0.9" width="24" height="24"/>
	</defs>
	<clipPath id="SVGID_00000147215981640021013450000004990674716693391755_">
		<use xlink:href="#SVGID_1_"  style="overflow:visible;"/>
	</clipPath>
	<g style="clip-path:url(#SVGID_00000147215981640021013450000004990674716693391755_);">
		<path class="st1" d="M8.2,18.6v-1.5h-5c-0.5,0-1-0.2-1.4-0.6c-0.4-0.4-0.6-0.9-0.6-1.4c0-1,0.8-1.9,1.8-2c0.1,0,0.1,0,0.2,0h15
			c0.1,0,0.1,0,0.2,0c0.5,0,0.9,0.2,1.2,0.6c0.4,0.4,0.6,1,0.6,1.6c-0.1,1-1,1.8-2.1,1.8h-4.9v1.5c0,1.4-1.1,2.5-2.5,2.5
			S8.2,20,8.2,18.6z"/>
		<path class="st1" d="M18.9,4.4l-0.5,8.7c-0.1,0-0.1,0-0.2,0h-15c-0.1,0-0.1,0-0.2,0L2.5,4.4c-0.2-1.8,1.2-3.3,3-3.3h10.4
			C17.6,1.1,19,2.7,18.9,4.4z"/>
		<path class="st1" d="M6.7,1.1v5"/>
		<path class="st1" d="M10.7,1.1v2"/>
	</g>
</g>
</svg>
