<?xml version="1.0" encoding="utf-8"?>
<!-- Generator: Adobe Illustrator 26.3.1, SVG Export Plug-In . SVG Version: 6.00 Build 0)  -->
<svg version="1.1" id="Layer_1" xmlns="http://www.w3.org/2000/svg" xmlns:xlink="http://www.w3.org/1999/xlink" x="0px" y="0px"
	 viewBox="0 0 19 18" style="enable-background:new 0 0 19 18;" xml:space="preserve">
<style type="text/css">
	.st0{fill-rule:evenodd;clip-rule:evenodd;fill:#FFFFFF;filter:url(#Adobe_OpacityMaskFilter);}
	.st1{mask:url(#mask0_1395_26444_00000088842690702248688800000007792006652753895612_);}
	.st2{fill-rule:evenodd;clip-rule:evenodd;}
	
		.st3{fill-rule:evenodd;clip-rule:evenodd;fill:#FFFFFF;filter:url(#Adobe_OpacityMaskFilter_00000145049805587943245900000016051843349225959078_);}
	.st4{mask:url(#mask1_1395_26444_00000121253524719566853910000003565034225637660083_);}
</style>
<defs>
	<filter id="Adobe_OpacityMaskFilter" filterUnits="userSpaceOnUse" x="11" y="0.7" width="7.1" height="7.1">
		<feColorMatrix  type="matrix" values="1 0 0 0 0  0 1 0 0 0  0 0 1 0 0  0 0 0 1 0"/>
	</filter>
</defs>
<mask maskUnits="userSpaceOnUse" x="11" y="0.7" width="7.1" height="7.1" id="mask0_1395_26444_00000088842690702248688800000007792006652753895612_">
	<path class="st0" d="M11,0.7h7.1v7.1H11V0.7z"/>
</mask>
<g class="st1">
	<path class="st2" d="M17.5,7.8c-0.3,0-0.6-0.2-0.6-0.6c-0.3-2.8-2.5-5-5.3-5.3c-0.3,0-0.6-0.3-0.6-0.7c0-0.3,0.3-0.6,0.7-0.6
		c3.4,0.4,6,3,6.4,6.4C18.1,7.4,17.9,7.7,17.5,7.8C17.5,7.8,17.5,7.8,17.5,7.8z"/>
</g>
<path class="st2" d="M14.5,7.8c-0.3,0-0.6-0.2-0.6-0.5c-0.2-1.2-1.2-2.2-2.4-2.4c-0.3-0.1-0.6-0.4-0.5-0.7c0.1-0.3,0.4-0.6,0.7-0.5
	C13.4,4,14.8,5.3,15.1,7c0.1,0.3-0.2,0.7-0.5,0.7C14.6,7.8,14.5,7.8,14.5,7.8z"/>
<defs>
	
		<filter id="Adobe_OpacityMaskFilter_00000058565302226096656580000006907418675853050808_" filterUnits="userSpaceOnUse" x="0.7" y="0.7" width="17.1" height="17.1">
		<feColorMatrix  type="matrix" values="1 0 0 0 0  0 1 0 0 0  0 0 1 0 0  0 0 0 1 0"/>
	</filter>
</defs>
<mask maskUnits="userSpaceOnUse" x="0.7" y="0.7" width="17.1" height="17.1" id="mask1_1395_26444_00000121253524719566853910000003565034225637660083_">
	
		<path style="fill-rule:evenodd;clip-rule:evenodd;fill:#FFFFFF;filter:url(#Adobe_OpacityMaskFilter_00000058565302226096656580000006907418675853050808_);" d="
		M0.7,0.7h17.1v17.1H0.7V0.7z"/>
</mask>
<g class="st4">
	<path class="st2" d="M2.6,3.2C2.6,3.2,2.6,3.3,2.6,3.2C2.3,3.5,1.9,3.9,1.9,4.8C1.9,6,2.7,8.2,6.5,12c3.8,3.8,6,4.6,7.2,4.6h0
		c0.9,0,1.3-0.4,1.5-0.6c0.1-0.1,0.1-0.1,0.1-0.1c0.8-0.8,1.3-1.5,1.3-1.9c0-0.4-0.5-0.9-1.2-1.6c-0.2-0.2-0.5-0.4-0.7-0.7
		c-0.7-0.7-1-0.5-1.7-0.3c-1,0.3-2.4,0.8-4.5-1.3C6.3,7.9,6.7,6.6,7.1,5.6c0.3-0.7,0.4-1-0.3-1.7C6.5,3.6,6.3,3.3,6.1,3.1
		C5.4,2.4,4.9,1.9,4.5,1.9h0C4.1,1.9,3.5,2.3,2.6,3.2C2.6,3.2,2.6,3.2,2.6,3.2z M13.6,17.7c-2.1,0-4.8-1.7-8-4.9
		c-3.3-3.3-4.9-6-4.9-8.1c0-1.4,0.7-2.1,1-2.3c0,0,0.1-0.1,0.1-0.1c1.2-1.2,2-1.7,2.8-1.7c0.9,0,1.6,0.7,2.4,1.6
		C7.2,2.5,7.4,2.7,7.7,3c1.2,1.2,0.9,2.2,0.6,3C8,6.8,7.7,7.6,9.3,9.2c1.6,1.6,2.3,1.3,3.2,1c0.8-0.3,1.8-0.6,3,0.6
		c0.2,0.2,0.5,0.5,0.7,0.7c0.9,0.8,1.6,1.5,1.6,2.4c0,0.8-0.5,1.6-1.7,2.8l-0.5-0.4l0.4,0.4C15.7,17,15,17.7,13.6,17.7L13.6,17.7z"
		/>
</g>
</svg>
