<?xml version="1.0" encoding="utf-8"?>
<!-- Generator: Adobe Illustrator 26.3.1, SVG Export Plug-In . SVG Version: 6.00 Build 0)  -->
<svg version="1.1" id="Layer_1" xmlns="http://www.w3.org/2000/svg" xmlns:xlink="http://www.w3.org/1999/xlink" x="0px" y="0px"
	 viewBox="0 0 24 24" style="enable-background:new 0 0 24 24;" xml:space="preserve">
<style type="text/css">
	.st0{fill:none;stroke:#000000;stroke-width:1.5;stroke-linecap:round;stroke-linejoin:round;}
	
		.st1{fill-rule:evenodd;clip-rule:evenodd;fill:#33D1E7;stroke:#000000;stroke-width:1.5;stroke-linecap:round;stroke-linejoin:round;}
</style>
<path class="st0" d="M2.8,3.2l2.1,0.4l1,11.5c0.1,0.9,0.9,1.7,1.8,1.7h10.9c0.9,0,1.7-0.7,1.8-1.5l0.9-6.6c0.1-0.7-0.4-1.4-1.1-1.5
	c-0.1,0-14.9,0-14.9,0"/>
<path class="st0" d="M14.1,10.8h2.8"/>
<path class="st1" d="M7.2,20.2c0.3,0,0.5,0.2,0.5,0.5c0,0.3-0.2,0.5-0.5,0.5S6.6,21,6.6,20.7C6.6,20.4,6.9,20.2,7.2,20.2z"/>
<path class="st1" d="M18.4,20.2c0.3,0,0.5,0.2,0.5,0.5c0,0.3-0.2,0.5-0.5,0.5c-0.3,0-0.5-0.2-0.5-0.5C17.9,20.4,18.1,20.2,18.4,20.2
	z"/>
</svg>
