<?xml version="1.0" encoding="utf-8"?>
<!-- Generator: Adobe Illustrator 26.3.1, SVG Export Plug-In . SVG Version: 6.00 Build 0)  -->
<svg version="1.1" id="Layer_1" xmlns="http://www.w3.org/2000/svg" xmlns:xlink="http://www.w3.org/1999/xlink" x="0px" y="0px"
	 viewBox="0 0 31 32" style="enable-background:new 0 0 31 32;" xml:space="preserve">
<path d="M2.4,0.2C1.6-0.2,0.6,0.1,0.2,0.8c-0.4,0.7-0.1,1.7,0.7,2l1.6,0.8C3,3.9,3.4,4.3,3.4,4.8c0,0.4,0.1,0.8,0.1,1.2l0,0
	c0.9,9.6,1.6,16.8,13.5,16.8c12.4,0,13.2-8.1,13.9-15.2c0-0.8-0.7-1.5-1.6-1.5H8.2c-0.8,0-1.4-0.6-1.5-1.3c0-0.1,0-0.1,0-0.2
	C6.5,3,5.5,1.6,4,0.9L2.4,0.2z"/>
<path d="M12.5,32c1.7,0,3.1-1.4,3.1-3c0-1.7-1.4-3-3.1-3c-1.7,0-3.1,1.4-3.1,3C9.4,30.6,10.8,32,12.5,32z"/>
<path d="M24.8,29c0,1.7-1.4,3-3.1,3c-1.7,0-3.1-1.4-3.1-3c0-1.7,1.4-3,3.1-3C23.4,25.9,24.8,27.3,24.8,29z"/>
</svg>
