<?xml version="1.0" encoding="utf-8"?>
<!-- Generator: Adobe Illustrator 26.3.1, SVG Export Plug-In . SVG Version: 6.00 Build 0)  -->
<svg version="1.1" id="Layer_1" xmlns="http://www.w3.org/2000/svg" xmlns:xlink="http://www.w3.org/1999/xlink" x="0px" y="0px"
	 viewBox="0 0 32 32" style="enable-background:new 0 0 32 32;" xml:space="preserve">
<path d="M29.3,22v4c0,1.8-1.5,3.3-3.3,3.3h-9.5c-1.2,0-1.8-1.4-0.9-2.3l7.8-8c0.3-0.3,0.6-0.4,0.9-0.4H26
	C27.8,18.7,29.3,20.2,29.3,22z"/>
<path d="M24.5,15.1l-3.6,3.6l-3.3,3.3c-0.8,0.8-2.3,0.3-2.3-0.9c0-4.3,0-11.3,0-11.3c0-0.4,0.1-0.7,0.4-0.9l1.2-1.2
	c1.3-1.3,3.4-1.3,4.7,0l2.8,2.8C25.8,11.6,25.8,13.7,24.5,15.1z"/>
<path d="M10,2.7H6C4,2.7,2.7,4,2.7,6v18c0,0.4,0,0.7,0.1,1.1c0,0.2,0.1,0.3,0.1,0.5C3,25.8,3,26,3.1,26.2c0,0,0,0,0,0c0,0,0,0,0,0
	c0.2,0.4,0.4,0.7,0.7,1.1c0.1,0.2,0.3,0.3,0.4,0.5c0.1,0.2,0.3,0.3,0.5,0.4l0,0c0.3,0.3,0.7,0.5,1.1,0.7c0,0,0,0,0,0
	C6,29,6.2,29,6.4,29.1c0.2,0.1,0.3,0.1,0.5,0.1c0.3,0.1,0.7,0.1,1.1,0.1c0.5,0,1.1-0.1,1.6-0.3c0.1-0.1,0.3-0.1,0.4-0.2
	c0.5-0.2,0.9-0.5,1.3-0.8c0.1-0.1,0.3-0.2,0.4-0.3l0.1-0.1c0.9-1,1.5-2.3,1.5-3.7V6C13.3,4,12,2.7,10,2.7z M8,26c-1.1,0-2-0.9-2-2
	c0-1.1,0.9-2,2-2c1.1,0,2,0.9,2,2C10,25.1,9.1,26,8,26z"/>
</svg>
