<svg width="20" height="20" viewBox="0 0 20 20" fill="none" xmlns="http://www.w3.org/2000/svg">
<path fill-rule="evenodd" clip-rule="evenodd" d="M10 0C18.235 0 20 1.48151 20 8.8889C20 13.7037 19.1669 16.6667 15.4169 16.6667C13.4129 16.6667 12.8167 17.6186 12.2616 18.5051C11.778 19.2774 11.3255 20 10.0002 20C8.67499 20 8.22249 19.2774 7.73886 18.5051C7.18374 17.6186 6.58759 16.6667 4.58354 16.6667C0.833537 16.6667 0 13.609 0 8.8889C0 1.56889 1.765 0 10 0ZM10.8333 6.66667C10.8333 6.20643 11.2064 5.83333 11.6667 5.83333H14.1667C14.6269 5.83333 15 6.20643 15 6.66667C15 7.1269 14.6269 7.5 14.1667 7.5H11.6667C11.2064 7.5 10.8333 7.1269 10.8333 6.66667ZM5.83333 9.16667C5.3731 9.16667 5 9.53976 5 10C5 10.4602 5.3731 10.8333 5.83333 10.8333H14.1667C14.6269 10.8333 15 10.4602 15 10C15 9.53976 14.6269 9.16667 14.1667 9.16667H5.83333Z" fill="#00C6E1"/>
</svg>
