<?xml version="1.0" encoding="utf-8"?>
<!-- Generator: Adobe Illustrator 26.3.1, SVG Export Plug-In . SVG Version: 6.00 Build 0)  -->
<svg version="1.1" id="Layer_1" xmlns="http://www.w3.org/2000/svg" xmlns:xlink="http://www.w3.org/1999/xlink" x="0px" y="0px"
	 viewBox="0 0 20 20" style="enable-background:new 0 0 20 20;" xml:space="preserve">
<style type="text/css">
	.st0{fill:none;stroke:#6B6B6B;stroke-width:1.6667;stroke-linecap:round;stroke-linejoin:round;}
</style>
<path class="st0" d="M10,0.8c2,0,3.6,0.1,4.9,0.3c1.2,0.2,2.1,0.6,2.7,1.1c1.2,1,1.6,2.9,1.6,6.6c0,2.4-0.2,4.2-0.8,5.3
	c-0.3,0.6-0.6,0.9-1.1,1.2c-0.4,0.3-1.1,0.4-1.9,0.4c-1.1,0-1.9,0.2-2.5,0.7c-0.6,0.4-1,1-1.3,1.4c0,0.1-0.1,0.1-0.1,0.2
	c-0.2,0.4-0.4,0.6-0.6,0.8c-0.2,0.2-0.4,0.3-1,0.3c-0.5,0-0.8-0.1-1-0.3c-0.2-0.2-0.4-0.4-0.6-0.8c0-0.1-0.1-0.1-0.1-0.2
	c-0.3-0.4-0.6-1-1.3-1.4c-0.6-0.4-1.4-0.7-2.5-0.7c-0.8,0-1.4-0.2-1.9-0.4c-0.4-0.3-0.8-0.7-1.1-1.2C1,13,0.8,11.2,0.8,8.9
	c0-3.7,0.5-5.5,1.6-6.6c0.6-0.5,1.4-0.9,2.7-1.1C6.4,0.9,8,0.8,10,0.8z"/>
<circle cx="6.7" style="fill:#6B6B6B" cy="9.2" r="0.8"/>
<circle cx="10"  style="fill:#6B6B6B" cy="9.2" r="0.8"/>
<circle cx="13.3"  style="fill:#6B6B6B" cy="9.2" r="0.8"/>
</svg>
