<svg width="20" height="20" viewBox="0 0 20 20" fill="none" xmlns="http://www.w3.org/2000/svg">
<path d="M10 0.833333C12.0438 0.833333 13.6348 0.926145 14.8792 1.16555C16.1194 1.40415 16.9531 1.77709 17.5371 2.29182C18.6972 3.31445 19.1667 5.1626 19.1667 8.8889C19.1667 11.2902 18.9511 13.0571 18.3706 14.2081C18.092 14.7606 17.7392 15.1497 17.2953 15.4086C16.8466 15.6702 16.245 15.8333 15.4169 15.8333C14.3492 15.8333 13.5479 16.0731 12.9213 16.4976C12.3097 16.912 11.9408 17.4546 11.6664 17.8864C11.6249 17.9517 11.586 18.0134 11.5492 18.0718C11.3191 18.4371 11.1702 18.6735 10.9635 18.8589C10.7793 19.0243 10.5219 19.1667 10.0002 19.1667C9.47863 19.1667 9.22119 19.0242 9.03695 18.8589C8.83024 18.6734 8.68136 18.4371 8.45128 18.0718C8.41447 18.0134 8.37559 17.9517 8.33405 17.8863C8.05962 17.4545 7.6907 16.912 7.07908 16.4976C6.45248 16.073 5.65117 15.8333 4.58354 15.8333C3.75979 15.8333 3.16015 15.6661 2.71157 15.3991C2.26636 15.1341 1.91128 14.736 1.63089 14.1752C1.04839 13.01 0.833333 11.24 0.833333 8.8889C0.833333 5.20996 1.30145 3.35701 2.46551 2.32229C3.05118 1.80169 3.88627 1.42173 5.12486 1.17705C6.36795 0.931477 7.95795 0.833333 10 0.833333Z" stroke="#787878" stroke-width="1.66667" stroke-linecap="round" stroke-linejoin="round"/>
<path d="M10.8359 7.5H14.1693" stroke="#787878" stroke-width="1.66667" stroke-linecap="round" stroke-linejoin="round"/>
<path d="M5.83594 10.834H14.1693" stroke="#787878" stroke-width="1.66667" stroke-linecap="round" stroke-linejoin="round"/>
</svg>
