<?xml version="1.0" encoding="utf-8"?>
<!-- Generator: Adobe Illustrator 26.3.1, SVG Export Plug-In . SVG Version: 6.00 Build 0)  -->
<svg version="1.1" id="Layer_1" xmlns="http://www.w3.org/2000/svg" xmlns:xlink="http://www.w3.org/1999/xlink" x="0px" y="0px"
	 viewBox="0 0 24 24" style="enable-background:new 0 0 24 24;" xml:space="preserve">
<path d="M17,22H7c-0.4,0-0.8-0.3-0.8-0.8s0.3-0.8,0.8-0.8h10c0.4,0,0.8,0.3,0.8,0.8S17.4,22,17,22z"/>
<path d="M20.4,5.5l-4,2.9c-0.5,0.4-1.3,0.1-1.5-0.5l-1.9-5c-0.3-0.9-1.5-0.9-1.9,0l-1.9,5c-0.2,0.6-1,0.9-1.5,0.5l-4-2.9
	C2.9,5,1.8,5.7,2.1,6.7l4.2,11.6C6.4,18.7,6.8,19,7.2,19h9.5c0.4,0,0.8-0.3,0.9-0.7l4.2-11.6C22.2,5.7,21.1,5,20.4,5.5z M14.5,14.8
	h-5c-0.4,0-0.8-0.3-0.8-0.8s0.3-0.8,0.8-0.8h5c0.4,0,0.8,0.3,0.8,0.8S14.9,14.8,14.5,14.8z"/>
</svg>
