<svg  viewBox="0 0 48 52" fill="none" xmlns="http://www.w3.org/2000/svg">
<path d="M2.81655 28.8889C2.81655 33.6029 3.07165 37.2596 3.70542 40.1113C4.33432 42.9411 5.3102 44.8588 6.67102 46.2196C8.03183 47.5804 9.94951 48.5563 12.7793 49.1852C15.631 49.819 19.2877 50.0741 24.0017 50.0741C28.7158 50.0741 32.3725 49.819 35.2241 49.1852C38.054 48.5563 39.9716 47.5804 41.3325 46.2196C42.6933 44.8588 43.6692 42.9411 44.2981 40.1113C44.9318 37.2596 45.1869 33.6029 45.1869 28.8889C45.1869 24.1748 44.9318 20.5182 44.2981 17.6665C43.6692 14.8367 42.6933 12.919 41.3325 11.5582C39.9716 10.1974 38.054 9.22147 35.2241 8.59257C32.3725 7.95881 28.7158 7.7037 24.0017 7.7037C19.2877 7.7037 15.631 7.95881 12.7793 8.59257C9.94951 9.22147 8.03183 10.1974 6.67102 11.5582C5.3102 12.919 4.33432 14.8367 3.70542 17.6665C3.07165 20.5182 2.81655 24.1748 2.81655 28.8889Z" stroke="#00C6E1" stroke-width="3.85185" stroke-linecap="round" stroke-linejoin="round"/>
<path fill-rule="evenodd" clip-rule="evenodd" d="M20.15 0C21.2137 0 22.0759 0.862266 22.0759 1.92593V3.85185H25.9278V1.92593C25.9278 0.862266 26.79 0 27.8537 0C28.9174 0 29.7796 0.862266 29.7796 1.92593V3.85185H31.7055C33.8329 3.85185 35.5574 5.57638 35.5574 7.7037C35.5574 9.83102 33.8329 11.5556 31.7055 11.5556H16.2981C14.1708 11.5556 12.4463 9.83102 12.4463 7.7037C12.4463 5.57638 14.1708 3.85185 16.2981 3.85185H18.2241V1.92593C18.2241 0.862266 19.0863 0 20.15 0Z" fill="#00C6E1"/>
<path d="M14.3721 40.4443H33.6313" stroke="#00C6E1" stroke-width="3.85185" stroke-linecap="round" stroke-linejoin="round"/>
<path d="M14.3721 30.8147H33.6313" stroke="#00C6E1" stroke-width="3.85185" stroke-linecap="round" stroke-linejoin="round"/>
<path d="M14.3721 21.1853H33.6313" stroke="#00C6E1" stroke-width="3.85185" stroke-linecap="round" stroke-linejoin="round"/>
</svg>
