<?xml version="1.0" encoding="utf-8"?>
<!-- Generator: Adobe Illustrator 26.3.1, SVG Export Plug-In . SVG Version: 6.00 Build 0)  -->
<svg version="1.1" id="Layer_1" xmlns="http://www.w3.org/2000/svg" xmlns:xlink="http://www.w3.org/1999/xlink" x="0px" y="0px"
	 viewBox="0 0 24 25" style="enable-background:new 0 0 24 25;" xml:space="preserve">
<style type="text/css">
	.st0{fill:none;stroke:#000000;stroke-width:2;stroke-linecap:round;stroke-linejoin:round;}
</style>
<path class="st0" d="M1,12.5c0,2.4,0.1,4.3,0.5,5.8c0.3,1.5,0.8,2.5,1.5,3.2c0.7,0.7,1.7,1.2,3.2,1.5c1.5,0.3,3.4,0.5,5.8,0.5
	c2.4,0,4.3-0.1,5.8-0.5c1.5-0.3,2.5-0.8,3.2-1.5c0.7-0.7,1.2-1.7,1.5-3.2c0.3-1.5,0.5-3.4,0.5-5.8s-0.1-4.3-0.5-5.8
	c-0.3-1.5-0.8-2.5-1.5-3.2c-0.7-0.7-1.7-1.2-3.2-1.5c-1.5-0.3-3.4-0.5-5.8-0.5C9.6,1.5,7.7,1.6,6.2,2C4.7,2.3,3.7,2.8,3,3.5
	S1.8,5.2,1.5,6.7C1.1,8.2,1,10.1,1,12.5z"/>
<path class="st0" d="M14,7.5h3"/>
<path class="st0" d="M7,12.5h10"/>
<path class="st0" d="M7,17.5h3"/>
</svg>
