

<svg xmlns="http://www.w3.org/2000/svg" xmlns:xlink="http://www.w3.org/1999/xlink" width="48px" height="48px" fill="#464646" version="1.1" x="0px" y="0px" viewBox="0 0 100 125" style="enable-background:new 0 0 100 100;" xml:space="preserve"><rect x="38.8" y="54.5" width="21.8" height="3.9"/><rect x="38.8" y="46.8" width="21.8" height="3.9"/><rect x="38.8" y="62.6" width="11.9" height="3.9"/><path d="M95.3,25.2c0,0-3.1-14.8-16.5-20C72.5,2.7,61,1.5,49.7,1.5C38.4,1.5,26.9,2.7,20.6,5.1C7.1,10.3,4,25.2,4,25.2  C2,33.5,1.4,42,1.4,49.6C1.4,57.1,2,65.7,4,74c0,0,3.1,14.8,16.5,20c6.3,2.4,17.8,3.6,29.1,3.7C61,97.6,72.5,96.5,78.8,94  c13.4-5.2,16.5-20,16.5-20c2-8.4,2.7-16.9,2.6-24.4C98,42,97.3,33.5,95.3,25.2z M70.7,69.5c0,3.3-2.7,6-6,6H34.6c-3.3,0-6-2.7-6-6  V28.7c0-3.3,2.7-6,6-6l21,0l0.7,0.2c0.2,0.1,0.3,0.2,0.5,0.4l13.3,13.5c0.2,0.2,0.3,0.4,0.4,0.7l0.1,0.7V69.5z"/><path d="M56.8,35c0,1.1,0.9,2,2,2h5.8L56.8,29V35z"/></svg>