<?xml version="1.0" encoding="utf-8"?>
<!-- Generator: Adobe Illustrator 26.3.1, SVG Export Plug-In . SVG Version: 6.00 Build 0)  -->
<svg version="1.1" id="Layer_1" xmlns="http://www.w3.org/2000/svg" xmlns:xlink="http://www.w3.org/1999/xlink" x="0px" y="0px"
	 viewBox="0 0 36.2 36.2" style="enable-background:new 0 0 36.2 36.2;" xml:space="preserve">
<style type="text/css">
	.st0{fill:none;stroke:#000000;stroke-width:2.5;stroke-linecap:round;stroke-linejoin:round;}
</style>
<path class="st0" d="M34.8,14.8v8.3c0,8.3-3.3,11.7-11.7,11.7h-10c-8.3,0-11.7-3.3-11.7-11.7v-10c0-8.3,3.3-11.7,11.7-11.7h8.3"/>
<path class="st0" d="M34.8,14.8h-6.7c-5,0-6.7-1.7-6.7-6.7V1.5L34.8,14.8z"/>
<path class="st0" d="M9.2,24.4c-0.6-1.7,0.1-3.8,1.9-4.4c0.9-0.3,2.1-0.1,2.8,0.9c0.6-1,1.8-1.2,2.8-0.9c1.8,0.6,2.4,2.7,1.9,4.4
	c-0.9,2.7-3.8,4.1-4.7,4.1C13,28.5,10,27.1,9.2,24.4z"/>
</svg>
