<?xml version="1.0" encoding="utf-8"?>
<!-- Generator: Adobe Illustrator 26.3.1, SVG Export Plug-In . SVG Version: 6.00 Build 0)  -->
<svg version="1.1" id="Layer_1" xmlns="http://www.w3.org/2000/svg" xmlns:xlink="http://www.w3.org/1999/xlink" x="0px" y="0px"
	 viewBox="0 0 40 40" style="enable-background:new 0 0 40 40;" xml:space="preserve">
<style type="text/css">
	.st0{fill:none;stroke:#000000;stroke-width:2.5;stroke-linecap:round;stroke-linejoin:round;}
</style>
<path class="st0" d="M28.3,22.3v5c0,6.7-2.7,9.3-9.3,9.3h-6.3c-6.7,0-9.3-2.7-9.3-9.3V21c0-6.7,2.7-9.3,9.3-9.3h5"/>
<path class="st0" d="M28.3,22.3H23c-4,0-5.3-1.3-5.3-5.3v-5.3L28.3,22.3z"/>
<path class="st0" d="M19.3,3.3H26"/>
<path class="st0" d="M11.7,8.3c0-2.8,2.2-5,5-5H21"/>
<path class="st0" d="M36.7,13.3v10.3c0,2.6-2.1,4.7-4.7,4.7"/>
<path class="st0" d="M36.7,13.3h-5c-3.8,0-5-1.2-5-5v-5L36.7,13.3z"/>
</svg>
