<?xml version="1.0" encoding="utf-8"?>
<!-- Generator: Adobe Illustrator 26.3.1, SVG Export Plug-In . SVG Version: 6.00 Build 0)  -->
<svg version="1.1" id="Layer_1" xmlns="http://www.w3.org/2000/svg" xmlns:xlink="http://www.w3.org/1999/xlink" x="0px" y="0px"
	 viewBox="0 0 32 32" style="enable-background:new 0 0 32 32;" xml:space="preserve">
<style type="text/css">
	.st0{fill:none;stroke:#000000;stroke-width:2;stroke-linecap:round;stroke-linejoin:round;}
</style>
<path class="st0" d="M1,16c0-3.3,0.2-5.8,0.6-7.8c0.4-2,1.1-3.4,2.1-4.4c1-1,2.4-1.7,4.4-2.1C10.2,1.2,12.7,1,16,1s5.8,0.2,7.8,0.6
	c2,0.4,3.4,1.1,4.4,2.1c1,1,1.7,2.4,2.1,4.4c0.4,2,0.6,4.6,0.6,7.8s-0.2,5.8-0.6,7.8c-0.4,2-1.1,3.4-2.1,4.4s-2.4,1.7-4.4,2.1
	c-2,0.4-4.6,0.6-7.8,0.6s-5.8-0.2-7.8-0.6c-2-0.4-3.4-1.1-4.4-2.1c-1-1-1.7-2.4-2.1-4.4C1.2,21.8,1,19.3,1,16z"/>
<path class="st0" d="M21.3,18.7L16,13.3l-5.3,5.3"/>
</svg>
