<?xml version="1.0" encoding="utf-8"?>
<!-- Generator: Adobe Illustrator 26.3.1, SVG Export Plug-In . SVG Version: 6.00 Build 0)  -->
<svg version="1.1" id="Layer_1" xmlns="http://www.w3.org/2000/svg" xmlns:xlink="http://www.w3.org/1999/xlink" x="0px" y="0px"
	 viewBox="0 0 20 19" style="enable-background:new 0 0 20 19;" xml:space="preserve" fill="#787878">
<style type="text/css">
	.st0{stroke:#787878;stroke-width:1.6667;stroke-linecap:round;stroke-linejoin:round;}
	.st1{fill-rule:evenodd;clip-rule:evenodd;}
</style>
<path class="st0" d="M14.2,8.3L10,12.5 M10,12.5L5.8,8.3 M10,12.5V0.8"/>
<path class="st1" d="M4.2,4.4c0-0.6-0.5-1-1-0.8c-2.5,1-3.1,3-3.1,6.9c0,6.4,1.8,7.7,10,7.7s10-1.4,10-7.7c0-3.9-0.7-6-3.1-6.9
	c-0.5-0.2-1,0.2-1,0.8c0,0.4,0.3,0.7,0.6,0.9c0.3,0.1,0.5,0.2,0.6,0.4c0.8,0.6,1.3,1.8,1.3,4.9c0,3.2-0.5,4.3-1.3,4.9
	c-0.4,0.3-1.1,0.6-2.3,0.8c-1.2,0.2-2.7,0.3-4.8,0.3c-2,0-3.6-0.1-4.8-0.3c-1.2-0.2-1.9-0.5-2.3-0.8c-0.8-0.6-1.3-1.8-1.3-4.9
	c0-3.2,0.5-4.3,1.3-4.9c0.2-0.1,0.4-0.3,0.6-0.4C3.9,5.1,4.2,4.8,4.2,4.4z"/>
</svg>
