<svg width="20" height="19" viewBox="0 0 20 19" fill="none" xmlns="http://www.w3.org/2000/svg">
<path d="M14.1641 8.33333L9.9974 12.5M9.9974 12.5L5.83073 8.33333M9.9974 12.5L9.9974 0.833333" stroke="#00C6E1" stroke-width="1.66667" stroke-linecap="round" stroke-linejoin="round"/>
<path fill-rule="evenodd" clip-rule="evenodd" d="M4.16667 4.41252C4.16667 3.8564 3.64059 3.44168 3.12387 3.64728C0.672463 4.62272 0 6.6504 0 10.5873C0 16.9654 1.765 18.3325 10 18.3325C18.235 18.3325 20 16.9654 20 10.5873C20 6.6504 19.3275 4.62272 16.8761 3.64728C16.3594 3.44167 15.8333 3.8564 15.8333 4.41252V4.41252C15.8333 4.78957 16.0841 5.11304 16.4283 5.26685C16.6894 5.38351 16.898 5.50929 17.0676 5.64061C17.8491 6.24591 18.3333 7.4009 18.3333 10.5873C18.3333 13.7737 17.8491 14.9287 17.0676 15.534C16.6313 15.8719 15.9365 16.1731 14.7539 16.3767C13.5718 16.5802 12.03 16.6658 10 16.6658C7.97003 16.6658 6.42821 16.5802 5.24608 16.3767C4.06352 16.1731 3.36868 15.8719 2.93243 15.534C2.15089 14.9287 1.66667 13.7737 1.66667 10.5873C1.66667 7.4009 2.15089 6.24591 2.93243 5.64061C3.10197 5.50929 3.31057 5.38351 3.57169 5.26685C3.91593 5.11304 4.16667 4.78957 4.16667 4.41252V4.41252Z" fill="#00C6E1"/>
</svg>
