<?xml version="1.0" encoding="utf-8"?>
<!-- Generator: Adobe Illustrator 26.3.1, SVG Export Plug-In . SVG Version: 6.00 Build 0)  -->
<svg version="1.1" id="Layer_1" xmlns="http://www.w3.org/2000/svg" xmlns:xlink="http://www.w3.org/1999/xlink" x="0px" y="0px"
	 viewBox="0 0 21.6 21.5" style="enable-background:new 0 0 21.6 21.5;" xml:space="preserve">
<style type="text/css">
	.st0{fill-rule:evenodd;clip-rule:evenodd;}
</style>
<path class="st0" d="M14.7,19.7c0,0.2-0.1,0.3-0.2,0.4c-1.1,0.5-2.4,0.7-3.7,0.7c-2.2,0-4.2-0.7-5.9-1.9c-0.1-0.1-0.2-0.3-0.1-0.5
	c0.5-1,2.7-4.1,7.4-5.9c0.2-0.1,0.4,0,0.4,0.2C14,15.9,14.5,18.6,14.7,19.7z"/>
<path class="st0" d="M20.7,12.6c-0.5,2.5-1.8,4.6-3.8,6.1c-0.2,0.2-0.5,0-0.6-0.2c-0.2-1.1-0.7-3.4-1.7-6.2
	c-0.1-0.2,0.1-0.4,0.3-0.5c2.5-0.3,4.7,0.2,5.5,0.4C20.6,12.3,20.7,12.5,20.7,12.6z"/>
<path class="st0" d="M20.5,10.6c-1-0.2-3.6-0.6-6.3-0.3c-0.2,0-0.3-0.1-0.4-0.2c0-0.1-0.1-0.2-0.1-0.3c-0.2-0.4-0.3-0.8-0.5-1.1
	c-0.1-0.2,0-0.4,0.2-0.5c2.8-1.2,4.4-2.8,5-3.5c0.1-0.2,0.4-0.2,0.6,0c1.2,1.5,1.9,3.4,2,5.4C20.9,10.4,20.7,10.6,20.5,10.6z"/>
<path class="st0" d="M17.3,3.5c-0.5,0.6-2,2.1-4.8,3.2c-0.2,0.1-0.3,0-0.4-0.2c-1.3-2.3-2.6-4.3-3.3-5.2c-0.2-0.2,0-0.5,0.2-0.5
	c0.6-0.1,1.2-0.1,1.8-0.1c2.4,0,4.6,0.9,6.4,2.3C17.4,3.2,17.4,3.4,17.3,3.5z"/>
<path class="st0" d="M9.9,7.6c-3.8,1-7.1,1.1-8.4,1.1c-0.2,0-0.4-0.2-0.3-0.4c0.7-2.8,2.6-5.1,5.2-6.4c0.2-0.1,0.3,0,0.4,0.1
	c0.5,0.7,1.9,2.8,3.3,5.1C10.2,7.3,10.1,7.5,9.9,7.6z"/>
<path class="st0" d="M11.8,10.3c0.1,0.2,0,0.4-0.2,0.5c-4.4,1.4-7.1,5-7.9,6.2c-0.1,0.2-0.4,0.2-0.6,0c-1.4-1.7-2.2-3.7-2.2-6.1
	v-0.2c0-0.2,0.2-0.4,0.4-0.3c1.3,0.1,5.4-0.1,9.6-1.4c0.2-0.1,0.3,0,0.4,0.2C11.5,9.6,11.6,10,11.8,10.3z"/>
</svg>
