<?xml version="1.0" encoding="utf-8"?>
<!-- Generator: Adobe Illustrator 26.3.1, SVG Export Plug-In . SVG Version: 6.00 Build 0)  -->
<svg version="1.1" id="Layer_1" xmlns="http://www.w3.org/2000/svg" xmlns:xlink="http://www.w3.org/1999/xlink" x="0px" y="0px"
	 viewBox="0 0 20 21" style="enable-background:new 0 0 20 21;" xml:space="preserve">
<style type="text/css">
	.st0{fill:none;stroke:#000000;stroke-width:1.6667;stroke-linecap:round;stroke-linejoin:round;}
	.st1{fill:none;stroke:#000000;stroke-width:1.6667;stroke-linejoin:round;}
</style>
<path class="st0" d="M0.8,10.8c0,2,0.1,3.6,0.4,4.9c0.3,1.2,0.7,2.1,1.3,2.6c0.6,0.6,1.4,1,2.6,1.3c1.2,0.3,2.8,0.4,4.9,0.4
	c2,0,3.6-0.1,4.9-0.4c1.2-0.3,2.1-0.7,2.6-1.3c0.6-0.6,1-1.4,1.3-2.6c0.3-1.2,0.4-2.8,0.4-4.9c0-2-0.1-3.6-0.4-4.9
	c-0.3-1.2-0.7-2.1-1.3-2.6c-0.6-0.6-1.4-1-2.6-1.3C13.6,1.7,12,1.6,10,1.6C8,1.6,6.4,1.7,5.1,2C3.9,2.3,3.1,2.7,2.5,3.3
	c-0.6,0.6-1,1.4-1.3,2.6C0.9,7.2,0.8,8.7,0.8,10.8z"/>
<path class="st1" d="M9.3,7.6l1.5-1.5c0.3-0.4,0.9-0.4,1.3,0l2.7,2.4c0.4,0.3,0.4,0.9,0,1.2l-1.6,1.7 M9.3,7.6l-4.1,4.3
	C5.1,12,5,12.3,5,12.5L5.2,15c0,0.5,0.4,0.8,0.9,0.8l2.5,0c0.2,0,0.5-0.1,0.7-0.3l3.9-4.1 M9.3,7.6l3.9,3.8"/>
</svg>
