<?xml version="1.0" encoding="utf-8"?>
<!-- Generator: Adobe Illustrator 26.3.1, SVG Export Plug-In . SVG Version: 6.00 Build 0)  -->
<svg version="1.1" id="Layer_1" xmlns="http://www.w3.org/2000/svg" xmlns:xlink="http://www.w3.org/1999/xlink" x="0px" y="0px"
	 viewBox="0 0 20 18.6" style="enable-background:new 0 0 20 18.6;" xml:space="preserve">
<style type="text/css">
	.st0{fill:#FFFFFF;filter:url(#Adobe_OpacityMaskFilter);}
	.st1{mask:url(#path-1-inside-1_1240_50022_00000028314665808664005540000014899474697026819007_);}
</style>
<defs>
	<filter id="Adobe_OpacityMaskFilter" filterUnits="userSpaceOnUse" x="-1.3" y="-1.1" width="22.5" height="20.9">
		<feColorMatrix  type="matrix" values="1 0 0 0 0  0 1 0 0 0  0 0 1 0 0  0 0 0 1 0"/>
	</filter>
</defs>
<mask maskUnits="userSpaceOnUse" x="-1.3" y="-1.1" width="22.5" height="20.9" id="path-1-inside-1_1240_50022_00000028314665808664005540000014899474697026819007_">
	<path class="st0" d="M0,9.3c0,7.5,1.8,9.2,10,9.2s10-1.6,10-9.2c0-7.5-1.8-9.2-10-9.2c-5.4,0-8,0.7-9.2,3.3C0.2,4.8,0,6.7,0,9.3z"
		/>
</mask>
<path class="st1" d="M18.7,3.1c0.2-0.3,0.6-0.3,0.9-0.1c0.3,0.2,0.3,0.6,0.1,0.9L18.7,3.1z M10,9.3l0,0.6L10,9.3z M0.3,3.9
	C0.1,3.6,0.1,3.2,0.4,3c0.3-0.2,0.7-0.2,0.9,0.1L0.3,3.9z M19.2,3.5c0.5,0.4,0.5,0.4,0.5,0.4c0,0,0,0,0,0c0,0,0,0,0,0c0,0,0,0,0,0
	c0,0,0,0,0,0c0,0,0,0,0,0.1c0,0-0.1,0.1-0.2,0.2c-0.1,0.2-0.4,0.4-0.6,0.7c-0.5,0.6-1.3,1.3-2.2,2.1c-0.9,0.7-2,1.5-3.1,2.1
	c-1.1,0.6-2.3,1-3.5,1l0-1.3c0.9,0,1.9-0.3,2.9-0.8c1-0.5,2-1.2,2.8-1.9c0.9-0.7,1.6-1.4,2.1-2c0.3-0.3,0.5-0.5,0.6-0.6
	c0.1-0.1,0.1-0.1,0.2-0.2c0,0,0,0,0,0c0,0,0,0,0,0c0,0,0,0,0,0c0,0,0,0,0,0c0,0,0,0,0,0C18.7,3.1,18.7,3.1,19.2,3.5z M10,9.9
	c-1.2,0-2.4-0.4-3.5-1C5.4,8.4,4.3,7.6,3.4,6.9C2.5,6.1,1.7,5.4,1.2,4.8C0.9,4.6,0.7,4.3,0.6,4.2C0.5,4.1,0.4,4,0.4,4c0,0,0,0,0-0.1
	c0,0,0,0,0,0c0,0,0,0,0,0c0,0,0,0,0,0c0,0,0,0,0,0c0,0,0,0,0.5-0.4c0.5-0.4,0.5-0.4,0.5-0.4c0,0,0,0,0,0c0,0,0,0,0,0c0,0,0,0,0,0
	c0,0,0,0,0,0c0,0,0,0,0,0c0,0,0.1,0.1,0.2,0.2c0.1,0.2,0.3,0.4,0.6,0.6c0.5,0.5,1.3,1.2,2.1,2c0.9,0.7,1.8,1.4,2.8,1.9
	c1,0.5,2,0.8,2.9,0.8L10,9.9z M0.8,3.5L-0.4,3L0.8,3.5z M1.3,9.3c0,3.8,0.5,5.5,1.5,6.5c0.5,0.5,1.3,0.8,2.4,1.1
	c1.2,0.2,2.8,0.3,4.8,0.3v2.5c-2.1,0-3.8-0.1-5.3-0.4c-1.5-0.3-2.7-0.8-3.7-1.7c-1.9-1.8-2.3-4.6-2.3-8.4H1.3z M10,17.2
	c2,0,3.6-0.1,4.8-0.3c1.2-0.2,1.9-0.6,2.4-1.1c1-0.9,1.5-2.7,1.5-6.5h2.5c0,3.7-0.4,6.6-2.3,8.4c-1,0.9-2.2,1.4-3.7,1.7
	c-1.4,0.3-3.2,0.4-5.3,0.4V17.2z M18.7,9.3c0-3.8-0.5-5.5-1.5-6.5C16.7,2.4,16,2,14.8,1.8C13.6,1.5,12,1.4,10,1.4v-2.5
	c2.1,0,3.8,0.1,5.3,0.4C16.7-0.4,18,0.1,18.9,1c1.9,1.8,2.3,4.6,2.3,8.4H18.7z M10,1.4C7.3,1.4,5.5,1.6,4.2,2C3,2.4,2.4,3,2,4
	l-2.3-1c0.7-1.7,2-2.7,3.8-3.3C5.1-1,7.3-1.1,10-1.1V1.4z M2,4C1.5,5.1,1.3,6.8,1.3,9.3h-2.5c0-2.6,0.2-4.7,0.9-6.3L2,4z"/>
</svg>
