<svg width="20" height="22" viewBox="0 0 20 22" fill="none" xmlns="http://www.w3.org/2000/svg">
<path fill-rule="evenodd" clip-rule="evenodd" d="M0 10.9638C0 18.9188 0.75997 19.1494 6.54271 20.9046C6.94551 21.0269 7.3731 21.1567 7.82609 21.2968C11.6401 22.4771 13.6245 21.815 14.6389 19.5734C15.7124 19.5639 16.6224 19.497 17.3604 19.2799C18.2175 19.0278 18.8714 18.5643 19.2971 17.7866C19.6892 17.0704 19.8467 16.1566 19.9231 15.0886C20 14.0135 20 12.657 20 10.9904V10.925C20 9.2585 20 7.90267 19.9231 6.82864C19.8467 5.76183 19.6891 4.84906 19.2966 4.13397C18.8702 3.35727 18.2156 2.89586 17.359 2.64536C16.6215 2.42968 15.712 2.3635 14.6389 2.35411C13.6244 0.112612 11.6401 -0.549557 7.82609 0.630693C7.37301 0.770897 6.94575 0.900574 6.54287 1.02285C0.759984 2.77802 0 3.00869 0 10.9638ZM16.8652 17.629C16.462 17.7476 15.9233 17.8135 15.1828 17.8394C15.5578 16.0773 15.6522 13.7664 15.6522 10.9638C15.6522 8.1611 15.5578 5.85016 15.1828 4.08798C15.9238 4.11365 16.4629 4.17901 16.8665 4.29703C17.355 4.43989 17.5972 4.6441 17.7686 4.95646C17.9739 5.33042 18.1153 5.93016 18.1883 6.95045C18.2604 7.95649 18.2609 9.25173 18.2609 10.9577C18.2609 12.6637 18.2604 13.9597 18.1883 14.9669C18.1153 15.9883 17.9739 16.5901 17.7681 16.9659C17.596 17.2803 17.3532 17.4855 16.8652 17.629ZM11.3043 11.8249C10.8241 11.8249 10.4348 11.4393 10.4348 10.9638C10.4348 10.4882 10.8241 10.1027 11.3043 10.1027C11.7846 10.1027 12.1739 10.4882 12.1739 10.9638C12.1739 11.4393 11.7846 11.8249 11.3043 11.8249Z" fill="#00C6E1"/>
</svg>
