<?xml version="1.0" encoding="utf-8"?>
<!-- Generator: Adobe Illustrator 26.3.1, SVG Export Plug-In . SVG Version: 6.00 Build 0)  -->
<svg version="1.1" id="Layer_1" xmlns="http://www.w3.org/2000/svg" xmlns:xlink="http://www.w3.org/1999/xlink" x="0px" y="0px"
	 viewBox="0 0 20 22" style="enable-background:new 0 0 20 22;" xml:space="preserve">
<style type="text/css">
	.st0{fill:none;stroke:#787878;stroke-width:1.6;stroke-linecap:round;stroke-linejoin:round;}
	.st1{fill:#787878;stroke:#787878;stroke-miterlimit:10;}
</style>
<path class="st0" d="M0.8,10.9c0,2.1,0.1,3.6,0.2,4.8c0.2,1.1,0.5,1.8,0.9,2.2c0.4,0.5,1,0.8,2,1.2c0.8,0.3,1.7,0.6,2.8,0.9
	c0.4,0.1,0.8,0.3,1.3,0.4c1.7,0.5,2.9,0.6,3.8,0.5c0.8-0.2,1.4-0.6,1.8-1.3c0.5-0.8,0.8-1.8,0.9-3.3c0.2-1.5,0.2-3.3,0.2-5.4
	c0-2.1-0.1-3.9-0.2-5.4c-0.2-1.5-0.5-2.6-0.9-3.3c-0.4-0.7-1-1.1-1.8-1.3C11,0.7,9.7,0.8,8.1,1.3C7.6,1.5,7.2,1.6,6.7,1.7
	C5.6,2.1,4.7,2.4,4,2.6c-1,0.4-1.6,0.8-2,1.2C1.5,4.4,1.2,5,1,6.1C0.9,7.3,0.8,8.8,0.8,10.9z"/>
<ellipse class="st1" cx="11.3" cy="11.1" rx="0.9" ry="0.9"/>
<path class="st0" d="M14.8,18.8c4.3,0,4.3-1.1,4.3-7.7c0-6.7,0-8-4.3-8"/>
</svg>
