<?xml version="1.0" encoding="utf-8"?>
<!-- Generator: Adobe Illustrator 26.3.1, SVG Export Plug-In . SVG Version: 6.00 Build 0)  -->
<svg version="1.1" id="Layer_1" xmlns="http://www.w3.org/2000/svg" xmlns:xlink="http://www.w3.org/1999/xlink" x="0px" y="0px"
	 viewBox="0 0 20.6 20.5" style="enable-background:new 0 0 20.6 20.5;" xml:space="preserve">
<path d="M20.3,14.4c0,3.6-2.2,5.8-5.8,5.8h-1.2c-0.6,0-1-0.5-1-1v-5.8c0-0.3,0.2-0.5,0.5-0.5l1.8,0c0.1,0,0.3-0.1,0.3-0.2l0.3-1.9
	c0-0.2-0.1-0.4-0.3-0.4l-2.1,0c-0.3,0-0.5-0.2-0.5-0.5l0-2.4c0-0.2,0.1-0.3,0.3-0.3l2.4,0c0.2,0,0.3-0.1,0.3-0.3l0-2.4
	c0-0.2-0.1-0.3-0.3-0.3l-2.7,0c-1.7,0-3,1.4-2.9,3L9.3,10c0,0.3-0.2,0.5-0.5,0.5l-1.2,0c-0.2,0-0.3,0.1-0.3,0.3l0,1.9
	c0,0.2,0.1,0.3,0.3,0.3l1.2,0c0.3,0,0.5,0.2,0.5,0.5l0.1,5.7c0,0.6-0.4,1-1,1H6.1c-3.6,0-5.8-2.2-5.8-5.8V6c0-3.6,2.2-5.8,5.8-5.8
	h8.4c3.6,0,5.8,2.2,5.8,5.8V14.4z"/>
</svg>
