<?xml version="1.0" encoding="utf-8"?>
<!-- Generator: Adobe Illustrator 26.3.1, SVG Export Plug-In . SVG Version: 6.00 Build 0)  -->
<svg version="1.1" id="Layer_1" xmlns="http://www.w3.org/2000/svg" xmlns:xlink="http://www.w3.org/1999/xlink" x="0px" y="0px"
	 viewBox="0 0 18 17" style="enable-background:new 0 0 18 17;" xml:space="preserve">
<style type="text/css">
	.st0{fill:none;stroke:#00C6E1;stroke-width:1.5;stroke-linecap:round;stroke-linejoin:round;}
</style>
<path class="st0" d="M7.3,13.6H1"/>
<path class="st0" d="M10.1,3.9h6.3"/>
<path class="st0" d="M5.7,3.8c0-1.3-1.1-2.3-2.4-2.3C2.1,1.5,1,2.6,1,3.8c0,1.3,1.1,2.3,2.4,2.3C4.7,6.2,5.7,5.1,5.7,3.8z"/>
<path class="st0" d="M17,13.6c0-1.3-1.1-2.3-2.4-2.3c-1.3,0-2.4,1.1-2.4,2.3c0,1.3,1.1,2.3,2.4,2.3C15.9,15.9,17,14.8,17,13.6z"/>
</svg>
