<?xml version="1.0" encoding="utf-8"?>
<!-- Generator: Adobe Illustrator 26.3.1, SVG Export Plug-In . SVG Version: 6.00 Build 0)  -->
<svg version="1.1" id="Layer_1" xmlns="http://www.w3.org/2000/svg" xmlns:xlink="http://www.w3.org/1999/xlink" x="0px" y="0px"
	 viewBox="0 0 28 28" style="enable-background:new 0 0 28 28;" xml:space="preserve">
<path d="M25.9,3.5c-0.4-0.6-0.9-1.1-1.4-1.4c-1.3-0.9-2.9-1.4-4.9-1.4H8.4c-0.3,0-0.5,0-0.8,0c-4.4,0.3-7,3.1-7,7.7v11.2
	c0,2,0.5,3.6,1.4,4.9c0.4,0.6,0.9,1.1,1.4,1.4c1.1,0.8,2.5,1.3,4.1,1.4c0.3,0,0.5,0,0.8,0h11.2c4.9,0,7.7-2.9,7.7-7.7V8.4
	C27.3,6.4,26.9,4.8,25.9,3.5z M23,9.9c0,0.5-0.5,1-1,1s-1-0.5-1-1V8.3c0-0.4-0.3-0.8-0.8-0.8H15v13h2.4c0.5,0,1,0.5,1,1
	c0,0.5-0.5,1-1,1h-6.7c-0.5,0-1-0.5-1-1c0-0.5,0.5-1,1-1H13v-13H7.8C7.3,7.5,7,7.9,7,8.3v1.6c0,0.5-0.5,1-1,1c-0.5,0-1-0.5-1-1V8.3
	c0-1.5,1.2-2.8,2.8-2.8h12.4c1.5,0,2.8,1.2,2.8,2.8L23,9.9L23,9.9z"/>
</svg>
