<?xml version="1.0" encoding="utf-8"?>
<!-- Generator: Adobe Illustrator 26.3.1, SVG Export Plug-In . SVG Version: 6.00 Build 0)  -->
<svg version="1.1" id="Layer_1" xmlns="http://www.w3.org/2000/svg" xmlns:xlink="http://www.w3.org/1999/xlink" x="0px" y="0px"
	 viewBox="0 0 32 32" style="enable-background:new 0 0 32 32;" xml:space="preserve">
<path d="M3.4,25.3L3.4,25.3c-0.4-0.8-0.6-1.7-0.7-2.6C2.8,23.7,3.1,24.6,3.4,25.3z"/>
<path d="M12,13.8c1.8,0,3.2-1.4,3.2-3.2c0-1.8-1.4-3.2-3.2-3.2c-1.8,0-3.2,1.4-3.2,3.2C8.8,12.4,10.2,13.8,12,13.8z"/>
<path d="M21.6,2.7H10.4c-4.9,0-7.7,2.9-7.7,7.7v11.2c0,1.5,0.3,2.7,0.7,3.8c1.1,2.5,3.6,4,7,4h11.2c4.9,0,7.7-2.9,7.7-7.7v-3.1v-8.1
	C29.3,5.6,26.4,2.7,21.6,2.7z M27.2,16.7c-1-0.9-2.7-0.9-3.8,0l-5.5,4.8c-1,0.9-2.7,0.9-3.8,0l-0.5-0.4c-0.9-0.8-2.5-0.9-3.5-0.2
	l-5,3.3c-0.3-0.7-0.5-1.6-0.5-2.6V10.4c0-3.8,2-5.7,5.7-5.7h11.2c3.8,0,5.7,2,5.7,5.7v6.4L27.2,16.7z"/>
</svg>
