<svg width="20" height="20" viewBox="0 0 20 20" fill="none" xmlns="http://www.w3.org/2000/svg">
<path fill-rule="evenodd" clip-rule="evenodd" d="M10 20C1.765 20 0 18.235 0 10C0 1.765 1.765 0 10 0C18.235 0 20 1.765 20 10C20 18.235 18.235 20 10 20ZM5.77456 11.9741C5.60495 12.4015 5.12112 12.6108 4.69344 12.4416C4.26548 12.2723 4.05579 11.7881 4.2251 11.3601L5 11.6667C5.7749 11.9732 5.77456 11.9741 5.77456 11.9741ZM5 11.6667L5.7749 11.9732L5.77835 11.9647C5.78166 11.9566 5.7871 11.9434 5.79461 11.9255C5.80964 11.8898 5.8329 11.8358 5.86389 11.7671C5.92605 11.6295 6.0184 11.4353 6.13701 11.2142C6.37971 10.7617 6.70913 10.2405 7.08726 9.85239C7.48105 9.44824 7.79667 9.31893 8.02837 9.33415C8.23948 9.34801 8.68823 9.50533 9.30009 10.4523C10.0344 11.5887 10.8837 12.2647 11.8625 12.3289C12.8207 12.3919 13.5868 11.8441 14.1065 11.3107C14.6418 10.7613 15.0576 10.0847 15.3317 9.57359C15.4715 9.31293 15.5805 9.08394 15.6551 8.91884C15.6924 8.8361 15.7214 8.76889 15.7415 8.72118C15.7515 8.69731 15.7594 8.67828 15.7649 8.66458L15.7716 8.64807L15.7737 8.64291L15.7744 8.64113C15.7744 8.64113 15.7749 8.63989 15 8.33333L15.7749 8.63989C15.9442 8.21192 15.7345 7.72774 15.3066 7.55843C14.8788 7.38923 14.395 7.59856 14.2254 8.026L14.2251 8.02678L14.2216 8.0353C14.2197 8.04016 14.2169 8.04685 14.2134 8.05526C14.2111 8.0609 14.2084 8.06732 14.2054 8.07447C14.1904 8.11018 14.1671 8.16423 14.1361 8.23286C14.074 8.37049 13.9816 8.56467 13.863 8.78579C13.6203 9.23826 13.2909 9.75954 12.9128 10.1476C12.519 10.5518 12.2034 10.6811 11.9717 10.6659C11.7606 10.652 11.3118 10.4947 10.7 9.54774C9.96567 8.41134 9.11635 7.73533 8.13756 7.67106C7.17935 7.60815 6.41323 8.15593 5.89355 8.68928C5.35821 9.2387 4.94242 9.91534 4.66829 10.4264C4.52848 10.6871 4.41951 10.9161 4.34495 11.0812C4.30758 11.1639 4.27862 11.2311 4.25854 11.2788C4.24849 11.3027 4.24064 11.3217 4.23505 11.3354L4.22837 11.3519L4.2263 11.3571L4.2256 11.3589C4.2256 11.3589 4.2251 11.3601 5 11.6667Z" fill="#00C6E1"/>
</svg>
