<?xml version="1.0" encoding="utf-8"?>
<!-- Generator: Adobe Illustrator 26.3.1, SVG Export Plug-In . SVG Version: 6.00 Build 0)  -->
<svg version="1.1" id="Layer_1" xmlns="http://www.w3.org/2000/svg" xmlns:xlink="http://www.w3.org/1999/xlink" x="0px" y="0px"
	 viewBox="0 0 47 46.4" style="enable-background:new 0 0 47 46.4;" xml:space="preserve">
<path d="M2.3,38c-0.9,0-1.7-0.8-1.7-1.7V23.3C0.5,17.1,2.8,11.2,7.1,6.8C11.4,2.4,17.2,0,23.4,0c12.7,0,23,10.3,23,23v13.1
	c0,0.9-0.8,1.7-1.7,1.7c-0.9,0-1.7-0.8-1.7-1.7V23c0-10.8-8.8-19.6-19.6-19.6c-5.3,0-10.2,2-13.8,5.8c-3.7,3.7-5.6,8.7-5.5,14v13.1
	C4.1,37.3,3.3,38,2.3,38z"/>
<path d="M9.7,23.8H9.4c-4.8,0-8.7,3.9-8.7,8.7v4.3c0,4.8,3.9,8.7,8.7,8.7h0.3c4.8,0,8.7-3.9,8.7-8.7v-4.3
	C18.4,27.8,14.5,23.8,9.7,23.8z"/>
<path d="M37.7,23.8h-0.3c-4.8,0-8.7,3.9-8.7,8.7v4.3c0,4.8,3.9,8.7,8.7,8.7h0.3c4.8,0,8.7-3.9,8.7-8.7v-4.3
	C46.5,27.8,42.5,23.8,37.7,23.8z"/>
</svg>
