<?xml version="1.0" encoding="utf-8"?>
<!-- Generator: Adobe Illustrator 26.3.1, SVG Export Plug-In . SVG Version: 6.00 Build 0)  -->
<svg version="1.1" id="Layer_1" xmlns="http://www.w3.org/2000/svg" xmlns:xlink="http://www.w3.org/1999/xlink" x="0px" y="0px"
	 viewBox="0 0 20 20" style="enable-background:new 0 0 20 20;" xml:space="preserve">
<style type="text/css">
	.st0{fill-rule:evenodd;clip-rule:evenodd;}
</style>
<path class="st0" d="M13.9,0.5c0.6,0,1.3,0.1,1.9,0.3c3.7,1.2,5,5.3,3.9,8.8c-0.6,1.8-1.7,3.5-3,4.8c-1.9,1.9-4.1,3.5-6.3,5L10,19.5
	l-0.3-0.2c-2.3-1.4-4.4-3.1-6.4-5c-1.3-1.3-2.4-3-3-4.8C-0.7,6,0.6,2,4.3,0.8c0.3-0.1,0.6-0.2,0.9-0.2h0.1c0.3,0,0.6-0.1,0.8-0.1
	h0.1c0.6,0,1.2,0.1,1.8,0.3h0.1c0,0,0.1,0,0.1,0.1C8.5,1,8.7,1,8.9,1.2l0.4,0.2c0.1,0,0.2,0.1,0.3,0.2c0.1,0,0.1,0.1,0.1,0.1
	c0,0,0,0,0,0C9.8,1.7,9.9,1.7,10,1.8C11.1,1,12.5,0.5,13.9,0.5z M16.5,7.7c0.4,0,0.8-0.3,0.8-0.8V6.8c0-1.4-0.8-2.7-2.1-3.2
	c-0.4-0.1-0.9,0.1-1,0.5c-0.1,0.4,0.1,0.9,0.5,1c0.6,0.2,1.1,0.9,1.1,1.6v0c0,0.2,0.1,0.5,0.2,0.6C16.1,7.6,16.3,7.7,16.5,7.7z"/>
</svg>
