<?xml version="1.0" encoding="utf-8"?>
<!-- Generator: Adobe Illustrator 26.3.1, SVG Export Plug-In . SVG Version: 6.00 Build 0)  -->
<svg version="1.1" id="Layer_1" xmlns="http://www.w3.org/2000/svg" xmlns:xlink="http://www.w3.org/1999/xlink" x="0px" y="0px"
	 viewBox="0 0 18 20" style="enable-background:new 0 0 18 20;" xml:space="preserve">
<style type="text/css">
	.st0{fill:none;stroke:#000000;stroke-width:1.5;stroke-linecap:round;stroke-linejoin:round;}
</style>
<path class="st0" d="M6.6,17.3v-2.6c0-0.7,0.5-1.2,1.2-1.2h2.4c0.7,0,1.2,0.5,1.2,1.2l0,0v2.6c0,0.6,0.4,1,1,1H14
	c1.6,0,2.9-1.3,2.9-2.9l0,0V8.2c0-0.6-0.3-1.2-0.8-1.6l-5.5-4.4c-1-0.8-2.3-0.8-3.3,0L1.9,6.6C1.4,7,1.1,7.6,1.1,8.2v7.3
	c0,1.6,1.3,2.9,2.9,2.9h1.6C6.2,18.3,6.6,17.9,6.6,17.3L6.6,17.3"/>
</svg>
