<?xml version="1.0" encoding="utf-8"?>
<!-- Generator: Adobe Illustrator 25.4.1, SVG Export Plug-In . SVG Version: 6.00 Build 0)  -->
<svg version="1.1" id="Layer_1" xmlns="http://www.w3.org/2000/svg" xmlns:xlink="http://www.w3.org/1999/xlink" x="0px" y="0px"
	 viewBox="0 0 20 20" style="enable-background:new 0 0 20 20;" xml:space="preserve">
<style type="text/css">
	.st0{fill-rule:evenodd;clip-rule:evenodd;fill:#00C6E1;}
</style>
<g id="SVGRepo_bgCarrier">
</g>
<g id="SVGRepo_tracerCarrier">
</g>
<g id="SVGRepo_iconCarrier">
	<path class="st0" d="M10,20c-4.7,0-7.1,0-8.5-1.5C0,17.1,0,14.7,0,10c0-4.7,0-7.1,1.5-8.5C2.9,0,5.3,0,10,0c4.7,0,7.1,0,8.5,1.5
		C20,2.9,20,5.3,20,10c0,4.7,0,7.1-1.5,8.5C17.1,20,14.7,20,10,20z M10,15.8c0.4,0,0.8-0.3,0.8-0.8V9c0-0.4-0.3-0.8-0.8-0.8
		S9.2,8.6,9.2,9v6C9.2,15.4,9.6,15.8,10,15.8z M10,5c0.6,0,1,0.4,1,1s-0.4,1-1,1S9,6.6,9,6S9.4,5,10,5z"/>
</g>
</svg>
