<?xml version="1.0" encoding="utf-8"?>
<!-- Generator: Adobe Illustrator 26.3.1, SVG Export Plug-In . SVG Version: 6.00 Build 0)  -->
<svg version="1.1" id="Layer_1" xmlns="http://www.w3.org/2000/svg" xmlns:xlink="http://www.w3.org/1999/xlink" x="0px" y="0px"
	 viewBox="0 0 20.6 20.8" style="enable-background:new 0 0 20.6 20.8;" xml:space="preserve">
<path d="M14.5,0.4H6.1c-3.6,0-5.8,2.2-5.8,5.8v8.4c0,3.6,2.2,5.8,5.8,5.8h8.4c3.6,0,5.8-2.2,5.8-5.8V6.2C20.3,2.6,18.1,0.4,14.5,0.4
	z M10.3,14.3c-2.1,0-3.9-1.7-3.9-3.9s1.7-3.9,3.9-3.9s3.9,1.7,3.9,3.9S12.4,14.3,10.3,14.3z M16.2,5.3c0,0.1-0.1,0.2-0.2,0.3
	c-0.1,0.1-0.2,0.2-0.3,0.2c-0.1,0-0.2,0.1-0.4,0.1c-0.3,0-0.5-0.1-0.7-0.3c-0.1-0.1-0.2-0.2-0.2-0.3s-0.1-0.2-0.1-0.4s0-0.3,0.1-0.4
	c0-0.1,0.1-0.2,0.2-0.3c0.2-0.2,0.6-0.3,0.9-0.3c0.1,0,0.1,0,0.2,0.1c0.1,0,0.1,0.1,0.2,0.1c0.1,0,0.1,0.1,0.1,0.1
	c0.1,0.1,0.2,0.2,0.2,0.3c0,0.1,0.1,0.2,0.1,0.4S16.3,5.2,16.2,5.3z"/>
</svg>
