<?xml version="1.0" encoding="utf-8"?>
<!-- Generator: Adobe Illustrator 26.3.1, SVG Export Plug-In . SVG Version: 6.00 Build 0)  -->
<svg version="1.1" id="Layer_1" xmlns="http://www.w3.org/2000/svg" xmlns:xlink="http://www.w3.org/1999/xlink" x="0px" y="0px"
	 viewBox="0 0 19 19" style="enable-background:new 0 0 19 19;" xml:space="preserve">
<path d="M1.5,1C1.2,1.1,0.9,1.2,0.6,1.5C0.2,1.9,0,2.4,0,3c0,0.9,0.5,1.6,1.3,2c0.3,0.2,0.4,0.2,0.8,0.2c0.6,0,0.9-0.1,1.3-0.3
	C3.7,4.7,4,4.4,4.1,4c0.3-0.7,0.3-1.3,0-2C4,1.7,3.5,1.3,3.2,1.1C2.8,0.9,2,0.8,1.5,1z"/>
<path d="M13.1,6.6c-1.4,0.2-2.4,0.8-3,1.7L10,8.5V7.7V6.9H8.2H6.4v6.1V19h1.9h1.9l0-3.6c0-3.5,0-3.6,0.1-3.9c0.3-1,0.8-1.5,1.7-1.6
	c1.2-0.1,1.9,0.4,2.2,1.5c0.1,0.3,0.1,0.7,0.1,3.9l0,3.6h1.9h1.9l0-4.1c0-3.6,0-4.2-0.1-4.5C17.8,9,17.3,8,16.6,7.5
	c-0.5-0.4-1-0.6-1.8-0.8C14.4,6.6,13.4,6.6,13.1,6.6z"/>
<path d="M0.3,12.9V19h1.9h1.9v-6.1V6.9H2.2H0.3V12.9z"/>
</svg>
