<?xml version="1.0" encoding="utf-8"?>
<!-- Generator: Adobe Illustrator 26.3.1, SVG Export Plug-In . SVG Version: 6.00 Build 0)  -->
<svg version="1.1" id="Layer_1" xmlns="http://www.w3.org/2000/svg" xmlns:xlink="http://www.w3.org/1999/xlink" x="0px" y="0px"
	 viewBox="0 0 15 17" style="enable-background:new 0 0 15 17;" xml:space="preserve">
<style type="text/css">
	.st0{fill-rule:evenodd;clip-rule:evenodd;}
	.st1{fill-rule:evenodd;clip-rule:evenodd;fill:#FFFFFF;filter:url(#Adobe_OpacityMaskFilter);}
	.st2{mask:url(#mask0_1395_8468_00000157273304794584832710000002561887672032264091_);}
</style>
<path class="st0" d="M7.2,6.1c-0.8,0-1.5,0.7-1.5,1.5C5.8,8.3,6.4,9,7.2,9C8,9,8.7,8.3,8.7,7.5C8.7,6.7,8,6.1,7.2,6.1z M7.2,10.2
	c-1.5,0-2.7-1.2-2.7-2.7c0-1.5,1.2-2.7,2.7-2.7c1.5,0,2.7,1.2,2.7,2.7C9.9,9,8.7,10.2,7.2,10.2z"/>
<defs>
	<filter id="Adobe_OpacityMaskFilter" filterUnits="userSpaceOnUse" x="0.3" y="0.7" width="13.7" height="16.2">
		<feColorMatrix  type="matrix" values="1 0 0 0 0  0 1 0 0 0  0 0 1 0 0  0 0 0 1 0"/>
	</filter>
</defs>
<mask maskUnits="userSpaceOnUse" x="0.3" y="0.7" width="13.7" height="16.2" id="mask0_1395_8468_00000157273304794584832710000002561887672032264091_">
	<path class="st1" d="M0.3,0.7h13.7v16.2H0.3V0.7z"/>
</mask>
<g class="st2">
	<path class="st0" d="M7.2,1.9c-3.1,0-5.6,2.5-5.6,5.7c0,4,4.7,7.9,5.6,8.1c0.9-0.2,5.6-4.1,5.6-8.1C12.8,4.5,10.3,1.9,7.2,1.9
		L7.2,1.9z M7.2,16.9c-1.5,0-6.9-4.6-6.9-9.3c0-3.8,3.1-6.9,6.9-6.9c3.8,0,6.9,3.1,6.9,6.9C14.1,12.3,8.7,16.9,7.2,16.9L7.2,16.9z"
		/>
</g>
</svg>
