<svg width="34" height="34" viewBox="0 0 34 34" fill="none" xmlns="http://www.w3.org/2000/svg">
<path d="M26.9193 12.7507C26.9193 14.8048 26.3101 16.689 25.2618 18.2615C23.7318 20.5282 21.3093 22.129 18.4901 22.5398C18.0084 22.6248 17.5126 22.6673 17.0026 22.6673C16.4926 22.6673 15.9968 22.6248 15.5151 22.5398C12.6959 22.129 10.2734 20.5282 8.74344 18.2615C7.6951 16.689 7.08594 14.8048 7.08594 12.7507C7.08594 7.26815 11.5201 2.83398 17.0026 2.83398C22.4851 2.83398 26.9193 7.26815 26.9193 12.7507Z" stroke="#FFCA05" stroke-width="2.125" stroke-linecap="round" stroke-linejoin="round"/>
<path d="M30.1047 26.1662L27.7672 26.7187C27.243 26.8462 26.8322 27.2429 26.7189 27.7671L26.223 29.8496C25.9539 30.9829 24.5089 31.3229 23.758 30.4304L17.0005 22.6671L10.243 30.4446C9.49218 31.3371 8.04718 30.997 7.77802 29.8637L7.28218 27.7812C7.15468 27.257 6.74385 26.8462 6.23385 26.7329L3.89635 26.1804C2.81969 25.9254 2.43718 24.5795 3.21635 23.8004L8.74135 18.2754C10.2714 20.5421 12.6939 22.1429 15.513 22.5538C15.9947 22.6388 16.4905 22.6812 17.0005 22.6812C17.5105 22.6812 18.0064 22.6388 18.488 22.5538C21.3072 22.1429 23.7297 20.5421 25.2597 18.2754L30.7847 23.8004C31.5638 24.5654 31.1814 25.9112 30.1047 26.1662Z" stroke="#FFCA05" stroke-width="2.125" stroke-linecap="round" stroke-linejoin="round"/>
<path d="M17.8218 8.47102L18.6576 10.1427C18.771 10.3693 19.0685 10.596 19.3376 10.6385L20.8535 10.8935C21.8168 11.0493 22.0435 11.7577 21.3493 12.4518L20.1735 13.6277C19.9751 13.826 19.8618 14.2085 19.9326 14.4918L20.2726 15.951C20.5418 17.0985 19.9326 17.5518 18.9126 16.9427L17.496 16.1068C17.241 15.951 16.816 15.951 16.561 16.1068L15.1443 16.9427C14.1243 17.5377 13.5151 17.0985 13.7843 15.951L14.1243 14.4918C14.181 14.2227 14.0818 13.826 13.8835 13.6277L12.7076 12.4518C12.0135 11.7577 12.2401 11.0635 13.2035 10.8935L14.7193 10.6385C14.9743 10.596 15.2718 10.3693 15.3851 10.1427L16.221 8.47102C16.6318 7.56435 17.3685 7.56435 17.8218 8.47102Z" stroke="#FFCA05" stroke-width="2.125" stroke-linecap="round" stroke-linejoin="round"/>
</svg>
