<?xml version="1.0" encoding="utf-8"?>
<!-- Generator: Adobe Illustrator 26.3.1, SVG Export Plug-In . SVG Version: 6.00 Build 0)  -->
<svg version="1.1" id="Layer_1" xmlns="http://www.w3.org/2000/svg" xmlns:xlink="http://www.w3.org/1999/xlink" x="0px" y="0px"
	 viewBox="0 0 20 20" style="enable-background:new 0 0 20 20;" xml:space="preserve">
<style type="text/css">
	.st0{fill:none;stroke:#787878;stroke-width:1.6667;stroke-linecap:round;stroke-linejoin:round;}
</style>
<path class="st0" d="M0.8,4.6c0,0.9,0.1,1.6,0.2,2.1c0.1,0.5,0.3,0.8,0.5,1c0.2,0.2,0.5,0.4,1,0.5C3,8.3,3.7,8.3,4.6,8.3
	c0.9,0,1.6-0.1,2.1-0.2c0.5-0.1,0.8-0.3,1-0.5c0.2-0.2,0.4-0.5,0.5-1c0.1-0.5,0.2-1.2,0.2-2.1S8.3,3,8.2,2.5c-0.1-0.5-0.3-0.8-0.5-1
	C7.5,1.3,7.2,1.1,6.7,1C6.2,0.9,5.5,0.8,4.6,0.8C3.7,0.8,3,0.9,2.5,1c-0.5,0.1-0.8,0.3-1,0.5S1.1,1.9,1,2.5C0.9,3,0.8,3.7,0.8,4.6z"
	/>
<path class="st0" d="M0.8,15.4c0,0.9,0.1,1.6,0.2,2.1c0.1,0.5,0.3,0.8,0.5,1c0.2,0.2,0.5,0.4,1,0.5c0.5,0.1,1.2,0.2,2.1,0.2
	c0.9,0,1.6-0.1,2.1-0.2c0.5-0.1,0.8-0.3,1-0.5c0.2-0.2,0.4-0.5,0.5-1c0.1-0.5,0.2-1.2,0.2-2.1c0-0.9-0.1-1.6-0.2-2.1
	c-0.1-0.5-0.3-0.8-0.5-1c-0.2-0.2-0.5-0.4-1-0.5c-0.5-0.1-1.2-0.2-2.1-0.2c-0.9,0-1.6,0.1-2.1,0.2c-0.5,0.1-0.8,0.3-1,0.5
	c-0.2,0.2-0.4,0.5-0.5,1C0.9,13.8,0.8,14.5,0.8,15.4z"/>
<path class="st0" d="M11.7,4.6c0,0.9,0.1,1.6,0.2,2.1c0.1,0.5,0.3,0.8,0.5,1c0.2,0.2,0.5,0.4,1,0.5c0.5,0.1,1.2,0.2,2.1,0.2
	c0.9,0,1.6-0.1,2.1-0.2c0.5-0.1,0.8-0.3,1-0.5c0.2-0.2,0.4-0.5,0.5-1c0.1-0.5,0.2-1.2,0.2-2.1S19.1,3,19,2.5c-0.1-0.5-0.3-0.8-0.5-1
	s-0.5-0.4-1-0.5c-0.5-0.1-1.2-0.2-2.1-0.2c-0.9,0-1.6,0.1-2.1,0.2c-0.5,0.1-0.8,0.3-1,0.5c-0.2,0.2-0.4,0.5-0.5,1
	C11.7,3,11.7,3.7,11.7,4.6z"/>
<path class="st0" d="M11.7,15.4c0,0.9,0.1,1.6,0.2,2.1c0.1,0.5,0.3,0.8,0.5,1c0.2,0.2,0.5,0.4,1,0.5c0.5,0.1,1.2,0.2,2.1,0.2
	c0.9,0,1.6-0.1,2.1-0.2c0.5-0.1,0.8-0.3,1-0.5c0.2-0.2,0.4-0.5,0.5-1c0.1-0.5,0.2-1.2,0.2-2.1c0-0.9-0.1-1.6-0.2-2.1
	c-0.1-0.5-0.3-0.8-0.5-1c-0.2-0.2-0.5-0.4-1-0.5c-0.5-0.1-1.2-0.2-2.1-0.2c-0.9,0-1.6,0.1-2.1,0.2c-0.5,0.1-0.8,0.3-1,0.5
	c-0.2,0.2-0.4,0.5-0.5,1C11.7,13.8,11.7,14.5,11.7,15.4z"/>
</svg>
