<svg width="20" height="20" viewBox="0 0 20 20" fill="none" xmlns="http://www.w3.org/2000/svg">
<path fill-rule="evenodd" clip-rule="evenodd" d="M0 9.9987C0 17.5474 1.765 19.1654 10 19.1654C18.235 19.1654 20 17.5474 20 9.9987C20 7.92403 19.8667 6.29735 19.5024 5.02912C18.5696 5.96431 17.3925 7.08889 16.1139 8.09057C14.3007 9.51124 12.1046 10.832 10 10.832C7.89544 10.832 5.69935 9.51124 3.88606 8.09057C2.60755 7.08889 1.43044 5.96431 0.497629 5.02912C0.133318 6.29735 0 7.92403 0 9.9987ZM6.66667 13.332C6.20643 13.332 5.83333 13.7051 5.83333 14.1654C5.83333 14.6256 6.20643 14.9987 6.66667 14.9987H13.3333C13.7936 14.9987 14.1667 14.6256 14.1667 14.1654C14.1667 13.7051 13.7936 13.332 13.3333 13.332H6.66667Z" fill="#00C6E1"/>
<path d="M15.0861 6.77862C16.5045 5.66731 17.7997 4.38812 18.7761 3.39295C17.4526 1.39253 14.847 0.832031 10 0.832031C5.153 0.832031 2.54742 1.39253 1.22388 3.39295C2.20035 4.38812 3.4955 5.6673 4.91394 6.77862C6.70065 8.17846 8.50456 9.16536 10 9.16536C11.4954 9.16536 13.2993 8.17846 15.0861 6.77862Z" fill="#00C6E1"/>
</svg>
