<?xml version="1.0" encoding="utf-8"?>
<!-- Generator: Adobe Illustrator 26.3.1, SVG Export Plug-In . SVG Version: 6.00 Build 0)  -->
<svg version="1.1" id="Layer_1" xmlns="http://www.w3.org/2000/svg" xmlns:xlink="http://www.w3.org/1999/xlink" x="0px" y="0px"
	 viewBox="0 0 20 18.4" style="enable-background:new 0 0 20 18.4;" xml:space="preserve" fill="#787878">
<style type="text/css">
	.st0{fill:none;stroke:#787878;stroke-width:1.6667;stroke-linecap:round;stroke-linejoin:round;}
	.st1{fill:#FFFFFF;filter:url(#Adobe_OpacityMaskFilter);}
	.st2{mask:url(#path-2-inside-1_1240_38350_00000111875361390073238010000017696073232417524620_);}
</style>
<path class="st0" d="M6.7,13.3h6.7"/>
<defs>
	<filter id="Adobe_OpacityMaskFilter" filterUnits="userSpaceOnUse" x="-1.7" y="-1.7" width="23.3" height="21.7">
		<feColorMatrix  type="matrix" values="1 0 0 0 0  0 1 0 0 0  0 0 1 0 0  0 0 0 1 0"/>
	</filter>
</defs>
<mask maskUnits="userSpaceOnUse" x="-1.7" y="-1.7" width="23.3" height="21.7" id="path-2-inside-1_1240_38350_00000111875361390073238010000017696073232417524620_">
	<path class="st1" d="M0,9.2c0,7.5,1.8,9.2,10,9.2s10-1.6,10-9.2C20,1.6,18.2,0,10,0C4.6,0,2,0.7,0.8,3.3C0.2,4.7,0,6.6,0,9.2z"/>
</mask>
<path class="st2" d="M18.5,2.8c0.3-0.4,0.8-0.4,1.2-0.1c0.4,0.3,0.4,0.8,0.1,1.2L18.5,2.8z M10,9.2l0,0.8L10,9.2z M0.2,3.9
	C-0.1,3.5-0.1,3,0.3,2.7c0.4-0.3,0.9-0.3,1.2,0.1L0.2,3.9z M19.2,3.3c0.6,0.5,0.6,0.5,0.6,0.5c0,0,0,0,0,0c0,0,0,0,0,0c0,0,0,0,0,0
	c0,0,0,0,0,0c0,0,0,0,0,0.1c0,0-0.1,0.1-0.2,0.2c-0.1,0.2-0.4,0.4-0.6,0.7c-0.5,0.6-1.3,1.3-2.2,2.1c-0.9,0.8-2,1.5-3.1,2.1
	c-1.1,0.6-2.4,1-3.6,1l0-1.7c0.9,0,1.8-0.3,2.8-0.8c1-0.5,2-1.2,2.8-1.9c0.9-0.7,1.6-1.4,2.1-1.9C18,3.4,18.2,3.2,18.3,3
	c0.1-0.1,0.1-0.1,0.2-0.2c0,0,0,0,0,0c0,0,0,0,0,0c0,0,0,0,0,0c0,0,0,0,0,0v0C18.5,2.8,18.5,2.8,19.2,3.3z M10,10
	c-1.2,0-2.5-0.4-3.6-1C5.3,8.4,4.2,7.6,3.3,6.9C2.4,6.1,1.6,5.4,1,4.8C0.8,4.5,0.6,4.3,0.4,4.1C0.3,4.1,0.3,4,0.2,3.9c0,0,0,0,0-0.1
	c0,0,0,0,0,0c0,0,0,0,0,0c0,0,0,0,0,0c0,0,0,0,0,0c0,0,0,0,0.6-0.5c0.6-0.5,0.6-0.5,0.6-0.5l0,0c0,0,0,0,0,0c0,0,0,0,0,0
	c0,0,0,0,0,0c0,0,0,0,0,0c0,0,0.1,0.1,0.2,0.2C1.8,3.2,2,3.4,2.2,3.7c0.5,0.5,1.2,1.2,2.1,1.9C5.2,6.3,6.2,7,7.2,7.5
	c1,0.5,2,0.8,2.8,0.8L10,10z M0.8,3.3l-1.5-0.7L0.8,3.3z M1.7,9.2c0,3.8,0.5,5.4,1.4,6.2c0.4,0.4,1.1,0.7,2.3,1
	c1.2,0.2,2.7,0.3,4.7,0.3V20c-2.1,0-3.9-0.1-5.4-0.4c-1.5-0.3-2.8-0.8-3.8-1.8c-2.1-1.9-2.5-4.9-2.5-8.6H1.7z M10,16.7
	c2,0,3.5-0.1,4.7-0.3c1.1-0.2,1.8-0.6,2.3-1c0.9-0.8,1.4-2.4,1.4-6.2h3.3c0,3.7-0.4,6.7-2.5,8.6c-1,0.9-2.3,1.5-3.8,1.8
	C13.9,19.9,12.1,20,10,20V16.7z M18.3,9.2c0-3.8-0.5-5.4-1.4-6.2c-0.4-0.4-1.1-0.7-2.3-1C13.5,1.8,12,1.7,10,1.7v-3.3
	c2.1,0,3.9,0.1,5.4,0.4c1.5,0.3,2.8,0.8,3.8,1.8c2.1,1.9,2.5,4.9,2.5,8.6H18.3z M10,1.7c-2.7,0-4.5,0.2-5.7,0.6
	C3.3,2.6,2.7,3.2,2.3,4l-3.1-1.3c0.8-1.8,2.1-2.9,4-3.6C5-1.5,7.3-1.7,10-1.7V1.7z M2.3,4C1.9,5,1.7,6.6,1.7,9.2h-3.3
	c0-2.6,0.2-4.8,0.9-6.5L2.3,4z"/>
</svg>
