<?xml version="1.0" encoding="utf-8"?>
<!-- Generator: Adobe Illustrator 26.3.1, SVG Export Plug-In . SVG Version: 6.00 Build 0)  -->
<svg version="1.1" id="Layer_1" xmlns="http://www.w3.org/2000/svg" xmlns:xlink="http://www.w3.org/1999/xlink" x="0px" y="0px"
	 viewBox="0 0 20 19" style="enable-background:new 0 0 20 19;" xml:space="preserve">
<style type="text/css">
	.st0{fill:none;stroke:#000000;stroke-width:1.6667;stroke-linecap:round;stroke-linejoin:round;}
</style>
<path class="st0" d="M6.7,13.3h6.7"/>
<path class="st0" d="M0.8,9.2c0,3.8,0.5,5.7,1.6,6.8c0.6,0.5,1.4,0.9,2.7,1.2c1.2,0.3,2.8,0.4,4.9,0.4c2,0,3.6-0.1,4.9-0.4
	c1.2-0.3,2.1-0.6,2.7-1.2c1.2-1.1,1.6-3,1.6-6.8c0-3.8-0.5-5.7-1.6-6.8c-0.6-0.5-1.4-0.9-2.7-1.2C13.6,0.9,12,0.8,10,0.8
	C7.3,0.8,5.4,1,4.1,1.5C2.8,1.9,2,2.6,1.6,3.7C1,4.9,0.8,6.6,0.8,9.2z"/>
</svg>
