<?xml version="1.0" encoding="utf-8"?>
<!-- Generator: Adobe Illustrator 26.3.1, SVG Export Plug-In . SVG Version: 6.00 Build 0)  -->
<svg version="1.1" id="Layer_1" xmlns="http://www.w3.org/2000/svg" xmlns:xlink="http://www.w3.org/1999/xlink" x="0px" y="0px"
	 viewBox="0 0 40 54" style="enable-background:new 0 0 40 54;" xml:space="preserve">
<style type="text/css">
	.st0{fill:none;stroke:#00C6E1;stroke-width:4.8526;stroke-linecap:round;stroke-linejoin:round;}
</style>
<path class="st0" d="M3.4,26.5c0,5,1.6,9.7,5.9,13.3c3.4,2.8,7.2,3.6,10.7,3.6 M20,43.4v7.2h7.1H12.9 M20,43.4
	c3.9,0,7.3-0.8,10.7-3.6c4.4-3.6,5.9-8.5,5.9-13.3"/>
<path class="st0" d="M20,2.4c-2.2,0-3.8,0.6-4.9,1.4c-1.2,0.8-2.1,2.1-2.8,3.7c-1.4,3.3-1.7,7.7-1.7,11.8s0.3,8.5,1.7,11.8
	c0.7,1.6,1.6,2.8,2.8,3.7c1.1,0.8,2.7,1.4,4.9,1.4s3.8-0.6,4.9-1.4c1.2-0.8,2.1-2.1,2.8-3.7c1.4-3.3,1.7-7.7,1.7-11.8
	s-0.3-8.5-1.7-11.8c-0.7-1.6-1.6-2.8-2.8-3.7C23.8,3,22.2,2.4,20,2.4z"/>
</svg>
