<svg width="19" height="23" viewBox="0 0 19 23" fill="none" xmlns="http://www.w3.org/2000/svg">
<path d="M10.4487 0.999459C10.4495 0.98305 10.45 0.966583 10.45 0.95C10.45 0.425308 10.0246 0 9.5 0C8.97537 0 8.55001 0.425308 8.55001 0.95C8.55001 0.966583 8.55047 0.983108 8.55128 0.999517C5.37101 1.45788 2.37849 5.03452 2.85001 9.025C3.09423 10.2461 2.32526 10.8931 1.52486 11.5665C0.768521 12.2028 -0.0157626 12.8626 0.000240851 14.0529C0.000240851 15.721 0.950009 16.625 2.34486 17.0733C2.34486 17.0733 4.89949 18.05 9.50012 18.05C14.1008 18.05 16.6554 17.0733 16.6554 17.0733C18.0502 16.625 19.0002 15.675 19 14.0529C18.9999 12.8524 18.2161 12.1922 17.4639 11.5589C16.6671 10.8878 15.9059 10.2468 16.1502 9.025C16.6218 5.03441 13.6291 1.4577 10.4487 0.999459Z" fill="#00C6E1"/>
<path d="M6.10601 19.19C5.68621 19.5048 5.6012 20.1002 5.91594 20.52C7.72096 22.9267 11.331 22.9267 13.136 20.52C13.4508 20.1002 13.3658 19.5048 12.946 19.19C12.5263 18.8752 11.9308 18.9603 11.6159 19.38C10.571 20.7733 8.481 20.7733 7.43603 19.38C7.12118 18.9603 6.52569 18.8752 6.10601 19.19Z" fill="#00C6E1"/>
</svg>
