<?xml version="1.0" encoding="utf-8"?>
<!-- Generator: Adobe Illustrator 26.3.1, SVG Export Plug-In . SVG Version: 6.00 Build 0)  -->
<svg version="1.1" id="Layer_1" xmlns="http://www.w3.org/2000/svg" xmlns:xlink="http://www.w3.org/1999/xlink" x="0px" y="0px"
	 viewBox="0 0 19 22" style="enable-background:new 0 0 19 22;" xml:space="preserve" fill="#787878">
<style type="text/css">
	.st0{stroke:#787878;stroke-width:1.9;stroke-linecap:round;stroke-linejoin:round;}
	.st1{fill-rule:evenodd;clip-rule:evenodd;}
</style>
<path class="st0" d="M6.6,20c1.4,1.3,4.3,1.3,5.7,0"/>
<path class="st1" d="M10.4,1C10.4,1,10.4,1,10.4,1c0-0.6-0.4-1-0.9-1C9,0,8.6,0.4,8.6,0.9c0,0,0,0,0,0C5.4,1.5,2.4,5,2.9,9
	c0.2,1.2-0.5,1.9-1.3,2.5C0.8,12.2,0,12.9,0,14.1c0,1.7,0.9,2.6,2.3,3c0,0,2.6,1,7.2,1c4.6,0,7.2-1,7.2-1c1.4-0.4,2.3-1.4,2.3-3
	c0-1.2-0.8-1.9-1.5-2.5c-0.8-0.7-1.6-1.3-1.3-2.5C16.6,5,13.6,1.5,10.4,1z M4.2,11.5c0.5-0.8,0.7-1.7,0.5-2.7C4.6,7.2,5.1,5.7,6,4.6
	c1-1.2,2.2-1.7,3.2-1.7h0.5c1,0,2.2,0.6,3.2,1.7c0.9,1.1,1.5,2.6,1.3,4.1c-0.2,1.1,0,2,0.5,2.7c0.4,0.7,1,1.2,1.4,1.5l0,0
	c0.9,0.8,0.9,0.9,0.9,1.1c0,0.4-0.1,0.6-0.2,0.7c-0.1,0.1-0.4,0.3-0.8,0.5l0,0l0,0l0,0c0,0,0,0-0.1,0c-0.1,0-0.1,0-0.3,0.1
	c-0.3,0.1-0.7,0.2-1.2,0.3c-1.1,0.2-2.8,0.5-4.9,0.5c-2.2,0-3.8-0.2-4.9-0.5c-0.5-0.1-1-0.2-1.2-0.3c-0.1,0-0.2-0.1-0.3-0.1
	c0,0,0,0-0.1,0l0,0l0,0l0,0c-0.5-0.2-0.7-0.3-0.8-0.5c-0.1-0.1-0.2-0.3-0.2-0.7v0l0,0c0-0.2,0-0.3,0.9-1.1l0,0
	C3.2,12.6,3.8,12.1,4.2,11.5z"/>
</svg>
