<?xml version="1.0" encoding="utf-8"?>
<!-- Generator: Adobe Illustrator 26.3.1, SVG Export Plug-In . SVG Version: 6.00 Build 0)  -->
<svg version="1.1" id="Layer_1" xmlns="http://www.w3.org/2000/svg" xmlns:xlink="http://www.w3.org/1999/xlink" x="0px" y="0px"
	 viewBox="0 0 26.7 26.7" style="enable-background:new 0 0 26.7 26.7;" xml:space="preserve">
<path d="M18.9,0H7.7C2.9,0,0,2.9,0,7.7v11.2c0,4.9,2.9,7.8,7.7,7.8h11.2c4.9,0,7.7-2.9,7.7-7.7V7.7C26.7,2.9,23.8,0,18.9,0z
	 M19.5,12.3l-2.2,1.4l0.2,3.2c0.2,1.8-0.4,2.4-2.1,2.6l-6.8,0.8l0,0c-0.4,0.1-0.5-0.4-0.2-0.6l2.1-2.1c0.4-0.4,0.4-1,0-1.4
	c-0.4-0.4-1-0.4-1.4,0l-2,2.1c-0.3,0.3-0.7,0.1-0.6-0.2l0,0l0.8-6.8C7.4,9.6,8,9,9.8,9.1L13,9.3l1.4-2.2c0.6-1,1.9-1,2.8-0.1
	l2.5,2.5C20.5,10.4,20.5,11.7,19.5,12.3z"/>
</svg>
