<?xml version="1.0" encoding="utf-8"?>
<!-- Generator: Adobe Illustrator 26.3.1, SVG Export Plug-In . SVG Version: 6.00 Build 0)  -->
<svg version="1.1" id="Layer_1" xmlns="http://www.w3.org/2000/svg" xmlns:xlink="http://www.w3.org/1999/xlink" x="0px" y="0px"
	 viewBox="0 0 72 72" style="enable-background:new 0 0 72 72;" xml:space="preserve">
<style type="text/css">
	.st0{fill:none;stroke:#00C6E1;stroke-width:6;stroke-linecap:round;stroke-linejoin:round;}
</style>
<path class="st0" d="M3,36c0,7.3,0.4,13,1.4,17.5c1,4.4,2.5,7.4,4.6,9.5c2.1,2.1,5.1,3.6,9.5,4.6C23,68.6,28.7,69,36,69
	s13-0.4,17.5-1.4c4.4-1,7.4-2.5,9.5-4.6c2.1-2.1,3.6-5.1,4.6-9.5C68.6,49,69,43.3,69,36s-0.4-13-1.4-17.5c-1-4.4-2.5-7.4-4.6-9.5
	c-2.1-2.1-5.1-3.6-9.5-4.6C49,3.4,43.3,3,36,3S23,3.4,18.5,4.4C14.1,5.4,11.1,6.9,9,9s-3.6,5.1-4.6,9.5C3.4,23,3,28.7,3,36z"/>
<path class="st0" d="M26.7,50.2L26.7,50.2c2,1.2,4.2,0.7,5.7,0.1c1.5-0.6,3.3-1.7,5.3-2.9c0.1,0,0.1-0.1,0.2-0.1l4.8-2.9
	c0.1,0,0.1-0.1,0.2-0.1c2-1.2,3.8-2.3,5-3.3c1.3-1.1,2.7-2.7,2.7-5s-1.4-3.9-2.7-5c-1.3-1-3-2.1-5-3.3c-0.1,0-0.1-0.1-0.2-0.1
	l-4.8-2.9c-0.1,0-0.1-0.1-0.2-0.1c-2-1.2-3.8-2.3-5.3-2.9c-1.6-0.6-3.7-1.1-5.7,0.1c-2,1.2-2.6,3.3-2.8,4.9
	c-0.2,1.6-0.2,3.8-0.2,6.2c0,0.1,0,0.1,0,0.2v5.8c0,0.1,0,0.1,0,0.2c0,2.4,0,4.5,0.2,6.2C24.2,47,24.8,49,26.7,50.2z"/>
</svg>
