<?xml version="1.0" encoding="utf-8"?>
<!-- Generator: Adobe Illustrator 26.3.1, SVG Export Plug-In . SVG Version: 6.00 Build 0)  -->
<svg version="1.1" id="Layer_1" xmlns="http://www.w3.org/2000/svg" xmlns:xlink="http://www.w3.org/1999/xlink" x="0px" y="0px"
	 viewBox="0 0 24 28" style="enable-background:new 0 0 24 28;" xml:space="preserve">
<path d="M22.3,16.4c-0.1,0.1-0.6,0.7-1,1.1c-2.6,2.8-9.3,7.4-12.9,8.8c-0.5,0.2-1.9,0.7-2.6,0.7c-0.7,0-1.4-0.2-2-0.5
	c-0.8-0.4-1.4-1.1-1.8-2c-0.2-0.6-0.6-2.3-0.6-2.3c-0.3-1.9-0.5-4.9-0.5-8.3c0-3.2,0.2-6.2,0.5-8.1c0,0,0.4-2.2,0.8-2.9
	c0.7-1.3,2.1-2.2,3.5-2.2h0.1c0.9,0,2.9,0.9,2.9,0.9c3.3,1.4,9.9,5.8,12.6,8.7c0,0,0.7,0.7,1.1,1.2c0.5,0.7,0.8,1.5,0.8,2.3
	C23.1,14.9,22.8,15.7,22.3,16.4z"/>
</svg>
