<svg width="20" height="20" viewBox="0 0 20 20" fill="none" xmlns="http://www.w3.org/2000/svg">
<path d="M3.33333 4.49737C3.33333 4.56323 3.3949 4.61147 3.45914 4.59691C4.95854 4.25705 7.0661 4.16667 10 4.16667C13.024 4.16667 15.1411 4.24602 16.6205 4.53561C16.6446 4.54032 16.6666 4.52188 16.6667 4.49737C16.6667 0.793785 15.49 0 10 0C4.51 0 3.33333 0.793785 3.33333 4.49737Z" fill="#00C6E1"/>
<path fill-rule="evenodd" clip-rule="evenodd" d="M17.7299 15.9982C17.6172 16.0397 17.5 15.9534 17.5 15.8333C17.5 13.6725 17.5 12.4455 16.8922 11.7488C16.0935 10.8333 14.2456 10.8333 9.96968 10.8333C5.73806 10.8333 3.90368 10.8333 3.10849 11.7424C2.5 12.438 2.5 13.6659 2.5 15.8333C2.5 15.9534 2.3828 16.0397 2.27007 15.9982C0.277162 15.2655 0 13.777 0 10.8333C0 5.72917 1.66667 5 10 5C19.1667 5 20 5.72917 20 10.8333C20 13.777 19.7228 15.2655 17.7299 15.9982ZM17.5 8.33333C17.5 8.79357 17.1269 9.16667 16.6667 9.16667C16.2064 9.16667 15.8333 8.79357 15.8333 8.33333C15.8333 7.8731 16.2064 7.5 16.6667 7.5C17.1269 7.5 17.5 7.8731 17.5 8.33333Z" fill="#00C6E1"/>
<path d="M9.97305 20C4.50524 20 3.33333 19.3056 3.33333 15.8333C3.33333 14.071 3.33333 13.0541 3.83573 12.4673C4.52114 11.6667 6.14167 11.6667 9.97305 11.6667C13.8443 11.6667 15.4766 11.6667 16.1649 12.4727C16.6667 13.0604 16.6667 14.0765 16.6667 15.8333C16.6667 19.3056 15.4409 20 9.97305 20Z" fill="#00C6E1"/>
</svg>
