<svg width="20" height="20" viewBox="0 0 20 20" fill="none" xmlns="http://www.w3.org/2000/svg">
<path d="M0.833333 10C0.833333 12.0397 0.943714 13.6219 1.21794 14.8559C1.49006 16.0803 1.91232 16.9101 2.50113 17.4989C3.08995 18.0877 3.91971 18.5099 5.14415 18.7821C6.37805 19.0563 7.96027 19.1667 10 19.1667C12.0397 19.1667 13.6219 19.0563 14.8558 18.7821C16.0803 18.5099 16.9101 18.0877 17.4989 17.4989C18.0877 16.9101 18.5099 16.0803 18.7821 14.8558C19.0563 13.6219 19.1667 12.0397 19.1667 10C19.1667 7.96027 19.0563 6.37805 18.7821 5.14415C18.5099 3.91971 18.0877 3.08995 17.4989 2.50113C16.9101 1.91232 16.0803 1.49006 14.8558 1.21794C13.6219 0.943714 12.0397 0.833334 10 0.833334C7.96027 0.833334 6.37805 0.943714 5.14415 1.21794C3.91971 1.49006 3.08995 1.91232 2.50113 2.50113C1.91232 3.08995 1.49006 3.91971 1.21794 5.14415C0.943714 6.37805 0.833333 7.96027 0.833333 10Z" stroke="#787878" stroke-width="1.66667" stroke-linecap="round" stroke-linejoin="round"/>
<path fill-rule="evenodd" clip-rule="evenodd" d="M13.3385 7.5013C12.8783 7.5013 12.5052 7.12821 12.5052 6.66797C12.5052 6.20773 12.8783 5.83464 13.3385 5.83464C13.7988 5.83464 14.1719 6.20773 14.1719 6.66797C14.1719 7.12821 13.7988 7.5013 13.3385 7.5013ZM12.5166 9.02972C11.5397 8.68977 10.8385 7.76075 10.8385 6.66797C10.8385 5.28726 11.9578 4.16797 13.3385 4.16797C14.7193 4.16797 15.8385 5.28726 15.8385 6.66797C15.8385 7.76075 15.1374 8.68977 14.1605 9.02972C14.168 9.07469 14.1719 9.12087 14.1719 9.16797V15.0013C14.1719 15.4615 13.7988 15.8346 13.3385 15.8346C12.8783 15.8346 12.5052 15.4615 12.5052 15.0013V9.16797C12.5052 9.12087 12.5091 9.07469 12.5166 9.02972ZM7.50521 5.0013C7.50521 4.54106 7.13211 4.16797 6.67188 4.16797C6.21164 4.16797 5.83854 4.54106 5.83854 5.0013V10.8346C5.83854 10.8817 5.84245 10.9279 5.84996 10.9729C4.87301 11.3128 4.17188 12.2419 4.17188 13.3346C4.17187 14.7153 5.29116 15.8346 6.67187 15.8346C8.05259 15.8346 9.17188 14.7153 9.17188 13.3346C9.17188 12.2419 8.47075 11.3128 7.49379 10.9729C7.5013 10.9279 7.50521 10.8817 7.50521 10.8346V5.0013ZM5.83854 13.3346C5.83854 13.7949 6.21164 14.168 6.67187 14.168C7.13211 14.168 7.50521 13.7949 7.50521 13.3346C7.50521 12.8744 7.13211 12.5013 6.67188 12.5013C6.21164 12.5013 5.83854 12.8744 5.83854 13.3346Z" fill="#787878"/>
</svg>
