<svg width="20" height="20" viewBox="0 0 20 20" fill="none" xmlns="http://www.w3.org/2000/svg">
<path d="M5.83333 13.3333C5.83333 13.7936 6.20643 14.1667 6.66667 14.1667C7.1269 14.1667 7.5 13.7936 7.5 13.3333C7.5 12.8731 7.1269 12.5 6.66667 12.5C6.20643 12.5 5.83333 12.8731 5.83333 13.3333Z" fill="#00C6E1"/>
<path d="M13.3333 5.83333C12.8731 5.83333 12.5 6.20643 12.5 6.66667C12.5 7.1269 12.8731 7.5 13.3333 7.5C13.7936 7.5 14.1667 7.1269 14.1667 6.66667C14.1667 6.20643 13.7936 5.83333 13.3333 5.83333Z" fill="#00C6E1"/>
<path fill-rule="evenodd" clip-rule="evenodd" d="M10 20C1.765 20 0 18.235 0 10C0 1.765 1.765 0 10 0C18.235 0 20 1.765 20 10C20 18.235 18.235 20 10 20ZM6.66667 4.16667C6.20643 4.16667 5.83333 4.53976 5.83333 5L5.83333 10.9756C4.86234 11.3188 4.16667 12.2448 4.16667 13.3333C4.16667 14.714 5.28595 15.8333 6.66667 15.8333C8.04738 15.8333 9.16667 14.714 9.16667 13.3333C9.16667 12.2448 8.47099 11.3188 7.5 10.9756V5C7.5 4.53976 7.1269 4.16667 6.66667 4.16667ZM13.3333 15.8333C12.8731 15.8333 12.5 15.4602 12.5 15V9.02441C11.529 8.68121 10.8333 7.75518 10.8333 6.66667C10.8333 5.28595 11.9526 4.16667 13.3333 4.16667C14.714 4.16667 15.8333 5.28595 15.8333 6.66667C15.8333 7.75518 15.1377 8.68121 14.1667 9.02441V15C14.1667 15.4602 13.7936 15.8333 13.3333 15.8333Z" fill="#00C6E1"/>
</svg>
