<?xml version="1.0" encoding="utf-8"?>
<!-- Generator: Adobe Illustrator 26.3.1, SVG Export Plug-In . SVG Version: 6.00 Build 0)  -->
<svg version="1.1" id="Layer_1" xmlns="http://www.w3.org/2000/svg" xmlns:xlink="http://www.w3.org/1999/xlink" x="0px" y="0px"
	 viewBox="0 0 16 16" style="enable-background:new 0 0 16 16;" xml:space="preserve">
<path d="M11,0.8h2.5c1.1,0,1.9,0.9,1.9,1.9v10.7c0,1.1-0.9,1.9-1.9,1.9H11c-1.1,0-1.9-0.9-1.9-1.9V2.7C9,1.6,9.9,0.8,11,0.8z"/>
<path d="M2.5,0.8H5c1.1,0,1.9,0.9,1.9,1.9v10.7c0,1.1-0.9,1.9-1.9,1.9H2.5c-1.1,0-1.9-0.9-1.9-1.9V2.7C0.6,1.6,1.5,0.8,2.5,0.8z"/>
</svg>
