<?xml version="1.0" encoding="utf-8"?>
<!-- Generator: Adobe Illustrator 26.3.1, SVG Export Plug-In . SVG Version: 6.00 Build 0)  -->
<svg version="1.1" id="Layer_1" xmlns="http://www.w3.org/2000/svg" xmlns:xlink="http://www.w3.org/1999/xlink" x="0px" y="0px"
	 viewBox="0 0 27.1 31.1" style="enable-background:new 0 0 27.1 31.1;" xml:space="preserve">
<style type="text/css">
	.st0{fill:none;stroke:#000000;stroke-width:2.125;stroke-linecap:round;stroke-linejoin:round;}
	.st1{fill:none;stroke:#000000;stroke-width:2.8333;stroke-linecap:round;stroke-linejoin:round;}
</style>
<path class="st0" d="M6.1,26.4c1.2-1.2,2.9-1.1,4,0.2l1.4,1.9c1.1,1.5,3,1.5,4.2,0l1.4-1.9c1-1.4,2.8-1.5,4-0.2
	c2.5,2.7,4.6,1.8,4.6-2v-16c0-5.7-1.3-7.1-6.7-7.1H8.2c-5.4,0-6.7,1.4-6.7,7.1v16C1.5,28.2,3.6,29.1,6.1,26.4z"/>
<path class="st1" d="M8.1,14.1L8.1,14.1"/>
<path class="st0" d="M12,14.1h7.8"/>
<path class="st1" d="M8.1,8.4L8.1,8.4"/>
<path class="st0" d="M12,8.4h7.8"/>
</svg>
