<?xml version="1.0" encoding="utf-8"?>
<!-- Generator: Adobe Illustrator 26.3.1, SVG Export Plug-In . SVG Version: 6.00 Build 0)  -->
<svg version="1.1" id="Layer_1" xmlns="http://www.w3.org/2000/svg" xmlns:xlink="http://www.w3.org/1999/xlink" x="0px" y="0px"
	 viewBox="0 0 21.8 22.5" style="enable-background:new 0 0 21.8 22.5;" xml:space="preserve">
<style type="text/css">
	.st0{fill:none;stroke:#00C6E1;stroke-width:1.5;stroke-linecap:round;}
</style>
<path class="st0" d="M20.5,18.2v-14c0-2-1-3-3-3h-4c-2,0-3,1-3,3v14c0,2,1,3,3,3h4C19.5,21.2,20.5,20.2,20.5,18.2z"/>
<path class="st0" d="M10.5,5.2h5"/>
<path class="st0" d="M10.5,17.2h4"/>
<path class="st0" d="M10.5,13.2l5,0.1"/>
<path class="st0" d="M10.5,9.2h3"/>
<path class="st0" d="M4.5,1.2c-1.6,0-3,1.3-3,2.9v13c0,0.5,0.2,1.1,0.4,1.5L2.8,20c0.9,1.6,2.5,1.6,3.4,0L7,18.6
	c0.2-0.4,0.4-1.1,0.4-1.5v-13C7.4,2.5,6.1,1.2,4.5,1.2z"/>
<path class="st0" d="M7.4,6.2H1.5"/>
</svg>
