<?xml version="1.0" encoding="utf-8"?>
<!-- Generator: Adobe Illustrator 26.3.1, SVG Export Plug-In . SVG Version: 6.00 Build 0)  -->
<svg version="1.1" id="Layer_1" xmlns="http://www.w3.org/2000/svg" xmlns:xlink="http://www.w3.org/1999/xlink" x="0px" y="0px"
	 viewBox="0 0 18.9 18.9" style="enable-background:new 0 0 18.9 18.9;" xml:space="preserve">
<path d="M13.6,0.4l-9,3c-6.1,2-6.1,5.3,0,7.4l2.7,0.9l0.9,2.7c2,6.1,5.3,6.1,7.4,0l3-9C19.8,1.3,17.6-1,13.6,0.4z M13.9,5.8
	l-3.8,3.8C10,9.7,9.8,9.8,9.6,9.8C9.4,9.8,9.2,9.7,9,9.6C8.8,9.3,8.8,8.8,9,8.5l3.8-3.8c0.3-0.3,0.8-0.3,1.1,0
	C14.2,5,14.2,5.5,13.9,5.8z"/>
</svg>
