<?xml version="1.0" encoding="utf-8"?>
<!-- Generator: Adobe Illustrator 26.3.1, SVG Export Plug-In . SVG Version: 6.00 Build 0)  -->
<svg version="1.1" id="Layer_1" xmlns="http://www.w3.org/2000/svg" xmlns:xlink="http://www.w3.org/1999/xlink" x="0px" y="0px"
	 viewBox="0 0 20 20" style="enable-background:new 0 0 20 20;" xml:space="preserve">
<style type="text/css">
	.st0{fill:none;stroke:#000000;stroke-width:1.6667;stroke-linecap:round;stroke-linejoin:round;}
	.st1{fill-rule:evenodd;clip-rule:evenodd;}
</style>
<path class="st0" d="M0.8,10c0,2,0.1,3.6,0.4,4.9c0.3,1.2,0.7,2.1,1.3,2.6c0.6,0.6,1.4,1,2.6,1.3c1.2,0.3,2.8,0.4,4.9,0.4
	c2,0,3.6-0.1,4.9-0.4c1.2-0.3,2.1-0.7,2.6-1.3c0.6-0.6,1-1.4,1.3-2.6c0.3-1.2,0.4-2.8,0.4-4.9c0-2-0.1-3.6-0.4-4.9
	c-0.3-1.2-0.7-2.1-1.3-2.6c-0.6-0.6-1.4-1-2.6-1.3C13.6,0.9,12,0.8,10,0.8c-2,0-3.6,0.1-4.9,0.4C3.9,1.5,3.1,1.9,2.5,2.5
	c-0.6,0.6-1,1.4-1.3,2.6C0.9,6.4,0.8,8,0.8,10z"/>
<path class="st1" d="M13.3,7.5c-0.5,0-0.8-0.4-0.8-0.8c0-0.5,0.4-0.8,0.8-0.8c0.5,0,0.8,0.4,0.8,0.8C14.2,7.1,13.8,7.5,13.3,7.5z
	 M12.5,9c-1-0.3-1.7-1.3-1.7-2.4c0-1.4,1.1-2.5,2.5-2.5c1.4,0,2.5,1.1,2.5,2.5c0,1.1-0.7,2-1.7,2.4c0,0,0,0.1,0,0.1V15
	c0,0.5-0.4,0.8-0.8,0.8c-0.5,0-0.8-0.4-0.8-0.8V9.2C12.5,9.1,12.5,9.1,12.5,9z M7.5,5c0-0.5-0.4-0.8-0.8-0.8C6.2,4.2,5.8,4.5,5.8,5
	v5.8c0,0,0,0.1,0,0.1c-1,0.3-1.7,1.3-1.7,2.4c0,1.4,1.1,2.5,2.5,2.5c1.4,0,2.5-1.1,2.5-2.5c0-1.1-0.7-2-1.7-2.4c0,0,0-0.1,0-0.1V5z
	 M5.8,13.3c0,0.5,0.4,0.8,0.8,0.8c0.5,0,0.8-0.4,0.8-0.8c0-0.5-0.4-0.8-0.8-0.8C6.2,12.5,5.8,12.9,5.8,13.3z"/>
</svg>
