<svg xmlns="http://www.w3.org/2000/svg" viewBox="0 0 21.4 21.2">
  <path d="M15.65,4.85a8.76,8.76,0,0,1,3.7,6.1" fill="none" stroke="#000" stroke-linecap="round" stroke-linejoin="round" stroke-width="1.5"/>
  <path d="M2.25,11.05A8.64,8.64,0,0,1,5.85,5" fill="none" stroke="#000" stroke-linecap="round" stroke-linejoin="round" stroke-width="1.5"/>
  <path d="M6.85,19.55a8.6,8.6,0,0,0,3.9.9,7.79,7.79,0,0,0,3.7-.9" fill="none" stroke="#000" stroke-linecap="round" stroke-linejoin="round" stroke-width="1.5"/>
  <path d="M10.75,6.35a2.8,2.8,0,0,0,2.8-2.8,2.73,2.73,0,0,0-2.8-2.8,2.8,2.8,0,0,0,0,5.6Z" fill="none" stroke="#000" stroke-linecap="round" stroke-linejoin="round" stroke-width="1.5"/>
  <path d="M3.55,18.55a2.8,2.8,0,1,0-2.8-2.8A2.8,2.8,0,0,0,3.55,18.55Z" fill="none" stroke="#000" stroke-linecap="round" stroke-linejoin="round" stroke-width="1.5"/>
  <path d="M17.85,18.55a2.8,2.8,0,1,0-2.8-2.8A2.86,2.86,0,0,0,17.85,18.55Z" fill="none" stroke="#000" stroke-linecap="round" stroke-linejoin="round" stroke-width="1.5"/>
</svg>
