<svg width="50px" height="50px" viewBox="0 0 80 80" fill="none" xmlns="http://www.w3.org/2000/svg">
<path d="M71.6201 34.8987L68.4128 48.5787C65.6637 60.3932 60.231 65.1714 50.0201 64.1896C48.3837 64.0587 46.6165 63.7641 44.7183 63.3059L39.2201 61.9968C25.5728 58.7568 21.351 52.015 24.5583 38.335L27.7656 24.6223C28.4201 21.8405 29.2056 19.4187 30.1874 17.4223C34.0165 9.50229 40.5292 7.37502 51.4601 9.96047L56.9256 11.2368C70.6383 14.4441 74.8274 21.2187 71.6201 34.8987Z" stroke="#00C6E1" stroke-width="4" stroke-linecap="round" stroke-linejoin="round"/>
<path d="M50.0142 64.1891C47.9852 65.5637 45.4324 66.7091 42.3233 67.7237L37.1524 69.4255C24.1597 73.6146 17.3197 70.1128 13.0979 57.1201L8.90879 44.1928C4.7197 31.2001 8.18879 24.3273 21.1815 20.1382L26.3524 18.4364C27.6942 18.011 28.9706 17.651 30.1815 17.4219C29.1997 19.4182 28.4142 21.8401 27.7597 24.6219L24.5524 38.3346C21.3452 52.0146 25.567 58.7564 39.2142 61.9964L44.7124 63.3055C46.6106 63.7637 48.3779 64.0582 50.0142 64.1891Z" stroke="#00C6E1" stroke-width="4" stroke-linecap="round" stroke-linejoin="round"/>
</svg>
