<svg viewBox="0 0 20 20" fill="none" xmlns="http://www.w3.org/2000/svg">
<path d="M10.0266 0.833496C10.8895 0.833496 12.2445 4.7499 12.7336 6.25572C12.8458 6.60121 13.1626 6.8392 13.5256 6.85151C15.0966 6.90479 19.1673 7.1316 19.1673 8.05136C19.1673 8.95805 16.2663 11.2379 15.0803 12.1321C14.7863 12.3538 14.6658 12.7365 14.779 13.0869C15.2617 14.5814 16.4213 18.4571 15.6771 19.0681C14.9443 19.6697 11.8131 17.2907 10.541 16.274C10.225 16.0214 9.77604 16.0211 9.45988 16.2735C8.18687 17.2899 5.05702 19.6698 4.3762 19.0681C3.68367 18.4561 4.78244 14.5682 5.23596 13.0792C5.34161 12.7324 5.21997 12.3574 4.93039 12.1392C3.75032 11.2499 0.833984 8.96044 0.833984 8.05136C0.833984 7.13065 4.91313 6.90433 6.48054 6.85135C6.84115 6.83916 7.15668 6.60401 7.27077 6.2617C7.77121 4.7603 9.16265 0.833496 10.0266 0.833496Z" stroke="white" stroke-width="1.66667" stroke-linecap="round" stroke-linejoin="round"/>
</svg>
