<?xml version="1.0" encoding="utf-8"?>
<!-- Generator: Adobe Illustrator 26.3.1, SVG Export Plug-In . SVG Version: 6.00 Build 0)  -->
<svg version="1.1" id="Layer_1" xmlns="http://www.w3.org/2000/svg" xmlns:xlink="http://www.w3.org/1999/xlink" x="0px" y="0px"
	 viewBox="0 0 24 24" style="enable-background:new 0 0 24 24;" xml:space="preserve">
<style type="text/css">
	.st0{fill-rule:evenodd;clip-rule:evenodd;}
</style>
<path class="st0" d="M12,0c-0.5,0-0.9,0.3-1.1,0.5c-0.2,0.2-0.4,0.5-0.6,0.7c-0.4,0.5-0.7,1.2-1,2c-0.6,1.4-1.2,3.1-1.5,4
	c0,0,0,0,0,0c-0.9,0-2.7,0.1-4.2,0.3C2.8,7.7,2,7.8,1.4,8C1.2,8.2,0.8,8.3,0.6,8.5C0.3,8.7,0,9.1,0,9.7c0,0.4,0.1,0.7,0.3,1
	c0.1,0.3,0.3,0.5,0.5,0.8c0.4,0.5,0.9,1,1.5,1.5c1.1,1,2.3,2,3.1,2.5c0,0,0,0,0,0c-0.3,0.9-0.8,2.6-1.1,4.1C4.1,20.2,4,21,4,21.7
	c0,0.3,0,0.7,0.1,1c0.1,0.3,0.2,0.7,0.5,1C5,24,5.4,24,5.7,24c0.3,0,0.7-0.1,0.9-0.2c0.6-0.2,1.2-0.6,1.9-1c1.3-0.8,2.6-1.9,3.4-2.5
	c0,0,0,0,0,0c0.8,0.6,2.1,1.7,3.4,2.5c0.6,0.4,1.3,0.8,1.9,1c0.3,0.1,0.6,0.2,1,0.2c0.3,0,0.8,0,1.1-0.3c0.4-0.3,0.5-0.7,0.6-1
	c0.1-0.3,0.1-0.7,0.1-1c0-0.7-0.1-1.4-0.3-2.2c-0.3-1.5-0.8-3.2-1.1-4.1c0,0,0,0,0,0c0.7-0.5,2-1.5,3.1-2.5c0.5-0.5,1.1-1,1.5-1.5
	c0.2-0.2,0.4-0.5,0.5-0.8c0.1-0.2,0.3-0.6,0.3-1c0-0.5-0.3-0.9-0.6-1.1c-0.3-0.2-0.6-0.4-0.9-0.5c-0.6-0.2-1.3-0.4-2.1-0.5
	c-1.5-0.2-3.3-0.3-4.2-0.3c0,0,0,0,0,0c-0.3-0.9-0.9-2.6-1.5-4c-0.3-0.7-0.7-1.4-1-2c-0.2-0.3-0.4-0.5-0.6-0.7C12.9,0.3,12.5,0,12,0
	z"/>
</svg>
