<?xml version="1.0" encoding="utf-8"?>
<!-- Generator: Adobe Illustrator 26.3.1, SVG Export Plug-In . SVG Version: 6.00 Build 0)  -->
<svg version="1.1" id="Layer_1" xmlns="http://www.w3.org/2000/svg" xmlns:xlink="http://www.w3.org/1999/xlink" x="0px" y="0px"
	 viewBox="0 0 17.4 17.3" style="enable-background:new 0 0 17.4 17.3;" xml:space="preserve">
<style type="text/css">
	.st0{fill:none;stroke:#000000;stroke-width:1.25;stroke-linecap:round;stroke-linejoin:round;}
	.st1{fill:none;stroke:#000000;stroke-width:1.25;stroke-linecap:round;}
	.st2{fill:none;stroke:#000000;stroke-width:1.25;stroke-linecap:round;stroke-linejoin:round;stroke-miterlimit:10;}
</style>
<path class="st0" d="M2.3,11.3l3.8,3.8c1.6,1.5,4.1,1.5,5.6,0l3.7-3.7c1.5-1.6,1.5-4.1,0-5.6l-3.8-3.8c-0.8-0.8-1.9-1.2-3-1.2
	L4.4,1.1c-1.7,0.1-3,1.4-3.1,3.1L1.1,8.3C1.1,9.4,1.5,10.5,2.3,11.3z"/>
<path class="st1" d="M6.7,8.6c1.2,0,2.1-0.9,2.1-2.1c0-1.2-0.9-2.1-2.1-2.1c-1.2,0-2.1,0.9-2.1,2.1C4.6,7.6,5.6,8.6,6.7,8.6z"/>
<path class="st2" d="M9.6,12.7L13,9.4"/>
</svg>
