<?xml version="1.0" encoding="utf-8"?>
<!-- Generator: Adobe Illustrator 26.3.1, SVG Export Plug-In . SVG Version: 6.00 Build 0)  -->
<svg version="1.1" id="Layer_1" xmlns="http://www.w3.org/2000/svg" xmlns:xlink="http://www.w3.org/1999/xlink" x="0px" y="0px"
	 viewBox="0 0 32 32" style="enable-background:new 0 0 32 32;" xml:space="preserve">
<style type="text/css">
	.st0{fill-rule:evenodd;clip-rule:evenodd;}
</style>
<path class="st0" d="M2.1,14.4c0.3,0.1,0.6,0.1,1.3,0.1c0.9,0,1.6,0.9,1.6,1.9s-0.7,1.9-1.6,1.9c-0.6,0-1,0-1.2,0.1
	c-1,0.2-1.9,1.1-2.1,2.2c0,0.3,0,0.6,0,1.1c0.1,1.8,0.3,3.1,0.7,4.3c0.8,2.3,2.1,3.7,3.9,4.7C6.3,31.6,8.7,32,13,32H19
	c4.3,0,6.7-0.4,8.4-1.3c1.8-1,3.1-2.5,3.9-4.7c0.4-1.1,0.6-2.4,0.7-4.3c0-0.6,0-0.9,0-1.1c-0.2-1.1-1-1.9-2.1-2.2
	c-0.3-0.1-0.6-0.1-1.2-0.1c-0.9,0-1.6-0.9-1.6-1.9s0.7-1.9,1.6-1.9c0.6,0,1,0,1.3-0.1c1-0.2,1.9-1.1,2.1-2.1c0.1-0.3,0-0.6,0-1.2
	c-0.1-2.2-0.2-3.7-0.7-5c-0.8-2.3-2.1-3.7-3.9-4.7C25.7,0.4,23.3,0,19,0H13C8.7,0,6.3,0.4,4.6,1.3c-1.8,1-3.1,2.5-3.9,4.7
	C0.3,7.3,0.1,8.8,0,11c0,0.6,0,0.9,0,1.2C0.2,13.3,1.1,14.1,2.1,14.4z M21.3,14.7c0-0.7-0.6-1.3-1.3-1.3c-0.7,0-1.3,0.6-1.3,1.3v2.7
	c0,0.7,0.6,1.3,1.3,1.3c0.7,0,1.3-0.6,1.3-1.3V14.7z M20,5.3c0.7,0,1.3,0.6,1.3,1.3v2.7c0,0.7-0.6,1.3-1.3,1.3
	c-0.7,0-1.3-0.6-1.3-1.3V6.7C18.7,5.9,19.3,5.3,20,5.3z M21.3,22.7c0-0.7-0.6-1.3-1.3-1.3c-0.7,0-1.3,0.6-1.3,1.3v2.7
	c0,0.7,0.6,1.3,1.3,1.3c0.7,0,1.3-0.6,1.3-1.3V22.7z"/>
</svg>
