<?xml version="1.0" encoding="utf-8"?>
<!-- Generator: Adobe Illustrator 26.3.1, SVG Export Plug-In . SVG Version: 6.00 Build 0)  -->
<svg width="16px" height="16px" version="1.1" id="Layer_1" xmlns="http://www.w3.org/2000/svg" xmlns:xlink="http://www.w3.org/1999/xlink" x="0px" y="0px"
	 viewBox="0 0 20 24" style="enable-background:new 0 0 20 24;" xml:space="preserve" fill="#E10000;">
<style type="text/css">
	.st0{fill:none;stroke:#E10000;stroke-width:2;stroke-linecap:round;stroke-linejoin:round;}
	.st1{fill-rule:evenodd;clip-rule:evenodd; stroke:#E10000}
</style>
<path class="st0" d="M1.4,14.8c0.1,0.3,0.1,0.5,0.2,0.8c0.3,1.5,0.6,2.6,0.9,3.6c0.3,1.1,0.7,1.9,1.2,2.4C4.5,22.5,6,23,10,23
	c4,0,5.5-0.5,6.4-1.5c0.5-0.5,0.8-1.2,1.2-2.4c0.3-1,0.6-2.1,0.9-3.6c0.1-0.3,0.1-0.5,0.2-0.8c0.8-3.5,0.3-5.2-0.9-6.2
	c-0.6-0.5-1.6-0.9-2.9-1.2C13.6,7.1,11.9,7,10,7C8.1,7,6.4,7.1,5.1,7.4C3.8,7.6,2.9,8,2.3,8.6C1.1,9.5,0.6,11.3,1.4,14.8z"/>
<path class="st0" d="M10,12v6 M6,12v6 M14,12v6"/>
<path class="st1" d="M12,2.1c3.7,0.3,6.1,1.2,7.5,2.1C20,4.4,20.1,5,19.9,5.5C19.6,6,19,6.1,18.5,5.9C17.2,5.1,14.5,4,10,4
	C5.5,4,2.7,5.1,1.5,5.8C1.1,6.1,0.5,6,0.2,5.5C-0.1,5.1,0,4.5,0.5,4.2C1.8,3.3,4.3,2.3,8,2.1V1c0-0.6,0.4-1,1-1h2c0.6,0,1,0.4,1,1
	V2.1z"/>
</svg>
