<?xml version="1.0" encoding="utf-8"?>
<!-- Generator: Adobe Illustrator 26.3.1, SVG Export Plug-In . SVG Version: 6.00 Build 0)  -->
<svg version="1.1" id="Layer_1" xmlns="http://www.w3.org/2000/svg" xmlns:xlink="http://www.w3.org/1999/xlink" x="0px" y="0px"
	 viewBox="0 0 25 20" style="enable-background:new 0 0 25 20;" xml:space="preserve">
<path d="M15.6,0.2c-0.8,0.2-1.6,0.5-2.2,1c-0.4,0.3-1,0.9-1.3,1.3c-0.6,0.8-0.9,1.9-0.9,2.8v0.4l-0.2,0C8.2,5.3,5.6,3.9,3.7,2
	C3.4,1.7,3.1,1.4,3,1.3C2.8,1,2.6,0.9,2.3,1C1.9,1,1.6,1.3,1.3,2.1C1.1,2.9,1,3.3,1,4.2c0,0.8,0.1,1.3,0.4,2
	c0.1,0.2,0.1,0.4,0.1,0.4c0,0-0.1,0.1-0.1,0.1C1.3,6.7,1,7,1,7.2c-0.1,0.2,0,1,0.1,1.5c0.2,0.9,0.8,1.9,1.5,2.6l0.2,0.2l-0.1,0.2
	C2.5,12,2.6,12.5,3,13.2c0.3,0.5,0.6,0.8,1,1.3c0.4,0.4,0.7,0.6,1.2,0.9l0.4,0.2l-0.3,0.1c-0.4,0.2-1.3,0.4-1.8,0.6
	c-0.4,0.1-0.7,0.1-1.8,0.1c-1.3,0-1.3,0-1.4,0.1C0.2,16.6,0,16.9,0,17.2c0,0.3,0.2,0.5,0.4,0.7c1.7,1.1,3.9,1.8,6.1,2.1
	c0.7,0.1,2.4,0.1,3.1,0c4.6-0.5,8.5-3.1,10.7-7.1c1.1-1.9,1.7-4.4,1.7-6.4V5.9l0.4-0.4c0.9-1,1.5-2.1,1.7-3.1c0.1-0.5,0-0.7-0.1-0.9
	c-0.3-0.4-0.6-0.4-1.3-0.1c-0.6,0.3-1,0.4-1.5,0.4c-0.5,0-0.7-0.1-1-0.3c-0.7-0.6-1.6-1.1-2.6-1.2C17.2,0.1,16.1,0.1,15.6,0.2z
	 M17.6,1.8c0.7,0.2,1.2,0.4,1.7,1c0.3,0.3,0.6,0.4,1.2,0.5c0.3,0.1,1.5,0,1.6,0c0.1,0,0.1,0,0,0.2c-0.2,0.4-0.7,1-1.1,1.3
	c-0.3,0.2-0.4,0.4-0.4,0.5c0,0.1-0.1,0.6-0.1,1.2c0,1.1-0.1,1.7-0.3,2.7c-0.5,2.2-1.7,4.2-3.3,5.8c-2,2-4.5,3.2-7.4,3.5
	c-0.7,0.1-2.2,0.1-2.9,0c-0.8-0.1-1.8-0.3-2.4-0.5C4,17.8,4,17.8,4.6,17.6c1.2-0.3,2.4-0.9,3.4-1.6c0.3-0.2,0.4-0.3,0.4-0.5
	c0.1-0.4,0-0.8-0.3-1c-0.1,0-0.3-0.1-0.6-0.1c-0.7-0.1-1.3-0.3-1.8-0.6c-0.3-0.2-1.1-0.9-1.1-1c0,0,0.2-0.1,0.4-0.1
	c0.8-0.1,1.2-0.4,1.2-0.9c0-0.4-0.2-0.7-0.7-0.8c-0.9-0.2-1.7-0.8-2.2-1.5c-0.2-0.3-0.6-1-0.5-1c0,0,0.1,0,0.3,0
	c0.1,0,0.4,0.1,0.7,0.1c0.4,0,0.4,0,0.6-0.1C4.5,8.4,4.6,8.3,4.6,8c0-0.3-0.1-0.5-0.5-0.9C3.2,6.4,2.7,5.6,2.6,4.6
	c-0.1-0.4,0-0.9,0-1.2l0-0.2L3,3.6C4,4.5,5.4,5.5,6.7,6c1.7,0.8,3.5,1.2,5,1.3c0.6,0,0.7,0,0.8-0.1c0.3-0.2,0.4-0.4,0.3-0.7
	c-0.1-1.5-0.1-1.8,0.3-2.6c0.4-0.8,1-1.4,1.8-1.8C15.9,1.7,16.7,1.6,17.6,1.8z"/>
</svg>
