<?xml version="1.0" encoding="utf-8"?>
<!-- Generator: Adobe Illustrator 26.3.1, SVG Export Plug-In . SVG Version: 6.00 Build 0)  -->
<svg version="1.1" id="Layer_1" xmlns="http://www.w3.org/2000/svg" xmlns:xlink="http://www.w3.org/1999/xlink" x="0px" y="0px"
	 viewBox="0 0 20 22" style="enable-background:new 0 0 20 22;" xml:space="preserve" fill="#787878">
<style type="text/css">
	.st0{fill:none;stroke:#787878;stroke-width:1.6;stroke-linecap:round;stroke-linejoin:round;}
	.st1{fill:none;stroke:#787878;stroke-width:1.6;}
</style>
<path class="st0" d="M0.8,17.3c0,0.9,0.1,1.5,0.3,1.9c0.2,0.4,0.5,0.7,1.1,1c0.6,0.3,1.5,0.5,2.8,0.6C6.3,21,7.9,21,10,21
	c2.1,0,3.7-0.1,5-0.2c1.3-0.1,2.2-0.3,2.8-0.6c0.6-0.3,0.9-0.6,1.1-1c0.2-0.4,0.3-1.1,0.3-1.9s-0.1-1.5-0.3-1.9
	c-0.2-0.4-0.5-0.7-1.1-1c-0.6-0.3-1.5-0.5-2.8-0.6c-1.3-0.1-2.9-0.2-5-0.2c-2.1,0-3.7,0.1-5,0.2c-1.3,0.1-2.2,0.3-2.8,0.6
	c-0.6,0.3-0.9,0.6-1.1,1C0.9,15.8,0.8,16.4,0.8,17.3z"/>
<circle class="st1" cx="10" cy="5.5" r="4.7"/>
</svg>
