<?xml version="1.0" encoding="utf-8"?>
<!-- Generator: Adobe Illustrator 26.3.1, SVG Export Plug-In . SVG Version: 6.00 Build 0)  -->
<svg version="1.1" id="Layer_1" xmlns="http://www.w3.org/2000/svg" xmlns:xlink="http://www.w3.org/1999/xlink" x="0px" y="0px"
	 viewBox="0 0 26.7 27" style="enable-background:new 0 0 26.7 27;" xml:space="preserve">
<path d="M18.9,0.2H7.7C2.9,0.2,0,3.1,0,7.9v11.2c0,4.9,2.9,7.8,7.7,7.8h11.2c4.9,0,7.7-2.9,7.7-7.7V7.9C26.7,3.1,23.8,0.2,18.9,0.2z
	 M19.5,12.5l-2.2,1.4l0.2,3.2c0.2,1.8-0.4,2.4-2.1,2.6l-6.8,0.8c-0.4,0.1-0.5-0.4-0.2-0.6l2.1-2.1c0.4-0.4,0.4-1,0-1.4
	c-0.4-0.4-1-0.4-1.4,0l-2,2.1c-0.3,0.3-0.7,0.1-0.6-0.2l0.8-6.8C7.4,9.7,8,9.2,9.8,9.3L13,9.5l1.4-2.2c0.6-1,1.9-1,2.8-0.1l2.5,2.5
	C20.5,10.5,20.5,11.9,19.5,12.5z"/>
</svg>
