<?xml version="1.0" encoding="utf-8"?>
<!-- Generator: Adobe Illustrator 26.3.1, SVG Export Plug-In . SVG Version: 6.00 Build 0)  -->
<svg version="1.1" id="Layer_1" xmlns="http://www.w3.org/2000/svg" xmlns:xlink="http://www.w3.org/1999/xlink" x="0px" y="0px"
	 viewBox="0 0 26.7 26.7" style="enable-background:new 0 0 26.7 26.7;" xml:space="preserve">
<path d="M17,0H9.7v5.8H17V0z"/>
<path d="M19,0v5.8h7.5C25.8,2.1,23.1,0,19,0z"/>
<path d="M0,7.8v11.1c0,4.9,2.9,7.7,7.7,7.7h11.2c4.9,0,7.7-2.9,7.7-7.7V7.8H0z M16.6,18.9l-2.8,1.6c-0.6,0.3-1.2,0.5-1.7,0.5
	c-0.4,0-0.8-0.1-1.1-0.3c-0.8-0.4-1.2-1.3-1.2-2.5V15c0-1.2,0.4-2.1,1.2-2.5c0.8-0.5,1.8-0.4,2.8,0.2l2.8,1.6c1,0.6,1.6,1.4,1.6,2.3
	C18.2,17.5,17.6,18.3,16.6,18.9z"/>
<path d="M7.7,0C3.6,0,0.9,2.1,0.2,5.8h7.5V0z"/>
</svg>
