<svg width="40" height="40" viewBox="0 0 40 40" fill="none" xmlns="http://www.w3.org/2000/svg">
<path d="M36.6673 19.9993V28.3327C36.6673 33.3327 33.334 36.666 28.334 36.666H11.6673C6.66732 36.666 3.33398 33.3327 3.33398 28.3327V19.9993C3.33398 15.466 6.06732 12.2993 10.3173 11.766C10.7507 11.6993 11.2007 11.666 11.6673 11.666H28.334C28.7673 11.666 29.184 11.6827 29.584 11.7493C33.884 12.2493 36.6673 15.4327 36.6673 19.9993Z" stroke="#01D556" stroke-width="2.5" stroke-linecap="round" stroke-linejoin="round"/>
<path d="M29.587 11.7506C29.187 11.684 28.7703 11.6673 28.337 11.6673H11.6703C11.2036 11.6673 10.7536 11.7007 10.3203 11.7673C10.5536 11.3007 10.887 10.8673 11.287 10.4673L16.7036 5.03398C18.987 2.76732 22.687 2.76732 24.9703 5.03398L27.887 7.98402C28.9536 9.03402 29.5203 10.3673 29.587 11.7506Z" stroke="#01D556" stroke-width="2.5" stroke-linecap="round" stroke-linejoin="round"/>
<path d="M36.6673 20.834H31.6673C29.834 20.834 28.334 22.334 28.334 24.1673C28.334 26.0007 29.834 27.5007 31.6673 27.5007H36.6673" stroke="#01D556" stroke-width="2.5" stroke-linecap="round" stroke-linejoin="round"/>
</svg>
