<svg width="20" height="20" viewBox="0 0 20 20" fill="none" xmlns="http://www.w3.org/2000/svg">
<path d="M19.1667 10C19.1667 9.07892 19.1442 8.24879 19.0938 7.5H19.0889H19.0792H19.0695H19.0597H19.0499H19.04H19.0301H19.0201H19.0101H19H18.9899H18.9797H18.9695H18.9592H18.9489H18.9386H18.9282H18.9177H18.9073H18.8967H18.8862H18.8755H18.8649H18.8542H18.8434H18.8326H18.8218H18.8109H18.8H18.789H18.778H18.767H18.7559H18.7447H18.7336H18.7223H18.7111H18.6998H18.6885H18.6771H18.6657H18.6542H18.6427H18.6312H18.6196H18.608H18.5963H18.5846H18.5729H18.5612H18.5494H18.5375H18.5256H18.5137H18.5018H18.4898H18.4778H18.4657H18.4536H18.4415H18.4293H18.4171H18.4049H18.3926H18.3803H18.3679H18.3556H18.3432H18.3307H18.3182H18.3057H18.2932H18.2806H18.268H18.2554H18.2427H18.23H18.2173H18.2045H18.1917H18.1789H18.166H18.1532H18.1402H18.1273H18.1143H18.1013H18.0883H18.0752H18.0621H18.049H18.0359H18.0227H18.0095H17.9963H17.983H17.9697H17.9564H17.9431H17.9297H17.9163H17.9029H17.8894H17.876H17.8625H17.849H17.8354H17.8218H17.8083H17.7946H17.781H17.7673H17.7537H17.7399H17.7262H17.7125H17.6987H17.6849H17.671H17.6572H17.6433H17.6295H17.6155H17.6016H17.5877H17.5737H17.5597H17.5457H17.5317H17.5176H17.5035H17.4895H17.4754H17.4612H17.4471H17.4329H17.4187H17.4045H17.3903H17.3761H17.3618H17.3476H17.3333H17.319H17.3047H17.2904H17.276H17.2617H17.2473H17.2329H17.2185H17.2041H17.1896H17.1752H17.1607H17.1462H17.1318H17.1173H17.1027H17.0882H17.0737H17.0591H17.0446H17.03H17.0154H17.0008H16.9862H16.9716H16.9569H16.9423H16.9276H16.913H16.8983H16.8836H16.8689H16.8543H16.8395H16.8248H16.8101H16.7954H16.7806H16.7659H16.7511H16.7364H16.7216H16.7068H16.6921H16.6773H16.6625H16.6477H16.6329H16.6181H16.6033H16.5884H16.5736H16.5588H16.544H16.5291H16.5143H16.4994H16.4846H16.4697H16.4549H16.44H16.4252H16.4103H16.3955H16.3806H16.3657H16.3509H16.336H16.3211H16.3063H16.2914H16.2766H16.2617H16.2468H16.232H16.2171H16.2022H16.1874H16.1725H16.1577H16.1428H16.1279H16.1131H16.0982H16.0834H16.0686H16.0537H16.0389H16.0241H16.0092H15.9944H15.9796H15.9648H15.95H15.9352H15.9204H15.9056H15.8908H15.876H15.8613H15.8465H15.8317H15.817H15.8022H15.7875H15.7728H15.7581H15.7433H15.7286H15.7139H15.6993H15.6846H15.6699H15.6553H15.6406H15.626H15.6114H15.5967H15.5821H15.5675H15.553H15.5384H15.5238H15.5093H15.4947H15.4802H15.4657H15.4512H15.4367H15.4223H15.4078H15.3934H15.3789H15.3645H15.3501H15.3357H15.3214H15.307H15.2927H15.2783H15.264H15.2497H15.2355H15.2212H15.207H15.1927H15.1785H15.1643H15.1502H15.136H15.1219H15.1077H15.0936H15.0796H15.0655H15.0515H15.0374H15.0234H15.0095H14.9955H14.9815H14.9676H14.9537H14.9398H14.926H14.9121H14.8983H14.8845H14.8708H14.857H14.8433H14.8296H14.8159H14.8023H14.7886H14.775H14.7614H14.7479H14.7343H14.7208H14.7073H14.6939H14.6805H14.667H14.6537H14.6403H14.627H14.6137H14.6004H14.5872H14.5739H14.5607H14.5476H14.5344H14.5213H14.5082H14.4952H14.4822H14.4692H14.4562H14.4433H14.4304H14.4175H14.4046H14.3918H14.379H14.3663H14.3536H14.3409H14.3282H14.3156H14.303H14.2904H14.2779H14.2654H14.253H14.2405H14.2281H14.2158H14.2034H14.1911H14.1789H14.1667C12.6103 7.5 11.6667 8.72383 11.6667 10C11.6667 11.2762 12.6103 12.5 14.1667 12.5L17.7946 12.5L19.0938 12.5C19.1442 11.7512 19.1667 10.9211 19.1667 10ZM18.9127 14.1667H17.7946L14.1667 14.1667C11.5563 14.1667 10 12.0572 10 10C10 7.94283 11.5563 5.83333 14.1667 5.83333H14.1789H14.1911H14.2034H14.2158H14.2281H14.2405H14.253H14.2654H14.2779H14.2904H14.303H14.3156H14.3282H14.3409H14.3536H14.3663H14.379H14.3918H14.4046H14.4175H14.4304H14.4433H14.4562H14.4692H14.4822H14.4952H14.5082H14.5213H14.5344H14.5476H14.5607H14.5739H14.5872H14.6004H14.6137H14.627H14.6403H14.6537H14.667H14.6805H14.6939H14.7073H14.7208H14.7343H14.7479H14.7614H14.775H14.7886H14.8023H14.8159H14.8296H14.8433H14.857H14.8708H14.8845H14.8983H14.9121H14.926H14.9398H14.9537H14.9676H14.9815H14.9955H15.0095H15.0234H15.0374H15.0515H15.0655H15.0796H15.0936H15.1077H15.1219H15.136H15.1502H15.1643H15.1785H15.1927H15.207H15.2212H15.2355H15.2497H15.264H15.2783H15.2927H15.307H15.3214H15.3357H15.3501H15.3645H15.3789H15.3934H15.4078H15.4223H15.4367H15.4512H15.4657H15.4802H15.4947H15.5093H15.5238H15.5384H15.553H15.5675H15.5821H15.5967H15.6114H15.626H15.6406H15.6553H15.6699H15.6846H15.6993H15.7139H15.7286H15.7433H15.7581H15.7728H15.7875H15.8022H15.817H15.8317H15.8465H15.8613H15.876H15.8908H15.9056H15.9204H15.9352H15.95H15.9648H15.9796H15.9944H16.0092H16.0241H16.0389H16.0537H16.0686H16.0834H16.0982H16.1131H16.1279H16.1428H16.1577H16.1725H16.1874H16.2022H16.2171H16.232H16.2468H16.2617H16.2766H16.2914H16.3063H16.3211H16.336H16.3509H16.3657H16.3806H16.3955H16.4103H16.4252H16.44H16.4549H16.4697H16.4846H16.4994H16.5143H16.5291H16.544H16.5588H16.5736H16.5884H16.6033H16.6181H16.6329H16.6477H16.6625H16.6773H16.6921H16.7068H16.7216H16.7364H16.7511H16.7659H16.7806H16.7954H16.8101H16.8248H16.8395H16.8543H16.8689H16.8836H16.8983H16.913H16.9276H16.9423H16.9569H16.9716H16.9862H17.0008H17.0154H17.03H17.0446H17.0591H17.0737H17.0882H17.1027H17.1173H17.1318H17.1462H17.1607H17.1752H17.1896H17.2041H17.2185H17.2329H17.2473H17.2617H17.276H17.2904H17.3047H17.319H17.3333H17.3476H17.3618H17.3761H17.3903H17.4045H17.4187H17.4329H17.4471H17.4612H17.4754H17.4895H17.5035H17.5176H17.5317H17.5457H17.5597H17.5737H17.5877H17.6016H17.6155H17.6295H17.6433H17.6572H17.671H17.6849H17.6987H17.7125H17.7262H17.7399H17.7537H17.7673H17.781H17.7946H17.8083H17.8218H17.8354H17.849H17.8625H17.876H17.8894H17.9029H17.9163H17.9297H17.9431H17.9564H17.9697H17.983H17.9963H18.0095H18.0227H18.0359H18.049H18.0621H18.0752H18.0883H18.1013H18.1143H18.1273H18.1402H18.1532H18.166H18.1789H18.1917H18.2045H18.2173H18.23H18.2427H18.2554H18.268H18.2806H18.2932H18.3057H18.3182H18.3307H18.3432H18.3556H18.3679H18.3803H18.3926H18.4049H18.4171H18.4293H18.4415H18.4536H18.4657H18.4778H18.4898H18.5018H18.5137H18.5256H18.5375H18.5494H18.5612H18.5729H18.5846H18.5963H18.608H18.6196H18.6312H18.6427H18.6542H18.6657H18.6771H18.6885H18.6998H18.7111H18.7223H18.7336H18.7447H18.7559H18.767H18.778H18.789H18.8H18.8109H18.8218H18.8326H18.8434H18.8542H18.8649H18.8755H18.8862H18.8967H18.9073H18.9127C18.5903 3.816 17.9442 2.69534 16.8867 2.00716C15.5918 1.16445 13.498 0.833334 10 0.833334C7.96027 0.833334 6.37805 0.943714 5.14415 1.21794C3.91971 1.49006 3.08995 1.91232 2.50113 2.50113C1.91232 3.08995 1.49006 3.91971 1.21794 5.14415C0.943714 6.37805 0.833333 7.96027 0.833333 10C0.833333 12.0397 0.943714 13.6219 1.21794 14.8559C1.49006 16.0803 1.91232 16.9101 2.50113 17.4989C3.08995 18.0877 3.91971 18.5099 5.14415 18.7821C6.37805 19.0563 7.96027 19.1667 10 19.1667C13.498 19.1667 15.5918 18.8356 16.8867 17.9928C17.9442 17.3047 18.5903 16.184 18.9127 14.1667ZM14.1667 10.8333C13.7064 10.8333 13.3333 10.4602 13.3333 10C13.3333 9.53976 13.7064 9.16667 14.1667 9.16667H15.8333C16.2936 9.16667 16.6667 9.53976 16.6667 10C16.6667 10.4602 16.2936 10.8333 15.8333 10.8333H14.1667Z" stroke="#787878" stroke-width="1.66667" stroke-linecap="round" stroke-linejoin="round"/>
</svg>
