<?xml version="1.0" encoding="utf-8"?>
<!-- Generator: Adobe Illustrator 26.3.1, SVG Export Plug-In . SVG Version: 6.00 Build 0)  -->
<svg version="1.1" id="Layer_1" xmlns="http://www.w3.org/2000/svg" xmlns:xlink="http://www.w3.org/1999/xlink" x="0px" y="0px"
	 viewBox="0 0 31.6 31.6" style="enable-background:new 0 0 31.6 31.6;" xml:space="preserve">
<style type="text/css">
	.st0{fill:none;stroke:#000000;stroke-width:2.125;stroke-linecap:round;stroke-linejoin:round;}
</style>
<path class="st0" d="M30.1,15.7v7.1c0,4.2-2.8,7.1-7.1,7.1H8.8c-4.2,0-7.1-2.8-7.1-7.1v-7.1c0-3.9,2.3-6.5,5.9-7
	C8,8.6,8.4,8.6,8.8,8.6H23c0.4,0,0.7,0,1.1,0.1C27.7,9.1,30.1,11.8,30.1,15.7z"/>
<path class="st0" d="M24,8.7c-0.3-0.1-0.7-0.1-1.1-0.1H8.8c-0.4,0-0.8,0-1.1,0.1c0.2-0.4,0.5-0.8,0.8-1.1L13.1,3C15,1,18.2,1,20.1,3
	l2.5,2.5C23.5,6.4,24,7.5,24,8.7z"/>
<path class="st0" d="M30.1,16.4h-4.2c-1.6,0-2.8,1.3-2.8,2.8c0,1.6,1.3,2.8,2.8,2.8h4.2"/>
</svg>
