<svg width="20" height="20" viewBox="0 0 20 20" fill="none" xmlns="http://www.w3.org/2000/svg">
<path d="M0 10C0 18.235 1.765 20 10 20C16.4672 20 18.944 18.9115 19.7094 14.4555C19.7353 14.3048 19.6184 14.1667 19.4654 14.1667H14.1667C13.6195 14.1667 13.0777 14.0589 12.5722 13.8495C12.0667 13.6401 11.6073 13.3332 11.2204 12.9463C10.8335 12.5594 10.5266 12.1 10.3172 11.5945C10.1078 11.089 10 10.5472 10 10C10 9.45282 10.1078 8.91103 10.3172 8.40551C10.5266 7.89998 10.8335 7.44064 11.2204 7.05373C11.6073 6.66682 12.0667 6.35991 12.5722 6.15051C13.0777 5.94111 13.6195 5.83333 14.1667 5.83333H19.4654C19.6184 5.83333 19.7353 5.69517 19.7094 5.54446C18.944 1.08854 16.4672 0 10 0C1.765 0 0 1.765 0 10Z" fill="#00C6E1"/>
<path fill-rule="evenodd" clip-rule="evenodd" d="M20 10C20 10.8177 19.9826 11.5716 19.9432 12.2663C19.9357 12.3978 19.8265 12.5 19.6947 12.5H14.1667C13.8383 12.5 13.5133 12.4354 13.2099 12.3097C12.9066 12.184 12.631 11.9999 12.3989 11.7678C12.1667 11.5356 11.9826 11.26 11.8569 10.9567C11.7313 10.6534 11.6667 10.3283 11.6667 10C11.6667 9.67168 11.7313 9.34662 11.8569 9.04327C11.9826 8.73998 12.1667 8.46436 12.3989 8.23222C12.631 8.00008 12.9066 7.81596 13.2099 7.69028C13.5133 7.56465 13.8383 7.5 14.1667 7.5H19.6947C19.8265 7.5 19.9357 7.60221 19.9432 7.73375C19.9826 8.42845 20 9.18233 20 10ZM15 9.16667C14.5398 9.16667 14.1667 9.53976 14.1667 10C14.1667 10.4602 14.5398 10.8333 15 10.8333H16.6667C17.1269 10.8333 17.5 10.4602 17.5 10C17.5 9.53976 17.1269 9.16667 16.6667 9.16667H15Z" fill="#00C6E1"/>
</svg>
