<?xml version="1.0" encoding="utf-8"?>
<!-- Generator: Adobe Illustrator 26.3.1, SVG Export Plug-In . SVG Version: 6.00 Build 0)  -->
<svg version="1.1" id="Layer_1" xmlns="http://www.w3.org/2000/svg" xmlns:xlink="http://www.w3.org/1999/xlink" x="0px" y="0px"
	 viewBox="0 0 18.7 18.6" style="enable-background:new 0 0 18.7 18.6;" xml:space="preserve">
<style type="text/css">
	.st0{fill:none;stroke:#000000;stroke-width:1.25;stroke-linecap:round;stroke-linejoin:round;stroke-miterlimit:10;}
	.st1{fill:none;stroke:#000000;stroke-width:1.25;stroke-miterlimit:10;}
</style>
<path class="st0" d="M5.1,16.5c1.2,0.8,2.8,1.2,4.3,1.2c4.6,0,8.3-3.8,8.3-8.3c0-4.6-3.7-8.3-8.3-8.3C4.8,1,1,4.7,1,9.3
	c0,1.5,0.4,2.9,1.1,4.2l-0.7,2.8c-0.2,0.6,0.4,1.2,1,1L5.1,16.5z"/>
<path class="st1" d="M13.1,11.7c0,0.1,0,0.3-0.1,0.4c-0.1,0.1-0.1,0.3-0.3,0.4c-0.2,0.2-0.4,0.3-0.6,0.4c-0.2,0.1-0.5,0.1-0.7,0.1
	c-0.4,0-0.8-0.1-1.2-0.3c-0.4-0.2-0.9-0.4-1.3-0.7C8.4,11.7,8,11.4,7.6,11c-0.4-0.4-0.7-0.8-1-1.2C6.3,9.3,6,8.9,5.9,8.5
	C5.7,8.1,5.6,7.6,5.6,7.3c0-0.3,0-0.5,0.1-0.7C5.8,6.3,6,6.1,6.2,5.9c0.2-0.2,0.5-0.4,0.8-0.4c0.1,0,0.2,0,0.3,0.1
	c0.1,0,0.2,0.1,0.3,0.2l0.9,1.2c0.1,0.1,0.1,0.2,0.2,0.3c0,0.1,0.1,0.2,0.1,0.2c0,0.1,0,0.2-0.1,0.3c0,0.1-0.1,0.2-0.2,0.3L8,8.4
	c0,0-0.1,0.1-0.1,0.2c0,0,0,0.1,0,0.1c0,0,0,0.1,0,0.1C8,8.8,8.2,9,8.3,9.2c0.2,0.2,0.3,0.4,0.5,0.6c0.2,0.2,0.4,0.4,0.6,0.6
	c0.2,0.2,0.4,0.3,0.5,0.3c0,0,0,0,0.1,0c0,0,0.1,0,0.1,0c0.1,0,0.1,0,0.2-0.1l0.3-0.3c0.1-0.1,0.2-0.2,0.3-0.2
	c0.1-0.1,0.2-0.1,0.3-0.1c0.1,0,0.1,0,0.2,0c0.1,0,0.2,0.1,0.3,0.1l1.2,0.9c0.1,0.1,0.2,0.1,0.2,0.2C13.1,11.5,13.1,11.6,13.1,11.7z
	"/>
</svg>
