<?xml version="1.0" encoding="utf-8"?>
<!-- Generator: Adobe Illustrator 26.3.1, SVG Export Plug-In . SVG Version: 6.00 Build 0)  -->
<svg version="1.1" id="Layer_1" xmlns="http://www.w3.org/2000/svg" xmlns:xlink="http://www.w3.org/1999/xlink" x="0px" y="0px"
	 viewBox="0 0 20.2 20.8" style="enable-background:new 0 0 20.2 20.8;" xml:space="preserve">
<path d="M20.2,9.6C19.9,3.8,14.6-0.6,8.5,0.4C4.3,1,1,4.4,0.3,8.6C0,11,0.5,13.3,1.5,15.2l-0.9,3.3c-0.2,0.8,0.5,1.4,1.2,1.2
	l3.3-0.9c1.5,0.9,3.2,1.4,5.1,1.4C15.8,20.2,20.5,15.2,20.2,9.6z M15.1,13.9c-0.1,0.2-0.2,0.4-0.3,0.5c-0.2,0.3-0.5,0.5-0.8,0.6
	c-0.3,0.1-0.6,0.2-1,0.2c-0.5,0-1.1-0.1-1.6-0.4c-0.6-0.2-1.1-0.6-1.7-1C9,13.4,8.5,13,8,12.5c-0.5-0.5-1-1.1-1.4-1.6
	c-0.4-0.6-0.7-1.1-1-1.7C5.3,8.5,5.2,8,5.2,7.5c0-0.3,0.1-0.7,0.2-1C5.5,6.2,5.7,5.9,6,5.7c0.3-0.3,0.7-0.5,1-0.5
	c0.1,0,0.3,0,0.4,0.1s0.3,0.2,0.3,0.3l1.2,1.6C9,7.3,9.1,7.4,9.1,7.6c0.1,0.1,0.1,0.2,0.1,0.3c0,0.1,0,0.2-0.1,0.4
	C9,8.3,8.9,8.5,8.8,8.6L8.4,9C8.4,9,8.4,9.1,8.4,9.2c0,0,0,0.1,0,0.1c0,0,0,0.1,0,0.1C8.5,9.6,8.7,9.8,8.9,10
	c0.2,0.3,0.5,0.5,0.7,0.8c0.3,0.3,0.5,0.5,0.8,0.7c0.3,0.2,0.5,0.4,0.6,0.5c0,0,0.1,0,0.1,0c0,0,0.1,0,0.1,0c0.1,0,0.1,0,0.2-0.1
	l0.4-0.4c0.1-0.1,0.3-0.2,0.4-0.3c0.1-0.1,0.2-0.1,0.4-0.1c0.1,0,0.2,0,0.3,0.1s0.2,0.1,0.3,0.2l1.7,1.2c0.1,0.1,0.2,0.2,0.3,0.3
	c0,0.1,0.1,0.2,0.1,0.4C15.2,13.6,15.2,13.8,15.1,13.9z"/>
</svg>
