<svg xmlns="http://www.w3.org/2000/svg" data-name="Flat Gradient" viewBox="0 0 64 64" width="40" height="40"><defs><linearGradient id="a" x1="6.395" x2="57.605" y1="32" y2="32" gradientUnits="userSpaceOnUse"><stop offset="0" stop-color="#865ff4" class="stopColor865ff4 svgShape"></stop><stop offset="1" stop-color="#865ff4" class="stopColor865ff4 svgShape"></stop></linearGradient></defs><path fill="url(#a)" d="M33.355,55h17.46v1.11A3.89434,3.89434,0,0,1,46.925,60H10.285A3.89433,3.89433,0,0,1,6.395,56.11V7.89A3.89433,3.89433,0,0,1,10.285,4H35.835l1.41,1.41v8.27a3.89652,3.89652,0,0,0,3.9,3.89H49.405l1.41,1.41V35H33.355a6.01332,6.01332,0,0,0-6.01,6v8A6.01332,6.01332,0,0,0,33.355,55ZM50.81219,16.15V7.89a3.89438,3.89438,0,0,0-3.89-3.89h-8.26C38.80432,4.1427,50.66565,16.00269,50.81219,16.15Zm-9.67-.58h6.26l-8.16-8.16v6.27A1.89705,1.89705,0,0,0,41.14215,15.57ZM57.605,41v8a4.00533,4.00533,0,0,1-4,4H33.355a4.0075,4.0075,0,0,1-4.01-4V41a4.00746,4.00746,0,0,1,4.01-4h20.25A4.00529,4.00529,0,0,1,57.605,41Zm-21.75,6.94,4.7-6.28a.98238.98238,0,0,0,.1-1.04,1.012,1.012,0,0,0-.9-.56h-5.9a1.00017,1.00017,0,0,0-.00006,2h3.9L33.055,48.34a1.00485,1.00485,0,0,0,.79995,1.6h5.9a1.00012,1.00012,0,0,0,0-2Zm8.62-6.88a1,1,0,0,0-2,0v7.88a1.00011,1.00011,0,0,0,2,0Zm6.66-1h-3.94a1.003,1.003,0,0,0-1,1v7.88a1,1,0,0,0,2,0V46h2.94A2.9702,2.9702,0,0,0,51.135,40.06Zm0,2h-2.94V44h2.94A.97012.97012,0,0,0,51.135,42.06Z"></path></svg>