<?xml version="1.0" encoding="utf-8"?>
<!-- Generator: Adobe Illustrator 26.3.1, SVG Export Plug-In . SVG Version: 6.00 Build 0)  -->
<svg version="1.1" id="Layer_1" xmlns="http://www.w3.org/2000/svg" xmlns:xlink="http://www.w3.org/1999/xlink" x="0px" y="0px"
	 viewBox="0 0 389.7 98.3" style="enable-background:new 0 0 389.7 98.3;" xml:space="preserve">
<style type="text/css">
	.st0{fill-rule:evenodd;clip-rule:evenodd;fill:#FFCB05;}
	.st1{fill-rule:evenodd;clip-rule:evenodd;fill:#FFFFFF;}
	.st2{fill-rule:evenodd;clip-rule:evenodd;}
</style>
<path class="st0" d="M386.6,77.7L386.6,77.7c-0.3-0.3-0.6-0.6-0.9-0.9l-13.9-13.9l0.2-0.4c1.6-3.8,2.4-8,2.4-12.1
	c0-4.3-0.9-8.5-2.5-12.5l-0.2-0.4l6.4-6.4l11.5-27.5c0.6-1.5-0.1-1.4-1.4-0.9l-27.4,11.9l-6.3,6.3l-0.4-0.2
	c-3.7-1.4-7.6-2.1-11.5-2.1c-4.8,0-9.6,1.1-13.9,3.2l-0.3,0.1l-0.3-0.1c-4.3-2.1-9.1-3.2-13.9-3.2c-4.1,0-8.1,0.8-11.9,2.3l-0.4,0.2
	L287.2,6.4c-0.2-0.2-0.4-0.4-0.5-0.5l0,0c-2.2-2.1-5.1-3.2-8.2-3.2c-6.6,0-12,5.4-12,12c0,3,1.1,5.8,3.1,8l0,0
	c0.3,0.3,0.5,0.6,0.9,0.9l14.4,14.4l-0.2,0.4c-1.6,3.8-2.4,7.9-2.4,12.1c0,4.2,0.8,8.3,2.4,12.2l0.2,0.4l-6.3,6.3L267,97.1
	c-0.6,1.5,0.1,1.4,1.4,0.9l27.4-11.9l6.3-6.3l0.4,0.2c3.7,1.5,7.7,2.2,11.7,2.2c4.8,0,9.6-1.1,13.9-3.2l0.3-0.1l0.3,0.1
	c4.3,2.1,9.1,3.2,13.9,3.2c4,0,8-0.8,11.8-2.3l0.4-0.2L369,94c0.2,0.2,0.4,0.4,0.5,0.5l0,0c2.2,2.1,5.1,3.2,8.2,3.2
	c6.6,0,12-5.4,12-12C389.7,82.8,388.6,79.9,386.6,77.7"/>
<path class="st0" d="M217.8,0.1c-3.3,0.5-5.9,3.4-5.9,6.9v18.8v1.1v5.9c0,3.8,3.1,7,7,7h6.5h13.3v0c7.1,0,12.9,5.8,12.9,12.9
	c0,7.1-5.8,13.1-12.9,12.9c-3.3-0.1-5.4-0.2-7.7-2.6L209,40.5c-5-5.1-8.8-10.7-15.4-13.3v10.1v5.9v31c0,5.1-4.2,9.4-9.4,9.4h-15.3
	c-3.5,0-6.4,2.6-6.9,5.9l14.1,0h2.6v0l2.2,0v0c6.1,0,11.1-2,14.9-6.9c2.6-3.4,3.9-7.2,3.9-11.5V42.9v-0.6v-2.5l28,28
	c2.6,2.6,7.4,3.5,11,3.5c10.4,0,18.7-8.4,18.7-18.7c0-9.4-8.3-18.8-18-18.8h-21.7L217.8,0.1z M225.8,0h-5.9v16.1v15.5l19.4,0
	c11.2,0,20.3,9.8,20.3,20.9c0,11.6-9.4,20.9-20.9,20.9c-3.4,0-9.3-1-12.5-4.1L201.8,45l0,26.9c-0.2,6.3-2.7,11.6-7.7,15.6
	c-3.9,3.1-8.3,4.3-13.2,4.3v0h-2.2H162v5.9h22.3c12.9,0,23.4-10.5,23.4-23.4V58.5l2.7,2.9l7.5,8.2c0.7,0.8,1.4,1.6,2.2,2.4l0,0l0,0
	c4.8,4.6,11.4,7.5,18.6,7.5l0,0c14.8,0,26.8-12,26.8-26.8c0-14.8-12-26.8-26.8-26.8h-12.8V0z"/>
<path class="st1" d="M384.5,80.9c1,1.4,1.6,3.1,1.6,4.8c0,4.6-3.7,8.3-8.3,8.3c-1.8,0-3.6-0.6-5-1.7l0,0l-6.4-6.4L378,74.2
	L384.5,80.9L384.5,80.9z M373.9,18.4l-8.9-1.4l17.8-7.7l-7.6,18.2L373.9,18.4z M271.7,19.5c-1-1.4-1.6-3.1-1.6-4.9
	c0-4.6,3.7-8.3,8.3-8.3c1.8,0,3.6,0.6,5,1.7l0,0l6.4,6.4l-11.8,11.8L271.7,19.5L271.7,19.5z M282.7,82.3l8.9,1.4l-17.8,7.7l7.6-18.2
	L282.7,82.3z"/>
<path class="st2" d="M314.3,38.6c-6.5,0-11.7,5.3-11.7,11.7c0,3.4,1.4,6.6,4,8.8l0,0l9.3,9.3h-1.7c-10,0-18-8.1-18-18
	c0-10,8.1-18,18-18c4.6,0,9,1.8,12.4,5l5.8,5.8l-4.3,4.3l-5.1-5.1C320.6,39.9,317.6,38.6,314.3,38.6 M287.3,67.5
	c0.8,1.3,1.7,2.5,2.7,3.6l0.4,0.5l-4.7,4.7l-0.5-8l1.5-1.5L287.3,67.5z M293.8,74.8c1.2,1,2.4,1.8,3.7,2.6l0.8,0.5l-1.7,1.7
	l-6.7-0.3l-0.7-0.7l4.2-4.2L293.8,74.8z M282.7,82.3l8.9,1.4l-17.8,7.7l7.6-18.2L282.7,82.3z M347.4,56.1c-1.5,1.2-3.3,1.9-5.2,1.9
	c-1.1,0-2.2-0.2-3.3-0.7l-0.9-0.4l32.7-32.7l0.5,8.3l-23.7,23.7L347.4,56.1z M368,21.4l-32.9,32.9l-4.4-4.3L359.8,21L368,21.4z
	 M373.9,18.4l-8.9-1.4l17.8-7.7l-7.6,18.2L373.9,18.4z M363.6,74.2l4.6,4.6l-4.6,4.6l-5.4-5.4l0.8-0.5c1.4-0.9,2.8-1.9,4.1-3
	L363.6,74.2z M370.1,66.4l5.3,5.3l-4.6,4.6l-4.6-4.6l0.4-0.5c1.1-1.3,2.1-2.6,2.9-4L370.1,66.4z M384.5,80.9c1,1.4,1.6,3.1,1.6,4.8
	c0,4.6-3.7,8.3-8.3,8.3c-1.8,0-3.6-0.6-5-1.7l0,0l-6.4-6.4L378,74.2L384.5,80.9L384.5,80.9z M293,26.6l-5-5l4.6-4.6l5.8,5.8
	l-0.8,0.5c-1.4,0.9-2.8,1.9-4.1,3L293,26.6z M286.6,34.4l-5.7-5.7l4.6-4.6l5,5l-0.4,0.5c-1.1,1.3-2.1,2.6-2.9,4L286.6,34.4z
	 M271.7,19.5c-1-1.4-1.6-3.1-1.6-4.9c0-4.6,3.7-8.3,8.3-8.3c1.8,0,3.6,0.6,5,1.7l0,0l6.4,6.4l-11.8,11.8L271.7,19.5L271.7,19.5z
	 M337.6,28.9c-1.3-1.4-2.8-2.8-4.4-4l-1.1-0.8l1.3-0.4c2.9-1,6-1.5,9.1-1.5c2.7,0,5.4,0.4,8,1.1l1.1,0.3l-5.3,5.3l-0.4-0.1
	c-1.1-0.2-2.3-0.3-3.4-0.3c-1.4,0-2.9,0.1-4.3,0.4l-0.4,0.1L337.6,28.9z M320,67.4L320,67.4l-5.3-5.3l0,0l-6-6
	c-1.6-1.5-2.5-3.6-2.5-5.8c0-1.2,0.3-2.4,0.8-3.4l0.4-0.9l19.9,19.9c4.1,4,9.5,6.2,15.2,6.2c12,0,21.7-9.7,21.7-21.7
	c0-1.5-0.2-3.1-0.5-4.5l-0.1-0.4l5.2-5.2l0.4,1.1c1,2.9,1.5,6,1.5,9c0,15.6-12.6,28.2-28.2,28.2c-4.2,0-8.3-0.9-12.1-2.7
	c-0.8-0.4-1.6-0.8-2.4-1.3l0,0c-1-0.6-1.9-1.3-2.9-2l0,0l-1.7-1.7L320,67.4z M319.1,71.8c1.1,1.2,2.3,2.3,3.5,3.3l0,0l1.5,1.5
	l-1.1,0.4c-2.9,1-5.9,1.5-9,1.5c-15.6,0-28.2-12.6-28.2-28.2c0-15.6,12.6-28.2,28.2-28.2c3.3,0,6.6,0.6,9.7,1.7
	c1.6,0.6,3.3,1.4,4.8,2.3c4,2.4,7.4,5.9,9.8,9.9l0.3,0.5l-3.8,3.8l-5.1-5.1c-0.2-0.2-0.4-0.4-0.6-0.6l0,0c-4.1-3.9-9.4-6-15-6
	c-12,0-21.7,9.7-21.7,21.7c0,12,9.7,21.7,21.7,21.7c1.4,0,2.9-0.1,4.3-0.4l0.4-0.1L319.1,71.8z M320.2,44.9l13.4,13.4l1.3,1.1
	c2.1,1.6,4.7,2.4,7.3,2.4c3.1,0,6-1.1,8.3-3.3l0,0c0.2-0.2,0.4-0.4,0.6-0.6l9.5-9.5l0,1.8c0,10-8.1,18-18,18
	c-4.7,0-9.2-1.8-12.6-5.1l-19.8-19.8l0.9-0.4c1-0.5,2.1-0.7,3.3-0.7C316.5,42.3,318.7,43.2,320.2,44.9z M386.6,77.7L386.6,77.7
	c-0.3-0.3-0.6-0.6-0.9-0.9l-13.9-13.9l0.2-0.4c1.6-3.8,2.4-8,2.4-12.1c0-4.3-0.9-8.5-2.5-12.5l-0.2-0.4l6.4-6.4l11.5-27.5
	c0.6-1.5-0.1-1.4-1.4-0.9l-27.4,11.9l-6.3,6.3l-0.4-0.2c-3.7-1.4-7.6-2.1-11.5-2.1c-4.8,0-9.6,1.1-13.9,3.2l-0.3,0.1l-0.3-0.1
	c-4.3-2.1-9.1-3.2-13.9-3.2c-4.1,0-8.1,0.8-11.9,2.3l-0.4,0.2L287.2,6.4c-0.2-0.2-0.4-0.4-0.5-0.5l0,0c-2.2-2.1-5.1-3.2-8.2-3.2
	c-6.6,0-12,5.4-12,12c0,3,1.1,5.8,3.1,8l0,0c0.3,0.3,0.5,0.6,0.9,0.9l14.4,14.4l-0.2,0.4c-1.6,3.8-2.4,7.9-2.4,12.1
	c0,4.2,0.8,8.3,2.4,12.2l0.2,0.4l-6.3,6.3L267,97.1c-0.6,1.5,0.1,1.4,1.4,0.9l27.4-11.9l6.3-6.3l0.4,0.2c3.7,1.5,7.7,2.2,11.7,2.2
	c4.8,0,9.6-1.1,13.9-3.2l0.3-0.1l0.3,0.1c4.3,2.1,9.1,3.2,13.9,3.2c4,0,8-0.8,11.8-2.3l0.4-0.2L369,94c0.2,0.2,0.4,0.4,0.5,0.5l0,0
	c2.2,2.1,5.1,3.2,8.2,3.2c6.6,0,12-5.4,12-12C389.7,82.8,388.6,79.9,386.6,77.7z"/>
<path class="st2" d="M123.5,25.9h5.9v26.8c0,14.8-12,26.8-26.8,26.8c-7.9,0-14.9-3.4-19.8-8.8c-4.9,5.4-12,8.8-19.8,8.8
	c-8.4,0-19.9-5.6-23.3-13.5c-2-4.8-6.7-8-11.9-8l-0.1,0v0c-7.1,0-12.9,5.8-12.9,12.9c0,7.1,5.8,12.9,12.9,12.9l9.8,0l14.9,0v5.9
	l-24.7,0v0C17.4,89.7,9,81.3,9,70.9c0-10.4,8.4-18.7,18.7-18.7c6.9,0,12.9,3.7,16.2,9.3h0c1.3,2.7,3.2,5.1,5.8,7.1
	c3.9,3.1,8.3,4.6,13.2,4.6c6.7,0,12.1-2.5,16.3-7.7c1.6-1.9,2.7-4,3.5-6.3c0.8,2.2,1.9,4.3,3.5,6.3c4.2,5.2,9.6,7.7,16.3,7.7
	c5,0,9.4-1.5,13.2-4.6c5-4,7.5-9.3,7.7-15.6L123.5,25.9z M83.9,25.9h5.9v26.8c0,7.1,5.8,12.8,12.8,12.8c7.1,0,12.8-5.8,12.8-12.8h0
	V32.8c0-3.5,2.6-6.4,5.9-6.9v26.3c0,4.2-1.3,8.1-3.9,11.5c-3.8,4.9-8.8,7.2-14.9,7.2c-4.2,0-8-1.2-11.4-3.8
	c-4.9-3.7-7.2-8.7-7.2-14.9V25.9z M0.1,31.7v-5.9h26.8c11.9,0,23.4,6.3,23.4,18.5v10.2c0.9,6.2,6.2,11,12.7,11
	c7.1,0,12.8-5.8,12.8-12.8h0V32.8c0-3.4,2.5-6.3,5.8-6.9v26.3c0,6.2-2.4,11.2-7.2,14.9C71,69.8,67.2,71,63,71
	c-6.1,0-11.1-2.4-14.9-7.2c-2.6-3.4-3.9-7.2-3.9-11.5v-0.4h0v-6.2c0-10.4-6.8-14-17.3-14H0.1z M27.8,97.7L27.8,97.7L27.8,97.7
	C13,97.7,1,85.7,1,70.9c0-14.8,12-26.8,26.8-26.8v0l0.1,0c3,0,5.9,0.5,8.6,1.4c-0.4-4.4-3.1-5.8-9.5-5.8H7.1c-3.5,0-6.4-2.6-6.9-5.9
	h26.7c8.7,0,15.1,2.5,15.1,11.9v6.2v0.7h0V53c0,1,0.1,1.9,0.2,2.9c-3.8-3.6-8.9-5.8-14.5-5.8C16.2,50,6.9,59.4,6.9,70.9
	c0,11.6,9.4,20.9,20.9,20.9v0h24.6c-0.5,3.3-3.4,5.9-6.9,5.9h-7.9L27.8,97.7L27.8,97.7z"/>
<path class="st2" d="M128,15.6c0-0.4-0.1-0.8-0.3-1.2c-0.2-0.3-0.6-0.4-1-0.4c-1,0-1.3,0.7-1.3,1.6c0,0.4,0.1,0.7,0.4,1
	c0.3,0.2,0.6,0.3,1,0.3c0.4,0,0.7-0.1,1-0.3C127.9,16.4,128,16,128,15.6 M103.4,13.9L105,16c0.2-0.2,0.5-0.4,0.7-0.6
	c0.2-0.2,0.4-0.4,0.6-0.6c0.1-0.1,0.2-0.2,0.3-0.4c0-0.1,0.1-0.2,0.1-0.2c0-0.1,0-0.2-0.1-0.2c-0.1-0.1-0.4-0.1-0.6-0.1H103.4z
	 M76.4,17v-0.9c0-0.5-0.1-1.1-0.4-1.5c-0.3-0.3-0.6-0.4-1-0.4c-0.4,0-0.7,0.1-0.9,0.4c-0.3,0.3-0.3,0.8-0.3,1.2c0,0.2,0,0.4,0.1,0.6
	c0,0.1,0.1,0.2,0.2,0.3c0.1,0.1,0.3,0.2,0.5,0.2c0.3,0.1,0.6,0.1,0.9,0.1H76.4z M124.5,17.9c0,0.1-0.1,0.1-0.1,0.2
	c-0.2,0.2-0.3,0.3-0.5,0.4c-0.2,0.1-0.4,0.2-0.6,0.2c-0.2,0-0.4,0-0.5,0h-0.4c-0.3,0-0.6-0.1-0.9-0.2c-0.1,0-0.1-0.1-0.2-0.1
	c0,0.5-0.1,1-0.3,1.5c-0.2,0.5-0.5,1-0.9,1.4c-0.4,0.4-0.8,0.7-1.3,0.9c-0.5,0.2-1.1,0.3-1.6,0.3h-0.9c-0.2,0-0.3-0.1-0.3-0.3
	l-0.1-1.1c0-0.1,0-0.2,0.1-0.2c0.1-0.1,0.1-0.1,0.2-0.1h0.8c0.4,0,0.9-0.1,1.3-0.2c0.3-0.1,0.6-0.3,0.8-0.6c0.2-0.3,0.4-0.5,0.5-0.9
	c0.1-0.3,0.2-0.7,0.2-1v-4.3c0-0.2,0.1-0.3,0.3-0.3h1c0.2,0,0.3,0.1,0.3,0.3v2.3c0,0.3,0.1,0.5,0.3,0.6c0.2,0.2,0.5,0.2,0.8,0.2h0.4
	c0.2,0,0.5,0,0.7-0.2c0.2-0.2,0.2-0.4,0.2-0.6v-0.6c0-0.9,0.2-1.7,0.8-2.4c0.6-0.6,1.4-0.9,2.2-0.9c0.4,0,0.9,0.1,1.3,0.2
	c0.4,0.2,0.7,0.4,1,0.7c0.3,0.3,0.4,0.7,0.6,1c0.1,0.4,0.2,0.8,0.2,1.3c0,0.9-0.2,1.7-0.8,2.4c-0.6,0.6-1.4,0.9-2.2,0.9
	c-0.5,0-0.9-0.1-1.4-0.3C125,18.4,124.7,18.2,124.5,17.9z M113.9,21.8h-1.4c-0.2,0-0.3-0.1-0.3-0.3v-1.2c0-0.2,0.1-0.3,0.3-0.3h1.4
	c0.2,0,0.3,0.2,0.3,0.3v1.2C114.2,21.7,114,21.8,113.9,21.8z M104.8,17.9c-0.3,0.2-0.6,0.5-0.8,0.7c-0.2,0.2-0.5,0.5-0.7,0.8
	c-0.1,0.2-0.3,0.5-0.3,0.7c-0.1,0.3-0.1,0.5-0.1,0.8c0,0.6,0.1,1.2,0.6,1.6l0,0h-2.1c0,0,0-0.1,0-0.1c-0.1-0.5-0.2-1-0.2-1.5
	c0-0.8,0.2-1.6,0.6-2.3c0.4-0.7,1.1-1.4,1.8-1.9l-2.3-3c-0.1-0.1-0.1-0.2,0-0.4l0.6-1.1c0.1-0.1,0.2-0.2,0.3-0.2h4.1
	c0.5,0,1.1,0.1,1.5,0.4c0.4,0.3,0.6,0.8,0.6,1.3c0,0.2,0,0.4-0.1,0.5c-0.1,0.2-0.2,0.5-0.3,0.7c-0.2,0.3-0.5,0.6-0.7,0.8
	c-0.3,0.3-0.5,0.5-0.8,0.8c0,0,0,0,0,0c0.1,0.1,0.3,0.1,0.4,0.1c0.2,0,0.4,0,0.6,0c0.2,0,0.5,0,0.7,0h1.8c0.4,0,0.7,0,1.1,0
	c0.3,0,0.6-0.1,0.8-0.1c0.2-0.1,0.5-0.1,0.7-0.2c0.2-0.1,0.5-0.2,0.7-0.3c0,0,0,0,0,0l2.5-1.4c0-0.1-0.1-0.2-0.2-0.3
	c-0.1-0.1-0.2-0.3-0.3-0.4c-0.1-0.1-0.3-0.2-0.4-0.2c-0.2-0.1-0.5-0.1-0.7-0.1h-3.6c-0.1,0-0.2,0-0.2-0.1c-0.1-0.1-0.1-0.2-0.1-0.3
	l0.1-1.1c0-0.2,0.2-0.3,0.3-0.3h3.7c0.3,0,0.6,0,0.9,0.1c0.4,0.1,0.7,0.2,1,0.5c0.3,0.3,0.6,0.6,0.8,1c0.3,0.5,0.5,1.1,0.6,1.7
	c0,0.1,0,0.3-0.2,0.4l-3.5,2.1c-0.3,0.2-0.5,0.3-0.8,0.4c-0.3,0.1-0.6,0.2-0.9,0.3c-0.3,0.1-0.7,0.1-1,0.2c-0.4,0-0.8,0.1-1.3,0.1
	h-2c-0.3,0-0.7,0-1,0c-0.3,0-0.6,0-0.9-0.1c-0.3-0.1-0.6-0.2-0.8-0.3C105.2,18.2,105,18.1,104.8,17.9z M98.6,14.4
	c0.3,0.3,0.5,0.6,0.7,1c0.1,0.3,0.2,0.7,0.2,1c0,0.7-0.2,1.2-0.7,1.7c-0.5,0.5-1.3,0.7-2,0.7h-4.5c-0.2,0-0.3-0.1-0.3-0.3l-0.1-1.1
	c0-0.1,0-0.2,0.1-0.2C92,17,92.1,17,92.2,17h4.4c0.3,0,0.6,0,0.8-0.2c0.2-0.1,0.2-0.3,0.2-0.5c0-0.1,0-0.3-0.1-0.4
	c-0.1-0.2-0.2-0.3-0.3-0.4c0,0,0,0,0,0l-3-3.4c-0.1-0.1-0.1-0.3,0-0.5l0.8-0.8c0.1-0.1,0.1-0.1,0.2-0.1c0.1,0,0.2,0,0.2,0.1
	L98.6,14.4z M89.4,8.1h1c0.2,0,0.3,0.1,0.3,0.3v10c0,0.2-0.1,0.3-0.3,0.3h-1c-0.2,0-0.3-0.1-0.3-0.3v-10C89.1,8.3,89.2,8.1,89.4,8.1
	z M86.9,12.1h-1.4c-0.2,0-0.3-0.1-0.3-0.3v-1.2c0-0.2,0.1-0.3,0.3-0.3h1.4c0.2,0,0.3,0.2,0.3,0.3v1.2C87.3,11.9,87.1,12.1,86.9,12.1
	z M76.4,18.8h-1.2c-0.5,0-1,0-1.5-0.2c-0.4-0.1-0.7-0.3-1-0.6c-0.2-0.3-0.4-0.6-0.5-1c-0.1-0.4-0.1-0.8-0.1-1.2
	c0-0.4,0.1-0.9,0.2-1.3c0.1-0.4,0.3-0.8,0.6-1.1c0.3-0.3,0.6-0.6,1-0.8c0.4-0.2,0.9-0.3,1.3-0.3c0.4,0,0.8,0.1,1.1,0.2
	c0.4,0.1,0.7,0.4,1,0.6c0.3,0.3,0.5,0.7,0.7,1.1c0.2,0.5,0.2,1,0.2,1.6v1h1.7c0.3,0,0.6,0,0.8-0.2c0.2-0.2,0.2-0.4,0.2-0.7V8.4
	c0-0.2,0.1-0.3,0.3-0.3h1c0.2,0,0.3,0.1,0.3,0.3V16c0,0.1,0,0.3,0.1,0.4c0.1,0.1,0.1,0.2,0.2,0.3c0.1,0.1,0.2,0.1,0.3,0.2
	c0.1,0,0.3,0.1,0.4,0.1h1.3c0.3,0,0.6-0.1,0.8-0.3c0.2-0.2,0.3-0.4,0.3-0.7v-2.2c0-0.2,0.1-0.3,0.3-0.3h1c0.2,0,0.3,0.1,0.3,0.3V16
	c0,0.7-0.2,1.5-0.7,2c-0.5,0.5-1.2,0.7-2,0.7h-1.4c-0.4,0-0.8-0.1-1.2-0.2c-0.3-0.1-0.5-0.3-0.7-0.5c-0.2,0.2-0.4,0.4-0.7,0.5
	c-0.4,0.2-0.7,0.2-1.1,0.2h-1.8c0,0.4-0.1,0.9-0.3,1.3c-0.2,0.5-0.5,1-0.8,1.3c-0.4,0.4-0.8,0.7-1.3,0.9c-0.5,0.2-1.1,0.3-1.7,0.3
	h-1.7c-0.2,0-0.3-0.1-0.3-0.3l-0.1-1.1c0-0.1,0-0.2,0.1-0.3c0.1-0.1,0.1-0.1,0.2-0.1h1.7c0.4,0,0.8-0.1,1.1-0.2
	c0.3-0.1,0.6-0.3,0.8-0.5c0.2-0.2,0.4-0.5,0.5-0.8C76.3,19.2,76.4,19,76.4,18.8z M54,17h3.3c0.2,0,0.4,0,0.6-0.1
	c0.2-0.1,0.3-0.1,0.4-0.3c0.1-0.1,0.2-0.3,0.3-0.5c0.1-0.2,0.1-0.5,0.1-0.7c0-0.2,0-0.5-0.1-0.7c-0.1-0.2-0.2-0.4-0.3-0.5
	c-0.1-0.1-0.3-0.3-0.5-0.3c-0.2-0.1-0.4-0.1-0.6-0.1c-0.6,0-1.1,0.4-1.5,0.8C55.1,15.2,54.5,16.1,54,17z M21.3,13.4h-1.4
	c-0.4,0-0.8,0.1-1,0.4c-0.3,0.4-0.4,0.8-0.4,1.3c0,0.3,0,0.8,0.3,1c0.3,0.2,0.7,0.3,1,0.3c0.4,0,0.8-0.1,1.2-0.3
	c0.2-0.1,0.3-0.3,0.3-0.6V13.4z M52.1,17V8.4c0-0.2,0.1-0.3,0.3-0.3h1c0.2,0,0.3,0.1,0.3,0.3v4.9c0,0.4,0,0.8,0,1.2c0,0,0,0,0,0
	c0.4-0.5,0.8-1,1.2-1.4c0.5-0.5,1.1-0.9,1.8-1.1c0,0,0,0,0,0c0.3-0.1,0.7-0.1,1,0c0.4,0,0.8,0.2,1.1,0.3c0.3,0.2,0.6,0.4,0.9,0.8
	c0.2,0.3,0.4,0.7,0.5,1c0.1,0.4,0.2,0.8,0.2,1.2c0,0.4-0.1,0.8-0.2,1.2c-0.1,0.4-0.3,0.7-0.6,1.1c-0.3,0.3-0.6,0.6-1,0.8
	c-0.4,0.2-0.9,0.3-1.4,0.3h-7.2c-0.3,0-0.6-0.1-0.9-0.2c-0.1,0-0.1-0.1-0.2-0.1c0,0.5-0.1,1-0.3,1.5c-0.2,0.5-0.5,1-0.9,1.4
	c-0.4,0.4-0.8,0.7-1.3,0.9c-0.5,0.2-1.1,0.3-1.6,0.3h-0.4c-0.2,0-0.3-0.1-0.3-0.3l-0.1-1.1c0-0.1,0-0.2,0.1-0.3
	c0.1-0.1,0.1-0.1,0.2-0.1h0.3c0.4,0,0.8-0.1,1.2-0.2c0.3-0.1,0.6-0.3,0.8-0.6c0.2-0.3,0.4-0.5,0.5-0.9c0.1-0.3,0.2-0.7,0.2-1v-4.3
	c0-0.2,0.1-0.3,0.3-0.3h1c0.2,0,0.3,0.1,0.3,0.3v2.3c0,0.3,0.1,0.5,0.3,0.6c0.2,0.2,0.5,0.2,0.8,0.2H52.1z M43.7,14.7
	c0-0.1-0.1-0.2-0.1-0.3c-0.1-0.1-0.2-0.2-0.3-0.3c-0.1-0.1-0.3-0.2-0.4-0.2c-0.2-0.1-0.5-0.1-0.7-0.1h-3.4c-0.1,0-0.2,0-0.2-0.1
	c-0.1-0.1-0.1-0.2-0.1-0.3l0.1-1.1c0-0.2,0.2-0.3,0.3-0.3h3.4c0.3,0,0.6,0,0.9,0.1c0.4,0.1,0.7,0.2,1,0.4c0.3,0.3,0.6,0.6,0.8,1
	c0.3,0.5,0.5,1.1,0.6,1.7c0,0.1,0,0.3-0.2,0.4l-3.2,1.9c-0.7,0.4-1.6,1-2.1,1.7c-0.4,0.5-0.6,1-0.6,1.6c0,0.7,0.1,1.4,0.6,1.8
	c0,0,0.1,0.1,0.1,0.1h-2.1c0-0.1-0.1-0.2-0.1-0.2c-0.2-0.5-0.2-1-0.2-1.6c0-0.5,0.1-0.9,0.2-1.3c0.1-0.4,0.3-0.9,0.6-1.2
	c0.3-0.4,0.7-0.8,1.1-1.1c0.5-0.4,1-0.8,1.6-1.1L43.7,14.7z M31.3,17h1.9c0.3,0,0.5-0.1,0.8-0.2c0.2-0.2,0.2-0.4,0.2-0.6V8.4
	c0-0.2,0.1-0.3,0.3-0.3h1c0.2,0,0.3,0.1,0.3,0.3v7.8c0,0.4-0.1,0.7-0.2,1.1c-0.1,0.3-0.3,0.6-0.6,0.8c-0.2,0.2-0.5,0.4-0.8,0.5
	c-0.3,0.1-0.7,0.2-1,0.2H30c-0.2,0-0.3-0.1-0.3-0.3v-10c0-0.2,0.1-0.3,0.3-0.3h1c0.2,0,0.3,0.1,0.3,0.3V17z M25.4,21.7h-1.2
	c-0.2,0-0.3-0.1-0.3-0.3v-1.1c0-0.2,0.1-0.3,0.3-0.3h1.2c0.2,0,0.3,0.2,0.3,0.3v1.1C25.8,21.6,25.6,21.7,25.4,21.7z M27.5,21.7h-1.2
	c-0.2,0-0.3-0.1-0.3-0.3v-1.1c0-0.2,0.1-0.3,0.3-0.3h1.2c0.2,0,0.3,0.2,0.3,0.3v1.1C27.9,21.6,27.7,21.7,27.5,21.7z M21.8,17.5
	c-0.1,0-0.1,0.1-0.2,0.1c-0.2,0.1-0.4,0.2-0.7,0.3c-0.2,0.1-0.5,0.1-0.7,0.1c-0.2,0-0.4,0-0.6,0c-0.7,0-1.5-0.2-2-0.7
	c-0.6-0.6-0.7-1.4-0.7-2.2c0-0.4,0.1-0.9,0.2-1.3c0.1-0.4,0.3-0.8,0.6-1.1c0.3-0.3,0.6-0.6,1-0.8c0.4-0.2,0.9-0.3,1.4-0.3h1.4v-0.8
	c0-0.2,0.1-0.3,0.3-0.3h1c0.2,0,0.3,0.1,0.3,0.3v4.8c0,0.3,0,0.7,0.2,1c0.1,0.2,0.5,0.3,0.7,0.3h1.6c0.3,0,0.6-0.1,0.8-0.3
	c0.2-0.2,0.3-0.4,0.3-0.7v-2.2c0-0.2,0.1-0.3,0.3-0.3h1c0.2,0,0.3,0.1,0.3,0.3V16c0,0.7-0.2,1.5-0.7,2c-0.5,0.5-1.2,0.7-2,0.7h-1.6
	c-0.5,0-1-0.1-1.5-0.4C22.2,18.2,21.9,17.9,21.8,17.5z M12,21.8h-1.4c-0.2,0-0.3-0.1-0.3-0.3v-1.2c0-0.2,0.1-0.3,0.3-0.3H12
	c0.2,0,0.3,0.2,0.3,0.3v1.2C12.3,21.6,12.2,21.8,12,21.8z M9.4,18.7c-0.3,0-0.6,0-0.9-0.1c-0.3-0.1-0.6-0.3-0.8-0.5
	c-0.2-0.2-0.4-0.6-0.6-0.9c-0.1-0.4-0.2-0.9-0.2-1.3V8.4c0-0.2,0.1-0.3,0.3-0.3h1c0.2,0,0.3,0.2,0.3,0.3v7.3c0,0.3,0.1,0.7,0.2,0.9
	C9,16.9,9.3,17,9.6,17h1.8c0.3,0,0.6-0.1,0.8-0.3c0.2-0.2,0.3-0.4,0.3-0.7v-2.2c0-0.2,0.1-0.3,0.3-0.3h1c0.2,0,0.3,0.2,0.3,0.3V16
	c0,0.7-0.2,1.5-0.7,2c-0.5,0.5-1.2,0.7-2,0.7H9.4z M5.3,12.1H3.9c-0.2,0-0.3-0.1-0.3-0.3v-1.2c0-0.2,0.1-0.3,0.3-0.3h1.4
	c0.2,0,0.3,0.2,0.3,0.3v1.2C5.6,11.9,5.5,12.1,5.3,12.1z M5.5,18.1c0,0.6-0.1,1.2-0.3,1.8c-0.2,0.5-0.5,1-0.9,1.4
	C4,21.8,3.5,22.1,3,22.3c-0.5,0.2-1.1,0.3-1.7,0.3H0.4c-0.2,0-0.3-0.1-0.3-0.3L0,21.2C0,21.1,0,21,0.1,21c0.1-0.1,0.1-0.1,0.2-0.1
	h0.8c0.4,0,0.9-0.1,1.3-0.2C2.7,20.5,3,20.3,3.2,20c0.2-0.2,0.4-0.5,0.5-0.9c0.1-0.3,0.2-0.7,0.2-1v-4.3c0-0.2,0.1-0.3,0.3-0.3h1
	c0.2,0,0.3,0.2,0.3,0.3V18.1z M70.1,14.4c0.3,0.3,0.5,0.6,0.7,1c0.1,0.3,0.2,0.7,0.2,1c0,0.7-0.2,1.2-0.7,1.7
	c-0.5,0.5-1.3,0.7-2,0.7h-4.5c-0.2,0-0.3-0.1-0.3-0.3l-0.1-1.1c0-0.1,0-0.2,0.1-0.2c0.1-0.1,0.1-0.1,0.2-0.1h4.4
	c0.3,0,0.6,0,0.8-0.2c0.2-0.1,0.2-0.3,0.2-0.5c0-0.1,0-0.3-0.1-0.4c-0.1-0.2-0.2-0.3-0.3-0.4c0,0,0,0,0,0l-3-3.4
	c-0.1-0.1-0.1-0.3,0-0.5l0.8-0.8c0.1-0.1,0.2-0.1,0.2-0.1c0.1,0,0.2,0,0.2,0.1L70.1,14.4z"/>
<path class="st0" d="M136.7,13.3V7.4h26.8c11.9,0,23.4,6.3,23.4,18.5v10.8L176.5,48c-1.8-4.9-6.5-8.3-12-8.3
	c-7.1,0-12.8,5.8-12.8,12.8c0,7.1,5.8,12.8,12.8,12.8h9.7H189v5.9l-25.6,0c-10.4,0-18.7-8.4-18.7-18.7c0-10.4,8.4-18.7,18.7-18.7
	c5.7,0,10.8,2.6,14.3,6.6v0h0c0.2,0.3,0.4,0.5,0.6,0.8l1.5-1.6V27.3c0-10.4-6.8-14-17.3-14H136.7z M164.4,79.3
	c-12.6,0-26.8-12-26.8-26.8c0-14.8,12-26.8,26.8-26.8c3,0,5.9,0.5,8.6,1.4c-0.4-4.4-3.1-5.8-9.5-5.8h-19.8c-3.5,0-6.4-2.6-6.9-5.9
	h25.8c8.7,0,15.1,2.5,15.1,11.9v9.9c-3.7-3.5-8.7-5.6-14.3-5.6c-11.6,0-20.9,9.4-20.9,20.9c0,11.6,9.4,20.9,20.9,20.9v0h25.5
	c-0.5,3.3-3.4,5.9-6.9,5.9h-7.9L164.4,79.3L164.4,79.3z"/>
<path class="st2" d="M121.4,88.8c-0.5-0.5-1.3-0.9-2.1-0.9c-0.8,0-1.5,0.3-2.1,0.9c-0.5,0.5-0.9,1.3-0.9,2.1c0,0.8,0.3,1.5,0.9,2.1
	c0.5,0.5,1.3,0.9,2.1,0.9s1.5-0.3,2.1-0.9c0.5-0.5,0.9-1.3,0.9-2.1C122.2,90,121.9,89.3,121.4,88.8 M119.3,86.7
	c1.2,0,2.2,0.5,2.9,1.2c0.8,0.8,1.2,1.8,1.2,2.9c0,1.1-0.5,2.2-1.2,2.9c-0.8,0.8-1.8,1.2-2.9,1.2c-1.1,0-2.2-0.5-2.9-1.2
	c-0.8-0.8-1.2-1.8-1.2-2.9c0-1.2,0.5-2.2,1.2-2.9C117.1,87.1,118.1,86.7,119.3,86.7z M119.3,84.2c3.6,0,6.6,3,6.6,6.6
	c0,3.6-3,6.6-6.6,6.6c-3.6,0-6.6-3-6.6-6.6C112.7,87.2,115.7,84.2,119.3,84.2z"/>
<path class="st2" d="M110.6,88.8c-0.5-0.5-1.3-0.9-2.1-0.9c-0.8,0-1.5,0.3-2.1,0.9c-0.5,0.5-0.9,1.3-0.9,2.1c0,0.8,0.3,1.5,0.9,2.1
	c0.5,0.5,1.3,0.9,2.1,0.9c0.8,0,1.5-0.3,2.1-0.9c0.5-0.5,0.9-1.3,0.9-2.1C111.5,90,111.1,89.3,110.6,88.8 M108.5,86.7
	c1.2,0,2.2,0.5,2.9,1.2c0.8,0.8,1.2,1.8,1.2,2.9c0,1.1-0.5,2.2-1.2,2.9c-0.8,0.8-1.8,1.2-2.9,1.2c-1.1,0-2.2-0.5-2.9-1.2
	c-0.8-0.8-1.2-1.8-1.2-2.9c0-1.2,0.5-2.2,1.2-2.9C106.3,87.1,107.4,86.7,108.5,86.7z M108.5,84.2c3.6,0,6.6,3,6.6,6.6
	c0,3.6-3,6.6-6.6,6.6c-3.6,0-6.6-3-6.6-6.6C101.9,87.2,104.9,84.2,108.5,84.2z"/>
<path class="st2" d="M99.8,88.8c-0.5-0.5-1.3-0.9-2.1-0.9c-0.8,0-1.5,0.3-2.1,0.9c-0.5,0.5-0.9,1.3-0.9,2.1c0,0.8,0.3,1.5,0.9,2.1
	c0.5,0.5,1.3,0.9,2.1,0.9c0.8,0,1.5-0.3,2.1-0.9c0.5-0.5,0.9-1.3,0.9-2.1C100.7,90,100.4,89.3,99.8,88.8 M97.8,86.7
	c1.2,0,2.2,0.5,2.9,1.2c0.8,0.8,1.2,1.8,1.2,2.9c0,1.1-0.5,2.2-1.2,2.9c-0.8,0.8-1.8,1.2-2.9,1.2c-1.1,0-2.2-0.5-2.9-1.2
	c-0.8-0.8-1.2-1.8-1.2-2.9c0-1.2,0.5-2.2,1.2-2.9C95.6,87.1,96.6,86.7,97.8,86.7z M97.8,84.2c3.6,0,6.6,3,6.6,6.6
	c0,3.6-3,6.6-6.6,6.6c-3.6,0-6.6-3-6.6-6.6C91.2,87.2,94.1,84.2,97.8,84.2z"/>
<path class="st2" d="M77.2,88.8c-0.5-0.5-1.3-0.9-2.1-0.9c-0.8,0-1.5,0.3-2.1,0.9c-0.5,0.5-0.9,1.3-0.9,2.1c0,0.8,0.3,1.5,0.9,2.1
	c0.5,0.5,1.3,0.9,2.1,0.9c0.8,0,1.5-0.3,2.1-0.9c0.5-0.5,0.9-1.3,0.9-2.1C78.1,90,77.8,89.3,77.2,88.8 M75.2,86.7
	c1.2,0,2.2,0.5,2.9,1.2c0.8,0.8,1.2,1.8,1.2,2.9c0,1.1-0.5,2.2-1.2,2.9c-0.8,0.8-1.8,1.2-2.9,1.2c-1.1,0-2.2-0.5-2.9-1.2
	C71.5,93,71,92,71,90.8c0-1.2,0.5-2.2,1.2-2.9C73,87.1,74,86.7,75.2,86.7z M75.2,84.2c3.6,0,6.6,3,6.6,6.6c0,3.6-3,6.6-6.6,6.6
	c-3.6,0-6.6-3-6.6-6.6C68.6,87.2,71.5,84.2,75.2,84.2z"/>
<path class="st2" d="M66.5,88.8c-0.5-0.5-1.3-0.9-2.1-0.9c-0.8,0-1.5,0.3-2.1,0.9c-0.5,0.5-0.9,1.3-0.9,2.1c0,0.8,0.3,1.5,0.9,2.1
	c0.5,0.5,1.3,0.9,2.1,0.9c0.8,0,1.5-0.3,2.1-0.9c0.5-0.5,0.9-1.3,0.9-2.1C67.3,90,67,89.3,66.5,88.8 M64.4,86.7
	c1.2,0,2.2,0.5,2.9,1.2c0.8,0.8,1.2,1.8,1.2,2.9c0,1.1-0.5,2.2-1.2,2.9c-0.8,0.8-1.8,1.2-2.9,1.2c-1.1,0-2.2-0.5-2.9-1.2
	c-0.8-0.8-1.2-1.8-1.2-2.9c0-1.2,0.5-2.2,1.2-2.9C62.2,87.1,63.2,86.7,64.4,86.7z M64.4,84.2c3.6,0,6.6,3,6.6,6.6
	c0,3.6-3,6.6-6.6,6.6c-3.6,0-6.6-3-6.6-6.6C57.8,87.2,60.7,84.2,64.4,84.2z"/>
<path class="st2" d="M34.7,66c-0.5-0.5-1.1-0.8-1.8-0.8S31.5,65.6,31,66c-0.5,0.5-0.8,1.1-0.8,1.8c0,0.7,0.3,1.4,0.8,1.8
	c0.5,0.5,1.1,0.8,1.8,0.8c0.7,0,1.4-0.3,1.8-0.8c0.5-0.5,0.8-1.1,0.8-1.8C35.4,67.2,35.1,66.5,34.7,66 M32.8,64.2
	c1,0,1.9,0.4,2.6,1.1c0.7,0.7,1.1,1.6,1.1,2.6c0,1-0.4,1.9-1.1,2.6c-0.7,0.7-1.6,1.1-2.6,1.1c-1,0-1.9-0.4-2.6-1.1
	c-0.7-0.7-1.1-1.6-1.1-2.6c0-1,0.4-1.9,1.1-2.6C30.9,64.6,31.8,64.2,32.8,64.2z M32.8,62c3.2,0,5.8,2.6,5.8,5.8
	c0,3.2-2.6,5.8-5.8,5.8S27,71.1,27,67.9C27,64.6,29.6,62,32.8,62z"/>
<path class="st2" d="M25.1,66c-0.5-0.5-1.1-0.8-1.8-0.8s-1.4,0.3-1.8,0.8c-0.5,0.5-0.8,1.1-0.8,1.8c0,0.7,0.3,1.4,0.8,1.8
	c0.5,0.5,1.1,0.8,1.8,0.8c0.7,0,1.4-0.3,1.8-0.8c0.5-0.5,0.8-1.1,0.8-1.8C25.9,67.2,25.6,66.5,25.1,66 M23.3,64.2
	c1,0,1.9,0.4,2.6,1.1c0.7,0.7,1.1,1.6,1.1,2.6c0,1-0.4,1.9-1.1,2.6c-0.7,0.7-1.6,1.1-2.6,1.1s-1.9-0.4-2.6-1.1
	c-0.7-0.7-1.1-1.6-1.1-2.6c0-1,0.4-1.9,1.1-2.6C21.4,64.6,22.3,64.2,23.3,64.2z M23.3,62c3.2,0,5.8,2.6,5.8,5.8
	c0,3.2-2.6,5.8-5.8,5.8s-5.8-2.6-5.8-5.8C17.5,64.6,20.1,62,23.3,62z"/>
<path class="st2" d="M29.9,74.4c-0.5-0.5-1.1-0.8-1.8-0.8s-1.4,0.3-1.8,0.8c-0.5,0.5-0.8,1.1-0.8,1.8c0,0.7,0.3,1.4,0.8,1.8
	c0.5,0.5,1.1,0.8,1.8,0.8s1.4-0.3,1.8-0.8c0.5-0.5,0.8-1.1,0.8-1.8C30.7,75.5,30.4,74.8,29.9,74.4 M28.1,72.5c1,0,1.9,0.4,2.6,1.1
	c0.7,0.7,1.1,1.6,1.1,2.6c0,1-0.4,1.9-1.1,2.6c-0.7,0.7-1.6,1.1-2.6,1.1c-1,0-1.9-0.4-2.6-1.1c-0.7-0.7-1.1-1.6-1.1-2.6
	c0-1,0.4-1.9,1.1-2.6C26.1,72.9,27.1,72.5,28.1,72.5z M28.1,70.4c3.2,0,5.8,2.6,5.8,5.8c0,3.2-2.6,5.8-5.8,5.8
	c-3.2,0-5.8-2.6-5.8-5.8C22.2,73,24.9,70.4,28.1,70.4z"/>
</svg>
