<?xml version="1.0" encoding="utf-8"?>
<!-- Generator: Adobe Illustrator 26.3.1, SVG Export Plug-In . SVG Version: 6.00 Build 0)  -->
<svg version="1.1" id="Layer_1" xmlns="http://www.w3.org/2000/svg" xmlns:xlink="http://www.w3.org/1999/xlink" x="0px" y="0px"
	 viewBox="0 0 123.2 95.9" style="enable-background:new 0 0 123.2 95.9;" xml:space="preserve">
<style type="text/css">
	.st0{fill-rule:evenodd;clip-rule:evenodd;fill:#FFCB05;}
	.st1{fill-rule:evenodd;clip-rule:evenodd;fill:#FFFFFF;}
	.st2{fill-rule:evenodd;clip-rule:evenodd;}
</style>
<path class="st0" d="M120.1,75.4L120.1,75.4c-0.3-0.3-0.6-0.6-0.9-0.9l-13.9-13.9l0.2-0.4c1.6-3.8,2.4-8,2.4-12.1
	c0-4.3-0.9-8.5-2.5-12.5l-0.2-0.4l6.4-6.4L123,1.2c0.6-1.5-0.1-1.4-1.4-0.9L94.3,12.2L88,18.5l-0.4-0.2c-3.7-1.4-7.6-2.1-11.5-2.1
	c-4.8,0-9.6,1.1-13.9,3.2l-0.3,0.1l-0.3-0.1c-4.3-2.1-9.1-3.2-13.9-3.2c-4.1,0-8.1,0.8-11.9,2.3l-0.4,0.2L20.7,4
	c-0.2-0.2-0.4-0.4-0.5-0.5l0,0C17.9,1.4,15,0.3,12,0.3c-6.6,0-12,5.4-12,12c0,3,1.1,5.8,3.1,8l0,0c0.3,0.3,0.5,0.6,0.9,0.9
	l14.4,14.4L18.2,36c-1.6,3.8-2.4,7.9-2.4,12.1c0,4.2,0.8,8.3,2.4,12.2l0.2,0.4L12.1,67L0.5,94.7c-0.6,1.5,0.1,1.4,1.4,0.9l27.4-11.9
	l6.3-6.3l0.4,0.2c3.7,1.5,7.7,2.2,11.7,2.2c4.8,0,9.6-1.1,13.9-3.2l0.3-0.1l0.3,0.1c4.3,2.1,9.1,3.2,13.9,3.2c4,0,8-0.8,11.8-2.3
	l0.4-0.2l14.2,14.2c0.2,0.2,0.4,0.4,0.5,0.5l0,0c2.2,2.1,5.1,3.2,8.2,3.2c6.6,0,12-5.4,12-12C123.2,80.4,122.1,77.6,120.1,75.4"/>
<path class="st1" d="M118,78.6c1,1.4,1.6,3.1,1.6,4.8c0,4.6-3.7,8.3-8.3,8.3c-1.8,0-3.6-0.6-5-1.7l0,0l-6.4-6.4l11.8-11.8L118,78.6
	L118,78.6z M107.3,16l-8.9-1.4l17.8-7.7L108.7,25L107.3,16z M5.2,17.1c-1-1.4-1.6-3.1-1.6-4.9c0-4.6,3.7-8.3,8.3-8.3
	c1.8,0,3.6,0.6,5,1.7l0,0l6.4,6.4L11.8,23.8L5.2,17.1L5.2,17.1z M16.1,79.9l8.9,1.4L7.2,89.1l7.6-18.2L16.1,79.9z"/>
<path class="st2" d="M47.8,36.2c-6.5,0-11.7,5.3-11.7,11.7c0,3.4,1.4,6.6,4,8.8l0,0l9.3,9.3h-1.7c-10,0-18-8.1-18-18
	c0-10,8.1-18,18-18c4.6,0,9,1.8,12.4,5l5.8,5.8L61.5,45l-5.1-5.1C54.1,37.5,51.1,36.2,47.8,36.2 M20.8,65.1c0.8,1.3,1.7,2.5,2.7,3.6
	l0.4,0.5l-4.7,4.7l-0.5-8l1.5-1.5L20.8,65.1z M27.3,72.5c1.2,1,2.4,1.8,3.7,2.6l0.8,0.5L30,77.3l-6.7-0.3l-0.7-0.7l4.2-4.2
	L27.3,72.5z M16.1,79.9l8.9,1.4L7.2,89.1l7.6-18.2L16.1,79.9z M80.9,53.8c-1.5,1.2-3.3,1.9-5.2,1.9c-1.1,0-2.2-0.2-3.3-0.7l-0.9-0.4
	l32.7-32.7l0.5,8.3L81,53.8L80.9,53.8z M101.5,19.1L68.6,52l-4.4-4.3l29.1-29.1L101.5,19.1z M107.3,16l-8.9-1.4l17.8-7.7L108.7,25
	L107.3,16z M97.1,71.8l4.6,4.6l-4.6,4.6l-5.4-5.4l0.8-0.5c1.4-0.9,2.8-1.9,4.1-3L97.1,71.8z M103.6,64l5.3,5.3l-4.6,4.6l-4.6-4.6
	l0.4-0.5c1.1-1.3,2.1-2.6,2.9-4L103.6,64z M118,78.6c1,1.4,1.6,3.1,1.6,4.8c0,4.6-3.7,8.3-8.3,8.3c-1.8,0-3.6-0.6-5-1.7l0,0
	l-6.4-6.4l11.8-11.8L118,78.6L118,78.6z M26.5,24.2l-5-5l4.6-4.6l5.8,5.8l-0.8,0.5c-1.4,0.9-2.8,1.9-4.1,3L26.5,24.2z M20.1,32.1
	l-5.7-5.7l4.6-4.6l5,5l-0.4,0.5c-1.1,1.3-2.1,2.6-2.9,4L20.1,32.1z M5.2,17.1c-1-1.4-1.6-3.1-1.6-4.9c0-4.6,3.7-8.3,8.3-8.3
	c1.8,0,3.6,0.6,5,1.7l0,0l6.4,6.4L11.8,23.8L5.2,17.1L5.2,17.1z M71.1,26.5c-1.3-1.4-2.8-2.8-4.4-4l-1.1-0.8l1.3-0.4
	c2.9-1,6-1.5,9.1-1.5c2.7,0,5.4,0.4,8,1.1l1.1,0.3l-5.3,5.3l-0.4-0.1c-1.1-0.2-2.3-0.3-3.4-0.3c-1.4,0-2.9,0.1-4.3,0.4l-0.4,0.1
	L71.1,26.5z M53.5,65L53.5,65l-5.3-5.3l0,0l-6-6c-1.6-1.5-2.5-3.6-2.5-5.8c0-1.2,0.3-2.4,0.8-3.4l0.4-0.9l19.9,19.9
	c4.1,4,9.5,6.2,15.2,6.2c12,0,21.7-9.7,21.7-21.7c0-1.5-0.2-3.1-0.5-4.5l-0.1-0.4l5.2-5.2l0.4,1.1c1,2.9,1.5,6,1.5,9
	c0,15.6-12.6,28.2-28.2,28.2c-4.2,0-8.3-0.9-12.1-2.7c-0.8-0.4-1.6-0.8-2.4-1.3l0,0c-1-0.6-1.9-1.3-2.9-2l0,0l-1.7-1.7L53.5,65z
	 M52.6,69.5c1.1,1.2,2.3,2.3,3.5,3.3l0,0l1.5,1.5l-1.1,0.4c-2.9,1-5.9,1.5-9,1.5c-15.6,0-28.2-12.6-28.2-28.2
	c0-15.6,12.6-28.2,28.2-28.2c3.3,0,6.6,0.6,9.7,1.7c1.6,0.6,3.3,1.4,4.8,2.3c4,2.4,7.4,5.9,9.8,9.9l0.3,0.5l-3.8,3.8L63.3,33
	c-0.2-0.2-0.4-0.4-0.6-0.6l0,0c-4.1-3.9-9.4-6-15-6c-12,0-21.7,9.7-21.7,21.7c0,12,9.7,21.7,21.7,21.7c1.4,0,2.9-0.1,4.3-0.4
	l0.4-0.1L52.6,69.5z M53.7,42.5L67.1,56l1.3,1.1c2.1,1.6,4.7,2.4,7.3,2.4c3.1,0,6-1.1,8.3-3.3l0,0c0.2-0.2,0.4-0.4,0.6-0.6l9.5-9.5
	l0,1.8c0,10-8.1,18-18,18c-4.7,0-9.2-1.8-12.6-5.1L43.6,41.1l0.9-0.4c1-0.5,2.1-0.7,3.3-0.7C50,39.9,52.2,40.9,53.7,42.5z
	 M120.1,75.4L120.1,75.4c-0.3-0.3-0.6-0.6-0.9-0.9l-13.9-13.9l0.2-0.4c1.6-3.8,2.4-8,2.4-12.1c0-4.3-0.9-8.5-2.5-12.5l-0.2-0.4
	l6.4-6.4L123,1.2c0.6-1.5-0.1-1.4-1.4-0.9L94.3,12.2L88,18.5l-0.4-0.2c-3.7-1.4-7.6-2.1-11.5-2.1c-4.8,0-9.6,1.1-13.9,3.2l-0.3,0.1
	l-0.3-0.1c-4.3-2.1-9.1-3.2-13.9-3.2c-4.1,0-8.1,0.8-11.9,2.3l-0.4,0.2L20.7,4c-0.2-0.2-0.4-0.4-0.5-0.5l0,0C17.9,1.4,15,0.3,12,0.3
	c-6.6,0-12,5.4-12,12c0,3,1.1,5.8,3.1,8l0,0c0.3,0.3,0.5,0.6,0.9,0.9l14.4,14.4L18.2,36c-1.6,3.8-2.4,7.9-2.4,12.1
	c0,4.2,0.8,8.3,2.4,12.2l0.2,0.4L12.1,67L0.5,94.7c-0.6,1.5,0.1,1.4,1.4,0.9l27.4-11.9l6.3-6.3l0.4,0.2c3.7,1.5,7.7,2.2,11.7,2.2
	c4.8,0,9.6-1.1,13.9-3.2l0.3-0.1l0.3,0.1c4.3,2.1,9.1,3.2,13.9,3.2c4,0,8-0.8,11.8-2.3l0.4-0.2l14.2,14.2c0.2,0.2,0.4,0.4,0.5,0.5
	l0,0c2.2,2.1,5.1,3.2,8.2,3.2c6.6,0,12-5.4,12-12C123.2,80.4,122.1,77.6,120.1,75.4z"/>
</svg>
