<svg width="49" height="48" viewBox="0 0 49 48" fill="none" xmlns="http://www.w3.org/2000/svg">
<circle cx="24" cy="24" r="24" fill="#00C6E1" fill-opacity="0.07"/>
<g clip-path="url(#clip0_1240_60450)">
<path fill-rule="evenodd" clip-rule="evenodd" d="M29.8014 20.7306C30.783 20.3808 31.8159 19.916 32.6124 19.243C33.5584 18.4437 33.9431 17.4142 34.2015 16.3306C34.5332 14.9384 34.6657 13.4553 35.0679 12.0609C35.2168 11.543 35.5034 11.3473 35.6264 11.2604C35.9372 11.041 36.2514 10.9823 36.547 11.0043C36.8973 11.0297 37.3785 11.1623 37.6949 11.7495C37.7401 11.8335 37.7987 11.9616 37.8382 12.137C37.867 12.2656 37.8856 12.6678 37.9161 12.8337C37.9922 13.2421 38.056 13.6505 38.1158 14.0612C38.3149 15.428 38.4294 16.5889 39.0584 17.8446C39.9119 19.5493 40.7671 20.5924 41.9269 21.0544C43.0483 21.5011 44.3891 21.4171 46.1023 21.0668C46.2654 21.0273 46.4267 20.9934 46.5863 20.9658C47.3416 20.8338 48.0637 21.3296 48.2121 22.0822C48.3604 22.8341 47.8804 23.5669 47.1318 23.7322C46.9756 23.7666 46.8216 23.7993 46.6693 23.8292C44.3542 24.4023 41.6741 26.4478 40.1166 28.2388C39.6366 28.791 38.9337 30.335 38.2167 31.3199C37.6876 32.0465 37.093 32.5254 36.5938 32.6946C36.2593 32.8086 35.9773 32.7911 35.7443 32.7336C35.4058 32.6501 35.1249 32.4667 34.9094 32.1751C34.7921 32.0154 34.6832 31.8016 34.6313 31.5286C34.6065 31.3972 34.6037 31.0632 34.6042 30.9121C34.4581 30.4095 34.2793 29.9187 34.149 29.4115C33.8382 28.2015 33.2284 27.4355 32.5041 26.4235C31.8266 25.4764 31.0989 24.8812 30.0322 24.4063C29.8934 24.3724 28.7737 24.0983 28.3782 23.9409C27.8006 23.7102 27.5253 23.3237 27.4255 23.1156C27.2557 22.7625 27.2382 22.4539 27.272 22.1967C27.3222 21.817 27.4926 21.4921 27.795 21.2298C27.9822 21.0668 28.262 20.9083 28.6366 20.831C28.926 20.7706 29.6937 20.7357 29.8014 20.7306ZM36.3704 18.7585C36.4223 18.8741 36.4776 18.9903 36.5363 19.1076C37.7863 21.6044 39.1842 22.9983 40.8832 23.6746L40.9402 23.6966C39.8036 24.5405 38.7746 25.4837 37.9883 26.388C37.6645 26.7603 37.2358 27.5337 36.7726 28.3268C36.3518 26.9588 35.6636 25.992 34.7983 24.782C34.1371 23.8585 33.4444 23.1636 32.5932 22.5972C33.2538 22.2582 33.8839 21.861 34.4327 21.3973C35.3466 20.6251 35.9507 19.7304 36.3704 18.7585Z" fill="#FFCA05"/>
</g>
<defs>
<clipPath id="clip0_1240_60450">
<rect width="22" height="22" fill="white" transform="translate(27 11)"/>
</clipPath>
</defs>
</svg>
