<svg width="51" height="48" viewBox="0 0 51 48" fill="none" xmlns="http://www.w3.org/2000/svg">
<circle cx="27" cy="24" r="24" fill="#FFCA05" fill-opacity="0.12"/>
<path fill-rule="evenodd" clip-rule="evenodd" d="M13.4657 13.7003C13.3746 13.1599 13.306 12.6257 13.2617 12.0914C13.1949 11.29 13.2362 10.4824 13.2125 9.68102C13.2022 9.34102 13.1615 8.4546 13.1779 8.3271C13.3267 7.21603 14.2234 7.04601 14.4857 7.01565C14.6126 6.99744 15.9155 6.85179 16.1966 8.29679C16.5415 10.0636 16.652 11.8425 16.5299 13.585C16.8147 15.0664 17.3016 16.5417 17.9446 17.8774C20.5031 23.1899 25.3784 23.706 30.6606 23.6575C31.4729 23.6453 32.1475 24.2828 32.19 25.0903C32.2325 25.9039 31.6278 26.6082 30.8191 26.681C27.8665 26.9664 22.6281 29.3343 20.817 31.7993C20.4381 32.3153 20.2177 33.56 19.9263 34.7804C19.5195 36.4743 19.0356 38.15 18.4934 38.8543C18.4121 38.9635 17.423 40.0807 17.128 40.2446C16.4188 40.6332 15.8512 40.4085 15.5288 40.2021C15.2064 39.9957 14.8415 39.5889 14.6958 38.915C14.5434 38.2107 14.6721 36.7656 14.6484 36.456C14.5622 35.3328 14.3376 33.1289 13.8792 31.2346C13.6321 30.2146 13.3686 29.2735 12.9326 28.806C11.3188 27.0757 8.73848 27.3307 6.56552 27.616C6.31598 27.6464 6.06645 27.6828 5.81752 27.7132C4.93291 27.9743 3.99364 28.1685 3.00096 28.2839C1.50193 28.46 1.25544 27.0817 1.24209 26.9907C1.21416 26.7903 1.11033 25.7582 2.24022 25.3453C2.36347 25.3028 3.27298 25.1025 3.6233 25.0235C4.11144 24.9142 4.60504 24.8293 5.10047 24.7503C10.2181 23.1596 12.9976 18.691 13.4657 13.7003ZM15.2222 19.2193C17.1541 23.2143 20.086 25.145 23.5613 26.0193H23.5607C21.3907 27.1546 19.4169 28.5754 18.3708 30.0021C17.9737 30.5425 17.6094 31.6292 17.281 32.8496C17.1031 31.7142 16.8627 30.506 16.5451 29.4739C16.1839 28.296 15.6975 27.3186 15.1548 26.7357C14.1068 25.6125 12.7917 24.9871 11.3777 24.6775C13.0704 23.1778 14.3539 21.3079 15.2222 19.2193Z" fill="#33D1E7"/>
</svg>
