<svg width="78" height="78" viewBox="0 0 78 78" fill="none" xmlns="http://www.w3.org/2000/svg">
<g opacity="0.4">
<circle cx="2.77716" cy="2.77716" r="2.77716" fill="#00C6E1"/>
<circle cx="2.77716" cy="20.7889" r="2.77716" fill="#00C6E1"/>
<circle cx="2.77716" cy="38.8004" r="2.77716" fill="#00C6E1"/>
<circle cx="2.77716" cy="56.8118" r="2.77716" fill="#00C6E1"/>
<circle cx="2.77716" cy="74.8233" r="2.77716" fill="#00C6E1"/>
<circle cx="20.7889" cy="2.77716" r="2.77716" fill="#00C6E1"/>
<circle cx="20.7889" cy="20.7889" r="2.77716" fill="#00C6E1"/>
<circle cx="20.7889" cy="38.8004" r="2.77716" fill="#00C6E1"/>
<circle cx="20.7889" cy="56.8118" r="2.77716" fill="#00C6E1"/>
<circle cx="20.7889" cy="74.8233" r="2.77716" fill="#00C6E1"/>
<circle cx="38.8006" cy="2.77716" r="2.77716" fill="#00C6E1"/>
<circle cx="38.8006" cy="20.7889" r="2.77716" fill="#00C6E1"/>
<circle cx="38.8006" cy="38.8004" r="2.77716" fill="#00C6E1"/>
<circle cx="38.8006" cy="56.8118" r="2.77716" fill="#00C6E1"/>
<circle cx="38.8006" cy="74.8233" r="2.77716" fill="#00C6E1"/>
<circle cx="56.8123" cy="2.77716" r="2.77716" fill="#00C6E1"/>
<circle cx="56.8123" cy="20.7889" r="2.77716" fill="#00C6E1"/>
<circle cx="56.8123" cy="38.8004" r="2.77716" fill="#00C6E1"/>
<circle cx="56.8123" cy="56.8118" r="2.77716" fill="#00C6E1"/>
<circle cx="56.8123" cy="74.8233" r="2.77716" fill="#00C6E1"/>
<circle cx="74.8201" cy="2.77716" r="2.77716" fill="#00C6E1"/>
<circle cx="74.824" cy="20.7889" r="2.77716" fill="#00C6E1"/>
<circle cx="74.824" cy="38.8004" r="2.77716" fill="#00C6E1"/>
<circle cx="74.824" cy="56.8118" r="2.77716" fill="#00C6E1"/>
<circle cx="74.824" cy="74.8233" r="2.77716" fill="#00C6E1"/>
</g>
</svg>
