<?xml version="1.0" encoding="utf-8"?>
<!-- Generator: Adobe Illustrator 26.3.1, SVG Export Plug-In . SVG Version: 6.00 Build 0)  -->
<svg version="1.1" id="Layer_1" xmlns="http://www.w3.org/2000/svg" xmlns:xlink="http://www.w3.org/1999/xlink" x="0px" y="0px"
	 viewBox="0 0 189 189" style="enable-background:new 0 0 189 189;" xml:space="preserve">
<style type="text/css">
	.st0{fill:#B2EEF6;}
</style>
<path class="st0" d="M87.5,184.7c0.8-0.8,2-0.8,2.8,0c0.8,0.8,0.8,2,0,2.8c-0.8,0.8-2,0.8-2.8,0C86.8,186.8,86.8,185.5,87.5,184.7z"
	/>
<path class="st0" d="M107,165.3c0.8-0.8,2-0.8,2.8,0c0.8,0.8,0.8,2,0,2.8c-0.8,0.8-2,0.8-2.8,0C106.2,167.3,106.2,166.1,107,165.3z"
	/>
<path class="st0" d="M85.2,143.6c0.8-0.8,2-0.8,2.8,0c0.8,0.8,0.8,2,0,2.8c-0.8,0.8-2,0.8-2.8,0C84.5,145.6,84.5,144.3,85.2,143.6z"
	/>
<path class="st0" d="M127.8,149.3c1.1,0,2-0.9,2-2c0-1.1-0.9-2-2-2c-1.1,0-2,0.9-2,2C125.8,148.4,126.7,149.3,127.8,149.3z"/>
<path class="st0" d="M106,127.5c1.1,0,2-0.9,2-2s-0.9-2-2-2s-2,0.9-2,2S104.9,127.5,106,127.5z"/>
<path class="st0" d="M82.9,102.4c0.8-0.8,2-0.8,2.8,0c0.8,0.8,0.8,2,0,2.8c-0.8,0.8-2,0.8-2.8,0C82.1,104.4,82.1,103.2,82.9,102.4z"
	/>
<path class="st0" d="M145.8,126.5c0.8-0.8,2-0.8,2.8,0c0.8,0.8,0.8,2,0,2.8c-0.8,0.8-2,0.8-2.8,0
	C145.1,128.5,145.1,127.2,145.8,126.5z"/>
<path class="st0" d="M124.1,104.7c0.8-0.8,2-0.8,2.8,0c0.8,0.8,0.8,2,0,2.8c-0.8,0.8-2,0.8-2.8,0
	C123.3,106.7,123.3,105.5,124.1,104.7z"/>
<path class="st0" d="M102.3,83c0.8-0.8,2-0.8,2.8,0c0.8,0.8,0.8,2,0,2.8c-0.8,0.8-2,0.8-2.8,0C101.6,85,101.6,83.7,102.3,83z"/>
<path class="st0" d="M82,64.6c1.1,0,2-0.9,2-2c0-1.1-0.9-2-2-2s-2,0.9-2,2C80,63.7,80.9,64.6,82,64.6z"/>
<path class="st0" d="M165.2,107c0.8-0.8,2-0.8,2.8,0c0.8,0.8,0.8,2,0,2.8c-0.8,0.8-2,0.8-2.8,0C164.5,109,164.5,107.8,165.2,107z"/>
<path class="st0" d="M143.5,85.3c0.8-0.8,2-0.8,2.8,0c0.8,0.8,0.8,2,0,2.8c-0.8,0.8-2,0.8-2.8,0C142.7,87.3,142.7,86.1,143.5,85.3z"
	/>
<path class="st0" d="M121.8,63.6c0.8-0.8,2-0.8,2.8,0c0.8,0.8,0.8,2,0,2.8c-0.8,0.8-2,0.8-2.8,0C121,65.6,121,64.3,121.8,63.6z"/>
<path class="st0" d="M101.4,45.2c1.1,0,2-0.9,2-2s-0.9-2-2-2c-1.1,0-2,0.9-2,2S100.3,45.2,101.4,45.2z"/>
<path class="st0" d="M79.7,23.5c1.1,0,2-0.9,2-2s-0.9-2-2-2c-1.1,0-2,0.9-2,2S78.6,23.5,79.7,23.5z"/>
<path class="st0" d="M186.1,91c1.1,0,2-0.9,2-2s-0.9-2-2-2c-1.1,0-2,0.9-2,2S185,91,186.1,91z"/>
<path class="st0" d="M164.3,69.3c1.1,0,2-0.9,2-2c0-1.1-0.9-2-2-2c-1.1,0-2,0.9-2,2C162.3,68.4,163.2,69.3,164.3,69.3z"/>
<path class="st0" d="M141.2,44.1c0.8-0.8,2-0.8,2.8,0c0.8,0.8,0.8,2,0,2.8c-0.8,0.8-2,0.8-2.8,0C140.4,46.1,140.4,44.9,141.2,44.1z"
	/>
<path class="st0" d="M119.5,22.4c0.8-0.8,2-0.8,2.8,0c0.8,0.8,0.8,2,0,2.8c-0.8,0.8-2,0.8-2.8,0C118.7,24.4,118.7,23.1,119.5,22.4z"
	/>
<path class="st0" d="M97.7,0.6c0.8-0.8,2-0.8,2.8,0c0.8,0.8,0.8,2,0,2.8c-0.8,0.8-2,0.8-2.8,0C96.9,2.7,96.9,1.4,97.7,0.6z"/>
</svg>
