<svg width="85" height="53" viewBox="0 0 85 53" fill="none" xmlns="http://www.w3.org/2000/svg">
<g opacity="0.75">
<path fill-rule="evenodd" clip-rule="evenodd" d="M79.4392 3.0523C79.4392 1.76459 80.4852 0.720703 81.7756 0.720703C83.066 0.720703 84.1121 1.76459 84.1121 3.0523C84.1121 4.34 83.066 5.3839 81.7756 5.3839C80.4852 5.3839 79.4392 4.34 79.4392 3.0523ZM79.4392 18.9072C79.4392 17.6195 80.4852 16.5756 81.7756 16.5756C83.066 16.5756 84.1121 17.6195 84.1121 18.9072C84.1121 20.1949 83.066 21.2388 81.7756 21.2388C80.4852 21.2388 79.4392 20.1949 79.4392 18.9072ZM79.4392 34.762C79.4392 33.4743 80.4852 32.4304 81.7756 32.4304C83.066 32.4304 84.1121 33.4743 84.1121 34.762C84.1121 36.0497 83.066 37.0936 81.7756 37.0936C80.4852 37.0936 79.4392 36.0497 79.4392 34.762ZM79.4392 50.6169C79.4392 49.3292 80.4852 48.2853 81.7756 48.2853C83.066 48.2853 84.1121 49.3292 84.1121 50.6169C84.1121 51.9046 83.066 52.9485 81.7756 52.9485C80.4852 52.9485 79.4392 51.9046 79.4392 50.6169ZM63.5513 3.0523C63.5513 1.76459 64.5974 0.720702 65.8878 0.720702C67.1781 0.720702 68.2242 1.76459 68.2242 3.0523C68.2242 4.34 67.1781 5.3839 65.8878 5.3839C64.5974 5.3839 63.5513 4.34 63.5513 3.0523ZM63.5513 18.9072C63.5513 17.6195 64.5974 16.5756 65.8878 16.5756C67.1781 16.5756 68.2242 17.6195 68.2242 18.9072C68.2242 20.1949 67.1781 21.2388 65.8878 21.2388C64.5974 21.2388 63.5513 20.1949 63.5513 18.9072ZM63.5513 34.762C63.5513 33.4743 64.5974 32.4304 65.8878 32.4304C67.1781 32.4304 68.2242 33.4743 68.2242 34.762C68.2242 36.0497 67.1781 37.0936 65.8878 37.0936C64.5974 37.0936 63.5513 36.0497 63.5513 34.762ZM63.5513 50.6169C63.5513 49.3292 64.5974 48.2853 65.8878 48.2853C67.1781 48.2853 68.2242 49.3292 68.2242 50.6169C68.2242 51.9046 67.1781 52.9485 65.8878 52.9485C64.5974 52.9485 63.5513 51.9046 63.5513 50.6169ZM47.6635 3.0523C47.6635 1.76459 48.7095 0.720702 49.9999 0.720702C51.2903 0.720702 52.3364 1.76459 52.3364 3.0523C52.3364 4.34 51.2903 5.38389 49.9999 5.38389C48.7095 5.38389 47.6635 4.34 47.6635 3.0523ZM47.6635 18.9072C47.6635 17.6195 48.7095 16.5756 49.9999 16.5756C51.2903 16.5756 52.3364 17.6195 52.3364 18.9072C52.3364 20.1949 51.2903 21.2388 49.9999 21.2388C48.7095 21.2388 47.6635 20.1949 47.6635 18.9072ZM47.6635 34.762C47.6635 33.4743 48.7095 32.4304 49.9999 32.4304C51.2903 32.4304 52.3364 33.4743 52.3364 34.762C52.3364 36.0497 51.2903 37.0936 49.9999 37.0936C48.7095 37.0936 47.6635 36.0497 47.6635 34.762ZM47.6635 50.6169C47.6635 49.3292 48.7095 48.2853 49.9999 48.2853C51.2903 48.2853 52.3364 49.3292 52.3364 50.6169C52.3364 51.9046 51.2903 52.9485 49.9999 52.9485C48.7095 52.9485 47.6635 51.9046 47.6635 50.6169ZM31.7756 3.0523C31.7756 1.76459 32.8217 0.720701 34.1121 0.720701C35.4024 0.720701 36.4485 1.76459 36.4485 3.0523C36.4485 4.34 35.4024 5.38389 34.1121 5.38389C32.8217 5.38389 31.7756 4.34 31.7756 3.0523ZM31.7756 18.9072C31.7756 17.6195 32.8217 16.5756 34.1121 16.5756C35.4024 16.5756 36.4485 17.6195 36.4485 18.9072C36.4485 20.1949 35.4024 21.2388 34.1121 21.2388C32.8217 21.2388 31.7756 20.1949 31.7756 18.9072ZM31.7756 34.762C31.7756 33.4743 32.8217 32.4304 34.1121 32.4304C35.4024 32.4304 36.4485 33.4743 36.4485 34.762C36.4485 36.0497 35.4024 37.0936 34.1121 37.0936C32.8217 37.0936 31.7756 36.0497 31.7756 34.762ZM31.7756 50.6169C31.7756 49.3292 32.8217 48.2853 34.1121 48.2853C35.4024 48.2853 36.4485 49.3292 36.4485 50.6169C36.4485 51.9046 35.4024 52.9485 34.1121 52.9485C32.8217 52.9485 31.7756 51.9046 31.7756 50.6169ZM15.8878 3.0523C15.8878 1.76459 16.9338 0.7207 18.2242 0.7207C19.5146 0.7207 20.5607 1.76459 20.5607 3.0523C20.5607 4.34 19.5146 5.38389 18.2242 5.38389C16.9338 5.38389 15.8878 4.34 15.8878 3.0523ZM15.8878 18.9072C15.8878 17.6195 16.9338 16.5756 18.2242 16.5756C19.5146 16.5756 20.5607 17.6195 20.5607 18.9072C20.5607 20.1949 19.5146 21.2388 18.2242 21.2388C16.9338 21.2388 15.8878 20.1949 15.8878 18.9072ZM15.8878 34.762C15.8878 33.4743 16.9338 32.4304 18.2242 32.4304C19.5146 32.4304 20.5607 33.4743 20.5607 34.762C20.5607 36.0497 19.5146 37.0936 18.2242 37.0936C16.9338 37.0936 15.8878 36.0497 15.8878 34.762ZM15.8878 50.6169C15.8878 49.3292 16.9338 48.2853 18.2242 48.2853C19.5146 48.2853 20.5607 49.3292 20.5607 50.6169C20.5607 51.9046 19.5146 52.9485 18.2242 52.9485C16.9338 52.9485 15.8878 51.9046 15.8878 50.6169ZM-9.16549e-05 3.05229C-9.15985e-05 1.76459 1.04597 0.7207 2.33636 0.7207C3.62674 0.7207 4.67281 1.76459 4.67281 3.0523C4.67281 4.34 3.62674 5.38389 2.33636 5.38389C1.04597 5.38389 -9.17113e-05 4.34 -9.16549e-05 3.05229ZM-9.23493e-05 18.9072C-9.22929e-05 17.6195 1.04597 16.5756 2.33636 16.5756C3.62674 16.5756 4.67281 17.6195 4.6728 18.9072C4.6728 20.1949 3.62674 21.2388 2.33636 21.2388C1.04597 21.2388 -9.24057e-05 20.1949 -9.23493e-05 18.9072ZM-9.30438e-05 34.762C-9.29874e-05 33.4743 1.04597 32.4304 2.33636 32.4304C3.62674 32.4304 4.6728 33.4743 4.6728 34.762C4.6728 36.0497 3.62674 37.0936 2.33636 37.0936C1.04597 37.0936 -9.31002e-05 36.0497 -9.30438e-05 34.762ZM-9.37383e-05 50.6169C-9.36819e-05 49.3292 1.04597 48.2853 2.33636 48.2853C3.62674 48.2853 4.6728 49.3292 4.6728 50.6169C4.6728 51.9046 3.62674 52.9485 2.33635 52.9485C1.04597 52.9485 -9.37947e-05 51.9046 -9.37383e-05 50.6169Z" fill="#BEC1E3"/>
</g>
</svg>
