<svg width="20" height="22" viewBox="0 0 20 22" fill="none" xmlns="http://www.w3.org/2000/svg">
<path d="M11.663 21.3355C11.4895 21.3355 11.319 21.2677 11.1914 21.1402L7.52761 17.4765C7.33692 17.2858 7.27983 16.999 7.38305 16.7498C7.48627 16.5007 7.72933 16.3383 7.99903 16.3383H11.6628C12.0311 16.3383 12.3296 16.6367 12.3296 17.005V20.6687C12.3296 20.9383 12.1671 21.1815 11.918 21.2847C11.8355 21.3189 11.7489 21.3355 11.663 21.3355ZM9.60873 17.6717L10.9962 19.0591V17.6717H9.60873Z" fill="#2D527C"/>
<path d="M18.5699 21.3354H15.3338C14.9655 21.3354 14.667 21.0369 14.667 20.6687C14.667 20.3005 14.9655 20.002 15.3338 20.002H18.5699C18.6232 20.002 18.6665 19.9586 18.6665 19.9054V1.43006C18.6665 1.3768 18.6232 1.33346 18.5699 1.33346H8.66574V16.7288L12.1342 20.1973C12.3946 20.4576 12.3946 20.8798 12.1342 21.1402C11.8739 21.4005 11.4518 21.4006 11.1913 21.1402L7.52754 17.4764C7.40253 17.3514 7.33228 17.1818 7.33228 17.005V0.666732C7.33228 0.298488 7.63076 0 7.99901 0H18.5698C19.3584 0 19.9999 0.641521 19.9999 1.43006V19.9054C20 20.6939 19.3584 21.3354 18.5699 21.3354Z" fill="#2D527C"/>
<path d="M7.99927 0.666748V17.005L11.663 20.6687H4.33228V0.666748H7.99927Z" fill="#CEE8FA"/>
<path d="M11.6642 21.3354C11.6637 21.3354 11.6634 21.3354 11.6628 21.3354H4.33202C3.96377 21.3354 3.66528 21.0369 3.66528 20.6687V0.666732C3.66528 0.298488 3.96377 0 4.33202 0H7.999C8.36725 0 8.66573 0.298488 8.66573 0.666732V16.7288L12.1098 20.1728C12.2455 20.2949 12.3309 20.4718 12.3309 20.6687C12.3309 21.0369 12.0324 21.3354 11.6642 21.3354ZM4.99875 20.002H10.0532L7.52762 17.4764C7.40261 17.3514 7.33235 17.1818 7.33235 17.0049V1.33346H4.99879V20.002H4.99875Z" fill="#2D527C"/>
<path d="M0.666748 1.43007V19.9054C0.666748 20.327 1.00853 20.6687 1.43007 20.6687H4.33215V0.666748H1.43007C1.00849 0.666748 0.666748 1.00849 0.666748 1.43007Z" fill="#CEE8FA"/>
<path d="M4.33205 21.3354H1.43006C0.641521 21.3354 0 20.6939 0 19.9054V1.43006C0 0.641521 0.641521 0 1.43006 0H4.33205C4.7003 0 4.99878 0.298488 4.99878 0.666732V20.6687C4.99878 21.0369 4.7003 21.3354 4.33205 21.3354ZM1.43006 1.33346C1.3768 1.33346 1.33346 1.3768 1.33346 1.43006V19.9054C1.33346 19.9586 1.3768 20.002 1.43006 20.002H3.66532V1.33346H1.43006Z" fill="#2D527C"/>
</svg>
