<svg width="16" height="24" viewBox="0 0 16 24" fill="none" xmlns="http://www.w3.org/2000/svg">
<path d="M8.00012 7.29077C7.64219 7.29077 7.35205 7.00059 7.35205 6.6427V0.648069C7.35205 0.290182 7.64219 0 8.00012 0C8.35805 0 8.64819 0.290182 8.64819 0.648069V6.6427C8.64819 7.00054 8.35805 7.29077 8.00012 7.29077Z" fill="#2D527C"/>
<path d="M11.5644 23.5981H0.648069C0.290135 23.5981 0 23.3079 0 22.95V8.20685C0 8.02041 0.0802884 7.84301 0.220402 7.71991L7.57233 1.26216C7.81693 1.04738 8.18307 1.04738 8.42767 1.26216L15.7796 7.71991C15.9197 7.84297 16 8.02041 16 8.20685V22.9159C16 23.2738 15.7099 23.564 15.3519 23.564C14.994 23.564 14.7039 23.2738 14.7039 22.9159V8.50016L8 2.61167L1.29614 8.50016V22.3019H11.5644C11.9223 22.3019 12.2124 22.5921 12.2124 22.95C12.2124 23.3079 11.9223 23.5981 11.5644 23.5981Z" fill="#2D527C"/>
<path d="M9.39326 7.29077H6.60657C6.24863 7.29077 5.9585 7.00059 5.9585 6.6427C5.9585 6.28481 6.24863 5.99463 6.60657 5.99463H9.39326C9.75119 5.99463 10.0413 6.28481 10.0413 6.6427C10.0413 7.00059 9.75119 7.29077 9.39326 7.29077Z" fill="#2D527C"/>
<path d="M11.564 11.7948H0.647949V19.1828H11.564V11.7948Z" fill="#CEE8FA"/>
<path d="M11.5644 19.8309H0.648069C0.290135 19.8309 0 19.5407 0 19.1828V11.7948C0 11.437 0.290135 11.1467 0.648069 11.1467H11.5644C11.9223 11.1467 12.2124 11.4369 12.2124 11.7948V19.1828C12.2124 19.5407 11.9223 19.8309 11.5644 19.8309ZM1.29614 18.5347H10.9163V12.4429H1.29614V18.5347Z" fill="#2D527C"/>
<path d="M4.78132 14.8407H0.64807C0.290136 14.8407 0 14.5505 0 14.1926C0 13.8347 0.290136 13.5446 0.64807 13.5446H4.78132C5.13925 13.5446 5.42939 13.8348 5.42939 14.1926C5.42939 14.5505 5.13925 14.8407 4.78132 14.8407Z" fill="#2D527C"/>
<path d="M7.58957 17.433H0.648069C0.290135 17.433 0 17.1428 0 16.7849C0 16.427 0.290135 16.1368 0.648069 16.1368H7.58957C7.9475 16.1368 8.23764 16.427 8.23764 16.7849C8.23764 17.1428 7.9475 17.433 7.58957 17.433Z" fill="#2D527C"/>
</svg>
