<svg width="20" height="20" viewBox="0 0 20 20" fill="none" xmlns="http://www.w3.org/2000/svg">
<path d="M6.71959 3.04232H4.8169C4.58647 3.04232 4.37866 2.90345 4.29046 2.69056C4.20226 2.47764 4.25105 2.23256 4.41394 2.06959L6.3167 0.166824C6.47967 0.00385607 6.72487 -0.0446984 6.93768 0.043309C7.15061 0.131512 7.28943 0.339284 7.28943 0.569752V2.47252C7.28939 2.78717 7.03432 3.04232 6.71959 3.04232Z" fill="#2D527C"/>
<path d="M15.1831 6.47521C14.8685 6.47521 14.6133 6.22005 14.6133 5.90541V1.1396H9.24729C8.93261 1.1396 8.67749 0.88445 8.67749 0.569802C8.67749 0.255155 8.93261 0 9.24729 0H14.6926C15.2772 0 15.7529 0.475623 15.7529 1.06019V5.90533C15.7529 6.22001 15.4978 6.47521 15.1831 6.47521Z" fill="#2D527C"/>
<path d="M4.81687 6.47522C4.50219 6.47522 4.24707 6.22006 4.24707 5.90542V2.47254C4.24707 2.32145 4.30711 2.17652 4.41398 2.06961L6.31667 0.166845C6.53917 -0.055615 6.89999 -0.055615 7.12253 0.166845C7.34503 0.389344 7.34503 0.750163 7.12253 0.972701L5.38668 2.70855V5.90538C5.38668 6.22002 5.1316 6.47522 4.81687 6.47522Z" fill="#2D527C"/>
<path d="M15.183 19.9873H4.81687C4.50219 19.9873 4.24707 19.7322 4.24707 19.4175V13.6625C4.24707 13.3478 4.50219 13.0927 4.81687 13.0927H15.183C15.4977 13.0927 15.7528 13.3478 15.7528 13.6625C15.7528 13.9771 15.4977 14.2323 15.183 14.2323H5.38668V18.8477H15.183C15.4977 18.8477 15.7528 19.1028 15.7528 19.4175C15.7528 19.7322 15.4977 19.9873 15.183 19.9873Z" fill="#2D527C"/>
<path d="M18.1992 16.488H15.1831C14.8685 16.488 14.6133 16.2328 14.6133 15.9182V14.2322H5.3867V15.9182C5.3867 16.2328 5.13158 16.488 4.8169 16.488H1.80081C0.807809 16.488 0 15.6801 0 14.6872V7.45609C0 6.46316 0.807809 5.65527 1.80081 5.65527H18.1992C19.1921 5.65527 20 6.46316 20 7.45609V14.6872C19.9999 15.6801 19.192 16.488 18.1992 16.488ZM15.7529 15.3484H18.1991C18.5637 15.3484 18.8604 15.0518 18.8604 14.6872V7.45609C18.8604 7.09152 18.5638 6.79488 18.1991 6.79488H1.80077C1.43621 6.79488 1.13957 7.09148 1.13957 7.45609V14.6872C1.13957 15.0517 1.43617 15.3484 1.80077 15.3484H4.24705V13.6624C4.24705 13.3478 4.50217 13.0926 4.81686 13.0926H15.183C15.4977 13.0926 15.7528 13.3478 15.7528 13.6624V15.3484H15.7529Z" fill="#2D527C"/>
<path d="M0.569824 11.0717V14.6872C0.569824 15.3671 1.12095 15.9182 1.80076 15.9182H4.81684V13.6625H15.183V15.9182H18.1991C18.8789 15.9182 19.43 15.3671 19.43 14.6872V11.0717H0.569824Z" fill="#CEE8FA"/>
<path d="M18.1992 16.488H15.1831C14.8685 16.488 14.6133 16.2328 14.6133 15.9182V14.2322H5.3867V15.9182C5.3867 16.2328 5.13158 16.488 4.8169 16.488H1.80081C0.807809 16.488 0 15.6801 0 14.6872V11.0716C0 10.757 0.255116 10.5018 0.569802 10.5018H19.4301C19.7448 10.5018 19.9999 10.757 19.9999 11.0716V14.6872C19.9999 15.6801 19.192 16.488 18.1992 16.488ZM15.7529 15.3484H18.1991C18.5637 15.3484 18.8604 15.0518 18.8604 14.6872V11.6414H1.1396V14.6872C1.1396 15.0517 1.43621 15.3484 1.80081 15.3484H4.24709V13.6624C4.24709 13.3478 4.50221 13.0926 4.8169 13.0926H15.1831C15.4977 13.0926 15.7529 13.3478 15.7529 13.6624V15.3484Z" fill="#2D527C"/>
</svg>
