<svg viewBox="0 0 24 25" fill="none" xmlns="http://www.w3.org/2000/svg">
<path d="M16.5368 19.8475H13.0161C12.6952 19.8475 12.4351 19.5874 12.4351 19.2665C12.4351 18.9457 12.6952 18.6855 13.0161 18.6855H16.5368C17.0859 18.6855 17.5327 18.2388 17.5327 17.6896C17.5327 17.3688 17.7929 17.1086 18.1137 17.1086C18.4346 17.1086 18.6947 17.3688 18.6947 17.6896C18.6947 18.8795 17.7267 19.8475 16.5368 19.8475Z" fill="#2D527C"/>
<path d="M15.5651 23.0014H12.0444C10.8545 23.0014 9.88647 22.0334 9.88647 20.8435C9.88647 19.6536 10.8545 18.6855 12.0444 18.6855H15.5651C15.8859 18.6855 16.1461 18.9457 16.1461 19.2665C16.1461 19.5874 15.8859 19.8475 15.5651 19.8475H12.0444C11.4953 19.8475 11.0485 20.2943 11.0485 20.8435C11.0485 21.3926 11.4953 21.8393 12.0444 21.8393H15.5651C15.8859 21.8393 16.1461 22.0995 16.1461 22.4204C16.1461 22.7412 15.8859 23.0014 15.5651 23.0014Z" fill="#2D527C"/>
<path d="M10.0428 7.88401C10.0427 7.88401 10.0426 7.88401 10.0426 7.88401C9.10226 7.88384 7.815 6.58962 6.92383 5.37846C6.34268 4.58861 5.88201 3.77383 5.62669 3.08423C5.28195 2.15318 5.33781 1.5114 5.79259 1.17685C5.94857 1.06208 6.14077 1.0014 6.34856 1.0014C7.28885 1.0014 8.57615 2.29571 9.46736 3.50695C10.0485 4.29681 10.5092 5.11158 10.7645 5.80119C11.1092 6.73215 11.0534 7.37397 10.5986 7.70857C10.4426 7.82338 10.2504 7.88401 10.0428 7.88401ZM6.58794 2.25781C6.68226 2.70434 7.05626 3.5977 7.85982 4.68976C8.66337 5.78185 9.40493 6.40464 9.80321 6.62756C9.70885 6.18099 9.33489 5.28767 8.53133 4.1957C7.72777 3.10352 6.98618 2.48069 6.58794 2.25781Z" fill="#2D527C"/>
<path d="M19.7118 16.3513C19.4195 16.3513 19.0723 16.2772 18.6713 16.1286C17.9817 15.8733 17.1669 15.4126 16.377 14.8315C15.5872 14.2503 14.905 13.6095 14.456 13.027C13.8498 12.2408 13.7123 11.6114 14.047 11.1567C14.2372 10.8981 14.6009 10.8429 14.8593 11.0331C15.0873 11.2008 15.1572 11.5036 15.0399 11.7501C15.1111 12.0433 15.7455 12.9241 17.0657 13.8955C18.1578 14.699 19.0511 15.073 19.4976 15.1674C19.2748 14.7691 18.6519 14.0275 17.5598 13.224C17.3013 13.0338 17.246 12.6701 17.4361 12.4117C17.6262 12.1532 17.9899 12.0978 18.2485 12.288C19.0383 12.8692 19.7205 13.51 20.1695 14.0925C20.7756 14.8787 20.9133 15.508 20.5786 15.9628C20.3881 16.2217 20.098 16.3513 19.7118 16.3513Z" fill="#2D527C"/>
<path d="M14.1921 17.3406C12.3464 16.5689 10.3145 15.1284 8.4708 13.2847C6.6271 11.441 5.18666 9.40911 4.41486 7.56334C3.61207 5.64393 3.62535 4.1313 4.4522 3.30441L6.09682 1.65978C6.10555 1.65106 6.11779 1.64727 6.1333 1.64805C5.69666 1.9808 6.2583 3.49347 7.39186 5.03407C8.52881 6.57931 9.81036 7.56716 10.2543 7.24056C10.2802 7.22148 10.3023 7.19802 10.3215 7.17108C10.2707 7.28048 10.1985 7.38476 10.1021 7.48123L8.91729 8.66601C8.70812 8.87535 8.68947 9.20625 8.87428 9.43592C9.37302 10.0559 9.92199 10.6661 10.5057 11.2498C11.0894 11.8334 11.6996 12.3824 12.3195 12.8812C12.5491 13.0659 12.88 13.0473 13.0894 12.8381L14.2742 11.6533C14.3707 11.5569 14.475 11.4847 14.5844 11.4339C14.5574 11.453 14.5339 11.4752 14.5149 11.5011C14.1882 11.945 15.1761 13.2265 16.7214 14.3635C18.262 15.4971 19.7747 16.0587 20.1074 15.6221C20.1082 15.6376 20.1044 15.6498 20.0957 15.6586L18.451 17.3032C17.6242 18.1301 16.1116 18.1434 14.1921 17.3406Z" fill="#CEE8FA"/>
<path d="M16.6976 18.5142C15.8979 18.5142 14.9796 18.2997 13.968 17.8766C12.0542 17.0765 9.95604 15.5915 8.06 13.6956C6.164 11.7996 4.67913 9.7014 3.87892 7.78748C2.97911 5.63625 3.03686 3.89817 4.04147 2.8936L5.6861 1.24893C5.80405 1.13141 5.96127 1.06696 6.1295 1.06696C6.13938 1.06696 6.15326 1.0673 6.16318 1.06781C6.40665 1.08032 6.6165 1.24347 6.68856 1.4764C6.74992 1.67466 6.70038 1.88749 6.56468 2.03762C6.54406 2.33655 6.88708 3.36746 7.86006 4.68974C8.79794 5.96436 9.65143 6.59978 9.97301 6.70613C10.155 6.56966 10.407 6.54878 10.6134 6.66858C10.8732 6.8194 10.9752 7.14338 10.8486 7.41585C10.7676 7.59017 10.6548 7.7504 10.5131 7.89207L9.33002 9.07513C9.8145 9.67699 10.3483 10.2703 10.9168 10.8388C11.4864 11.4085 12.081 11.9433 12.684 12.4283L13.8635 11.2424C14.0055 11.1005 14.1658 10.9876 14.34 10.9068C14.6126 10.7804 14.9364 10.8824 15.0871 11.1424C15.2069 11.3487 15.1859 11.6006 15.0495 11.7826C15.1559 12.1042 15.7913 12.9577 17.0659 13.8955C18.22 14.7448 19.2671 15.1891 19.7048 15.1891C19.7105 15.1891 19.7157 15.189 19.7204 15.1889C19.8706 15.0545 20.0829 15.0058 20.2803 15.0673C20.5135 15.1399 20.6764 15.3505 20.688 15.5944C20.6965 15.7726 20.6305 15.9457 20.5068 16.0694L18.8622 17.714C18.3385 18.2375 17.5901 18.5142 16.6976 18.5142ZM5.58878 2.98968L4.86321 3.71533C4.2234 4.35514 4.25541 5.676 4.95099 7.33923C5.69422 9.11681 7.09019 11.0824 8.88173 12.8739C10.6733 14.6654 12.6388 16.0613 14.4163 16.8046C15.2851 17.168 16.0527 17.3522 16.6977 17.3522C17.2835 17.3522 17.7352 17.1975 18.0403 16.8924L18.7692 16.1635C17.9746 15.887 17.0775 15.3469 16.3771 14.8316C15.5873 14.2504 14.905 13.6096 14.4561 13.0271C14.3395 12.8759 14.2402 12.7305 14.1583 12.591L13.5004 13.249C13.2807 13.4685 12.9893 13.5892 12.68 13.5892C12.4175 13.5892 12.1602 13.4985 11.9555 13.3338C11.32 12.8226 10.6941 12.2597 10.095 11.6606C9.4958 11.0614 8.93291 10.4355 8.42166 9.80005C8.05067 9.339 8.08711 8.67492 8.50636 8.25528L9.16494 7.59662C8.39618 7.14776 7.55933 6.24198 6.92395 5.3784C6.69209 5.06322 5.94202 4.00078 5.58878 2.98968Z" fill="#2D527C"/>
</svg>
