<svg width="202" height="51" viewBox="0 0 202 51" fill="none" xmlns="http://www.w3.org/2000/svg">
<path fill-rule="evenodd" clip-rule="evenodd" d="M199.665 40.1222C199.521 39.9634 199.377 39.8197 199.211 39.6685L191.97 32.4332L192.06 32.2064C192.885 30.2104 193.301 28.0784 193.301 25.9161C193.301 23.6933 192.862 21.5008 191.985 19.4519L191.886 19.2251L195.2 15.9136L201.171 1.6471C201.488 0.891061 201.095 0.913741 200.467 1.18592L186.241 7.34011L182.965 10.6138L182.746 10.5306C180.839 9.78969 178.818 9.41923 176.768 9.41923C174.263 9.41923 171.797 9.97871 169.549 11.075L169.39 11.1506L169.231 11.075C166.977 9.97871 164.517 9.41923 162.013 9.41923C159.902 9.41923 157.813 9.81993 155.853 10.6062L155.626 10.6969L148.037 3.11383C147.946 3.01554 147.855 2.92482 147.757 2.83409L147.749 2.82653C146.599 1.73783 145.078 1.14812 143.497 1.14812C140.062 1.14812 137.27 3.93036 137.27 7.37035C137.27 8.92024 137.845 10.3945 138.881 11.5437C139.017 11.6949 139.169 11.8461 139.335 11.9973L146.796 19.4519L146.705 19.6787C145.888 21.6671 145.479 23.7841 145.479 25.9312C145.479 28.1086 145.903 30.2482 146.736 32.2593L146.826 32.4861L143.535 35.7749L137.527 50.1473C137.209 50.9033 137.602 50.8807 138.23 50.6085L152.456 44.4543L155.725 41.1882L155.952 41.2789C157.881 42.0425 159.939 42.4281 162.013 42.4281C164.517 42.4281 166.984 41.8686 169.231 40.7724L169.39 40.6968L169.549 40.7724C171.804 41.8686 174.263 42.4281 176.768 42.4281C178.864 42.4281 180.945 42.035 182.889 41.2562L183.116 41.1655L190.502 48.5445C190.592 48.6428 190.683 48.7335 190.782 48.8242L190.789 48.8318C191.939 49.9205 193.453 50.5102 195.042 50.5102C198.477 50.5102 201.269 47.728 201.269 44.288C201.277 42.7456 200.709 41.2638 199.665 40.1222Z" fill="#33D1E7"/>
<path fill-rule="evenodd" clip-rule="evenodd" d="M162.111 19.7922C158.744 19.7922 156.02 22.5215 156.02 25.8783C156.02 27.6399 156.769 29.2956 158.093 30.4524L158.101 30.4599L162.906 35.2608H162.013C156.845 35.2608 152.653 31.0723 152.653 25.9085C152.653 20.7448 156.845 16.5563 162.013 16.5563C164.419 16.5563 166.704 17.4711 168.46 19.1268L171.448 22.1132L169.209 24.3511L166.568 21.7125C165.41 20.4877 163.806 19.7922 162.111 19.7922ZM148.09 34.8072C148.514 35.4649 148.983 36.0924 149.49 36.6822L149.709 36.9392L147.288 39.3586L147.046 35.223L147.84 34.4292L148.09 34.8072ZM151.457 38.6176C152.055 39.1166 152.691 39.5702 153.356 39.9785L153.75 40.2204L152.857 41.1126L149.399 40.9311L149.036 40.5682L151.207 38.3984L151.457 38.6176ZM145.676 42.481L150.277 43.2219L141.053 47.229L145.003 37.8011L145.676 42.481ZM179.31 28.91C178.546 29.5375 177.6 29.8702 176.609 29.8702C176.019 29.8702 175.444 29.7492 174.906 29.5149L174.415 29.3032L191.417 12.3149L191.667 16.6168L179.363 28.91H179.31ZM190.002 10.8935L172.916 27.965L170.654 25.7573L185.75 10.6743L190.002 10.8935ZM193.036 9.31339L188.436 8.57246L197.66 4.56543L193.71 13.9933L193.036 9.31339ZM187.725 38.285L190.116 40.6741L187.717 43.0707L184.932 40.2885L185.333 40.0466C186.083 39.5929 186.801 39.0788 187.467 38.5042L187.725 38.285ZM191.069 34.2175L193.823 36.9695L191.455 39.3359L189.071 36.9543L189.291 36.6973C189.858 36.0471 190.365 35.344 190.819 34.6106L191.069 34.2175ZM198.56 41.7703C199.09 42.5037 199.37 43.3807 199.37 44.288C199.37 46.6771 197.433 48.605 195.049 48.605C194.096 48.605 193.188 48.295 192.439 47.728L192.416 47.7506L189.071 44.4089L195.178 38.3077L198.606 41.7325L198.56 41.7703ZM151.041 13.5624L148.446 10.9691L150.844 8.57246L153.833 11.5588L153.44 11.8008C152.691 12.2544 151.979 12.7761 151.306 13.3431L151.041 13.5624ZM147.704 17.645L144.738 14.6813L147.106 12.3149L149.702 14.9081L149.482 15.1652C148.922 15.8229 148.408 16.5185 147.954 17.2518L147.704 17.645ZM140.001 9.88042C139.471 9.14706 139.184 8.27005 139.184 7.35523C139.184 4.9737 141.121 3.03822 143.505 3.03822C144.458 3.03822 145.366 3.3482 146.115 3.91524L146.138 3.89255L149.482 7.23427L143.376 13.3355L139.956 9.91822L140.001 9.88042ZM174.21 14.772C173.522 14.0235 172.765 13.3355 171.948 12.7156L171.396 12.2998L172.046 12.0805C173.567 11.5588 175.164 11.3018 176.775 11.3018C178.175 11.3018 179.568 11.4984 180.914 11.8991L181.505 12.0729L178.743 14.8325L178.561 14.8023C177.971 14.7115 177.381 14.6662 176.783 14.6662C176.034 14.6662 175.285 14.7418 174.551 14.8854L174.347 14.9232L174.21 14.772ZM165.092 34.7543L162.338 32.0098H162.361L159.266 28.9025C158.434 28.1162 157.965 27.035 157.965 25.8859C157.965 25.2735 158.101 24.6686 158.366 24.1092L158.585 23.6404L168.906 33.9528C171.017 36.0168 173.824 37.166 176.783 37.166C183.003 37.166 188.042 32.1308 188.042 25.9161C188.042 25.1223 187.959 24.3284 187.793 23.5572L187.755 23.3607L190.449 20.6692L190.638 21.2286C191.152 22.7407 191.41 24.3209 191.41 25.9161C191.41 33.9831 184.864 40.5304 176.783 40.5304C174.604 40.5304 172.455 40.0541 170.488 39.1091C170.056 38.9049 169.64 38.6706 169.224 38.4286L169.209 38.4211C168.694 38.1035 168.195 37.7633 167.726 37.3928L167.711 37.3777L166.848 36.5158L165.092 34.7543ZM164.585 37.0602C165.153 37.6801 165.766 38.2547 166.424 38.784L166.439 38.7991L167.234 39.5854L166.674 39.7744C165.176 40.2809 163.602 40.5304 162.02 40.5304C153.947 40.5304 147.394 33.9906 147.394 25.9161C147.394 17.8491 153.939 11.3018 162.02 11.3018C163.738 11.3018 165.448 11.5966 167.06 12.1939C167.915 12.5115 168.762 12.9348 169.557 13.396C171.653 14.6586 173.408 16.4353 174.642 18.5447L174.785 18.7866L172.795 20.775L170.139 18.1213C170.034 18.0079 169.928 17.902 169.822 17.8038L169.814 17.7962C167.711 15.7776 164.934 14.6662 162.02 14.6662C155.8 14.6662 150.761 19.7014 150.761 25.9161C150.761 32.1308 155.8 37.166 162.02 37.166C162.769 37.166 163.519 37.0904 164.253 36.9468L164.457 36.909L164.585 37.0602ZM165.161 23.0658L172.145 30.0441L172.818 30.6263C173.915 31.4503 175.239 31.8964 176.609 31.8964C178.206 31.8964 179.742 31.3067 180.899 30.2104L180.907 30.2029C181.005 30.1046 181.104 30.0139 181.21 29.9005L186.136 24.9786V25.9161C186.151 31.0874 181.944 35.2684 176.775 35.2684C174.324 35.2684 171.993 34.3157 170.238 32.6071L159.932 22.3098L160.416 22.0905C160.946 21.8562 161.521 21.7352 162.104 21.7352C163.276 21.7352 164.374 22.2191 165.161 23.0658ZM199.665 40.1222C199.521 39.9634 199.377 39.8197 199.211 39.6685L191.97 32.4332L192.06 32.2064C192.885 30.2104 193.301 28.0784 193.301 25.9161C193.301 23.6933 192.862 21.5008 191.985 19.4519L191.886 19.2251L195.2 15.9136L201.171 1.6471C201.488 0.891061 201.095 0.913741 200.467 1.18592L186.241 7.34011L182.965 10.6138L182.746 10.5306C180.839 9.78969 178.818 9.41923 176.768 9.41923C174.263 9.41923 171.797 9.97871 169.549 11.075L169.39 11.1506L169.231 11.075C166.977 9.97871 164.517 9.41923 162.013 9.41923C159.902 9.41923 157.813 9.81993 155.853 10.6062L155.626 10.6969L148.037 3.11383C147.946 3.01554 147.855 2.92482 147.757 2.83409L147.749 2.82653C146.599 1.73783 145.078 1.14812 143.497 1.14812C140.062 1.14812 137.27 3.93036 137.27 7.37035C137.27 8.92024 137.845 10.3945 138.881 11.5437C139.017 11.6949 139.169 11.8461 139.335 11.9973L146.796 19.4519L146.705 19.6787C145.888 21.6671 145.479 23.7841 145.479 25.9312C145.479 28.1086 145.903 30.2482 146.736 32.2593L146.826 32.4861L143.535 35.7749L137.527 50.1473C137.209 50.9033 137.602 50.8807 138.23 50.6085L152.456 44.4543L155.725 41.1882L155.952 41.2789C157.881 42.0425 159.939 42.4281 162.013 42.4281C164.517 42.4281 166.984 41.8686 169.231 40.7724L169.39 40.6968L169.549 40.7724C171.804 41.8686 174.263 42.4281 176.768 42.4281C178.864 42.4281 180.945 42.035 182.889 41.2562L183.116 41.1655L190.502 48.5445C190.592 48.6428 190.683 48.7335 190.782 48.8242L190.789 48.8318C191.939 49.9205 193.453 50.5102 195.042 50.5102C198.477 50.5102 201.269 47.728 201.269 44.288C201.277 42.7456 200.709 41.2638 199.665 40.1222Z" fill="#ffffff"/>
<path fill-rule="evenodd" clip-rule="evenodd" d="M198.572 41.8156C199.101 42.549 199.381 43.426 199.381 44.3332C199.381 46.7223 197.444 48.6502 195.061 48.6502C194.107 48.6502 193.199 48.3403 192.45 47.7732L192.427 47.7959L189.083 44.4542L195.189 38.3529L198.617 41.7778L198.572 41.8156ZM193.048 9.35866L188.447 8.61774L197.671 4.6107L193.721 14.0386L193.048 9.35866ZM140.013 9.92569C139.483 9.19233 139.195 8.31532 139.195 7.40051C139.195 5.01897 141.132 3.0835 143.516 3.0835C144.469 3.0835 145.377 3.39347 146.126 3.96051L146.149 3.93783L149.494 7.27954L143.387 13.3808L139.967 9.96349L140.013 9.92569ZM145.68 42.5263L150.281 43.2672L141.057 47.2742L145.007 37.8464L145.68 42.5263Z" fill="white"/>
<path fill-rule="evenodd" clip-rule="evenodd" d="M112.127 0.263378C110.402 0.527994 109.078 2.03252 109.078 3.82435V13.5017V14.0536V17.1005C109.078 19.0813 110.697 20.6992 112.68 20.6992H116.054H122.917V20.6766C126.595 20.6766 129.568 23.6554 129.568 27.3222C129.568 30.9965 126.587 34.0661 122.917 33.9678C121.207 33.9224 120.14 33.8393 118.937 32.6145L107.617 21.1151C105.014 18.4765 103.092 15.6111 99.6874 14.2653V19.4593V22.5213V38.5041C99.6874 41.1427 97.5006 43.3352 94.8523 43.3352H86.945C85.1593 43.3352 83.6611 44.6583 83.3887 46.3745H90.6603H91.9769H93.1044C96.2673 46.3745 98.8475 45.3463 100.8 42.8362C102.162 41.0897 102.812 39.1089 102.812 36.9315V22.3247V22.0374V20.7597L117.265 35.2001C118.619 36.5535 121.063 36.992 122.932 36.992C128.275 36.992 132.603 32.6674 132.603 27.3297C132.603 22.4986 128.328 17.6599 123.326 17.6599H112.142L112.127 0.263378ZM116.281 0.218018H113.232V8.5345V16.541H123.258C129.054 16.541 133.707 21.5838 133.707 27.3222C133.707 33.2798 128.872 38.1109 122.91 38.1109C121.139 38.1109 118.09 37.6044 116.463 35.9789L103.91 23.4361L103.902 37.3095C103.811 40.5832 102.51 43.2898 99.922 45.3689C97.9244 46.9793 95.6468 47.5615 93.0892 47.5615H91.9618H83.3281V50.6083H94.8371C101.488 50.6083 106.936 45.1724 106.936 38.5192V30.3842L108.306 31.866L112.203 36.0772C112.551 36.5081 112.929 36.9088 113.33 37.2944L113.338 37.3019C115.827 39.6835 119.194 41.1502 122.917 41.1502H122.925C130.567 41.1502 136.757 34.9582 136.757 27.3222C136.757 19.6861 130.56 13.4941 122.917 13.4941H116.289V0.218018H116.281Z" fill="#fff"/>
<path fill-rule="evenodd" clip-rule="evenodd" d="M70.2793 7.08297V4.021H84.1189C90.2555 4.021 96.1803 7.25686 96.1803 13.5774V19.1494L90.8079 24.9634C89.862 22.4533 87.4407 20.6691 84.6031 20.6691C80.9408 20.6691 77.9747 23.6328 77.9747 27.292C77.9747 30.9513 80.9408 33.915 84.6031 33.915H89.6123H97.3001V36.9694H84.0886C78.7465 36.9694 74.4183 32.6448 74.4183 27.3071C74.4183 21.9695 78.7465 17.6449 84.0886 17.6449C87.0321 17.6449 89.6729 18.9604 91.4435 21.032C91.557 21.1681 91.6705 21.3042 91.7764 21.4478L92.5482 20.6161V14.3032C92.5482 8.9504 89.0448 7.09053 83.6346 7.09053H70.2793V7.08297ZM84.6031 41.1201C78.073 41.1201 70.7636 34.9281 70.7636 27.292C70.7636 19.656 76.9607 13.464 84.6031 13.464C86.1543 13.464 87.645 13.721 89.0448 14.1898C88.8254 11.9292 87.4558 11.2185 84.1264 11.2185H73.8962C72.1029 11.2185 70.6122 9.89545 70.3398 8.17924H83.6422C88.1217 8.17924 91.451 9.47963 91.451 14.2881V19.4065C89.5215 17.6147 86.9337 16.5108 84.0962 16.5108C78.1336 16.5108 73.2984 21.342 73.2984 27.292C73.2984 33.2496 78.1336 38.0808 84.0962 38.0808V38.0732H97.2699C96.9975 39.7894 95.4992 41.1125 93.7135 41.1125H89.6275L84.6031 41.1201Z" fill="#fff"/>
<path fill-rule="evenodd" clip-rule="evenodd" d="M65.8553 8.32286C65.8553 8.11117 65.8175 7.89192 65.6964 7.71803C65.5829 7.55926 65.3635 7.52146 65.1819 7.52146C64.6446 7.52146 64.4933 7.85412 64.4933 8.3531C64.4933 8.54212 64.5311 8.73869 64.6749 8.86721C64.8111 8.99574 64.9851 9.0411 65.1667 9.0411C65.3559 9.0411 65.5526 9.0033 65.6888 8.85965C65.8175 8.72357 65.8553 8.51943 65.8553 8.32286ZM53.2113 7.47609L54.0436 8.54968C54.1647 8.45139 54.2782 8.34554 54.3993 8.24726C54.5052 8.15653 54.6111 8.05825 54.7019 7.9524C54.7473 7.89948 54.8079 7.83143 54.8381 7.76339C54.8533 7.72559 54.8684 7.68779 54.8684 7.64242C54.8684 7.5895 54.8533 7.55926 54.8154 7.52902C54.7473 7.47609 54.6111 7.46853 54.5279 7.46853H53.2113V7.47609ZM39.3414 9.0411V8.58748C39.3414 8.35311 39.3112 8.01288 39.1447 7.82387C39.0009 7.6651 38.8118 7.61218 38.6075 7.61218C38.4183 7.61218 38.2518 7.66511 38.1232 7.81631C37.987 7.98264 37.9492 8.20946 37.9492 8.42115C37.9492 8.51943 37.9567 8.63284 37.987 8.73113C38.0097 8.79917 38.04 8.85209 38.0929 8.89746C38.1535 8.95038 38.2443 8.98062 38.3275 9.0033C38.4713 9.03354 38.6226 9.0411 38.7664 9.0411H39.3414ZM64.062 9.52497C64.0393 9.55521 64.0166 9.59302 63.9863 9.6157C63.9106 9.69886 63.8199 9.77447 63.7215 9.82739C63.6307 9.88031 63.5247 9.91055 63.4264 9.92568C63.3356 9.9408 63.2448 9.94836 63.154 9.94836H62.927C62.7681 9.94836 62.6167 9.91811 62.473 9.86519C62.4351 9.85007 62.4049 9.83495 62.3746 9.81983C62.3595 10.0769 62.3141 10.3415 62.2157 10.5834C62.1098 10.8556 61.966 11.1051 61.7693 11.3168C61.5801 11.5209 61.3531 11.6797 61.0882 11.7931C60.8158 11.9065 60.5359 11.9594 60.2408 11.9594H59.7489C59.6581 11.9594 59.5825 11.8914 59.5825 11.8007L59.5446 11.2412C59.5446 11.1958 59.5598 11.1505 59.59 11.1127C59.6203 11.0749 59.6657 11.0597 59.7111 11.0597H60.1197C60.3391 11.0597 60.5662 11.0295 60.7629 10.9388C60.9294 10.8632 61.0731 10.7649 61.1942 10.6288C61.3077 10.5003 61.3909 10.3491 61.4439 10.1903C61.4969 10.0164 61.5271 9.83495 61.5271 9.6535V7.41561C61.5271 7.32489 61.6028 7.24928 61.6936 7.24928H62.2233C62.3141 7.24928 62.3897 7.32489 62.3897 7.41561V8.57992C62.3897 8.70844 62.4276 8.82185 62.5259 8.91258C62.6394 9.01086 62.7756 9.0411 62.927 9.0411H63.154C63.2826 9.0411 63.4339 9.01842 63.5247 8.9277C63.608 8.84453 63.6383 8.74625 63.6383 8.62528V8.30774C63.6383 7.85411 63.7442 7.40805 64.0544 7.06783C64.3571 6.73517 64.7581 6.60664 65.2046 6.60664C65.4316 6.60664 65.6586 6.63689 65.8704 6.72761C66.0596 6.81078 66.2261 6.92418 66.3623 7.08295C66.4985 7.24172 66.5893 7.42317 66.6498 7.61974C66.7179 7.83143 66.7406 8.05069 66.7406 8.26994C66.7406 8.716 66.6347 9.16207 66.3244 9.49473C66.0218 9.81983 65.6207 9.94836 65.1819 9.94836C64.9397 9.94836 64.7052 9.90299 64.4782 9.80471C64.2966 9.74423 64.1679 9.64594 64.062 9.52497ZM58.5912 11.5209H57.8951C57.8043 11.5209 57.7286 11.4453 57.7286 11.3546V10.7498C57.7286 10.659 57.8043 10.5834 57.8951 10.5834H58.5912C58.682 10.5834 58.7577 10.659 58.7577 10.7498V11.3546C58.7577 11.4378 58.682 11.5209 58.5912 11.5209ZM53.9301 9.53253C53.7788 9.64594 53.6274 9.76691 53.4912 9.89543C53.3626 10.0164 53.2491 10.1525 53.1507 10.2961C53.0751 10.4171 53.0145 10.5381 52.9767 10.6742C52.9389 10.8102 52.9237 10.9463 52.9237 11.09C52.9237 11.4075 52.9994 11.7099 53.2264 11.9368L53.2491 11.9519H52.1898C52.1822 11.9292 52.1746 11.9065 52.1671 11.8763C52.0914 11.6268 52.0536 11.3773 52.0536 11.1202C52.0536 10.6968 52.1595 10.2886 52.3789 9.92568C52.5984 9.54765 52.9389 9.22255 53.2869 8.95038L52.1065 7.43073C52.0611 7.37781 52.0611 7.30976 52.0914 7.24928L52.3865 6.68981C52.4168 6.62932 52.4697 6.59908 52.5378 6.59908H54.6641C54.9441 6.59908 55.2165 6.65957 55.4435 6.8259C55.6705 6.99223 55.7764 7.23416 55.7764 7.5139C55.7764 7.60462 55.7613 7.70291 55.7461 7.79363C55.7159 7.9146 55.6478 8.03557 55.5721 8.14141C55.4662 8.29262 55.3375 8.42871 55.2165 8.55724C55.0803 8.69332 54.9365 8.82941 54.7852 8.95794C54.7852 8.95794 54.7852 8.95794 54.7927 8.95794C54.8684 8.98818 54.9441 9.0033 55.0273 9.01842C55.1257 9.03354 55.2165 9.0411 55.3148 9.0411C55.4359 9.0411 55.557 9.04867 55.6856 9.04867H56.6314C56.8206 9.04867 57.0022 9.0411 57.1914 9.02598C57.3352 9.01086 57.4789 8.99574 57.6227 8.9655C57.7438 8.93526 57.8648 8.90502 57.9859 8.85209C58.107 8.79917 58.2205 8.73869 58.334 8.67064L59.6052 7.92972C59.5825 7.86924 59.5522 7.81631 59.5295 7.76339C59.4917 7.68779 59.4463 7.61974 59.3782 7.56682C59.3176 7.5139 59.242 7.47609 59.1587 7.44585C59.0452 7.40805 58.9166 7.40049 58.7955 7.40049H56.9417C56.8887 7.40049 56.8509 7.38537 56.813 7.34757C56.7828 7.30977 56.7676 7.2644 56.7676 7.21904L56.8206 6.64445C56.8282 6.55372 56.9038 6.49324 56.9871 6.49324H58.8712C59.0301 6.49324 59.1966 6.51592 59.3479 6.54616C59.5371 6.58396 59.7035 6.67469 59.8473 6.78809C60.0213 6.92418 60.1575 7.12075 60.271 7.30976C60.4224 7.57438 60.5132 7.89192 60.5813 8.19434C60.5964 8.26994 60.5661 8.33798 60.498 8.37578L58.682 9.43425C58.5458 9.51741 58.4021 9.59302 58.2583 9.66106C58.107 9.7291 57.9556 9.78959 57.7967 9.82739C57.6227 9.87275 57.4411 9.90299 57.267 9.91811C57.0476 9.9408 56.8358 9.94836 56.6163 9.94836H55.5948C55.4283 9.94836 55.2543 9.94836 55.0878 9.9408C54.9365 9.93324 54.7776 9.91811 54.6263 9.88031C54.4825 9.85007 54.3387 9.79715 54.2101 9.72154C54.1117 9.67618 54.0209 9.60814 53.9301 9.53253ZM50.7521 7.69535C50.8883 7.85412 51.0169 8.02801 51.0926 8.22458C51.1607 8.39091 51.1985 8.5648 51.1985 8.74625C51.1985 9.08647 51.0775 9.38132 50.8278 9.60814C50.5478 9.86519 50.177 9.94836 49.8062 9.94836H47.4908C47.4 9.94836 47.3243 9.88031 47.3243 9.78959L47.2865 9.21499C47.2865 9.16963 47.3017 9.12427 47.3319 9.08647C47.3622 9.04867 47.4076 9.03354 47.453 9.03354H49.7381C49.8743 9.03354 50.0257 9.01086 50.1316 8.9277C50.2148 8.85965 50.2527 8.77649 50.2527 8.67064C50.2527 8.6026 50.23 8.53456 50.2073 8.48163C50.177 8.40603 50.1241 8.33042 50.0635 8.26994L48.5199 6.53104C48.4594 6.463 48.4669 6.35715 48.5275 6.29666L48.9512 5.89596C48.989 5.86572 49.0269 5.8506 49.0798 5.8506C49.1252 5.8506 49.1706 5.87328 49.2009 5.91108L50.7521 7.69535ZM46.0002 4.48216H46.5374C46.6282 4.48216 46.7039 4.55777 46.7039 4.64849V9.78203C46.7039 9.87275 46.6282 9.94836 46.5374 9.94836H46.0002C45.9094 9.94836 45.8337 9.87275 45.8337 9.78203V4.64849C45.8337 4.55777 45.9094 4.48216 46.0002 4.48216ZM44.7441 6.52348H44.048C43.9572 6.52348 43.8815 6.44788 43.8815 6.35715V5.75232C43.8815 5.66159 43.9572 5.58599 44.048 5.58599H44.7441C44.8349 5.58599 44.9106 5.66159 44.9106 5.75232V6.35715C44.9106 6.44788 44.8349 6.52348 44.7441 6.52348ZM39.3112 9.95592H38.668C38.4183 9.95592 38.1535 9.93324 37.9189 9.85763C37.7297 9.79715 37.5481 9.69886 37.4195 9.54765C37.2909 9.40401 37.2076 9.23768 37.1622 9.05622C37.1168 8.85965 37.0941 8.66308 37.0941 8.46651C37.0941 8.24726 37.1244 8.02801 37.1925 7.81631C37.2606 7.61218 37.3514 7.43073 37.4876 7.2644C37.6238 7.09807 37.7903 6.96954 37.9794 6.87882C38.1913 6.77297 38.4183 6.73517 38.6529 6.73517C38.8496 6.73517 39.0463 6.76541 39.2355 6.83346C39.4247 6.9015 39.5987 7.01491 39.7349 7.15856C39.8938 7.31733 39.9998 7.5139 40.0754 7.72559C40.1662 7.98264 40.1965 8.26238 40.1965 8.53456V9.04867H41.0894C41.2256 9.04867 41.392 9.02598 41.498 8.92014C41.5963 8.82185 41.6266 8.69332 41.6266 8.5648V4.65605C41.6266 4.56533 41.7023 4.48972 41.7931 4.48972H42.3303C42.4211 4.48972 42.4968 4.56533 42.4968 4.65605V8.5648C42.4968 8.6404 42.5043 8.72357 42.5422 8.79161C42.5724 8.84453 42.6103 8.89746 42.6557 8.93526C42.7011 8.97306 42.7616 9.0033 42.8146 9.01842C42.8827 9.03354 42.9583 9.04867 43.0264 9.04867H43.6999C43.8437 9.04867 43.995 9.01842 44.1009 8.92014C44.2069 8.82941 44.2371 8.70088 44.2371 8.5648V7.42317C44.2371 7.33245 44.3128 7.25684 44.4036 7.25684H44.9408C45.0316 7.25684 45.1073 7.33245 45.1073 7.42317V8.5648C45.1073 8.95038 45.0089 9.32084 44.729 9.59302C44.4566 9.85763 44.0934 9.96348 43.7226 9.96348H43.0037C42.7919 9.96348 42.58 9.92567 42.3833 9.83495C42.2395 9.77447 42.1184 9.67618 42.0276 9.55521C41.9293 9.67618 41.8082 9.77447 41.6644 9.83495C41.4753 9.91811 41.2785 9.96348 41.0742 9.96348H40.1511C40.1284 10.1903 40.0754 10.4095 39.9922 10.6288C39.8938 10.8859 39.7425 11.1202 39.5533 11.3168C39.3641 11.5209 39.1371 11.6721 38.8874 11.7931C38.615 11.9216 38.3124 11.967 38.0097 11.967H37.132C37.0412 11.967 36.9731 11.8989 36.9655 11.8158L36.9125 11.2563C36.9049 11.2034 36.9201 11.1656 36.9579 11.1278C36.9882 11.09 37.0336 11.0749 37.0865 11.0749H37.9643C38.161 11.0749 38.3578 11.0446 38.5394 10.969C38.6907 10.901 38.8345 10.8178 38.948 10.6968C39.0615 10.5834 39.1447 10.4473 39.2052 10.2961C39.2658 10.1676 39.296 10.0618 39.3112 9.95592ZM27.7946 9.02598H29.5047C29.603 9.02598 29.7014 9.01086 29.7922 8.98062C29.883 8.95038 29.9587 8.90502 30.0268 8.84453C30.1024 8.77649 30.1554 8.69333 30.1932 8.6026C30.2386 8.48919 30.2538 8.36823 30.2538 8.24726C30.2538 8.13385 30.2386 8.01288 30.1932 7.90704C30.1554 7.80875 30.1025 7.71803 30.0344 7.63486C29.9662 7.55926 29.883 7.49877 29.7922 7.46097C29.7014 7.41561 29.5955 7.40049 29.4971 7.40049C29.1944 7.40049 28.9145 7.61218 28.7102 7.81631C28.3772 8.14141 28.067 8.6026 27.7946 9.02598ZM10.9737 7.20392H10.2549C10.043 7.20392 9.86142 7.2644 9.72522 7.42317C9.57388 7.60462 9.52848 7.84656 9.52848 8.07337C9.52848 8.23214 9.55118 8.47407 9.67981 8.57992C9.81601 8.69332 10.0203 8.716 10.1944 8.716C10.3911 8.716 10.6257 8.68576 10.7921 8.57236C10.8981 8.49675 10.9737 8.40603 10.9737 8.26994V7.20392ZM26.8033 9.02598V4.63337C26.8033 4.54265 26.879 4.46704 26.9698 4.46704H27.4995C27.5903 4.46704 27.666 4.54265 27.666 4.63337V7.15856C27.666 7.36269 27.666 7.56682 27.666 7.77095C27.666 7.77851 27.666 7.78607 27.666 7.79363C27.8551 7.53658 28.0594 7.28708 28.2789 7.07539C28.5437 6.8259 28.8539 6.6142 29.202 6.53104H29.2096C29.3836 6.5008 29.5576 6.48568 29.7317 6.51592C29.936 6.5386 30.1251 6.59152 30.2992 6.69737C30.4732 6.79566 30.617 6.92418 30.7381 7.08295C30.8591 7.24172 30.9499 7.42317 31.018 7.61218C31.0861 7.81631 31.1164 8.02801 31.1164 8.2397C31.1164 8.44383 31.0861 8.64796 31.018 8.84453C30.9499 9.04867 30.8516 9.23011 30.7154 9.38888C30.5716 9.55521 30.3976 9.68374 30.2008 9.78203C29.9738 9.89543 29.7241 9.93324 29.4744 9.93324H25.7818C25.6229 9.93324 25.4716 9.90299 25.3278 9.85007C25.2976 9.83495 25.2673 9.81983 25.237 9.80471C25.2219 10.0618 25.1765 10.3188 25.0781 10.5608C24.9722 10.8329 24.8284 11.0824 24.6317 11.2941C24.4425 11.4982 24.2155 11.657 23.9507 11.7704C23.6783 11.8838 23.3983 11.9368 23.1032 11.9368H22.8989C22.8081 11.9368 22.74 11.8687 22.7324 11.7855L22.6719 11.2261C22.6643 11.1731 22.6795 11.1353 22.7173 11.0975C22.7476 11.0597 22.793 11.0446 22.8459 11.0446H23.0124C23.2243 11.0446 23.4437 11.0144 23.6405 10.9312C23.7994 10.8556 23.9431 10.7573 24.0566 10.6212C24.1701 10.4927 24.2458 10.3415 24.2988 10.1752C24.3517 10.0013 24.382 9.81983 24.382 9.63838V7.40049C24.382 7.30977 24.4577 7.23416 24.5485 7.23416H25.0857C25.1765 7.23416 25.2522 7.30977 25.2522 7.40049V8.5648C25.2522 8.69332 25.29 8.80673 25.3884 8.89746C25.4943 8.99574 25.6381 9.02598 25.7818 9.02598H26.8033ZM22.4752 7.86168C22.4525 7.80875 22.4298 7.75583 22.3995 7.70291C22.3692 7.63486 22.3238 7.57438 22.2633 7.52902C22.2028 7.47609 22.1347 7.44585 22.059 7.42317C21.9455 7.39293 21.8093 7.38537 21.6958 7.38537H19.9554C19.9025 7.38537 19.8646 7.37025 19.8268 7.33245C19.7965 7.29464 19.7814 7.24928 19.7814 7.20392L19.8344 6.62933C19.842 6.5386 19.9176 6.47812 20.0008 6.47812H21.7563C21.9152 6.47812 22.0741 6.49324 22.233 6.52348C22.4146 6.56128 22.5811 6.63689 22.7249 6.75029C22.8989 6.88638 23.0351 7.07539 23.141 7.2644C23.2848 7.52902 23.3756 7.85412 23.4437 8.14897C23.4588 8.22458 23.4286 8.29262 23.3605 8.33042L21.7185 9.28304C21.3402 9.50229 20.8862 9.80471 20.6138 10.1449C20.4246 10.3793 20.3111 10.6515 20.3111 10.9539C20.3111 11.2941 20.3868 11.6495 20.6365 11.8989C20.6516 11.9141 20.6667 11.9216 20.6819 11.9368H19.5998C19.5847 11.8989 19.5695 11.8611 19.5544 11.8158C19.4712 11.5587 19.4333 11.2866 19.4333 11.0219C19.4333 10.7876 19.4636 10.5532 19.5317 10.3339C19.5998 10.1071 19.7133 9.89543 19.8495 9.70642C20.0084 9.48717 20.2052 9.29816 20.4095 9.13183C20.6667 8.92014 20.9467 8.73869 21.2342 8.57236L22.4752 7.86168ZM16.1267 9.02598H17.0877C17.2239 9.02598 17.3676 8.99574 17.4811 8.90502C17.5795 8.82185 17.6098 8.71601 17.6098 8.58748V4.63337C17.6098 4.54265 17.6854 4.46704 17.7762 4.46704H18.3135C18.4043 4.46704 18.4799 4.54265 18.4799 4.63337V8.63284C18.4799 8.82185 18.4497 9.01086 18.374 9.18475C18.3059 9.34352 18.2075 9.47961 18.0865 9.60058C17.9578 9.71398 17.8141 9.79715 17.6552 9.85763C17.4887 9.91812 17.3147 9.9408 17.1331 9.9408H15.4154C15.3246 9.9408 15.2489 9.86519 15.2489 9.77447V4.64093C15.2489 4.55021 15.3246 4.4746 15.4154 4.4746H15.9526C16.0434 4.4746 16.1191 4.55021 16.1191 4.64093V9.02598H16.1267ZM13.0848 11.4831H12.4492C12.3584 11.4831 12.2828 11.4075 12.2828 11.3168V10.7271C12.2828 10.6364 12.3584 10.5608 12.4492 10.5608H13.0848C13.1756 10.5608 13.2513 10.6364 13.2513 10.7271V11.3168C13.2513 11.4075 13.1756 11.4831 13.0848 11.4831ZM14.1593 11.4831H13.5313C13.4405 11.4831 13.3648 11.4075 13.3648 11.3168V10.7271C13.3648 10.6364 13.4405 10.5608 13.5313 10.5608H14.1593C14.2501 10.5608 14.3258 10.6364 14.3258 10.7271V11.3168C14.3334 11.4075 14.2577 11.4831 14.1593 11.4831ZM11.2007 9.32084C11.1705 9.34352 11.1402 9.35864 11.1099 9.37376C11.004 9.43425 10.8829 9.48717 10.7619 9.51741C10.6484 9.54765 10.5273 9.57033 10.4138 9.58546C10.3078 9.59302 10.2019 9.60058 10.096 9.60058C9.71765 9.60058 9.33175 9.50985 9.05178 9.23768C8.75668 8.95038 8.68101 8.52699 8.68101 8.13385C8.68101 7.9146 8.71127 7.69535 8.7718 7.48366C8.83234 7.27196 8.93071 7.07539 9.05934 6.9015C9.18798 6.72761 9.35444 6.58396 9.55118 6.47812C9.76305 6.36471 10.0052 6.31935 10.2473 6.31935H10.9737V5.91864C10.9737 5.82792 11.0494 5.75232 11.1402 5.75232H11.6623C11.7531 5.75232 11.8288 5.82792 11.8288 5.91864V8.38335C11.8288 8.54968 11.8515 8.73112 11.9423 8.87477C12.0179 8.99574 12.1768 9.01842 12.313 9.01842H13.1227C13.2664 9.01842 13.4178 8.98818 13.5313 8.88989C13.6372 8.79917 13.6675 8.67064 13.6675 8.53456V7.39293C13.6675 7.3022 13.7432 7.2266 13.834 7.2266H14.3712C14.462 7.2266 14.5377 7.3022 14.5377 7.39293V8.53456C14.5377 8.92014 14.4393 9.2906 14.1593 9.56278C13.8869 9.82739 13.5237 9.93324 13.153 9.93324H12.3055C12.0406 9.93324 11.7834 9.88031 11.5564 9.75179C11.3975 9.6535 11.284 9.49473 11.2007 9.32084ZM6.17642 11.5058H5.48027C5.38947 11.5058 5.3138 11.4302 5.3138 11.3395V10.7346C5.3138 10.6439 5.38947 10.5683 5.48027 10.5683H6.17642C6.26722 10.5683 6.34288 10.6515 6.34288 10.7346V11.3395C6.35045 11.4226 6.27478 11.5058 6.17642 11.5058ZM4.82197 9.9408C4.66307 9.9408 4.50417 9.91812 4.3604 9.87275C4.2015 9.82739 4.05772 9.73666 3.93666 9.62326C3.80802 9.50229 3.70966 9.33596 3.64912 9.16963C3.57345 8.9655 3.55076 8.72357 3.55076 8.50431V4.64849C3.55076 4.55777 3.62642 4.48216 3.71723 4.48216H4.25446C4.34526 4.48216 4.42093 4.56533 4.42093 4.64849V8.40603C4.42093 8.5648 4.4512 8.74625 4.542 8.88989C4.62523 9.01086 4.76144 9.0411 4.9052 9.0411H5.83591C5.97968 9.0411 6.13101 9.01086 6.23695 8.91258C6.33531 8.82185 6.37315 8.69332 6.37315 8.55724V7.41561C6.37315 7.32489 6.44882 7.24928 6.53962 7.24928H7.07685C7.16766 7.24928 7.24332 7.33245 7.24332 7.41561V8.55724C7.24332 8.93526 7.14496 9.31328 6.86499 9.58546C6.59258 9.85007 6.22938 9.95592 5.85861 9.95592H4.82197V9.9408ZM2.71085 6.50836H2.01471C1.92391 6.50836 1.84824 6.43275 1.84824 6.34203V5.73719C1.84824 5.64647 1.92391 5.57086 2.01471 5.57086H2.71085C2.80165 5.57086 2.87732 5.65403 2.87732 5.73719V6.34203C2.88488 6.43275 2.80165 6.50836 2.71085 6.50836ZM2.84705 9.63838C2.84705 9.95592 2.79408 10.2735 2.68058 10.5759C2.57465 10.8405 2.42331 11.0975 2.22658 11.3017C2.03741 11.5058 1.80284 11.6646 1.54557 11.778C1.28073 11.8914 0.985628 11.9443 0.698092 11.9443H0.206253C0.123018 11.9443 0.0397891 11.8763 0.0397891 11.7855L0.00195312 11.2261C0.00195312 11.1807 0.0170848 11.1353 0.0473517 11.0975C0.0776187 11.0673 0.123022 11.0446 0.168422 11.0446H0.577027C0.796463 11.0446 1.02346 11.0144 1.2202 10.9237C1.3791 10.8556 1.538 10.7498 1.6515 10.6137C1.765 10.4851 1.84824 10.3339 1.90121 10.1752C1.95417 10.0013 1.98444 9.81983 1.98444 9.63838V7.40049C1.98444 7.30977 2.0601 7.23416 2.1509 7.23416H2.68058C2.77138 7.23416 2.84705 7.31733 2.84705 7.40049V9.63838ZM36.0802 7.69535C36.2164 7.85412 36.345 8.02801 36.4207 8.22458C36.4888 8.39091 36.5266 8.5648 36.5266 8.74625C36.5266 9.08647 36.4055 9.38132 36.1558 9.60814C35.8759 9.86519 35.5051 9.94836 35.1343 9.94836H32.8189C32.7281 9.94836 32.6524 9.88031 32.6524 9.78959L32.6146 9.21499C32.6146 9.16963 32.6297 9.12427 32.66 9.08647C32.6903 9.04867 32.7357 9.03354 32.7811 9.03354H35.0662C35.2024 9.03354 35.3538 9.01086 35.4597 8.9277C35.5429 8.85965 35.5732 8.77649 35.5732 8.67064C35.5732 8.6026 35.5505 8.53456 35.5278 8.48163C35.4975 8.39847 35.4446 8.33042 35.384 8.26994L33.8404 6.53104C33.7799 6.463 33.7874 6.35715 33.848 6.29666L34.2717 5.89596C34.3096 5.86572 34.3474 5.8506 34.4004 5.8506C34.4458 5.8506 34.4912 5.87328 34.5214 5.91108L36.0802 7.69535Z" fill="#ffffff"/>
<path fill-rule="evenodd" clip-rule="evenodd" d="M63.7498 13.5397H66.8219V27.3224C66.8219 34.9358 60.6247 41.1051 52.9747 41.1051C48.919 41.1051 45.2642 39.3662 42.7294 36.5991C40.1945 39.3662 36.5473 41.1051 32.484 41.1051C28.1331 41.1051 22.2008 38.2472 20.468 34.1722C19.4238 31.7226 17.0252 30.0895 14.3314 30.0895H14.3011V30.0669C10.6237 30.0669 7.64241 33.0305 7.64241 36.6974C7.64241 40.3566 10.6237 43.3279 14.3011 43.3279L19.3406 43.3052L27.036 43.3279V46.3445H14.3011V46.3369C8.95145 46.3369 4.62328 42.0199 4.62328 36.7049C4.62328 31.3824 8.95902 27.0729 14.3011 27.0729C17.8726 27.0729 20.9901 28.9933 22.67 31.8587H22.6775C23.3358 33.2422 24.3271 34.467 25.6512 35.5255C27.6489 37.1283 29.934 37.907 32.4916 37.907C35.9344 37.907 38.7417 36.6066 40.9058 33.9378C41.7154 32.9398 42.3132 31.8662 42.7067 30.7246C43.1002 31.8662 43.7055 32.9398 44.5076 33.9378C46.6717 36.6066 49.4789 37.907 52.9218 37.907C55.4793 37.907 57.7645 37.1359 59.7621 35.5255C62.3499 33.4464 63.6514 30.7549 63.7422 27.4888L63.7498 13.5397ZM43.2893 13.5397H46.3311V27.3224C46.3311 30.9665 49.3049 33.9227 52.9672 33.9227C56.6295 33.9227 59.6032 30.9665 59.6032 27.3224V17.131C59.6032 15.3543 60.9198 13.8648 62.6375 13.5851V27.1107C62.6375 29.2806 61.9867 31.2614 60.6247 33.0003C58.6725 35.5028 56.0922 36.72 52.9218 36.72C50.7577 36.72 48.7676 36.0925 47.0273 34.777C44.5151 32.8793 43.2893 30.3088 43.2893 27.1107V13.5397ZM0 16.5337V13.4944H13.8471C19.9913 13.4944 25.9161 16.7151 25.9161 23.0205V28.2826C26.3777 31.4731 29.1471 33.9302 32.484 33.9302C36.1463 33.9302 39.12 30.9741 39.12 27.33V17.131C39.12 15.3618 40.4215 13.8875 42.1165 13.5927V27.1183C42.1165 30.3164 40.8982 32.8869 38.3785 34.7846C36.6306 36.1001 34.6405 36.7276 32.484 36.7276C29.3135 36.7276 26.7409 35.5104 24.7811 33.0079C23.4191 31.269 22.7683 29.2881 22.7683 27.1183V26.899V23.7237C22.7683 18.386 19.2649 16.5337 13.8471 16.5337H0ZM14.3314 50.4725H14.3011C6.65116 50.4725 0.454003 44.3032 0.454003 36.6898C0.454003 29.0764 6.65116 22.9071 14.3011 22.9071H14.3314C15.8826 22.9071 17.3808 23.1642 18.7731 23.6329C18.5536 21.3799 17.1841 20.6692 13.8471 20.6692H3.60177C1.80845 20.6692 0.302672 19.3462 0.037836 17.6299H13.8471C18.3266 17.6299 21.6636 18.9228 21.6636 23.7237V26.899V27.2544V27.4812C21.6787 27.9877 21.7165 28.4716 21.7922 28.9479C19.8476 27.088 17.2068 25.9389 14.3011 25.9389C8.33854 25.9389 3.49584 30.7549 3.49584 36.6898C3.49584 42.6247 8.33098 47.4407 14.3011 47.4407V47.4332H26.9906C26.7182 49.1494 25.2199 50.4725 23.4266 50.4725H19.3406H14.3314Z" fill="#ffffff"/>
<path fill-rule="evenodd" clip-rule="evenodd" d="M62.6319 45.8682C62.3594 45.596 61.9811 45.4297 61.5649 45.4297C61.1488 45.4297 60.7704 45.596 60.498 45.8682C60.2256 46.1403 60.0516 46.5184 60.0516 46.9342C60.0516 47.35 60.2181 47.728 60.4905 48.0002C60.7629 48.2724 61.1412 48.4387 61.5574 48.4387C61.9735 48.4387 62.3519 48.2724 62.6243 48.0002C62.8967 47.728 63.0632 47.35 63.0632 46.9342C63.0707 46.5184 62.9043 46.1403 62.6319 45.8682ZM61.5649 44.7946C62.1627 44.7946 62.7 45.0365 63.0859 45.4221C63.4718 45.8077 63.7139 46.3445 63.7139 46.9342C63.7139 47.5239 63.4718 48.0607 63.0859 48.4463C62.6924 48.8319 62.1551 49.0738 61.5649 49.0738C60.9747 49.0738 60.4299 48.8319 60.044 48.4463C59.6506 48.0607 59.4084 47.5239 59.4084 46.9342C59.4084 46.3445 59.6506 45.8077 60.0365 45.4221C60.4299 45.029 60.9672 44.7946 61.5649 44.7946ZM61.5649 43.5396C63.4491 43.5396 64.9775 45.0592 64.9775 46.9342C64.9775 48.8092 63.4491 50.3288 61.5649 50.3288C59.6808 50.3288 58.1523 48.8092 58.1523 46.9342C58.1523 45.0592 59.6808 43.5396 61.5649 43.5396Z" fill="#ffffff"/>
<path fill-rule="evenodd" clip-rule="evenodd" d="M57.073 45.8682C56.8006 45.596 56.4223 45.4297 56.0061 45.4297C55.5899 45.4297 55.2116 45.596 54.9392 45.8682C54.6668 46.1403 54.4928 46.5184 54.4928 46.9342C54.4928 47.35 54.6592 47.728 54.9316 48.0002C55.204 48.2724 55.5824 48.4387 55.9985 48.4387C56.4147 48.4387 56.793 48.2724 57.0654 48.0002C57.3378 47.728 57.5043 47.35 57.5043 46.9342C57.5119 46.5184 57.3454 46.1403 57.073 45.8682ZM55.9985 44.7946C56.5963 44.7946 57.1336 45.0365 57.5195 45.4221C57.9054 45.8077 58.1475 46.3445 58.1475 46.9342C58.1475 47.5239 57.9054 48.0607 57.5195 48.4463C57.126 48.8319 56.5887 49.0738 55.9985 49.0738C55.4083 49.0738 54.8635 48.8319 54.4776 48.4463C54.0842 48.0607 53.842 47.5239 53.842 46.9342C53.842 46.3445 54.0842 45.8077 54.4701 45.4221C54.8711 45.029 55.4083 44.7946 55.9985 44.7946ZM55.9985 43.5396C57.8827 43.5396 59.4111 45.0592 59.4111 46.9342C59.4111 48.8092 57.8827 50.3288 55.9985 50.3288C54.1144 50.3288 52.5859 48.8092 52.5859 46.9342C52.5935 45.0592 54.122 43.5396 55.9985 43.5396Z" fill="#ffffff"/>
<path fill-rule="evenodd" clip-rule="evenodd" d="M51.5125 45.8682C51.2401 45.596 50.8617 45.4297 50.4456 45.4297C50.0294 45.4297 49.6511 45.596 49.3786 45.8682C49.1062 46.1403 48.9398 46.5184 48.9398 46.9342C48.9398 47.35 49.1062 47.728 49.3786 48.0002C49.6511 48.2724 50.0294 48.4387 50.4456 48.4387C50.8617 48.4387 51.2401 48.2724 51.5125 48.0002C51.7849 47.728 51.9513 47.35 51.9513 46.9342C51.9513 46.5184 51.7849 46.1403 51.5125 45.8682ZM50.438 44.7946C51.0358 44.7946 51.573 45.0365 51.9589 45.4221C52.3448 45.8077 52.5869 46.3445 52.5869 46.9342C52.5869 47.5239 52.3448 48.0607 51.9589 48.4463C51.5654 48.8319 51.0282 49.0738 50.438 49.0738C49.8478 49.0738 49.303 48.8319 48.9171 48.4463C48.5236 48.0607 48.2815 47.5239 48.2815 46.9342C48.2815 46.3445 48.5236 45.8077 48.9095 45.4221C49.3106 45.029 49.8478 44.7946 50.438 44.7946ZM50.438 43.5396C52.3221 43.5396 53.8506 45.0592 53.8506 46.9342C53.8506 48.8092 52.3221 50.3288 50.438 50.3288C48.5539 50.3288 47.0254 48.8092 47.0254 46.9342C47.033 45.0592 48.5539 43.5396 50.438 43.5396Z" fill="#ffffff"/>
<path fill-rule="evenodd" clip-rule="evenodd" d="M39.833 45.8682C39.5606 45.596 39.1823 45.4297 38.7661 45.4297C38.35 45.4297 37.9716 45.596 37.6992 45.8682C37.4268 46.1403 37.2603 46.5184 37.2603 46.9342C37.2603 47.35 37.4268 47.728 37.6992 48.0002C37.9716 48.2724 38.35 48.4387 38.7661 48.4387C39.1823 48.4387 39.5606 48.2724 39.833 48.0002C40.1054 47.728 40.2719 47.35 40.2719 46.9342C40.2795 46.5184 40.1054 46.1403 39.833 45.8682ZM38.7661 44.7946C39.3639 44.7946 39.9011 45.0365 40.287 45.4221C40.6729 45.8077 40.9151 46.3445 40.9151 46.9342C40.9151 47.5239 40.6729 48.0607 40.287 48.4463C39.8936 48.8319 39.3563 49.0738 38.7661 49.0738C38.1759 49.0738 37.6311 48.8319 37.2452 48.4463C36.8517 48.0607 36.6096 47.5239 36.6096 46.9342C36.6096 46.3445 36.8517 45.8077 37.2376 45.4221C37.6311 45.029 38.1684 44.7946 38.7661 44.7946ZM38.7661 43.5396C40.6502 43.5396 42.1787 45.0592 42.1787 46.9342C42.1787 48.8092 40.6502 50.3288 38.7661 50.3288C36.882 50.3288 35.3535 48.8092 35.3535 46.9342C35.3535 45.0592 36.882 43.5396 38.7661 43.5396Z" fill="#ffffff"/>
<path fill-rule="evenodd" clip-rule="evenodd" d="M34.2764 45.8682C34.004 45.596 33.6256 45.4297 33.2095 45.4297C32.7933 45.4297 32.415 45.596 32.1426 45.8682C31.8702 46.1403 31.7037 46.5184 31.7037 46.9342C31.7037 47.35 31.8702 47.728 32.1426 48.0002C32.415 48.2724 32.7933 48.4387 33.2095 48.4387C33.6256 48.4387 34.004 48.2724 34.2764 48.0002C34.5488 47.728 34.7153 47.35 34.7153 46.9342C34.7228 46.5184 34.5488 46.1403 34.2764 45.8682ZM33.2095 44.7946C33.8072 44.7946 34.3445 45.0365 34.7304 45.4221C35.1163 45.8077 35.3584 46.3445 35.3584 46.9342C35.3584 47.5239 35.1163 48.0607 34.7304 48.4463C34.3369 48.8319 33.7997 49.0738 33.2095 49.0738C32.6193 49.0738 32.0745 48.8319 31.6886 48.4463C31.2951 48.0607 31.0529 47.5239 31.0529 46.9342C31.0529 46.3445 31.2951 45.8077 31.681 45.4221C32.0745 45.029 32.6117 44.7946 33.2095 44.7946ZM33.2095 43.5396C35.0936 43.5396 36.6221 45.0592 36.6221 46.9342C36.6221 48.8092 35.0936 50.3288 33.2095 50.3288C31.3254 50.3288 29.7969 48.8092 29.7969 46.9342C29.7969 45.0592 31.3254 43.5396 33.2095 43.5396Z" fill="#ffffff"/>
<path fill-rule="evenodd" clip-rule="evenodd" d="M17.8598 34.1873C17.6177 33.9454 17.2847 33.7942 16.9139 33.7942C16.5432 33.7942 16.2102 33.9454 15.9681 34.1873C15.726 34.4292 15.5746 34.7619 15.5746 35.1248C15.5746 35.4953 15.726 35.8279 15.9681 36.0623C16.2102 36.3042 16.5432 36.4479 16.9139 36.4479C17.2847 36.4479 17.6177 36.2967 17.8598 36.0623C18.1019 35.8203 18.2533 35.4877 18.2533 35.1248C18.2457 34.7619 18.1019 34.4292 17.8598 34.1873ZM16.9139 33.2347C17.4361 33.2347 17.9128 33.4464 18.2608 33.7866C18.6013 34.1268 18.8208 34.6031 18.8208 35.1248C18.8208 35.6465 18.6089 36.1228 18.2608 36.463C17.9128 36.8032 17.4361 37.0225 16.9139 37.0225C16.3918 37.0225 15.9151 36.8108 15.5671 36.4705C15.219 36.1303 15.0071 35.654 15.0071 35.1324C15.0071 34.6107 15.219 34.1344 15.5671 33.7942C15.9076 33.4464 16.3843 33.2347 16.9139 33.2347ZM16.9139 32.1309C18.5786 32.1309 19.9255 33.4766 19.9255 35.1324C19.9255 36.7881 18.5786 38.1338 16.9139 38.1338C15.2493 38.1338 13.9024 36.7881 13.9024 35.1324C13.8948 33.4691 15.2493 32.1309 16.9139 32.1309Z" fill="#ffffff"/>
<path fill-rule="evenodd" clip-rule="evenodd" d="M12.9379 34.1873C12.6957 33.9454 12.3628 33.7942 11.992 33.7942C11.6213 33.7942 11.2883 33.9454 11.0462 34.1873C10.8041 34.4292 10.6527 34.7619 10.6527 35.1248C10.6527 35.4953 10.8041 35.8279 11.0462 36.0623C11.2883 36.3042 11.6213 36.4479 11.992 36.4479C12.3628 36.4479 12.6957 36.2967 12.9379 36.0623C13.18 35.8203 13.3313 35.4877 13.3313 35.1248C13.3313 34.7619 13.18 34.4292 12.9379 34.1873ZM11.992 33.2347C12.5141 33.2347 12.9908 33.4464 13.3389 33.7866C13.687 34.1268 13.8988 34.6031 13.8988 35.1248C13.8988 35.6465 13.687 36.1228 13.3389 36.463C12.9908 36.8032 12.5141 37.0225 11.992 37.0225C11.4699 37.0225 10.9932 36.8108 10.6452 36.4705C10.2971 36.1303 10.0852 35.654 10.0852 35.1324C10.0852 34.6107 10.2971 34.1344 10.6452 33.7942C10.9932 33.4464 11.4624 33.2347 11.992 33.2347ZM11.992 32.1309C13.6567 32.1309 15.0036 33.4766 15.0036 35.1324C15.0036 36.7881 13.6567 38.1338 11.992 38.1338C10.3274 38.1338 8.98047 36.7881 8.98047 35.1324C8.98047 33.4691 10.3274 32.1309 11.992 32.1309Z" fill="#ffffff"/>
<path fill-rule="evenodd" clip-rule="evenodd" d="M15.4027 38.4664C15.1606 38.2244 14.8276 38.0732 14.4569 38.0732C14.0861 38.0732 13.7532 38.2244 13.511 38.4664C13.2689 38.7083 13.1176 39.0409 13.1176 39.4038C13.1176 39.7743 13.2689 40.107 13.511 40.3413C13.7532 40.5833 14.0861 40.7269 14.4569 40.7269C14.8276 40.7269 15.1606 40.5757 15.4027 40.3413C15.6449 40.0994 15.7962 39.7668 15.7962 39.4038C15.7962 39.0409 15.6449 38.7083 15.4027 38.4664ZM14.4569 37.5137C14.979 37.5137 15.4557 37.7254 15.8038 38.0656C16.1443 38.4059 16.3637 38.8822 16.3637 39.4038C16.3637 39.9255 16.1518 40.4018 15.8038 40.742C15.4557 41.0823 14.979 41.3015 14.4569 41.3015C13.9348 41.3015 13.4581 41.0898 13.11 40.7496C12.7619 40.4094 12.5501 39.9331 12.5501 39.4114C12.5501 38.8897 12.7619 38.4134 13.11 38.0732C13.4581 37.7254 13.9348 37.5137 14.4569 37.5137ZM14.4569 36.4099C16.1216 36.4099 17.4684 37.7557 17.4684 39.4114C17.4684 41.0671 16.1216 42.4129 14.4569 42.4129C12.7922 42.4129 11.4453 41.0671 11.4453 39.4114C11.4453 37.7481 12.7922 36.4099 14.4569 36.4099Z" fill="#ffffff"/>
</svg>
