<svg width="221" height="56" viewBox="0 0 221 56" fill="none" xmlns="http://www.w3.org/2000/svg">
<path fill-rule="evenodd" clip-rule="evenodd" d="M218.351 43.6369C218.193 43.4633 218.036 43.3062 217.854 43.1409L209.935 35.2286L210.035 34.9805C210.936 32.7978 211.392 30.4663 211.392 28.1017C211.392 25.6709 210.912 23.2733 209.952 21.0327L209.844 20.7846L213.469 17.1633L219.997 1.56193C220.345 0.735148 219.915 0.759951 219.228 1.05759L203.671 7.78761L200.088 11.3676L199.848 11.2766C197.763 10.4664 195.554 10.0613 193.311 10.0613C190.572 10.0613 187.875 10.6731 185.417 11.8719L185.243 11.9546L185.07 11.8719C182.604 10.6731 179.914 10.0613 177.176 10.0613C174.867 10.0613 172.583 10.4995 170.44 11.3593L170.192 11.4585L161.892 3.16589C161.793 3.05841 161.694 2.9592 161.586 2.85998L161.578 2.85171C160.32 1.66114 158.657 1.01625 156.927 1.01625C153.171 1.01625 150.117 4.05882 150.117 7.82068C150.117 9.51559 150.746 11.1278 151.88 12.3845C152.029 12.5499 152.194 12.7152 152.376 12.8806L160.535 21.0327L160.436 21.2807C159.542 23.4552 159.095 25.7702 159.095 28.1182C159.095 30.4994 159.559 32.8392 160.469 35.0384L160.568 35.2864L156.969 38.8829L150.399 54.6001C150.051 55.4269 150.481 55.4021 151.168 55.1044L166.725 48.3744L170.299 44.8027L170.547 44.9019C172.658 45.737 174.908 46.1586 177.176 46.1586C179.914 46.1586 182.612 45.5468 185.07 44.348L185.243 44.2653L185.417 44.348C187.883 45.5468 190.572 46.1586 193.311 46.1586C195.603 46.1586 197.879 45.7287 200.006 44.8771L200.254 44.7779L208.33 52.8473C208.429 52.9548 208.529 53.054 208.636 53.1532L208.644 53.1615C209.902 54.3521 211.557 54.997 213.295 54.997C217.051 54.997 220.105 51.9544 220.105 48.1925C220.113 46.5059 219.493 44.8854 218.351 43.6369Z" fill="#33D1E7"/>
<path fill-rule="evenodd" clip-rule="evenodd" d="M177.283 21.4047C173.601 21.4047 170.622 24.3894 170.622 28.0603C170.622 29.9868 171.441 31.7974 172.889 33.0624L172.898 33.0707L178.152 38.3207H177.176C171.524 38.3207 166.94 33.7403 166.94 28.0934C166.94 22.4465 171.524 17.8661 177.176 17.8661C179.807 17.8661 182.306 18.8665 184.226 20.6772L187.494 23.943L185.045 26.3902L182.157 23.5048C180.891 22.1654 179.137 21.4047 177.283 21.4047ZM161.95 37.8247C162.413 38.544 162.926 39.2302 163.481 39.8751L163.721 40.1562L161.073 42.8019L160.808 38.2794L161.677 37.4113L161.95 37.8247ZM165.632 41.9916C166.286 42.5373 166.981 43.0334 167.709 43.4799L168.14 43.7444L167.163 44.72L163.382 44.5216L162.984 44.1247L165.359 41.7519L165.632 41.9916ZM159.31 46.2165L164.341 47.0268L154.255 51.4087L158.574 41.0987L159.31 46.2165ZM196.092 31.3757C195.256 32.062 194.221 32.4258 193.137 32.4258C192.492 32.4258 191.863 32.2935 191.276 32.0372L190.738 31.8057L209.331 13.2278L209.604 17.9322L196.15 31.3757H196.092ZM207.784 11.6735L189.099 30.3423L186.625 27.9281L203.133 11.4337L207.784 11.6735ZM211.102 9.94552L206.071 9.13527L216.158 4.75332L211.838 15.0633L211.102 9.94552ZM205.293 41.6279L207.908 44.2405L205.285 46.8614L202.24 43.8188L202.678 43.5543C203.497 43.0582 204.284 42.496 205.012 41.8676L205.293 41.6279ZM208.951 37.1798L211.963 40.1893L209.373 42.7771L206.766 40.1727L207.006 39.8916C207.627 39.1806 208.181 38.4117 208.677 37.6097L208.951 37.1798ZM217.142 45.4393C217.722 46.2413 218.028 47.2004 218.028 48.1925C218.028 50.8052 215.91 52.9135 213.303 52.9135C212.26 52.9135 211.267 52.5745 210.448 51.9544L210.423 51.9792L206.766 48.3248L213.444 41.6527L217.192 45.398L217.142 45.4393ZM165.177 14.592L162.339 11.7562L164.962 9.13527L168.231 12.4011L167.8 12.6656C166.981 13.1617 166.203 13.7322 165.467 14.3523L165.177 14.592ZM161.528 19.0567L158.284 15.8157L160.874 13.2278L163.713 16.0637L163.473 16.3448C162.86 17.0641 162.298 17.8248 161.801 18.6267L161.528 19.0567ZM153.104 10.5656C152.525 9.76362 152.211 8.80456 152.211 7.80415C152.211 5.19978 154.329 3.08321 156.936 3.08321C157.978 3.08321 158.971 3.42219 159.79 4.04228L159.815 4.01748L163.473 7.67186L156.795 14.344L153.055 10.6069L153.104 10.5656ZM190.514 15.9149C189.761 15.0964 188.934 14.344 188.04 13.666L187.436 13.2113L188.148 12.9715C189.811 12.4011 191.557 12.12 193.32 12.12C194.85 12.12 196.373 12.3349 197.846 12.7731L198.491 12.9633L195.471 15.981L195.272 15.948C194.627 15.8487 193.982 15.7991 193.328 15.7991C192.509 15.7991 191.689 15.8818 190.887 16.0389L190.663 16.0802L190.514 15.9149ZM180.543 37.7668L177.531 34.7656H177.556L174.172 31.3675C173.262 30.5076 172.749 29.3253 172.749 28.0686C172.749 27.3989 172.898 26.7375 173.187 26.1257L173.427 25.6131L184.714 36.8904C187.022 39.1475 190.092 40.4042 193.328 40.4042C200.13 40.4042 205.641 34.8978 205.641 28.1017C205.641 27.2336 205.55 26.3654 205.368 25.5221L205.326 25.3072L208.272 22.3638L208.479 22.9756C209.042 24.6292 209.323 26.3572 209.323 28.1017C209.323 36.9235 202.165 44.0834 193.328 44.0834C190.945 44.0834 188.595 43.5625 186.443 42.5291C185.972 42.3058 185.516 42.0495 185.061 41.785L185.045 41.7767C184.482 41.4294 183.936 41.0574 183.423 40.6523L183.406 40.6357L182.463 39.6932L180.543 37.7668ZM179.989 40.2885C180.61 40.9664 181.28 41.5948 182 42.1735L182.016 42.1901L182.885 43.0499L182.273 43.2566C180.634 43.8106 178.913 44.0834 177.184 44.0834C168.355 44.0834 161.189 36.9317 161.189 28.1017C161.189 19.2799 168.346 12.12 177.184 12.12C179.062 12.12 180.932 12.4424 182.695 13.0956C183.63 13.4428 184.557 13.9058 185.425 14.4101C187.718 15.7909 189.637 17.7338 190.986 20.0405L191.143 20.3051L188.967 22.4796L186.063 19.5775C185.947 19.4535 185.831 19.3378 185.715 19.2303L185.707 19.222C183.406 17.0145 180.37 15.7991 177.184 15.7991C170.382 15.7991 164.871 21.3055 164.871 28.1017C164.871 34.8978 170.382 40.4042 177.184 40.4042C178.003 40.4042 178.822 40.3215 179.625 40.1645L179.848 40.1231L179.989 40.2885ZM180.618 24.9847L188.255 32.6159L188.992 33.2525C190.192 34.1537 191.64 34.6415 193.137 34.6415C194.883 34.6415 196.563 33.9966 197.829 32.7978L197.838 32.7895C197.945 32.6821 198.053 32.5829 198.169 32.4588L203.555 27.0765V28.1017C203.572 33.7569 198.971 38.329 193.32 38.329C190.639 38.329 188.09 37.2872 186.17 35.4187L174.9 24.1579L175.43 23.9182C176.009 23.6619 176.638 23.5296 177.275 23.5296C178.557 23.5296 179.757 24.0587 180.618 24.9847ZM218.351 43.6369C218.193 43.4633 218.036 43.3062 217.854 43.1409L209.935 35.2286L210.035 34.9805C210.936 32.7978 211.392 30.4663 211.392 28.1017C211.392 25.6709 210.912 23.2733 209.952 21.0327L209.844 20.7846L213.469 17.1633L219.997 1.56193C220.345 0.735148 219.915 0.759951 219.228 1.05759L203.671 7.78761L200.088 11.3676L199.848 11.2766C197.763 10.4664 195.554 10.0613 193.311 10.0613C190.572 10.0613 187.875 10.6731 185.417 11.8719L185.243 11.9546L185.07 11.8719C182.604 10.6731 179.914 10.0613 177.176 10.0613C174.867 10.0613 172.583 10.4995 170.44 11.3593L170.192 11.4585L161.892 3.16589C161.793 3.05841 161.694 2.9592 161.586 2.85998L161.578 2.85171C160.32 1.66114 158.657 1.01625 156.927 1.01625C153.171 1.01625 150.117 4.05882 150.117 7.82068C150.117 9.51559 150.746 11.1278 151.88 12.3845C152.029 12.5499 152.194 12.7152 152.376 12.8806L160.535 21.0327L160.436 21.2807C159.542 23.4552 159.095 25.7702 159.095 28.1182C159.095 30.4994 159.559 32.8392 160.469 35.0384L160.568 35.2864L156.969 38.8829L150.399 54.6001C150.051 55.4269 150.481 55.4021 151.168 55.1044L166.725 48.3744L170.299 44.8027L170.547 44.9019C172.658 45.737 174.908 46.1586 177.176 46.1586C179.914 46.1586 182.612 45.5468 185.07 44.348L185.243 44.2653L185.417 44.348C187.883 45.5468 190.572 46.1586 193.311 46.1586C195.603 46.1586 197.879 45.7287 200.006 44.8771L200.254 44.7779L208.33 52.8473C208.429 52.9548 208.529 53.054 208.636 53.1532L208.644 53.1615C209.902 54.3521 211.557 54.997 213.295 54.997C217.051 54.997 220.105 51.9544 220.105 48.1925C220.113 46.5059 219.493 44.8854 218.351 43.6369Z" fill="#464646"/>
<path fill-rule="evenodd" clip-rule="evenodd" d="M217.158 45.4889C217.738 46.2909 218.044 47.25 218.044 48.2421C218.044 50.8547 215.925 52.963 213.319 52.963C212.276 52.963 211.283 52.6241 210.464 52.004L210.439 52.0288L206.782 48.3744L213.46 41.7023L217.208 45.4476L217.158 45.4889ZM211.118 9.99512L206.087 9.18487L216.174 4.80292L211.854 15.1129L211.118 9.99512ZM153.12 10.6152C152.541 9.81322 152.227 8.85416 152.227 7.85375C152.227 5.24938 154.345 3.13281 156.951 3.13281C157.994 3.13281 158.987 3.47179 159.806 4.09188L159.831 4.06708L163.488 7.72146L156.811 14.3936L153.071 10.6565L153.12 10.6152ZM159.318 46.2661L164.349 47.0764L154.262 51.4583L158.582 41.1483L159.318 46.2661Z" fill="white"/>
<path fill-rule="evenodd" clip-rule="evenodd" d="M122.611 0.049605C120.724 0.338979 119.276 1.98428 119.276 3.94376V14.5266V15.1301V18.4621C119.276 20.6282 121.047 22.3976 123.215 22.3976H126.905H134.411V22.3728C138.432 22.3728 141.684 25.6303 141.684 29.6402C141.684 33.6584 138.424 37.0151 134.411 36.9076C132.54 36.858 131.374 36.7671 130.058 35.4277L117.679 22.8523C114.833 19.9668 112.731 16.8333 109.007 15.3616V21.0416V24.3901V41.8683C109.007 44.7538 106.616 47.1515 103.72 47.1515H95.0725C93.1197 47.1515 91.4813 48.5983 91.1834 50.4751H99.1354H100.575H101.808C105.267 50.4751 108.089 49.3507 110.224 46.6058C111.713 44.6959 112.425 42.5297 112.425 40.1486V24.1751V23.861V22.4637L128.229 38.2553C129.711 39.7352 132.383 40.2147 134.427 40.2147C140.269 40.2147 145.002 35.4855 145.002 29.6485C145.002 24.3653 140.327 19.0739 134.857 19.0739H122.627L122.611 0.049605ZM127.154 0H123.819V9.09462V17.8503H134.783C141.121 17.8503 146.21 23.3649 146.21 29.6402C146.21 36.1552 140.923 41.4384 134.402 41.4384C132.466 41.4384 129.131 40.8844 127.352 39.1069L113.624 25.3905L113.616 40.562C113.517 44.142 112.094 47.1019 109.264 49.3755C107.079 51.1366 104.588 51.7732 101.792 51.7732H100.559H91.1172V55.1051H103.703C110.977 55.1051 116.934 49.1605 116.934 41.8848V32.9887L118.432 34.6092L122.694 39.2143C123.074 39.6856 123.488 40.1238 123.926 40.5455L123.935 40.5537C126.657 43.1581 130.339 44.7621 134.411 44.7621H134.419C142.776 44.7621 149.545 37.9907 149.545 29.6402C149.545 21.2897 142.768 14.5183 134.411 14.5183H127.162V0H127.154Z" fill="#33D1E7"/>
<path fill-rule="evenodd" clip-rule="evenodd" d="M76.8516 7.50765V4.15918H91.986C98.6969 4.15918 105.176 7.69781 105.176 14.6097V20.7031L99.3009 27.0611C98.2666 24.3162 95.6187 22.3649 92.5156 22.3649C88.5107 22.3649 85.267 25.6059 85.267 29.6076C85.267 33.6092 88.5107 36.8502 92.5156 36.8502H97.9935H106.401V40.1904H91.9529C86.111 40.1904 81.3778 35.4612 81.3778 29.6241C81.3778 23.787 86.111 19.0578 91.9529 19.0578C95.1718 19.0578 98.0597 20.4964 99.996 22.7618C100.12 22.9106 100.244 23.0595 100.36 23.2165L101.204 22.3071V15.4034C101.204 9.54981 97.3729 7.51592 91.4565 7.51592H76.8516V7.50765ZM92.5156 44.7294C85.3745 44.7294 77.3811 37.9581 77.3811 29.6076C77.3811 21.2571 84.1582 14.4857 92.5156 14.4857C94.212 14.4857 95.8421 14.7668 97.3729 15.2794C97.1329 12.8073 95.6352 12.0302 91.9943 12.0302H80.8069C78.8458 12.0302 77.2157 10.5833 76.9178 8.70649H91.4647C96.3634 8.70649 100.004 10.1286 100.004 15.3869V20.9842C97.8942 19.0247 95.0642 17.8176 91.9612 17.8176C85.4407 17.8176 80.1532 23.1008 80.1532 29.6076C80.1532 36.1226 85.4407 41.4058 91.9612 41.4058V41.3975H106.368C106.07 43.2743 104.431 44.7212 102.478 44.7212H98.0101L92.5156 44.7294Z" fill="#33D1E7"/>
<path fill-rule="evenodd" clip-rule="evenodd" d="M72.015 8.86308C72.015 8.63158 71.9736 8.39181 71.8412 8.20165C71.7171 8.02803 71.4771 7.98669 71.2785 7.98669C70.691 7.98669 70.5255 8.35047 70.5255 8.89615C70.5255 9.10285 70.5669 9.31781 70.7241 9.45836C70.8731 9.59892 71.0634 9.64852 71.262 9.64852C71.4688 9.64852 71.684 9.60719 71.8329 9.4501C71.9736 9.30128 72.015 9.07804 72.015 8.86308ZM58.1879 7.93708L59.0981 9.11112C59.2305 9.00363 59.3546 8.88788 59.487 8.7804C59.6029 8.68119 59.7187 8.57371 59.818 8.45796C59.8677 8.40008 59.9339 8.32567 59.967 8.25126C59.9835 8.20992 60.0001 8.16858 60.0001 8.11898C60.0001 8.0611 59.9835 8.02803 59.9421 7.99496C59.8677 7.93708 59.7187 7.92882 59.6277 7.92882H58.1879V7.93708ZM43.0203 9.64852V9.15245C43.0203 8.89615 42.9872 8.5241 42.8052 8.3174C42.648 8.14378 42.4411 8.0859 42.2177 8.0859C42.0108 8.0859 41.8288 8.14378 41.6881 8.30914C41.5391 8.49103 41.4978 8.73906 41.4978 8.97056C41.4978 9.07804 41.506 9.20206 41.5391 9.30954C41.564 9.38395 41.5971 9.44183 41.655 9.49144C41.7212 9.54931 41.8205 9.58238 41.9115 9.60719C42.0687 9.64026 42.2342 9.64852 42.3914 9.64852H43.0203ZM70.0539 10.1777C70.029 10.2107 70.0042 10.2521 69.9711 10.2769C69.8884 10.3678 69.7891 10.4505 69.6815 10.5084C69.5822 10.5663 69.4664 10.5993 69.3588 10.6159C69.2595 10.6324 69.1602 10.6407 69.0609 10.6407H68.8127C68.6389 10.6407 68.4734 10.6076 68.3162 10.5497C68.2748 10.5332 68.2417 10.5166 68.2086 10.5001C68.192 10.7812 68.1424 11.0706 68.0348 11.3352C67.919 11.6328 67.7618 11.9056 67.5466 12.1371C67.3398 12.3604 67.0915 12.534 66.8019 12.658C66.504 12.782 66.1978 12.8399 65.8751 12.8399H65.3373C65.238 12.8399 65.1552 12.7655 65.1552 12.6663L65.1139 12.0545C65.1139 12.0049 65.1304 11.9553 65.1635 11.9139C65.1966 11.8726 65.2462 11.856 65.2959 11.856H65.7427C65.9827 11.856 66.2309 11.823 66.4461 11.7238C66.6281 11.6411 66.7853 11.5336 66.9177 11.3848C67.0419 11.2442 67.1329 11.0789 67.1908 10.9052C67.2487 10.7151 67.2818 10.5166 67.2818 10.3182V7.87094C67.2818 7.77173 67.3646 7.68905 67.4639 7.68905H68.0431C68.1424 7.68905 68.2251 7.77173 68.2251 7.87094V9.14419C68.2251 9.28474 68.2665 9.40876 68.3741 9.50797C68.4982 9.61545 68.6472 9.64852 68.8127 9.64852H69.0609C69.2016 9.64852 69.3671 9.62372 69.4664 9.52451C69.5574 9.43356 69.5905 9.32608 69.5905 9.19379V8.84654C69.5905 8.35047 69.7063 7.86267 70.0456 7.49062C70.3766 7.12683 70.8151 6.98628 71.3033 6.98628C71.5516 6.98628 71.7998 7.01935 72.0315 7.11857C72.2384 7.20951 72.4204 7.33353 72.5694 7.50715C72.7183 7.68078 72.8176 7.87921 72.8838 8.09417C72.9583 8.32567 72.9831 8.56544 72.9831 8.8052C72.9831 9.29301 72.8673 9.78081 72.528 10.1446C72.197 10.5001 71.7585 10.6407 71.2785 10.6407C71.0137 10.6407 70.7572 10.5911 70.509 10.4836C70.3104 10.4174 70.1697 10.31 70.0539 10.1777ZM64.0712 12.3604H63.31C63.2107 12.3604 63.1279 12.2777 63.1279 12.1785V11.5171C63.1279 11.4178 63.2107 11.3352 63.31 11.3352H64.0712C64.1705 11.3352 64.2533 11.4178 64.2533 11.5171V12.1785C64.2533 12.2694 64.1705 12.3604 64.0712 12.3604ZM58.974 10.1859C58.8085 10.31 58.643 10.4422 58.4941 10.5828C58.3534 10.7151 58.2293 10.8639 58.1217 11.021C58.039 11.1533 57.9728 11.2856 57.9314 11.4344C57.89 11.5832 57.8735 11.732 57.8735 11.8891C57.8735 12.2364 57.9562 12.5671 58.2044 12.8151L58.2293 12.8316H57.0708C57.0625 12.8068 57.0543 12.782 57.046 12.749C56.9632 12.4761 56.9219 12.2033 56.9219 11.9222C56.9219 11.4592 57.0377 11.0127 57.2777 10.6159C57.5176 10.2025 57.89 9.84695 58.2706 9.54931L56.9798 7.88747C56.9301 7.8296 56.9301 7.75519 56.9632 7.68905L57.286 7.07723C57.3191 7.01108 57.377 6.97801 57.4514 6.97801H59.7767C60.0828 6.97801 60.3807 7.04416 60.6289 7.22605C60.8772 7.40794 60.993 7.67251 60.993 7.97842C60.993 8.07763 60.9765 8.18512 60.9599 8.28433C60.9268 8.41662 60.8524 8.5489 60.7696 8.66465C60.6538 8.83001 60.5131 8.97883 60.3807 9.11938C60.2318 9.2682 60.0745 9.41702 59.909 9.55758C59.909 9.55758 59.909 9.55758 59.9173 9.55758C60.0001 9.59065 60.0828 9.60719 60.1738 9.62372C60.2814 9.64026 60.3807 9.64852 60.4883 9.64852C60.6207 9.64852 60.7531 9.65679 60.8937 9.65679H61.9281C62.1349 9.65679 62.3335 9.64852 62.5404 9.63199C62.6976 9.61545 62.8548 9.59892 63.0121 9.56585C63.1445 9.53278 63.2769 9.4997 63.4093 9.44183C63.5417 9.38395 63.6658 9.31781 63.7899 9.2434L65.1801 8.43315C65.1552 8.36701 65.1221 8.30914 65.0973 8.25126C65.0559 8.16858 65.0063 8.09417 64.9318 8.0363C64.8656 7.97842 64.7829 7.93708 64.6918 7.90401C64.5677 7.86267 64.427 7.85441 64.2946 7.85441H62.2673C62.2094 7.85441 62.168 7.83787 62.1267 7.79653C62.0936 7.75519 62.077 7.70558 62.077 7.65598L62.1349 7.02762C62.1432 6.92841 62.226 6.86226 62.317 6.86226H64.3774C64.5512 6.86226 64.7332 6.88707 64.8987 6.92014C65.1056 6.96148 65.2876 7.06069 65.4448 7.18471C65.6352 7.33353 65.7841 7.54849 65.9082 7.75519C66.0737 8.04456 66.173 8.39181 66.2475 8.72253C66.264 8.80521 66.2309 8.87961 66.1565 8.92095L64.1705 10.0785C64.0216 10.1694 63.8644 10.2521 63.7071 10.3265C63.5417 10.4009 63.3762 10.467 63.2024 10.5084C63.0121 10.558 62.8135 10.5911 62.6231 10.6076C62.3832 10.6324 62.1515 10.6407 61.9115 10.6407H60.7944C60.6124 10.6407 60.4221 10.6407 60.24 10.6324C60.0745 10.6241 59.9008 10.6076 59.7353 10.5663C59.5781 10.5332 59.4208 10.4753 59.2802 10.3926C59.1726 10.343 59.0733 10.2686 58.974 10.1859ZM55.4986 8.17685C55.6476 8.35047 55.7882 8.54064 55.871 8.7556C55.9455 8.93749 55.9868 9.12765 55.9868 9.32608C55.9868 9.69813 55.8544 10.0206 55.5814 10.2686C55.2752 10.5497 54.8697 10.6407 54.4643 10.6407H51.9322C51.8329 10.6407 51.7502 10.5663 51.7502 10.467L51.7088 9.83868C51.7088 9.78908 51.7253 9.73947 51.7584 9.69813C51.7915 9.65679 51.8412 9.64026 51.8908 9.64026H54.3898C54.5387 9.64026 54.7042 9.61545 54.8201 9.52451C54.9111 9.4501 54.9525 9.35915 54.9525 9.2434C54.9525 9.16899 54.9277 9.09458 54.9028 9.03671C54.8697 8.95403 54.8118 8.87135 54.7456 8.8052L53.0576 6.9036C52.9914 6.82919 52.9996 6.71344 53.0658 6.6473L53.5292 6.2091C53.5706 6.17603 53.612 6.1595 53.6699 6.1595C53.7195 6.1595 53.7692 6.1843 53.8023 6.22564L55.4986 8.17685ZM50.3021 4.66302H50.8896C50.9889 4.66302 51.0716 4.7457 51.0716 4.84491V10.4588C51.0716 10.558 50.9889 10.6407 50.8896 10.6407H50.3021C50.2028 10.6407 50.12 10.558 50.12 10.4588V4.84491C50.12 4.7457 50.2028 4.66302 50.3021 4.66302ZM48.9285 6.89534H48.1672C48.0679 6.89534 47.9852 6.81266 47.9852 6.71344V6.05202C47.9852 5.9528 48.0679 5.87012 48.1672 5.87012H48.9285C49.0278 5.87012 49.1105 5.9528 49.1105 6.05202V6.71344C49.1105 6.81266 49.0278 6.89534 48.9285 6.89534ZM42.9872 10.6489H42.2839C42.0108 10.6489 41.7212 10.6241 41.4647 10.5415C41.2578 10.4753 41.0592 10.3678 40.9185 10.2025C40.7779 10.0454 40.6868 9.86349 40.6372 9.66506C40.5876 9.4501 40.5627 9.23513 40.5627 9.02017C40.5627 8.7804 40.5958 8.54063 40.6703 8.30914C40.7448 8.0859 40.8441 7.88748 40.993 7.70558C41.142 7.52369 41.324 7.38314 41.5309 7.28392C41.7626 7.16817 42.0108 7.12683 42.2673 7.12683C42.4825 7.12683 42.6976 7.15991 42.9045 7.23432C43.1113 7.30873 43.3017 7.43275 43.4506 7.58983C43.6244 7.76346 43.7402 7.97842 43.823 8.20992C43.9223 8.49103 43.9554 8.79694 43.9554 9.09458V9.65679H44.9318C45.0807 9.65679 45.2628 9.63199 45.3786 9.51624C45.4862 9.40876 45.5193 9.2682 45.5193 9.12765V4.85318C45.5193 4.75397 45.602 4.67129 45.7013 4.67129H46.2888C46.3881 4.67129 46.4709 4.75397 46.4709 4.85318V9.12765C46.4709 9.21033 46.4792 9.30128 46.5205 9.37569C46.5536 9.43356 46.595 9.49144 46.6446 9.53277C46.6943 9.57411 46.7605 9.60719 46.8184 9.62372C46.8929 9.64026 46.9756 9.65679 47.0501 9.65679H47.7866C47.9438 9.65679 48.1093 9.62372 48.2251 9.51624C48.341 9.41702 48.3741 9.27647 48.3741 9.12765V7.87921C48.3741 7.77999 48.4568 7.69731 48.5561 7.69731H49.1436C49.2429 7.69731 49.3257 7.77999 49.3257 7.87921V9.12765C49.3257 9.54931 49.2181 9.95443 48.9119 10.2521C48.614 10.5414 48.2168 10.6572 47.8114 10.6572H47.0253C46.7936 10.6572 46.5619 10.6159 46.3468 10.5166C46.1895 10.4505 46.0571 10.343 45.9578 10.2107C45.8503 10.343 45.7179 10.4505 45.5607 10.5166C45.3538 10.6076 45.1387 10.6572 44.9152 10.6572H43.9057C43.8809 10.9052 43.823 11.145 43.732 11.3848C43.6244 11.6659 43.4589 11.9222 43.252 12.1371C43.0451 12.3604 42.7969 12.5257 42.5238 12.658C42.2259 12.7986 41.895 12.8482 41.564 12.8482H40.6041C40.5048 12.8482 40.4303 12.7738 40.4221 12.6828L40.3641 12.071C40.3559 12.0131 40.3724 11.9718 40.4138 11.9304C40.4469 11.8891 40.4965 11.8726 40.5544 11.8726H41.5143C41.7295 11.8726 41.9446 11.8395 42.1432 11.7568C42.3087 11.6824 42.4659 11.5915 42.59 11.4592C42.7142 11.3352 42.8052 11.1863 42.8714 11.021C42.9376 10.8804 42.9707 10.7647 42.9872 10.6489ZM30.3931 9.63199H32.2632C32.3707 9.63199 32.4783 9.61545 32.5776 9.58238C32.6769 9.54931 32.7596 9.4997 32.8341 9.43356C32.9169 9.35915 32.9748 9.26821 33.0162 9.16899C33.0658 9.04497 33.0824 8.91269 33.0824 8.7804C33.0824 8.65638 33.0658 8.5241 33.0162 8.40835C32.9748 8.30087 32.9169 8.20165 32.8424 8.11071C32.7679 8.02803 32.6769 7.96189 32.5776 7.92055C32.4783 7.87094 32.3625 7.85441 32.2549 7.85441C31.9239 7.85441 31.6177 8.0859 31.3943 8.30914C31.0302 8.66465 30.691 9.16899 30.3931 9.63199ZM11.9984 7.63944H11.2123C10.9806 7.63944 10.782 7.70558 10.633 7.87921C10.4675 8.07764 10.4179 8.34221 10.4179 8.59024C10.4179 8.76387 10.4427 9.02844 10.5834 9.14419C10.7323 9.2682 10.9557 9.29301 11.1461 9.29301C11.3612 9.29301 11.6177 9.25994 11.7998 9.13592C11.9156 9.05324 11.9984 8.95403 11.9984 8.8052V7.63944ZM29.3091 9.63199V4.82838C29.3091 4.72916 29.3918 4.64648 29.4911 4.64648H30.0704C30.1697 4.64648 30.2524 4.72916 30.2524 4.82838V7.58983C30.2524 7.81307 30.2524 8.0363 30.2524 8.25953C30.2524 8.2678 30.2524 8.27607 30.2524 8.28433C30.4593 8.00323 30.6827 7.73039 30.9227 7.49889C31.2123 7.22605 31.5515 6.99455 31.9322 6.9036H31.9405C32.1308 6.87053 32.3211 6.854 32.5114 6.88707C32.7348 6.91187 32.9417 6.96975 33.132 7.0855C33.3223 7.19298 33.4796 7.33353 33.6119 7.50715C33.7443 7.68078 33.8436 7.87921 33.9181 8.0859C33.9926 8.30914 34.0257 8.54064 34.0257 8.77214C34.0257 8.99537 33.9926 9.2186 33.9181 9.43356C33.8436 9.65679 33.7361 9.85522 33.5871 10.0288C33.4299 10.2107 33.2396 10.3513 33.0244 10.4588C32.7762 10.5828 32.5031 10.6241 32.2301 10.6241H28.192C28.0182 10.6241 27.8527 10.5911 27.6955 10.5332C27.6624 10.5166 27.6293 10.5001 27.5962 10.4836C27.5797 10.7647 27.53 11.0458 27.4225 11.3104C27.3066 11.608 27.1494 11.8808 26.9342 12.1123C26.7274 12.3356 26.4791 12.5092 26.1895 12.6332C25.8916 12.7572 25.5855 12.8151 25.2627 12.8151H25.0393C24.94 12.8151 24.8656 12.7407 24.8573 12.6497L24.7911 12.0379C24.7828 11.9801 24.7994 11.9387 24.8407 11.8974C24.8738 11.856 24.9235 11.8395 24.9814 11.8395H25.1635C25.3951 11.8395 25.6351 11.8064 25.8503 11.7155C26.024 11.6328 26.1812 11.5253 26.3054 11.3765C26.4295 11.2359 26.5122 11.0706 26.5702 10.8887C26.6281 10.6985 26.6612 10.5001 26.6612 10.3017V7.85441C26.6612 7.75519 26.7439 7.67251 26.8432 7.67251H27.4307C27.53 7.67251 27.6128 7.75519 27.6128 7.85441V9.12765C27.6128 9.2682 27.6541 9.39222 27.7617 9.49144C27.8776 9.59892 28.0348 9.63199 28.192 9.63199H29.3091ZM24.5759 8.35874C24.5511 8.30087 24.5263 8.24299 24.4932 8.18512C24.4601 8.11071 24.4105 8.04456 24.3443 7.99496C24.2781 7.93708 24.2036 7.90401 24.1208 7.87921C23.9967 7.84614 23.8478 7.83787 23.7236 7.83787H21.8205C21.7625 7.83787 21.7212 7.82133 21.6798 7.77999C21.6467 7.73866 21.6301 7.68905 21.6301 7.63944L21.6881 7.01109C21.6963 6.91187 21.7791 6.84573 21.8701 6.84573H23.7898C23.9636 6.84573 24.1374 6.86227 24.3112 6.89534C24.5098 6.93668 24.6918 7.01935 24.849 7.14337C25.0393 7.29219 25.1883 7.49889 25.3041 7.70558C25.4613 7.99496 25.5606 8.35047 25.6351 8.67292C25.6517 8.7556 25.6186 8.83001 25.5441 8.87135L23.7485 9.91309C23.3347 10.1529 22.8383 10.4836 22.5404 10.8556C22.3335 11.1119 22.2094 11.4096 22.2094 11.7403C22.2094 12.1123 22.2921 12.5009 22.5652 12.7738C22.5817 12.7903 22.5983 12.7986 22.6148 12.8151H21.4315C21.415 12.7738 21.3984 12.7324 21.3819 12.6828C21.2909 12.4017 21.2495 12.1041 21.2495 11.8147C21.2495 11.5584 21.2826 11.3021 21.3571 11.0623C21.4315 10.8143 21.5557 10.5828 21.7046 10.3761C21.8784 10.1363 22.0935 9.92963 22.3169 9.74774C22.5983 9.51624 22.9045 9.31781 23.2189 9.13592L24.5759 8.35874ZM17.6334 9.63199H18.6843C18.8333 9.63199 18.9905 9.59892 19.1146 9.4997C19.2222 9.40876 19.2553 9.29301 19.2553 9.15245V4.82838C19.2553 4.72916 19.338 4.64648 19.4373 4.64648H20.0248C20.1241 4.64648 20.2069 4.72916 20.2069 4.82838V9.20206C20.2069 9.40876 20.1738 9.61545 20.091 9.80561C20.0166 9.97924 19.909 10.1281 19.7766 10.2603C19.6359 10.3844 19.4787 10.4753 19.3049 10.5415C19.1229 10.6076 18.9326 10.6324 18.734 10.6324H16.8556C16.7563 10.6324 16.6736 10.5497 16.6736 10.4505V4.83664C16.6736 4.73743 16.7563 4.65475 16.8556 4.65475H17.4431C17.5424 4.65475 17.6252 4.73743 17.6252 4.83664V9.63199H17.6334ZM14.307 12.319H13.6119C13.5126 12.319 13.4299 12.2364 13.4299 12.1371V11.4923C13.4299 11.393 13.5126 11.3104 13.6119 11.3104H14.307C14.4063 11.3104 14.489 11.393 14.489 11.4923V12.1371C14.489 12.2364 14.4063 12.319 14.307 12.319ZM15.482 12.319H14.7952C14.6959 12.319 14.6132 12.2364 14.6132 12.1371V11.4923C14.6132 11.393 14.6959 11.3104 14.7952 11.3104H15.482C15.5813 11.3104 15.6641 11.393 15.6641 11.4923V12.1371C15.6723 12.2364 15.5896 12.319 15.482 12.319ZM12.2466 9.95443C12.2135 9.97924 12.1804 9.99577 12.1473 10.0123C12.0315 10.0785 11.8991 10.1363 11.7667 10.1694C11.6425 10.2025 11.5101 10.2273 11.386 10.2438C11.2702 10.2521 11.1543 10.2603 11.0385 10.2603C10.6248 10.2603 10.2027 10.1611 9.89658 9.86349C9.57387 9.54931 9.49112 9.08631 9.49112 8.65638C9.49112 8.41662 9.52421 8.17685 9.59041 7.94535C9.65661 7.71385 9.76418 7.49889 9.90485 7.30873C10.0455 7.11857 10.2276 6.96148 10.4427 6.84573C10.6744 6.72171 10.9392 6.6721 11.204 6.6721H11.9984V6.23391C11.9984 6.13469 12.0811 6.05202 12.1804 6.05202H12.7514C12.8507 6.05202 12.9334 6.13469 12.9334 6.23391V8.92922C12.9334 9.11112 12.9582 9.30954 13.0575 9.46663C13.1403 9.59892 13.314 9.62372 13.463 9.62372H14.3484C14.5056 9.62372 14.6711 9.59065 14.7952 9.48317C14.9111 9.38395 14.9442 9.2434 14.9442 9.09458V7.84614C14.9442 7.74692 15.0269 7.66425 15.1262 7.66425H15.7137C15.813 7.66425 15.8958 7.74692 15.8958 7.84614V9.09458C15.8958 9.51624 15.7882 9.92136 15.482 10.219C15.1841 10.5084 14.7869 10.6241 14.3815 10.6241H13.4547C13.1651 10.6241 12.8838 10.5663 12.6355 10.4257C12.4617 10.3182 12.3376 10.1446 12.2466 9.95443ZM6.75218 12.3438H5.9909C5.89161 12.3438 5.80886 12.2612 5.80886 12.1619V11.5005C5.80886 11.4013 5.89161 11.3186 5.9909 11.3186H6.75218C6.85148 11.3186 6.93422 11.4096 6.93422 11.5005V12.1619C6.9425 12.2529 6.85975 12.3438 6.75218 12.3438ZM5.27101 10.6324C5.09724 10.6324 4.92347 10.6076 4.76625 10.558C4.59248 10.5084 4.43525 10.4092 4.30286 10.2851C4.16219 10.1529 4.05462 9.97097 3.98842 9.78908C3.90567 9.56585 3.88085 9.30128 3.88085 9.06151V4.84491C3.88085 4.7457 3.9636 4.66302 4.0629 4.66302H4.6504C4.7497 4.66302 4.83244 4.75397 4.83244 4.84491V8.95403C4.83244 9.12765 4.86554 9.32608 4.96484 9.48317C5.05586 9.61545 5.20481 9.64852 5.36203 9.64852H6.37982C6.53704 9.64852 6.70253 9.61545 6.81838 9.50797C6.92595 9.40876 6.96732 9.2682 6.96732 9.11938V7.87094C6.96732 7.77173 7.05007 7.68905 7.14937 7.68905H7.73687C7.83617 7.68905 7.91892 7.78 7.91892 7.87094V9.11938C7.91892 9.53277 7.81134 9.94617 7.50518 10.2438C7.20729 10.5332 6.8101 10.6489 6.40464 10.6489H5.27101V10.6324ZM2.96235 6.8788H2.20108C2.10178 6.8788 2.01904 6.79612 2.01904 6.69691V6.03548C2.01904 5.93627 2.10178 5.85359 2.20108 5.85359H2.96235C3.06165 5.85359 3.1444 5.94453 3.1444 6.03548V6.69691C3.15267 6.79612 3.06165 6.8788 2.96235 6.8788ZM3.1113 10.3017C3.1113 10.6489 3.05338 10.9962 2.92926 11.3269C2.81341 11.6163 2.64792 11.8974 2.43277 12.1206C2.2259 12.3438 1.96939 12.5175 1.68805 12.6415C1.39843 12.7655 1.07571 12.8234 0.761274 12.8234H0.223415C0.132393 12.8234 0.0413762 12.749 0.0413762 12.6497L0 12.0379C0 11.9883 0.0165474 11.9387 0.0496464 11.8974C0.0827453 11.8643 0.132397 11.8395 0.182045 11.8395H0.628881C0.868848 11.8395 1.11709 11.8064 1.33223 11.7072C1.506 11.6328 1.67977 11.5171 1.80389 11.3682C1.92801 11.2277 2.01904 11.0623 2.07696 10.8887C2.13488 10.6985 2.16798 10.5001 2.16798 10.3017V7.85441C2.16798 7.75519 2.25072 7.67251 2.35002 7.67251H2.92926C3.02855 7.67251 3.1113 7.76346 3.1113 7.85441V10.3017ZM39.4539 8.17685C39.6029 8.35047 39.7435 8.54064 39.8263 8.7556C39.9008 8.93749 39.9421 9.12765 39.9421 9.32608C39.9421 9.69813 39.8097 10.0206 39.5367 10.2686C39.2305 10.5497 38.825 10.6407 38.4196 10.6407H35.8875C35.7882 10.6407 35.7055 10.5663 35.7055 10.467L35.6641 9.83868C35.6641 9.78908 35.6806 9.73947 35.7137 9.69813C35.7468 9.65679 35.7965 9.64026 35.8461 9.64026H38.3451C38.494 9.64026 38.6595 9.61545 38.7754 9.52451C38.8664 9.4501 38.8995 9.35915 38.8995 9.2434C38.8995 9.16899 38.8747 9.09458 38.8499 9.03671C38.8168 8.94576 38.7588 8.87135 38.6926 8.8052L37.0046 6.9036C36.9384 6.82919 36.9467 6.71344 37.0129 6.6473L37.4762 6.2091C37.5176 6.17603 37.559 6.1595 37.6169 6.1595C37.6666 6.1595 37.7162 6.1843 37.7493 6.22564L39.4539 8.17685Z" fill="#464646"/>
<path fill-rule="evenodd" clip-rule="evenodd" d="M69.7146 14.5682H73.0741V29.6404C73.0741 37.9661 66.2971 44.7127 57.9314 44.7127C53.4961 44.7127 49.4994 42.8111 46.7274 39.7851C43.9554 42.8111 39.9669 44.7127 35.5234 44.7127C30.7654 44.7127 24.2781 41.5874 22.3831 37.1311C21.2412 34.4523 18.6181 32.6665 15.6723 32.6665H15.6392V32.6416C11.6177 32.6416 8.35747 35.8826 8.35747 39.8925C8.35747 43.8942 11.6177 47.1434 15.6392 47.1434L21.1502 47.1186L29.5656 47.1434V50.4423H15.6392V50.434C9.789 50.434 5.05586 45.7131 5.05586 39.9008C5.05586 34.0803 9.79727 29.3676 15.6392 29.3676C19.5449 29.3676 22.9541 31.4676 24.7911 34.6011H24.7994C25.5193 36.1141 26.6032 37.4535 28.0513 38.611C30.2359 40.3638 32.7348 41.2154 35.5317 41.2154C39.2967 41.2154 42.3666 39.7933 44.7332 36.8748C45.6186 35.7834 46.2723 34.6094 46.7026 33.3609C47.1329 34.6094 47.7948 35.7834 48.672 36.8748C51.0385 39.7933 54.1085 41.2154 57.8735 41.2154C60.6703 41.2154 63.1693 40.3721 65.3538 38.611C68.1838 36.3374 69.607 33.394 69.7063 29.8223L69.7146 14.5682ZM47.3397 14.5682H50.6662V29.6404C50.6662 33.6255 53.9181 36.8582 57.9231 36.8582C61.9281 36.8582 65.18 33.6255 65.18 29.6404V18.4954C65.18 16.5524 66.6198 14.9237 68.4982 14.6178V29.4089C68.4982 31.7818 67.7866 33.948 66.2971 35.8496C64.1622 38.5862 61.3406 39.9173 57.8735 39.9173C55.5069 39.9173 53.3306 39.2311 51.4274 37.7925C48.6802 35.7173 47.3397 32.9062 47.3397 29.4089V14.5682ZM0 17.8422V14.5186H15.1428C21.8618 14.5186 28.3409 18.0407 28.3409 24.936V30.6904C28.8457 34.1795 31.8742 36.8665 35.5234 36.8665C39.5284 36.8665 42.7803 33.6338 42.7803 29.6487V18.4954C42.7803 16.5607 44.2036 14.9485 46.0571 14.626V29.4172C46.0571 32.9145 44.7249 35.7256 41.9694 37.8008C40.058 39.2394 37.8817 39.9256 35.5234 39.9256C32.0563 39.9256 29.2429 38.5945 27.0997 35.8578C25.6103 33.9562 24.8987 31.7901 24.8987 29.4172V29.1774V25.7049C24.8987 19.8678 21.0675 17.8422 15.1428 17.8422H0ZM15.6723 54.9565H15.6392C7.27348 54.9565 0.496482 48.21 0.496482 39.8843C0.496482 31.5586 7.27348 24.812 15.6392 24.812H15.6723C17.3687 24.812 19.007 25.0931 20.5296 25.6057C20.2896 23.1419 18.7919 22.3647 15.1428 22.3647H3.93877C1.97766 22.3647 0.330992 20.9179 0.0413762 19.0411H15.1428C20.0414 19.0411 23.6906 20.4549 23.6906 25.7049V29.1774V29.566V29.814C23.7071 30.368 23.7485 30.8971 23.8312 31.418C21.7046 29.3841 18.8167 28.1274 15.6392 28.1274C9.11875 28.1274 3.82293 33.394 3.82293 39.8843C3.82293 46.3745 9.11047 51.6411 15.6392 51.6411V51.6329H29.516C29.2181 53.5097 27.5797 54.9565 25.6186 54.9565H21.1502H15.6723Z" fill="#464646"/>
<path fill-rule="evenodd" clip-rule="evenodd" d="M68.5002 49.9215C68.2023 49.6239 67.7886 49.442 67.3335 49.442C66.8784 49.442 66.4646 49.6239 66.1667 49.9215C65.8688 50.2191 65.6785 50.6325 65.6785 51.0873C65.6785 51.542 65.8606 51.9554 66.1585 52.253C66.4563 52.5507 66.8701 52.7326 67.3252 52.7326C67.7803 52.7326 68.194 52.5507 68.4919 52.253C68.7898 51.9554 68.9719 51.542 68.9719 51.0873C68.9801 50.6325 68.7981 50.2191 68.5002 49.9215ZM67.3335 48.7475C67.9872 48.7475 68.5747 49.012 68.9967 49.4337C69.4187 49.8554 69.6835 50.4424 69.6835 51.0873C69.6835 51.7322 69.4187 52.3192 68.9967 52.7408C68.5664 53.1625 67.9789 53.4271 67.3335 53.4271C66.688 53.4271 66.0923 53.1625 65.6702 52.7408C65.24 52.3192 64.9752 51.7322 64.9752 51.0873C64.9752 50.4424 65.24 49.8554 65.662 49.4337C66.0923 49.0038 66.6798 48.7475 67.3335 48.7475ZM67.3335 47.375C69.3939 47.375 71.0654 49.0368 71.0654 51.0873C71.0654 53.1377 69.3939 54.7995 67.3335 54.7995C65.2731 54.7995 63.6016 53.1377 63.6016 51.0873C63.6016 49.0368 65.2731 47.375 67.3335 47.375Z" fill="#464646"/>
<path fill-rule="evenodd" clip-rule="evenodd" d="M62.4147 49.9215C62.1168 49.6239 61.7031 49.442 61.248 49.442C60.7929 49.442 60.3791 49.6239 60.0813 49.9215C59.7834 50.2191 59.593 50.6325 59.593 51.0873C59.593 51.542 59.7751 51.9554 60.073 52.253C60.3709 52.5507 60.7846 52.7326 61.2397 52.7326C61.6948 52.7326 62.1086 52.5507 62.4065 52.253C62.7043 51.9554 62.8864 51.542 62.8864 51.0873C62.8947 50.6325 62.7126 50.2191 62.4147 49.9215ZM61.2397 48.7475C61.8934 48.7475 62.4809 49.012 62.9029 49.4337C63.325 49.8554 63.5897 50.4424 63.5897 51.0873C63.5897 51.7322 63.325 52.3192 62.9029 52.7408C62.4727 53.1625 61.8851 53.4271 61.2397 53.4271C60.5943 53.4271 59.9985 53.1625 59.5765 52.7408C59.1462 52.3192 58.8814 51.7322 58.8814 51.0873C58.8814 50.4424 59.1462 49.8554 59.5682 49.4337C60.0068 49.0038 60.5943 48.7475 61.2397 48.7475ZM61.2397 47.375C63.3001 47.375 64.9716 49.0368 64.9716 51.0873C64.9716 53.1377 63.3001 54.7995 61.2397 54.7995C59.1793 54.7995 57.5078 53.1377 57.5078 51.0873C57.5161 49.0368 59.1876 47.375 61.2397 47.375Z" fill="#464646"/>
<path fill-rule="evenodd" clip-rule="evenodd" d="M56.3366 49.9215C56.0387 49.6239 55.625 49.442 55.1699 49.442C54.7148 49.442 54.301 49.6239 54.0031 49.9215C53.7052 50.2191 53.5232 50.6325 53.5232 51.0873C53.5232 51.542 53.7052 51.9554 54.0031 52.253C54.301 52.5507 54.7148 52.7326 55.1699 52.7326C55.625 52.7326 56.0387 52.5507 56.3366 52.253C56.6345 51.9554 56.8165 51.542 56.8165 51.0873C56.8165 50.6325 56.6345 50.2191 56.3366 49.9215ZM55.1616 48.7475C55.8153 48.7475 56.4028 49.012 56.8248 49.4337C57.2468 49.8554 57.5116 50.4424 57.5116 51.0873C57.5116 51.7322 57.2468 52.3192 56.8248 52.7408C56.3945 53.1625 55.807 53.4271 55.1616 53.4271C54.5162 53.4271 53.9204 53.1625 53.4984 52.7408C53.0681 52.3192 52.8033 51.7322 52.8033 51.0873C52.8033 50.4424 53.0681 49.8554 53.4901 49.4337C53.9287 49.0038 54.5162 48.7475 55.1616 48.7475ZM55.1616 47.375C57.222 47.375 58.8935 49.0368 58.8935 51.0873C58.8935 53.1377 57.222 54.7995 55.1616 54.7995C53.1012 54.7995 51.4297 53.1377 51.4297 51.0873C51.438 49.0368 53.1012 47.375 55.1616 47.375Z" fill="#464646"/>
<path fill-rule="evenodd" clip-rule="evenodd" d="M43.5627 49.9215C43.2648 49.6239 42.8511 49.442 42.396 49.442C41.9409 49.442 41.5271 49.6239 41.2292 49.9215C40.9313 50.2191 40.7493 50.6325 40.7493 51.0873C40.7493 51.542 40.9313 51.9554 41.2292 52.253C41.5271 52.5507 41.9409 52.7326 42.396 52.7326C42.8511 52.7326 43.2648 52.5507 43.5627 52.253C43.8606 51.9554 44.0426 51.542 44.0426 51.0873C44.0509 50.6325 43.8606 50.2191 43.5627 49.9215ZM42.396 48.7475C43.0497 48.7475 43.6372 49.012 44.0592 49.4337C44.4812 49.8554 44.746 50.4424 44.746 51.0873C44.746 51.7322 44.4812 52.3192 44.0592 52.7408C43.6289 53.1625 43.0414 53.4271 42.396 53.4271C41.7505 53.4271 41.1548 53.1625 40.7327 52.7408C40.3025 52.3192 40.0377 51.7322 40.0377 51.0873C40.0377 50.4424 40.3025 49.8554 40.7245 49.4337C41.1548 49.0038 41.7423 48.7475 42.396 48.7475ZM42.396 47.375C44.4564 47.375 46.1279 49.0368 46.1279 51.0873C46.1279 53.1377 44.4564 54.7995 42.396 54.7995C40.3356 54.7995 38.6641 53.1377 38.6641 51.0873C38.6641 49.0368 40.3356 47.375 42.396 47.375Z" fill="#464646"/>
<path fill-rule="evenodd" clip-rule="evenodd" d="M37.4846 49.9215C37.1867 49.6239 36.7729 49.442 36.3178 49.442C35.8627 49.442 35.449 49.6239 35.1511 49.9215C34.8532 50.2191 34.6712 50.6325 34.6712 51.0873C34.6712 51.542 34.8532 51.9554 35.1511 52.253C35.449 52.5507 35.8627 52.7326 36.3178 52.7326C36.7729 52.7326 37.1867 52.5507 37.4846 52.253C37.7825 51.9554 37.9645 51.542 37.9645 51.0873C37.9728 50.6325 37.7825 50.2191 37.4846 49.9215ZM36.3178 48.7475C36.9715 48.7475 37.559 49.012 37.9811 49.4337C38.4031 49.8554 38.6679 50.4424 38.6679 51.0873C38.6679 51.7322 38.4031 52.3192 37.9811 52.7408C37.5508 53.1625 36.9633 53.4271 36.3178 53.4271C35.6724 53.4271 35.0766 53.1625 34.6546 52.7408C34.2243 52.3192 33.9595 51.7322 33.9595 51.0873C33.9595 50.4424 34.2243 49.8554 34.6463 49.4337C35.0766 49.0038 35.6641 48.7475 36.3178 48.7475ZM36.3178 47.375C38.3782 47.375 40.0497 49.0368 40.0497 51.0873C40.0497 53.1377 38.3782 54.7995 36.3178 54.7995C34.2574 54.7995 32.5859 53.1377 32.5859 51.0873C32.5859 49.0368 34.2574 47.375 36.3178 47.375Z" fill="#464646"/>
<path fill-rule="evenodd" clip-rule="evenodd" d="M19.5309 37.1473C19.2661 36.8827 18.902 36.7174 18.4965 36.7174C18.091 36.7174 17.727 36.8827 17.4622 37.1473C17.1974 37.4119 17.0319 37.7756 17.0319 38.1725C17.0319 38.5776 17.1974 38.9414 17.4622 39.1977C17.727 39.4623 18.091 39.6194 18.4965 39.6194C18.902 39.6194 19.2661 39.454 19.5309 39.1977C19.7956 38.9331 19.9611 38.5694 19.9611 38.1725C19.9529 37.7756 19.7956 37.4119 19.5309 37.1473ZM18.4965 36.1055C19.0675 36.1055 19.5888 36.337 19.9694 36.7091C20.3418 37.0811 20.5817 37.602 20.5817 38.1725C20.5817 38.743 20.35 39.2639 19.9694 39.6359C19.5888 40.008 19.0675 40.2477 18.4965 40.2477C17.9256 40.2477 17.4042 40.0162 17.0236 39.6442C16.643 39.2721 16.4113 38.7512 16.4113 38.1808C16.4113 37.6103 16.643 37.0894 17.0236 36.7174C17.396 36.337 17.9173 36.1055 18.4965 36.1055ZM18.4965 34.8984C20.317 34.8984 21.7898 36.3701 21.7898 38.1808C21.7898 39.9914 20.317 41.4631 18.4965 41.4631C16.6761 41.4631 15.2032 39.9914 15.2032 38.1808C15.1949 36.3618 16.6761 34.8984 18.4965 34.8984Z" fill="#464646"/>
<path fill-rule="evenodd" clip-rule="evenodd" d="M14.148 37.1473C13.8832 36.8827 13.5191 36.7174 13.1137 36.7174C12.7082 36.7174 12.3441 36.8827 12.0793 37.1473C11.8145 37.4119 11.649 37.7756 11.649 38.1725C11.649 38.5776 11.8145 38.9414 12.0793 39.1977C12.3441 39.4623 12.7082 39.6194 13.1137 39.6194C13.5191 39.6194 13.8832 39.454 14.148 39.1977C14.4128 38.9331 14.5783 38.5694 14.5783 38.1725C14.5783 37.7756 14.4128 37.4119 14.148 37.1473ZM13.1137 36.1055C13.6846 36.1055 14.2059 36.337 14.5866 36.7091C14.9672 37.0811 15.1989 37.602 15.1989 38.1725C15.1989 38.743 14.9672 39.2639 14.5866 39.6359C14.2059 40.008 13.6846 40.2477 13.1137 40.2477C12.5427 40.2477 12.0214 40.0162 11.6408 39.6442C11.2601 39.2721 11.0284 38.7512 11.0284 38.1808C11.0284 37.6103 11.2601 37.0894 11.6408 36.7174C12.0214 36.337 12.5344 36.1055 13.1137 36.1055ZM13.1137 34.8984C14.9341 34.8984 16.407 36.3701 16.407 38.1808C16.407 39.9914 14.9341 41.4631 13.1137 41.4631C11.2932 41.4631 9.82031 39.9914 9.82031 38.1808C9.82031 36.3618 11.2932 34.8984 13.1137 34.8984Z" fill="#464646"/>
<path fill-rule="evenodd" clip-rule="evenodd" d="M16.8433 41.828C16.5785 41.5634 16.2144 41.398 15.809 41.398C15.4035 41.398 15.0394 41.5634 14.7746 41.828C14.5098 42.0925 14.3443 42.4563 14.3443 42.8532C14.3443 43.2583 14.5098 43.6221 14.7746 43.8784C15.0394 44.1429 15.4035 44.3 15.809 44.3C16.2144 44.3 16.5785 44.1347 16.8433 43.8784C17.1081 43.6138 17.2736 43.25 17.2736 42.8532C17.2736 42.4563 17.1081 42.0925 16.8433 41.828ZM15.809 40.7862C16.3799 40.7862 16.9012 41.0177 17.2819 41.3898C17.6542 41.7618 17.8942 42.2827 17.8942 42.8532C17.8942 43.4236 17.6625 43.9445 17.2819 44.3166C16.9012 44.6886 16.3799 44.9284 15.809 44.9284C15.238 44.9284 14.7167 44.6969 14.3361 44.3248C13.9554 43.9528 13.7237 43.4319 13.7237 42.8614C13.7237 42.291 13.9554 41.7701 14.3361 41.398C14.7167 41.0177 15.238 40.7862 15.809 40.7862ZM15.809 39.5791C17.6294 39.5791 19.1023 41.0508 19.1023 42.8614C19.1023 44.6721 17.6294 46.1438 15.809 46.1438C13.9885 46.1438 12.5156 44.6721 12.5156 42.8614C12.5156 41.0425 13.9885 39.5791 15.809 39.5791Z" fill="#464646"/>
</svg>
