<svg id="Layer_1" data-name="Layer 1" xmlns="http://www.w3.org/2000/svg" viewBox="0 0 80 66.04"><defs><style>.cls-1,.cls-2{fill:#343a40;}.cls-1{stroke:#fff;stroke-miterlimit:10.67;stroke-width:2.67px;fill-rule:evenodd;}.cls-2{font-size:11.34px;font-family:YekanBakh-Medium, Yekan Bakh;font-weight:500;}</style></defs><g id="SVGRepo_iconCarrier" data-name="SVGRepo iconCarrier"><path class="cls-1" d="M24.88,1.33A5.69,5.69,0,0,0,19.19,7V33.57a5.68,5.68,0,0,0,5.69,5.68H40a1.9,1.9,0,1,0,0-3.79H24.88A1.9,1.9,0,0,1,23,33.57v-19a1.9,1.9,0,0,1,1.9-1.9H55.4a1.71,1.71,0,0,1,1.71,1.71v.19a1.9,1.9,0,0,0,3.79,0v-.19a5.5,5.5,0,0,0-5.5-5.5H39.63l-.82-3.28a5.69,5.69,0,0,0-5.52-4.31Zm0,7.59a5.66,5.66,0,0,0-1.9.32V7a1.89,1.89,0,0,1,1.9-1.89h8.41a1.89,1.89,0,0,1,1.84,1.43l.59,2.36ZM55.21,22.19a1.9,1.9,0,1,0-3.79,0v5.69H45.73a1.9,1.9,0,0,0,0,3.79h5.69v5.69a1.9,1.9,0,0,0,3.79,0V31.67H60.9a1.9,1.9,0,1,0,0-3.79H55.21Z"/></g><text class="cls-2"><tspan x="0" y="60.5" xml:space="preserve">اه یدنب هتسد  ریاس</tspan></text></svg>