<svg xmlns="http://www.w3.org/2000/svg" data-name="Layer 2" viewBox="0 0 1000 1000" width="250" height="250"><g opacity=".25"><path fill="#ccd2d6" d="M238.39 591.92h-127.81c-30.53 0-58.17-10.28-78.19-26.92C12.38 548.37 0 525.38 0 499.99c0-50.76 49.51-91.92 110.58-91.92h7.42c.99 0 1.99-.01 2.97-.03 12.72 76.16 56.28 141.88 117.42 183.88zM396.18 140.08c-84.05 0-157.18 46.78-194.76 115.72 16.94 16.15 27.19 37.25 27.19 60.36 0 32.79-20.67 61.57-51.77 77.84 15.61 107.15 107.87 189.45 219.34 189.45 122.45 0 221.68-99.26 221.68-221.68s-99.23-221.68-221.68-221.68zm103.81 338.38c0 7.66-6.22 13.88-13.88 13.88h-179.84c-7.68 0-13.9-6.22-13.9-13.88v-233.41c0-7.66 6.22-13.88 13.9-13.88h124.5c2.01 0 3.96.43 5.76 1.26 1.5.67 2.87 1.63 4.06 2.81l55.34 55.34c1.93 1.93 3.24 4.38 3.78 7.01.2.93.29 1.85.29 2.8v178.06z" class="colorccd2d6 svgShape"></path><path fill="#ccd2d6" d="m750.13,683.83c0,25.39,12.38,48.37,32.4,65,20.01,16.63,47.65,26.93,78.2,26.93h28.67c30.53,0,58.17,10.29,78.19,26.92,20.01,16.63,32.4,39.61,32.4,65,0,50.75-49.52,91.91-110.59,91.91H110.58c-30.53,0-58.17-10.29-78.19-26.93C12.38,916.03,0,893.06,0,867.68c0-50.77,49.51-91.92,110.58-91.92h147.77c13.74,2.78,25.16,4.37,32.6,5.24,5.49.64,10.69-2.59,12.53-7.8l2.13-6.01h.01c14.81-5.73,27.82-14.13,38.19-24.44-2.36,5.14-5.16,11.01-8.45,17.69-15.36,31.21-46.66,49.79-61.41,57.16-4.72,2.36-7.28,7.59-6.3,12.77l12.18,63.91c1.16,6.04,6.75,10.21,12.87,9.55,17.73-1.92,55.09-8.75,96.87-32.96,44.09-25.55,64.65-66.3,72.02-84.53,2.14-5.3.18-11.37-4.65-14.43l-87.04-55c-2.17-1.37-4.59-1.94-6.94-1.81,4.25-9.76,6.56-20.29,6.56-31.28,0-16.81-5.43-32.57-14.93-46.12,13.56,2.04,27.45,3.09,41.59,3.09,39.54,0,77.15-8.22,111.23-23.05l6.65,8.67c8.83,11.51,23.14,16.33,36.48,13.62,23.74,45.87,86.66,162.54,136.06,210.09,62.13,59.83,125.33,8.03,98.32-55.41-24.56-57.74-134.68-169.08-172.48-206.28,3.26-10.9,1.42-23.14-6.02-32.86l-4.27-5.57c45.38-49.62,73.06-115.69,73.06-188.24,0-154.1-124.93-279.03-279.03-279.03-105.8,0-197.85,58.89-245.16,145.67-10.43-2.71-21.52-4.17-33.02-4.17h-7.42c-30.53,0-58.17-10.3-78.19-26.93C12.38,180.68,0,157.7,0,132.32,0,81.55,49.51,40.41,110.58,40.41h778.83c30.53,0,58.17,10.28,78.19,26.92,20.01,16.63,32.4,39.6,32.4,64.99,0,50.76-49.52,91.92-110.59,91.92h-75.3c-61.08,0-110.59,41.15-110.59,91.92,0,19.6,7.38,37.75,19.95,52.66,0,.13,0,.28-.01.41-.02.83-.06,1.67-.09,2.51-.02.5-.04.99-.07,1.5-.04.92-.09,1.84-.14,2.78-.02.44-.04.88-.07,1.32-.08,1.39-.17,2.79-.26,4.22-.1,1.5-.22,3-.37,4.49-.04.5-.11.99-.17,1.49-.11.99-.22,1.99-.35,2.97-.08.6-.17,1.18-.25,1.78-.13.88-.25,1.76-.4,2.65-.1.63-.22,1.26-.33,1.87-.14.84-.29,1.68-.45,2.51-.12.64-.25,1.28-.39,1.93-.17.81-.33,1.61-.52,2.42-.14.65-.3,1.3-.45,1.95-.18.78-.36,1.58-.56,2.36-.17.65-.34,1.3-.51,1.95-.2.77-.41,1.54-.62,2.3-.19.65-.37,1.3-.56,1.95-.22.76-.44,1.51-.67,2.27-.2.64-.4,1.29-.61,1.93-.23.75-.47,1.49-.72,2.24-.21.63-.43,1.27-.65,1.91-.25.74-.51,1.47-.76,2.19-.23.63-.45,1.27-.68,1.89-.28.73-.54,1.46-.82,2.18-.24.62-.47,1.24-.72,1.84-.29.73-.57,1.44-.86,2.16-.25.6-.5,1.2-.74,1.8-.3.72-.61,1.43-.92,2.15-.25.58-.5,1.17-.75,1.75-.32.71-.64,1.41-.96,2.12-.25.57-.51,1.15-.77,1.71-.33.72-.66,1.41-1,2.12-.25.55-.51,1.1-.77,1.64-.35.72-.71,1.42-1.06,2.13-.25.52-.51,1.04-.76,1.55-.37.74-.76,1.47-1.14,2.19-.24.47-.49.95-.73,1.41-.44.84-.89,1.65-1.33,2.48-.19.34-.37.69-.55,1.04-.64,1.16-1.28,2.31-1.92,3.44-.14.25-.3.51-.44.76-.5.87-.99,1.74-1.5,2.59-.24.42-.49.82-.73,1.22-.41.68-.81,1.37-1.21,2.04-.28.45-.55.89-.82,1.33-.39.62-.76,1.25-1.15,1.85-.29.45-.56.9-.85,1.36-.36.57-.73,1.15-1.09,1.72-.3.45-.6.9-.89,1.37-.35.54-.71,1.08-1.05,1.61-.3.45-.6.89-.89,1.33-.34.52-.69,1.05-1.05,1.56-.29.44-.57.86-.87,1.28-.34.51-.68,1.01-1.04,1.5-.29.42-.57.84-.86,1.25-.34.49-.67.96-1.01,1.42-.29.41-.57.81-.86,1.21-.32.45-.65.9-.98,1.36-.28.39-.55.76-.84,1.15-.32.44-.64.87-.96,1.3-.28.37-.55.74-.82,1.09-.32.42-.63.83-.94,1.24-.26.35-.53.71-.78,1.05-1.06,1.37-2.07,2.68-3.05,3.92-5.9,7.42-3.57,18.38,4.83,22.77l28.82,15.05,61.35,32.05,2.1,1.09c1.07.56,2.35.49,3.35-.19.57-.39,1.29-.89,2.14-1.52h0s.02-.02.03-.02c.29-.22.58-.45.9-.69.02-.01.04-.03.07-.04.31-.24.64-.5.97-.77.04-.03.09-.07.13-.1.33-.26.68-.55,1.04-.84.06-.06.12-.1.18-.15.35-.29.73-.6,1.1-.93.07-.06.13-.11.19-.17.4-.33.79-.67,1.2-1.04.06-.06.11-.1.17-.15.43-.38.87-.77,1.31-1.18.04-.03.08-.07.11-.1.46-.43.94-.87,1.42-1.33.02-.01.03-.02.06-.04.49-.45.98-.94,1.49-1.43.06-.06.11-.11.18-.17.49-.49.98-.98,1.49-1.5.09-.08.17-.15.25-.24.5-.51,1.01-1.04,1.53-1.59.09-.09.18-.18.26-.28.53-.55,1.06-1.12,1.61-1.71.08-.1.17-.19.25-.28.56-.61,1.12-1.24,1.71-1.89.06-.07.11-.13.18-.2.61-.68,1.22-1.39,1.85-2.12.63-.73,1.27-1.48,1.91-2.24.07-.08.13-.15.2-.24.62-.74,1.24-1.49,1.86-2.27.1-.12.19-.23.29-.35.62-.76,1.25-1.56,1.89-2.36.1-.14.21-.28.32-.42.63-.81,1.27-1.64,1.92-2.49.1-.14.21-.28.31-.42.66-.87,1.32-1.76,2-2.69.09-.11.18-.23.25-.34.71-.96,1.41-1.94,2.12-2.94.03-.06.07-.1.1-.14.72-1.01,1.43-2.05,2.16-3.11.06-.08.11-.17.17-.24.72-1.05,1.43-2.12,2.16-3.21.1-.15.2-.3.3-.45.71-1.06,1.41-2.16,2.13-3.28.11-.18.23-.36.35-.55.71-1.11,1.42-2.25,2.14-3.41.12-.19.24-.39.36-.58.72-1.18,1.44-2.37,2.18-3.61.1-.17.2-.34.31-.52.75-1.27,1.51-2.56,2.27-3.88.07-.11.12-.21.18-.31.78-1.36,1.57-2.75,2.36-4.16.03-.06.06-.11.09-.17.78-1.41,1.57-2.85,2.36-4.31.1-.18.19-.35.29-.53.75-1.41,1.51-2.86,2.27-4.31.13-.24.25-.47.37-.71.75-1.46,1.5-2.93,2.26-4.44.12-.25.25-.51.37-.76.76-1.51,1.52-3.05,2.28-4.63.12-.24.23-.49.35-.73.77-1.62,1.56-3.25,2.34-4.93.08-.18.15-.34.23-.51.83-1.78,1.65-3.57,2.47-5.4.49-1.07.96-2.15,1.41-3.22.15-.36.31-.72.45-1.08.31-.72.61-1.43.9-2.15.18-.43.34-.86.52-1.3.25-.64.52-1.29.76-1.93.19-.46.35-.93.53-1.38.23-.63.47-1.25.71-1.86.17-.47.34-.95.51-1.42.22-.61.44-1.21.66-1.82.17-.49.33-.97.5-1.46.2-.6.41-1.19.61-1.79.17-.5.32-.99.49-1.48.19-.6.39-1.18.56-1.78.17-.5.31-.98.46-1.48.19-.58.36-1.18.54-1.76.14-.5.29-.99.44-1.49.17-.58.33-1.17.5-1.75.14-.5.28-.99.42-1.49.15-.58.32-1.18.47-1.76.13-.49.26-.98.39-1.48.15-.58.31-1.17.45-1.76.12-.49.24-.97.36-1.47.14-.58.29-1.18.42-1.76.12-.49.23-.97.34-1.46.14-.6.28-1.2.41-1.8.1-.46.21-.94.31-1.4.13-.62.25-1.24.39-1.84.09-.45.19-.92.28-1.37.12-.63.24-1.26.36-1.89.09-.43.18-.87.25-1.3.13-.67.25-1.36.36-2.03.08-.39.14-.76.21-1.14.14-.85.29-1.69.42-2.53.03-.21.08-.43.11-.64.17-1.05.33-2.1.49-3.13.04-.32.09-.63.13-.95.11-.73.21-1.46.31-2.18.04-.31.08-.61.12-.9h31.34c30.53,0,58.17,10.29,78.19,26.93,20.01,16.63,32.4,39.6,32.4,64.99,0,50.77-49.52,91.92-110.59,91.92h-28.67c-61.09,0-110.6,41.16-110.6,91.91Z" class="colorccd2d6 svgShape"></path><circle cx="849.56" cy="688.32" r="60.08" fill="#ccd2d6" class="colorccd2d6 svgShape"></circle><path fill="#ccd2d6" d="M136.76 258.83c-12.65 31.85-19.61 66.58-19.61 102.94 0 4.7.12 9.37.35 14.02-23.63-8.08-40.64-30.49-40.64-56.87 0-33.12 26.8-59.98 59.9-60.08zM197.03 318.91c0 18.96-8.78 35.85-22.49 46.86-.03-1.33-.04-2.67-.04-4 0-26.4 4.62-51.73 13.09-75.21 5.98 9.34 9.44 20.45 9.44 32.36z" class="colorccd2d6 svgShape"></path></g><path fill="#ccd2d6" d="m396.19,82.73c-154.1,0-279.03,124.93-279.03,279.03s124.93,279.03,279.03,279.03c39.53,0,77.15-8.22,111.23-23.05,36.22-15.76,68.45-38.99,94.73-67.73,45.39-49.62,73.07-115.7,73.07-188.25,0-154.1-124.93-279.03-279.03-279.03Zm0,500.71c-122.43,0-221.68-99.25-221.68-221.68s99.25-221.68,221.68-221.68,221.68,99.25,221.68,221.68-99.24,221.68-221.68,221.68Z" opacity=".5" class="colorccd2d6 svgShape"></path><path fill="#ccd2d6" d="m396.19,643.8c-75.33,0-146.16-29.34-199.43-82.61-53.27-53.27-82.61-124.09-82.61-199.42s29.34-146.16,82.61-199.43c53.27-53.27,124.09-82.61,199.43-82.61s146.16,29.34,199.42,82.61c53.27,53.27,82.61,124.09,82.61,199.43,0,70.63-26.23,138.2-73.86,190.27-27,29.53-59.22,52.57-95.75,68.46-35.53,15.46-73.36,23.3-112.43,23.3Zm0-558.06c-152.2,0-276.03,123.83-276.03,276.03s123.83,276.03,276.03,276.03c38.24,0,75.26-7.67,110.03-22.8,35.75-15.56,67.28-38.1,93.72-67.01,46.61-50.96,72.28-117.1,72.28-186.22,0-152.2-123.83-276.03-276.03-276.03Zm0,500.71c-60.01,0-116.44-23.37-158.87-65.81-42.44-42.44-65.81-98.86-65.81-158.87s23.37-116.44,65.81-158.87,98.86-65.81,158.87-65.81,116.44,23.37,158.88,65.81c42.43,42.44,65.8,98.86,65.8,158.87s-23.37,116.44-65.8,158.87c-42.44,42.44-98.86,65.81-158.88,65.81Zm0-443.36c-120.58,0-218.68,98.1-218.68,218.68s98.1,218.68,218.68,218.68,218.68-98.1,218.68-218.68-98.1-218.68-218.68-218.68Z" class="colorccd2d6 svgShape"></path><path fill="#ccd2d6" d="m784.93,794.71c27.01,63.44-36.19,115.24-98.32,55.41-49.4-47.55-112.32-164.22-136.06-210.09,5.28-1.07,10.41-3.34,14.99-6.84l34.1-26.16c6.37-4.89,10.69-11.45,12.81-18.59,37.8,37.2,147.92,148.53,172.48,206.27Z" opacity=".75" class="colorccd2d6 svgShape"></path><path fill="#ccd2d6" d="m741.98,879.6c-16.82,0-36.78-7.4-57.46-27.32-49.45-47.6-112.04-163.33-136.65-210.87l-1.83-3.53,3.9-.79c5.01-1.01,9.64-3.13,13.75-6.29l34.1-26.16c5.67-4.35,9.74-10.25,11.76-17.07l1.42-4.79,3.56,3.5c43.95,43.25,148.79,150.01,173.14,207.24h0c13,30.53,6.52,61.53-16.12,77.13-7.83,5.39-17.96,8.93-29.58,8.93Zm-187.03-237.59c25.58,49.16,86.05,160.04,133.74,205.95,32.37,31.17,62.28,29.61,79.47,17.77,16.83-11.6,27.69-37.69,14.01-69.84h0c-23.84-56.06-130.95-164.9-168.51-202.04-2.66,6.11-6.82,11.43-12.2,15.56l-34.1,26.16c-3.79,2.91-7.95,5.06-12.41,6.44Z" class="colorccd2d6 svgShape"></path><path fill="#ccd2d6" d="M612.44 588.44c-2.12 7.13-6.44 13.7-12.81 18.58l-34.11 26.16c-4.57 3.51-9.7 5.79-14.98 6.85-13.34 2.72-27.65-2.11-36.48-13.62l-6.66-8.66c36.22-15.76 68.45-38.99 94.73-67.73l4.27 5.57c7.45 9.72 9.28 21.96 6.02 32.86zM596.46 691.45c-1.01 0-1.99-.51-2.56-1.43-6.39-10.42-12.06-21.4-16.84-32.64-.65-1.52.06-3.29 1.58-3.93 1.52-.65 3.29.06 3.94 1.58 4.67 10.97 10.2 21.69 16.44 31.86.87 1.41.42 3.26-.99 4.13-.49.3-1.03.44-1.57.44zM689.28 813.07c-.82 0-1.65-.34-2.24-1-29.67-33.22-56.48-69.6-82.41-104.79-.98-1.33-.7-3.21.64-4.19 1.33-.98 3.21-.7 4.19.64 25.84 35.08 52.57 71.35 82.05 104.36 1.1 1.24 1 3.13-.24 4.24-.57.51-1.29.76-2 .76zM717.04 845.33c-.74 0-1.49-.27-2.07-.83-6.04-5.75-11.76-11.96-16.99-18.45-1.04-1.29-.84-3.18.45-4.22 1.29-1.04 3.18-.84 4.22.45 5.07 6.29 10.61 12.3 16.46 17.87 1.2 1.14 1.25 3.04.11 4.24-.59.62-1.38.93-2.17.93zM594.07 640.88c-.95 0-1.88-.45-2.46-1.29-.95-1.36-.61-3.23.75-4.18 11.33-7.89 22.03-16.83 31.8-26.58 1.17-1.17 3.07-1.17 4.24 0 1.17 1.17 1.17 3.07 0 4.24-10.02 10-20.99 19.17-32.61 27.26-.52.36-1.12.54-1.71.54z" class="colorccd2d6 svgShape"></path><g><path fill="#ccd2d6" d="m500,300.4v178.07c0,7.67-6.22,13.88-13.88,13.88h-179.84c-7.68,0-13.89-6.22-13.89-13.88v-233.41c0-7.67,6.22-13.88,13.89-13.88h124.5c2.01,0,3.96.43,5.75,1.26,1.5.67,2.87,1.63,4.07,2.81l55.34,55.34c1.93,1.93,3.24,4.38,3.78,7.02.19.92.28,1.85.28,2.8Z" opacity=".5" class="colorccd2d6 svgShape"></path><path fill="#ccd2d6" d="m486.11,495.35h-179.84c-9.32,0-16.89-7.57-16.89-16.88v-233.41c0-9.31,7.58-16.88,16.89-16.88h124.5c2.46,0,4.82.52,7.01,1.53,1.78.8,3.45,1.95,4.91,3.4l55.35,55.35c2.34,2.34,3.93,5.29,4.6,8.53.23,1.08.35,2.23.35,3.4v178.07c0,9.31-7.57,16.88-16.88,16.88Zm-179.84-261.17c-6.01,0-10.89,4.88-10.89,10.88v233.41c0,6,4.89,10.88,10.89,10.88h179.84c6,0,10.88-4.88,10.88-10.88v-178.07c0-.75-.07-1.48-.22-2.18-.43-2.11-1.46-4.01-2.97-5.52l-55.34-55.34c-.94-.93-2.01-1.67-3.17-2.19-1.43-.66-2.94-.99-4.52-.99h-124.5Z" class="colorccd2d6 svgShape"></path><path fill="#ccd2d6" d="M499.71 297.6h-54.42c-4.84 0-8.77-3.92-8.77-8.77v-56.4c1.5.67 2.87 1.63 4.07 2.81l55.34 55.34c1.93 1.93 3.24 4.38 3.78 7.02zM442.05 398.55c2.64 2.64 2.64 6.93 0 9.58l-9.68 9.7c-2.67 2.64-6.96 2.64-9.6 0l-26.62-26.64c-2.64-2.64-6.93-2.64-9.58 0l-26.62 26.62c-2.64 2.64-6.93 2.64-9.58 0l-9.68-9.68c-2.64-2.64-2.64-6.93 0-9.58l26.62-26.62c2.64-2.64 2.64-6.93 0-9.58l-26.64-26.62c-2.64-2.64-2.64-6.93 0-9.6l9.7-9.68c2.64-2.64 6.93-2.64 9.58 0l26.62 26.62c2.67 2.64 6.93 2.64 9.6 0l26.62-26.62c2.64-2.64 6.93-2.64 9.58 0l9.68 9.68c2.64 2.64 2.64 6.93 0 9.58l-26.62 26.62c-2.64 2.67-2.64 6.93 0 9.6l26.62 26.62z" opacity=".75" class="colorccd2d6 svgShape"></path></g><g><path fill="#ccd2d6" d="m109,685.1l57.2-91.12c4.27-6.81,13.95-7.48,19.09-1.3,13.44,16.16,39.32,42.96,71.45,55.01,28.41,10.66,54,12.6,70.01,12.43,8.21-.09,13.99,8.04,11.24,15.78l-34.53,97.3c-1.85,5.2-7.04,8.43-12.53,7.79-31.08-3.62-131.14-19.84-181.13-82.16-3.16-3.94-3.51-9.46-.82-13.74Z" opacity=".5" class="colorccd2d6 svgShape"></path><path fill="#ccd2d6" d="m292.36,784.08c-.58,0-1.17-.03-1.76-.1-30.1-3.5-132.27-19.86-183.13-83.26-3.97-4.95-4.38-11.86-1.02-17.21l57.2-91.12c2.56-4.08,6.78-6.6,11.58-6.92,4.79-.31,9.29,1.61,12.36,5.3,12.55,15.08,38.35,42.17,70.2,54.12,27.78,10.42,52.82,12.41,68.93,12.24,4.84,0,9.39,2.27,12.2,6.2,2.81,3.94,3.53,9.02,1.91,13.58l-34.52,97.3c-2.13,6-7.71,9.87-13.95,9.87Zm-180.82-97.38h0c-2,3.19-1.75,7.31.62,10.27,49.43,61.61,149.61,77.62,179.14,81.05,4.12.48,7.97-1.91,9.36-5.81l34.52-97.3c.98-2.76.57-5.71-1.14-8.09-1.68-2.35-4.28-3.69-7.15-3.69-.03,0-.06,0-.1,0-16.61.16-42.45-1.88-71.1-12.62-33.15-12.43-59.78-40.36-72.71-55.9-1.82-2.19-4.5-3.34-7.34-3.15-2.86.19-5.38,1.69-6.9,4.12l-57.2,91.12Z" class="colorccd2d6 svgShape"></path><path fill="#ccd2d6" d="M155.11 708.5c-.52 0-1.04-.13-1.51-.41-1.43-.84-1.91-2.68-1.07-4.11l42.24-72.09c.84-1.43 2.67-1.91 4.1-1.07 1.43.84 1.91 2.68 1.07 4.11l-42.24 72.09c-.56.95-1.56 1.48-2.59 1.48zM197.35 704.83c-.41 0-.82-.08-1.22-.26-1.51-.67-2.2-2.45-1.52-3.96l20.27-45.63c.67-1.51 2.45-2.2 3.96-1.52 1.51.67 2.2 2.45 1.52 3.96l-20.27 45.63c-.5 1.12-1.59 1.78-2.74 1.78z" class="colorccd2d6 svgShape"></path></g><g><path fill="#ccd2d6" d="m267.66,830.37c-.99-5.18,1.57-10.41,6.29-12.77,14.75-7.36,46.05-25.95,61.41-57.16,8.82-17.93,14.09-29.98,17.23-37.89,2.74-6.89,11.05-9.61,17.31-5.64l87.03,55c4.83,3.05,6.79,9.12,4.65,14.42-7.37,18.24-27.92,58.98-72.01,84.53-41.79,24.22-79.14,31.04-96.88,32.97-6.12.66-11.71-3.5-12.86-9.55l-12.17-63.91Z" opacity=".25" class="colorccd2d6 svgShape"></path><path fill="#ccd2d6" d="m291.45,906.9c-6.99,0-13.22-5.04-14.56-12.05l-12.17-63.91c-1.24-6.49,2.01-13.08,7.89-16.02,13-6.49,44.86-24.92,60.05-55.8,7.49-15.21,13.25-27.89,17.14-37.67,1.64-4.12,4.99-7.27,9.2-8.64,4.2-1.37,8.76-.8,12.5,1.57l87.03,55c6.06,3.83,8.52,11.44,5.83,18.08-6.91,17.09-27.87,59.68-73.29,86.01-41.96,24.32-79.45,31.33-98.06,33.35-.53.06-1.05.08-1.57.08Zm72.15-188.82c-.92,0-1.84.14-2.73.43-2.51.82-4.51,2.69-5.48,5.15-3.94,9.93-9.77,22.75-17.33,38.1-15.42,31.35-45.94,50.12-62.76,58.52-3.49,1.74-5.42,5.66-4.68,9.53l12.17,63.91c.85,4.49,5.07,7.62,9.59,7.13,18.14-1.97,54.69-8.81,95.7-32.58,43.81-25.39,64.06-66.55,70.74-83.06,1.6-3.96.14-8.48-3.47-10.76l-87.03-55c-1.43-.9-3.06-1.37-4.71-1.37Z" class="colorccd2d6 svgShape"></path></g><g><path fill="#ccd2d6" d="m677.16,519.62c-8.41-4.39-10.73-15.34-4.83-22.78,17.21-21.69,47.22-66.07,50.5-115.28,3.28-49.18-3.73-72.15-8.09-81.36-1.09-2.3.7-4.92,3.23-4.69l133.42,11.79c1.42.13,2.6,1.15,2.91,2.54,3.15,14.25,17.88,91.18-13.77,161.64-30.48,67.86-60.46,91.2-67.75,96.13-1,.68-2.28.75-3.35.19l-92.26-48.2Z" opacity=".25" class="colorccd2d6 svgShape"></path><path fill="#ccd2d6" d="m770.61,570.52c-1.6,0-3.21-.38-4.67-1.14l-86.05-44.95c-5.76-3.01-9.87-8.38-11.27-14.72-1.4-6.37.07-13,4.06-18.18,16.28-21.18,44.06-63.67,47.16-110.16,2.71-40.71-1.63-63.15-5.75-74.81-1.15-3.27-.58-6.85,1.55-9.59,2.12-2.74,5.46-4.19,8.91-3.89l124.26,10.98c4.51.4,8.14,3.64,9.04,8.07,4.2,20.7,15.58,93.44-14.58,160.59-28.15,62.66-55.92,87.86-66.55,95.78-1.79,1.33-3.94,2.01-6.1,2.01Zm-46.98-271.48c-1.28,0-2.45.57-3.25,1.6-.88,1.13-1.11,2.56-.63,3.91,4.31,12.19,8.86,35.49,6.08,77.21-3.2,48.07-31.69,91.69-48.39,113.41-2.9,3.77-3.98,8.6-2.96,13.23,1.02,4.61,4,8.51,8.19,10.7l86.05,44.95c1.42.74,3.11.6,4.41-.37,10.26-7.64,37.09-32.05,64.66-93.43,29.42-65.51,18.29-136.68,14.17-156.94-.37-1.8-1.85-3.13-3.69-3.29l-124.26-10.98c-.13-.01-.26-.02-.39-.02Z" class="colorccd2d6 svgShape"></path><path fill="#ccd2d6" d="M827.24 342.44c-.1 0-.2 0-.3-.02l-89.54-9.01c-1.65-.17-2.85-1.64-2.68-3.29.17-1.65 1.63-2.85 3.29-2.68l89.54 9.01c1.65.17 2.85 1.64 2.68 3.29-.16 1.55-1.46 2.7-2.98 2.7zM791.34 373.41c-.19 0-.37-.02-.56-.05l-45.76-8.64c-1.63-.31-2.7-1.88-2.39-3.5s1.88-2.7 3.5-2.39l45.76 8.64c1.63.31 2.7 1.88 2.39 3.5-.27 1.44-1.53 2.44-2.94 2.44zM785 459.01c-.3 0-.6-.04-.89-.14l-52.37-16.33c-1.58-.49-2.46-2.18-1.97-3.76.49-1.58 2.18-2.46 3.76-1.97l52.37 16.33c1.58.49 2.46 2.18 1.97 3.76-.4 1.28-1.58 2.11-2.86 2.11z" class="colorccd2d6 svgShape"></path></g><g><path fill="#ccd2d6" d="m169.15,591.42c1.99-1.6,4.46-2.47,7.09-2.47s5.07.87,7.06,2.47h-14.14Z" class="colorccd2d6 svgShape"></path><path fill="#ccd2d6" d="m176.24,589.44h0c1.95,0,3.82.51,5.46,1.47h-10.94c1.64-.96,3.52-1.47,5.49-1.47m0-1c-3.06,0-6.11,1.18-8.39,3.47h16.74c-2.31-2.33-5.34-3.47-8.36-3.47h0Z" class="colorccd2d6 svgShape"></path></g></svg>