<svg viewBox="0 0 34 34" fill="none" xmlns="http://www.w3.org/2000/svg">
<path d="M30.68 14.7892L29.2917 20.7109C28.1017 25.8251 25.75 27.8934 21.33 27.4684C20.6217 27.4117 19.8567 27.2842 19.035 27.0859L16.655 26.5192C10.7475 25.1167 8.92005 22.1984 10.3084 16.2767L11.6967 10.3409C11.98 9.13674 12.32 8.08841 12.745 7.22424C14.4025 3.7959 17.2217 2.87507 21.9534 3.99424L24.3192 4.54674C30.255 5.93507 32.0684 8.86757 30.68 14.7892Z" stroke="#00C6E1" stroke-width="2.125" stroke-linecap="round" stroke-linejoin="round"/>
<path d="M21.334 27.4707C20.4557 28.0657 19.3507 28.5616 18.0049 29.0007L15.7665 29.7374C10.1424 31.5507 7.18152 30.0349 5.35402 24.4107L3.54069 18.8149C1.72735 13.1907 3.22902 10.2157 8.85318 8.4024L11.0915 7.66573C11.6724 7.48156 12.2249 7.32573 12.749 7.22656C12.324 8.09073 11.984 9.13906 11.7007 10.3432L10.3124 16.2791C8.92402 22.2007 10.7515 25.1191 16.659 26.5216L19.039 27.0882C19.8607 27.2866 20.6257 27.4141 21.334 27.4707Z" stroke="#00C6E1" stroke-width="2.125" stroke-linecap="round" stroke-linejoin="round"/>
</svg>
