<svg  viewBox="0 0 34 34" fill="none" xmlns="http://www.w3.org/2000/svg">
<path d="M12.9776 15.3979C12.8359 15.3837 12.6659 15.3837 12.5101 15.3979C9.13844 15.2845 6.46094 12.522 6.46094 9.12203C6.46094 5.6512 9.26594 2.83203 12.7509 2.83203C16.2218 2.83203 19.0409 5.6512 19.0409 9.12203C19.0268 12.522 16.3493 15.2845 12.9776 15.3979Z" stroke="#FFCA05" stroke-width="2.125" stroke-linecap="round" stroke-linejoin="round"/>
<path d="M23.2467 5.66797C25.995 5.66797 28.205 7.89214 28.205 10.6263C28.205 13.3038 26.08 15.4855 23.4308 15.5846C23.3175 15.5705 23.19 15.5705 23.0625 15.5846" stroke="#FFCA05" stroke-width="2.125" stroke-linecap="round" stroke-linejoin="round"/>
<path d="M5.89156 20.628C2.46323 22.923 2.46323 26.663 5.89156 28.9438C9.7874 31.5505 16.1766 31.5505 20.0724 28.9438C23.5007 26.6488 23.5007 22.9088 20.0724 20.628C16.1907 18.0355 9.80156 18.0355 5.89156 20.628Z" stroke="#FFCA05" stroke-width="2.125" stroke-linecap="round" stroke-linejoin="round"/>
<path d="M25.9844 28.332C27.0044 28.1195 27.9677 27.7087 28.761 27.0995C30.971 25.442 30.971 22.7079 28.761 21.0504C27.9819 20.4554 27.0327 20.0587 26.0269 19.832" stroke="#FFCA05" stroke-width="2.125" stroke-linecap="round" stroke-linejoin="round"/>
</svg>
