<svg  viewBox="0 0 34 34" fill="none" xmlns="http://www.w3.org/2000/svg">
<path d="M9.53677 27.907C10.6984 26.6604 12.4693 26.7595 13.4893 28.1195L14.9201 30.032C16.0676 31.5479 17.9234 31.5479 19.0709 30.032L20.5018 28.1195C21.5218 26.7595 23.2926 26.6604 24.4543 27.907C26.9759 30.5987 29.0301 29.7062 29.0301 25.9379V9.97203C29.0443 4.26286 27.7126 2.83203 22.3576 2.83203H11.6476C6.2926 2.83203 4.96094 4.26286 4.96094 9.97203V25.9237C4.96094 29.7062 7.02927 30.5845 9.53677 27.907Z" stroke="#A241EE" stroke-width="2.125" stroke-linecap="round" stroke-linejoin="round"/>
<path d="M11.4662 15.5833H11.4789" stroke="#A241EE" stroke-width="2.83333" stroke-linecap="round" stroke-linejoin="round"/>
<path d="M15.4375 15.582H23.2292" stroke="#A241EE" stroke-width="2.125" stroke-linecap="round" stroke-linejoin="round"/>
<path d="M11.4662 9.91536H11.4789" stroke="#A241EE" stroke-width="2.83333" stroke-linecap="round" stroke-linejoin="round"/>
<path d="M15.4375 9.91797H23.2292" stroke="#A241EE" stroke-width="2.125" stroke-linecap="round" stroke-linejoin="round"/>
</svg>
