<svg  viewBox="0 0 34 34" fill="none" xmlns="http://www.w3.org/2000/svg">
<g id="vuesax/linear/wallet">
<path id="Vector" d="M31.1693 16.9993V24.0827C31.1693 28.3327 28.3359 31.166 24.0859 31.166H9.91927C5.66927 31.166 2.83594 28.3327 2.83594 24.0827V16.9993C2.83594 13.146 5.15927 10.4543 8.77177 10.001C9.1401 9.94435 9.5226 9.91602 9.91927 9.91602H24.0859C24.4543 9.91602 24.8084 9.93016 25.1484 9.98683C28.8034 10.4118 31.1693 13.1177 31.1693 16.9993Z" stroke="#01D556" stroke-width="2.125" stroke-linecap="round" stroke-linejoin="round"/>
<path id="Vector_2" d="M25.1501 9.98815C24.8101 9.93148 24.4559 9.91733 24.0876 9.91733H9.92094C9.52427 9.91733 9.14177 9.94566 8.77344 10.0023C8.97177 9.60566 9.2551 9.23733 9.5951 8.89733L14.1993 4.27898C16.1401 2.35232 19.2851 2.35232 21.2259 4.27898L23.7051 6.78651C24.6118 7.67901 25.0934 8.81232 25.1501 9.98815Z" stroke="#01D556" stroke-width="2.125" stroke-linecap="round" stroke-linejoin="round"/>
<path id="Vector_3" d="M31.1693 17.709H26.9193C25.3609 17.709 24.0859 18.984 24.0859 20.5423C24.0859 22.1007 25.3609 23.3757 26.9193 23.3757H31.1693" stroke="#01D556" stroke-width="2.125" stroke-linecap="round" stroke-linejoin="round"/>
</g>
</svg>
